<svg xmlns="http://www.w3.org/2000/svg" version="1.1"
  xmlns:xlink="http://www.w3.org/1999/xlink"
  xmlns:svgjs="http://svgjs.dev/svgjs" viewBox="0 0 800 800" opacity="0.2" width="800" height="800">
  <g stroke-width="7.75" stroke="#ff3d00ff" fill="none">
    <circle r="9.657894736842106" cx="0" cy="0" fill="#ff3d00ff" stroke="none"></circle>
    <circle r="9.657894736842106" cx="200" cy="0" fill="#ff3d00ff" stroke="none"></circle>
    <circle r="9.657894736842106" cx="400" cy="0" fill="#ff3d00ff" stroke="none"></circle>
    <circle r="9.657894736842106" cx="600" cy="0" fill="#ff3d00ff" stroke="none"></circle>
    <circle r="9.657894736842106" cx="800" cy="0" fill="#ff3d00ff" stroke="none"></circle>
    <circle r="9.657894736842106" cx="0" cy="200" fill="#ff3d00ff" stroke="none"></circle>
    <circle r="9.657894736842106" cx="200" cy="200" fill="#ff3d00ff" stroke="none"></circle>
    <circle r="9.657894736842106" cx="400" cy="200" fill="#ff3d00ff" stroke="none"></circle>
    <circle r="9.657894736842106" cx="600" cy="200" fill="#ff3d00ff" stroke="none"></circle>
    <circle r="9.657894736842106" cx="800" cy="200" fill="#ff3d00ff" stroke="none"></circle>
    <circle r="9.657894736842106" cx="0" cy="400" fill="#ff3d00ff" stroke="none"></circle>
    <circle r="9.657894736842106" cx="200" cy="400" fill="#ff3d00ff" stroke="none"></circle>
    <circle r="9.657894736842106" cx="400" cy="400" fill="#ff3d00ff" stroke="none"></circle>
    <circle r="9.657894736842106" cx="600" cy="400" fill="#ff3d00ff" stroke="none"></circle>
    <circle r="9.657894736842106" cx="800" cy="400" fill="#ff3d00ff" stroke="none"></circle>
    <circle r="9.657894736842106" cx="0" cy="600" fill="#ff3d00ff" stroke="none"></circle>
    <circle r="9.657894736842106" cx="200" cy="600" fill="#ff3d00ff" stroke="none"></circle>
    <circle r="9.657894736842106" cx="400" cy="600" fill="#ff3d00ff" stroke="none"></circle>
    <circle r="9.657894736842106" cx="600" cy="600" fill="#ff3d00ff" stroke="none"></circle>
    <circle r="9.657894736842106" cx="800" cy="600" fill="#ff3d00ff" stroke="none"></circle>
    <circle r="9.657894736842106" cx="0" cy="800" fill="#ff3d00ff" stroke="none"></circle>
    <circle r="9.657894736842106" cx="200" cy="800" fill="#ff3d00ff" stroke="none"></circle>
    <circle r="9.657894736842106" cx="400" cy="800" fill="#ff3d00ff" stroke="none"></circle>
    <circle r="9.657894736842106" cx="600" cy="800" fill="#ff3d00ff" stroke="none"></circle>
    <circle r="9.657894736842106" cx="800" cy="800" fill="#ff3d00ff" stroke="none"></circle>
  </g>
</svg>