<svg 
 xmlns="http://www.w3.org/2000/svg"
 xmlns:xlink="http://www.w3.org/1999/xlink"
 width="65px" height="64px">
<path fill-rule="evenodd"  fill="rgb(224, 247, 255)"
 d="M14.310,63.1000 C14.310,56.459 8.196,50.345 0.655,50.345 C0.656,56.002 0.655,63.1000 0.655,63.1000 C0.655,63.1000 7.906,63.1000 14.310,63.1000 Z"/>
<path fill-rule="evenodd"  fill="rgb(224, 247, 255)"
 d="M33.000,20.000 C40.180,20.000 45.1000,25.820 45.1000,33.000 C45.1000,40.180 40.180,45.1000 33.000,45.1000 C25.820,45.1000 20.000,40.180 20.000,33.000 C20.000,25.820 25.820,20.000 33.000,20.000 Z"/>
<path fill-rule="evenodd"  fill="rgb(224, 247, 255)"
 d="M14.310,0.344 C14.310,7.885 8.196,13.999 0.655,13.999 C0.656,8.342 0.655,0.344 0.655,0.344 C0.655,0.344 7.906,0.344 14.310,0.344 Z"/>
<path fill-rule="evenodd"  fill="rgb(224, 247, 255)"
 d="M50.659,63.1000 C50.659,56.459 56.772,50.345 64.314,50.345 C64.312,56.002 64.314,63.1000 64.314,63.1000 C64.314,63.1000 57.063,63.1000 50.659,63.1000 Z"/>
<path fill-rule="evenodd"  fill="rgb(224, 247, 255)"
 d="M50.659,0.344 C50.659,7.885 56.772,13.999 64.314,13.999 C64.312,8.342 64.314,0.344 64.314,0.344 C64.314,0.344 57.063,0.344 50.659,0.344 Z"/>
</svg>