<svg xmlns="http://www.w3.org/2000/svg" version="1.1" xmlns:xlink="http://www.w3.org/1999/xlink" xmlns:svgjs="http://svgjs.dev/svgjs" viewBox="0 0 800 800" width="800" height="800"><g stroke-width="9.5" stroke="#ff4111ff" fill="none"><circle r="11.868421052631579" cx="0" cy="0" fill="#ff4111ff" stroke="none"></circle><circle r="11.868421052631579" cx="88.88888888888889" cy="0" fill="#ff4111ff" stroke="none"></circle><circle r="11.868421052631579" cx="177.77777777777777" cy="0" fill="#ff4111ff" stroke="none"></circle><circle r="11.868421052631579" cx="266.66666666666663" cy="0" fill="#ff4111ff" stroke="none"></circle><circle r="11.868421052631579" cx="355.55555555555554" cy="0" fill="#ff4111ff" stroke="none"></circle><circle r="11.868421052631579" cx="444.44444444444446" cy="0" fill="#ff4111ff" stroke="none"></circle><circle r="11.868421052631579" cx="533.3333333333334" cy="0" fill="#ff4111ff" stroke="none"></circle><circle r="11.868421052631579" cx="622.2222222222223" cy="0" fill="#ff4111ff" stroke="none"></circle><circle r="11.868421052631579" cx="711.1111111111112" cy="0" fill="#ff4111ff" stroke="none"></circle><circle r="11.868421052631579" cx="800.0000000000001" cy="0" fill="#ff4111ff" stroke="none"></circle><circle r="11.868421052631579" cx="0" cy="88.88888888888889" fill="#ff4111ff" stroke="none"></circle><circle r="11.868421052631579" cx="88.88888888888889" cy="88.88888888888889" fill="#ff4111ff" stroke="none"></circle><circle r="11.868421052631579" cx="177.77777777777777" cy="88.88888888888889" fill="#ff4111ff" stroke="none"></circle><circle r="11.868421052631579" cx="266.66666666666663" cy="88.88888888888889" fill="#ff4111ff" stroke="none"></circle><circle r="11.868421052631579" cx="355.55555555555554" cy="88.88888888888889" fill="#ff4111ff" stroke="none"></circle><circle r="11.868421052631579" cx="444.44444444444446" cy="88.88888888888889" fill="#ff4111ff" stroke="none"></circle><circle r="11.868421052631579" cx="533.3333333333334" cy="88.88888888888889" fill="#ff4111ff" stroke="none"></circle><circle r="11.868421052631579" cx="622.2222222222223" cy="88.88888888888889" fill="#ff4111ff" stroke="none"></circle><circle r="11.868421052631579" cx="711.1111111111112" cy="88.88888888888889" fill="#ff4111ff" stroke="none"></circle><circle r="11.868421052631579" cx="800.0000000000001" cy="88.88888888888889" fill="#ff4111ff" stroke="none"></circle><circle r="11.868421052631579" cx="0" cy="177.77777777777777" fill="#ff4111ff" stroke="none"></circle><circle r="11.868421052631579" cx="88.88888888888889" cy="177.77777777777777" fill="#ff4111ff" stroke="none"></circle><circle r="11.868421052631579" cx="177.77777777777777" cy="177.77777777777777" fill="#ff4111ff" stroke="none"></circle><circle r="11.868421052631579" cx="266.66666666666663" cy="177.77777777777777" fill="#ff4111ff" stroke="none"></circle><circle r="11.868421052631579" cx="355.55555555555554" cy="177.77777777777777" fill="#ff4111ff" stroke="none"></circle><circle r="11.868421052631579" cx="444.44444444444446" cy="177.77777777777777" fill="#ff4111ff" stroke="none"></circle><circle r="11.868421052631579" cx="533.3333333333334" cy="177.77777777777777" fill="#ff4111ff" stroke="none"></circle><circle r="11.868421052631579" cx="622.2222222222223" cy="177.77777777777777" fill="#ff4111ff" stroke="none"></circle><circle r="11.868421052631579" cx="711.1111111111112" cy="177.77777777777777" fill="#ff4111ff" stroke="none"></circle><circle r="11.868421052631579" cx="800.0000000000001" cy="177.77777777777777" fill="#ff4111ff" stroke="none"></circle><circle r="11.868421052631579" cx="0" cy="266.66666666666663" fill="#ff4111ff" stroke="none"></circle><circle r="11.868421052631579" cx="88.88888888888889" cy="266.66666666666663" fill="#ff4111ff" stroke="none"></circle><circle r="11.868421052631579" cx="177.77777777777777" cy="266.66666666666663" fill="#ff4111ff" stroke="none"></circle><circle r="11.868421052631579" cx="266.66666666666663" cy="266.66666666666663" fill="#ff4111ff" stroke="none"></circle><circle r="11.868421052631579" cx="355.55555555555554" cy="266.66666666666663" fill="#ff4111ff" stroke="none"></circle><circle r="11.868421052631579" cx="444.44444444444446" cy="266.66666666666663" fill="#ff4111ff" stroke="none"></circle><circle r="11.868421052631579" cx="533.3333333333334" cy="266.66666666666663" fill="#ff4111ff" stroke="none"></circle><circle r="11.868421052631579" cx="622.2222222222223" cy="266.66666666666663" fill="#ff4111ff" stroke="none"></circle><circle r="11.868421052631579" cx="711.1111111111112" cy="266.66666666666663" fill="#ff4111ff" stroke="none"></circle><circle r="11.868421052631579" cx="800.0000000000001" cy="266.66666666666663" fill="#ff4111ff" stroke="none"></circle><circle r="11.868421052631579" cx="0" cy="355.55555555555554" fill="#ff4111ff" stroke="none"></circle><circle r="11.868421052631579" cx="88.88888888888889" cy="355.55555555555554" fill="#ff4111ff" stroke="none"></circle><circle r="11.868421052631579" cx="177.77777777777777" cy="355.55555555555554" fill="#ff4111ff" stroke="none"></circle><circle r="11.868421052631579" cx="266.66666666666663" cy="355.55555555555554" fill="#ff4111ff" stroke="none"></circle><circle r="11.868421052631579" cx="355.55555555555554" cy="355.55555555555554" fill="#ff4111ff" stroke="none"></circle><circle r="11.868421052631579" cx="444.44444444444446" cy="355.55555555555554" fill="#ff4111ff" stroke="none"></circle><circle r="11.868421052631579" cx="533.3333333333334" cy="355.55555555555554" fill="#ff4111ff" stroke="none"></circle><circle r="11.868421052631579" cx="622.2222222222223" cy="355.55555555555554" fill="#ff4111ff" stroke="none"></circle><circle r="11.868421052631579" cx="711.1111111111112" cy="355.55555555555554" fill="#ff4111ff" stroke="none"></circle><circle r="11.868421052631579" cx="800.0000000000001" cy="355.55555555555554" fill="#ff4111ff" stroke="none"></circle><circle r="11.868421052631579" cx="0" cy="444.44444444444446" fill="#ff4111ff" stroke="none"></circle><circle r="11.868421052631579" cx="88.88888888888889" cy="444.44444444444446" fill="#ff4111ff" stroke="none"></circle><circle r="11.868421052631579" cx="177.77777777777777" cy="444.44444444444446" fill="#ff4111ff" stroke="none"></circle><circle r="11.868421052631579" cx="266.66666666666663" cy="444.44444444444446" fill="#ff4111ff" stroke="none"></circle><circle r="11.868421052631579" cx="355.55555555555554" cy="444.44444444444446" fill="#ff4111ff" stroke="none"></circle><circle r="11.868421052631579" cx="444.44444444444446" cy="444.44444444444446" fill="#ff4111ff" stroke="none"></circle><circle r="11.868421052631579" cx="533.3333333333334" cy="444.44444444444446" fill="#ff4111ff" stroke="none"></circle><circle r="11.868421052631579" cx="622.2222222222223" cy="444.44444444444446" fill="#ff4111ff" stroke="none"></circle><circle r="11.868421052631579" cx="711.1111111111112" cy="444.44444444444446" fill="#ff4111ff" stroke="none"></circle><circle r="11.868421052631579" cx="800.0000000000001" cy="444.44444444444446" fill="#ff4111ff" stroke="none"></circle><circle r="11.868421052631579" cx="0" cy="533.3333333333334" fill="#ff4111ff" stroke="none"></circle><circle r="11.868421052631579" cx="88.88888888888889" cy="533.3333333333334" fill="#ff4111ff" stroke="none"></circle><circle r="11.868421052631579" cx="177.77777777777777" cy="533.3333333333334" fill="#ff4111ff" stroke="none"></circle><circle r="11.868421052631579" cx="266.66666666666663" cy="533.3333333333334" fill="#ff4111ff" stroke="none"></circle><circle r="11.868421052631579" cx="355.55555555555554" cy="533.3333333333334" fill="#ff4111ff" stroke="none"></circle><circle r="11.868421052631579" cx="444.44444444444446" cy="533.3333333333334" fill="#ff4111ff" stroke="none"></circle><circle r="11.868421052631579" cx="533.3333333333334" cy="533.3333333333334" fill="#ff4111ff" stroke="none"></circle><circle r="11.868421052631579" cx="622.2222222222223" cy="533.3333333333334" fill="#ff4111ff" stroke="none"></circle><circle r="11.868421052631579" cx="711.1111111111112" cy="533.3333333333334" fill="#ff4111ff" stroke="none"></circle><circle r="11.868421052631579" cx="800.0000000000001" cy="533.3333333333334" fill="#ff4111ff" stroke="none"></circle><circle r="11.868421052631579" cx="0" cy="622.2222222222223" fill="#ff4111ff" stroke="none"></circle><circle r="11.868421052631579" cx="88.88888888888889" cy="622.2222222222223" fill="#ff4111ff" stroke="none"></circle><circle r="11.868421052631579" cx="177.77777777777777" cy="622.2222222222223" fill="#ff4111ff" stroke="none"></circle><circle r="11.868421052631579" cx="266.66666666666663" cy="622.2222222222223" fill="#ff4111ff" stroke="none"></circle><circle r="11.868421052631579" cx="355.55555555555554" cy="622.2222222222223" fill="#ff4111ff" stroke="none"></circle><circle r="11.868421052631579" cx="444.44444444444446" cy="622.2222222222223" fill="#ff4111ff" stroke="none"></circle><circle r="11.868421052631579" cx="533.3333333333334" cy="622.2222222222223" fill="#ff4111ff" stroke="none"></circle><circle r="11.868421052631579" cx="622.2222222222223" cy="622.2222222222223" fill="#ff4111ff" stroke="none"></circle><circle r="11.868421052631579" cx="711.1111111111112" cy="622.2222222222223" fill="#ff4111ff" stroke="none"></circle><circle r="11.868421052631579" cx="800.0000000000001" cy="622.2222222222223" fill="#ff4111ff" stroke="none"></circle><circle r="11.868421052631579" cx="0" cy="711.1111111111112" fill="#ff4111ff" stroke="none"></circle><circle r="11.868421052631579" cx="88.88888888888889" cy="711.1111111111112" fill="#ff4111ff" stroke="none"></circle><circle r="11.868421052631579" cx="177.77777777777777" cy="711.1111111111112" fill="#ff4111ff" stroke="none"></circle><circle r="11.868421052631579" cx="266.66666666666663" cy="711.1111111111112" fill="#ff4111ff" stroke="none"></circle><circle r="11.868421052631579" cx="355.55555555555554" cy="711.1111111111112" fill="#ff4111ff" stroke="none"></circle><circle r="11.868421052631579" cx="444.44444444444446" cy="711.1111111111112" fill="#ff4111ff" stroke="none"></circle><circle r="11.868421052631579" cx="533.3333333333334" cy="711.1111111111112" fill="#ff4111ff" stroke="none"></circle><circle r="11.868421052631579" cx="622.2222222222223" cy="711.1111111111112" fill="#ff4111ff" stroke="none"></circle><circle r="11.868421052631579" cx="711.1111111111112" cy="711.1111111111112" fill="#ff4111ff" stroke="none"></circle><circle r="11.868421052631579" cx="800.0000000000001" cy="711.1111111111112" fill="#ff4111ff" stroke="none"></circle><circle r="11.868421052631579" cx="0" cy="800.0000000000001" fill="#ff4111ff" stroke="none"></circle><circle r="11.868421052631579" cx="88.88888888888889" cy="800.0000000000001" fill="#ff4111ff" stroke="none"></circle><circle r="11.868421052631579" cx="177.77777777777777" cy="800.0000000000001" fill="#ff4111ff" stroke="none"></circle><circle r="11.868421052631579" cx="266.66666666666663" cy="800.0000000000001" fill="#ff4111ff" stroke="none"></circle><circle r="11.868421052631579" cx="355.55555555555554" cy="800.0000000000001" fill="#ff4111ff" stroke="none"></circle><circle r="11.868421052631579" cx="444.44444444444446" cy="800.0000000000001" fill="#ff4111ff" stroke="none"></circle><circle r="11.868421052631579" cx="533.3333333333334" cy="800.0000000000001" fill="#ff4111ff" stroke="none"></circle><circle r="11.868421052631579" cx="622.2222222222223" cy="800.0000000000001" fill="#ff4111ff" stroke="none"></circle><circle r="11.868421052631579" cx="711.1111111111112" cy="800.0000000000001" fill="#ff4111ff" stroke="none"></circle><circle r="11.868421052631579" cx="800.0000000000001" cy="800.0000000000001" fill="#ff4111ff" stroke="none"></circle></g></svg>