<!-- <svg xmlns="http://www.w3.org/2000/svg" xmlns:xlink="http://www.w3.org/1999/xlink" width="300px" height="300px">
<path fill-rule="evenodd" fill="rgb(255, 174, 11)" d="M275.1000,300.000 L261.000,300.000 L261.000,293.1000 L293.1000,293.1000 L293.1000,261.000 L300.000,261.000 L300.000,275.1000 L300.000,300.000 L275.1000,300.000 ZM293.1000,6.000 L261.000,6.000 L261.000,-0.000 L275.1000,-0.000 L300.000,-0.000 L300.000,24.000 L300.000,38.1000 L293.1000,38.1000 L293.1000,6.000 ZM-0.000,300.000 L-0.000,275.1000 L-0.000,261.000 L6.000,261.000 L6.000,293.1000 L38.1000,293.1000 L38.1000,300.000 L24.000,300.000 L-0.000,300.000 ZM6.000,38.1000 L-0.000,38.1000 L-0.000,24.000 L-0.000,-0.000 L24.000,-0.000 L38.1000,-0.000 L38.1000,6.000 L6.000,6.000 L6.000,38.1000 Z"/>
</svg> -->

<svg xmlns="http://www.w3.org/2000/svg" version="1.1"
  xmlns:xlink="http://www.w3.org/1999/xlink"
  xmlns:svgjs="http://svgjs.dev/svgjs" viewBox="0 0 800 800" width="800" height="800">
  <g stroke-width="50" stroke="#ff4e18" fill="none">
    <line x1="400" y1="0" x2="0" y2="400"></line>
    <line x1="800" y1="0" x2="400" y2="400"></line>
    <line x1="1200" y1="0" x2="800" y2="400"></line>
    <line x1="400" y1="400" x2="0" y2="800"></line>
    <line x1="800" y1="400" x2="400" y2="800"></line>
    <line x1="1200" y1="400" x2="800" y2="800"></line>
    <line x1="400" y1="800" x2="0" y2="1200"></line>
    <line x1="800" y1="800" x2="400" y2="1200"></line>
    <line x1="1200" y1="800" x2="800" y2="1200"></line>
  </g>
</svg>