<svg xmlns="http://www.w3.org/2000/svg" version="1.1" xmlns:xlink="http://www.w3.org/1999/xlink" xmlns:svgjs="http://svgjs.dev/svgjs" viewBox="0 0 800 800" width="800" height="800"><g stroke-width="1" stroke="#ff3d00ff" fill="none"><rect width="100" height="2.263157894736842" x="-50" y="-1.131578947368421" stroke="none" fill="#ff3d00ff" rx="1.131578947368421"></rect><rect width="2.263157894736842" height="100" x="-1.131578947368421" y="-50" stroke="none" fill="#ff3d00ff" rx="1.131578947368421"></rect><rect width="100" height="2.263157894736842" x="150" y="-1.131578947368421" stroke="none" fill="#ff3d00ff" rx="1.131578947368421"></rect><rect width="2.263157894736842" height="100" x="198.8684210526316" y="-50" stroke="none" fill="#ff3d00ff" rx="1.131578947368421"></rect><rect width="100" height="2.263157894736842" x="350" y="-1.131578947368421" stroke="none" fill="#ff3d00ff" rx="1.131578947368421"></rect><rect width="2.263157894736842" height="100" x="398.86842105263156" y="-50" stroke="none" fill="#ff3d00ff" rx="1.131578947368421"></rect><rect width="100" height="2.263157894736842" x="550" y="-1.131578947368421" stroke="none" fill="#ff3d00ff" rx="1.131578947368421"></rect><rect width="2.263157894736842" height="100" x="598.8684210526316" y="-50" stroke="none" fill="#ff3d00ff" rx="1.131578947368421"></rect><rect width="100" height="2.263157894736842" x="750" y="-1.131578947368421" stroke="none" fill="#ff3d00ff" rx="1.131578947368421"></rect><rect width="2.263157894736842" height="100" x="798.8684210526316" y="-50" stroke="none" fill="#ff3d00ff" rx="1.131578947368421"></rect><rect width="100" height="2.263157894736842" x="-50" y="198.8684210526316" stroke="none" fill="#ff3d00ff" rx="1.131578947368421"></rect><rect width="2.263157894736842" height="100" x="-1.131578947368421" y="150" stroke="none" fill="#ff3d00ff" rx="1.131578947368421"></rect><rect width="100" height="2.263157894736842" x="150" y="198.8684210526316" stroke="none" fill="#ff3d00ff" rx="1.131578947368421"></rect><rect width="2.263157894736842" height="100" x="198.8684210526316" y="150" stroke="none" fill="#ff3d00ff" rx="1.131578947368421"></rect><rect width="100" height="2.263157894736842" x="350" y="198.8684210526316" stroke="none" fill="#ff3d00ff" rx="1.131578947368421"></rect><rect width="2.263157894736842" height="100" x="398.86842105263156" y="150" stroke="none" fill="#ff3d00ff" rx="1.131578947368421"></rect><rect width="100" height="2.263157894736842" x="550" y="198.8684210526316" stroke="none" fill="#ff3d00ff" rx="1.131578947368421"></rect><rect width="2.263157894736842" height="100" x="598.8684210526316" y="150" stroke="none" fill="#ff3d00ff" rx="1.131578947368421"></rect><rect width="100" height="2.263157894736842" x="750" y="198.8684210526316" stroke="none" fill="#ff3d00ff" rx="1.131578947368421"></rect><rect width="2.263157894736842" height="100" x="798.8684210526316" y="150" stroke="none" fill="#ff3d00ff" rx="1.131578947368421"></rect><rect width="100" height="2.263157894736842" x="-50" y="398.86842105263156" stroke="none" fill="#ff3d00ff" rx="1.131578947368421"></rect><rect width="2.263157894736842" height="100" x="-1.131578947368421" y="350" stroke="none" fill="#ff3d00ff" rx="1.131578947368421"></rect><rect width="100" height="2.263157894736842" x="150" y="398.86842105263156" stroke="none" fill="#ff3d00ff" rx="1.131578947368421"></rect><rect width="2.263157894736842" height="100" x="198.8684210526316" y="350" stroke="none" fill="#ff3d00ff" rx="1.131578947368421"></rect><rect width="100" height="2.263157894736842" x="350" y="398.86842105263156" stroke="none" fill="#ff3d00ff" rx="1.131578947368421"></rect><rect width="2.263157894736842" height="100" x="398.86842105263156" y="350" stroke="none" fill="#ff3d00ff" rx="1.131578947368421"></rect><rect width="100" height="2.263157894736842" x="550" y="398.86842105263156" stroke="none" fill="#ff3d00ff" rx="1.131578947368421"></rect><rect width="2.263157894736842" height="100" x="598.8684210526316" y="350" stroke="none" fill="#ff3d00ff" rx="1.131578947368421"></rect><rect width="100" height="2.263157894736842" x="750" y="398.86842105263156" stroke="none" fill="#ff3d00ff" rx="1.131578947368421"></rect><rect width="2.263157894736842" height="100" x="798.8684210526316" y="350" stroke="none" fill="#ff3d00ff" rx="1.131578947368421"></rect><rect width="100" height="2.263157894736842" x="-50" y="598.8684210526316" stroke="none" fill="#ff3d00ff" rx="1.131578947368421"></rect><rect width="2.263157894736842" height="100" x="-1.131578947368421" y="550" stroke="none" fill="#ff3d00ff" rx="1.131578947368421"></rect><rect width="100" height="2.263157894736842" x="150" y="598.8684210526316" stroke="none" fill="#ff3d00ff" rx="1.131578947368421"></rect><rect width="2.263157894736842" height="100" x="198.8684210526316" y="550" stroke="none" fill="#ff3d00ff" rx="1.131578947368421"></rect><rect width="100" height="2.263157894736842" x="350" y="598.8684210526316" stroke="none" fill="#ff3d00ff" rx="1.131578947368421"></rect><rect width="2.263157894736842" height="100" x="398.86842105263156" y="550" stroke="none" fill="#ff3d00ff" rx="1.131578947368421"></rect><rect width="100" height="2.263157894736842" x="550" y="598.8684210526316" stroke="none" fill="#ff3d00ff" rx="1.131578947368421"></rect><rect width="2.263157894736842" height="100" x="598.8684210526316" y="550" stroke="none" fill="#ff3d00ff" rx="1.131578947368421"></rect><rect width="100" height="2.263157894736842" x="750" y="598.8684210526316" stroke="none" fill="#ff3d00ff" rx="1.131578947368421"></rect><rect width="2.263157894736842" height="100" x="798.8684210526316" y="550" stroke="none" fill="#ff3d00ff" rx="1.131578947368421"></rect><rect width="100" height="2.263157894736842" x="-50" y="798.8684210526316" stroke="none" fill="#ff3d00ff" rx="1.131578947368421"></rect><rect width="2.263157894736842" height="100" x="-1.131578947368421" y="750" stroke="none" fill="#ff3d00ff" rx="1.131578947368421"></rect><rect width="100" height="2.263157894736842" x="150" y="798.8684210526316" stroke="none" fill="#ff3d00ff" rx="1.131578947368421"></rect><rect width="2.263157894736842" height="100" x="198.8684210526316" y="750" stroke="none" fill="#ff3d00ff" rx="1.131578947368421"></rect><rect width="100" height="2.263157894736842" x="350" y="798.8684210526316" stroke="none" fill="#ff3d00ff" rx="1.131578947368421"></rect><rect width="2.263157894736842" height="100" x="398.86842105263156" y="750" stroke="none" fill="#ff3d00ff" rx="1.131578947368421"></rect><rect width="100" height="2.263157894736842" x="550" y="798.8684210526316" stroke="none" fill="#ff3d00ff" rx="1.131578947368421"></rect><rect width="2.263157894736842" height="100" x="598.8684210526316" y="750" stroke="none" fill="#ff3d00ff" rx="1.131578947368421"></rect><rect width="100" height="2.263157894736842" x="750" y="798.8684210526316" stroke="none" fill="#ff3d00ff" rx="1.131578947368421"></rect><rect width="2.263157894736842" height="100" x="798.8684210526316" y="750" stroke="none" fill="#ff3d00ff" rx="1.131578947368421"></rect></g></svg>