<svg 
 xmlns="http://www.w3.org/2000/svg"
 xmlns:xlink="http://www.w3.org/1999/xlink"
 width="406px" height="167px">
<path fill-rule="evenodd"  fill="rgb(27, 136, 245)"
 d="M333.682,0.226 L386.106,0.226 L386.106,21.783 L325.504,21.783 L333.682,0.226 ZM374.429,47.475 L347.595,47.475 L347.595,30.869 L340.912,47.475 L315.759,47.475 L322.824,28.851 L374.429,28.851 L374.429,47.475 ZM331.193,71.622 L306.599,71.622 L313.078,54.542 L338.068,54.542 L331.193,71.622 ZM320.912,97.167 L275.312,97.167 L267.537,78.689 L294.352,78.689 L299.312,90.830 L303.918,78.689 L328.349,78.689 L320.912,97.167 ZM257.377,54.542 L284.486,54.542 L291.464,71.622 L264.563,71.622 L257.377,54.542 ZM248.462,33.354 L248.462,47.475 L222.291,47.475 L222.291,28.851 L273.988,28.851 L281.598,47.475 L254.403,47.475 L248.462,33.354 ZM210.614,0.226 L262.292,0.226 L271.101,21.783 L210.614,21.783 L210.614,0.226 ZM176.291,97.167 C176.887,96.159 177.398,95.061 177.808,93.853 C178.415,92.059 178.718,90.196 178.718,88.262 C178.718,86.220 178.415,84.328 177.808,82.589 C177.298,81.131 176.623,79.837 175.804,78.689 L205.991,78.689 C206.684,81.198 207.043,83.942 207.043,86.937 C207.043,90.536 206.647,93.945 205.863,97.167 L176.291,97.167 ZM173.537,47.475 C173.706,47.284 173.879,47.098 174.040,46.894 C175.060,45.598 175.874,44.134 176.483,42.505 C177.089,40.877 177.394,39.179 177.394,37.412 C177.394,35.701 177.089,33.989 176.483,32.277 C176.046,31.049 175.499,29.909 174.850,28.851 L204.719,28.851 C205.466,31.872 205.883,34.992 205.883,38.240 C205.883,41.654 205.535,44.724 204.863,47.475 L173.537,47.475 ZM106.004,0.060 L167.207,0.226 C172.893,0.226 178.098,1.234 182.818,3.249 C187.539,5.265 191.610,7.998 195.034,11.448 C198.015,14.454 200.419,17.900 202.249,21.783 L106.004,21.783 L106.004,0.060 ZM71.682,97.167 C72.278,96.159 72.789,95.061 73.198,93.853 C73.805,92.059 74.109,90.196 74.109,88.262 C74.109,86.220 73.805,84.328 73.198,82.589 C72.688,81.131 72.013,79.837 71.194,78.689 L101.382,78.689 C102.075,81.198 102.433,83.942 102.433,86.937 C102.433,90.536 102.037,93.945 101.253,97.167 L71.682,97.167 ZM68.927,47.475 C69.096,47.284 69.269,47.098 69.430,46.894 C70.450,45.598 71.265,44.134 71.873,42.505 C72.480,40.877 72.784,39.179 72.784,37.412 C72.784,35.701 72.480,33.989 71.873,32.277 C71.436,31.049 70.889,29.909 70.240,28.851 L100.110,28.851 C100.856,31.872 101.273,34.992 101.273,38.240 C101.273,41.654 100.925,44.724 100.253,47.475 L68.927,47.475 ZM1.394,0.060 L62.597,0.226 C68.283,0.226 73.488,1.234 78.208,3.249 C82.929,5.265 87.000,7.998 90.424,11.448 C93.405,14.454 95.809,17.900 97.639,21.783 L1.394,21.783 L1.394,0.060 ZM14.231,97.167 L14.231,78.689 L41.727,78.689 L41.727,97.167 L14.231,97.167 ZM41.727,47.475 L14.231,47.475 L14.231,28.851 L41.727,28.851 L41.727,47.475 ZM14.231,71.622 L14.231,54.542 L97.376,54.542 C95.304,57.952 92.522,60.748 89.016,62.920 C92.755,65.312 95.777,68.217 98.098,71.622 L14.231,71.622 ZM98.771,104.234 C96.892,108.291 94.456,111.843 91.459,114.888 C88.064,118.340 84.047,121.017 79.409,122.922 C74.771,124.827 69.774,125.779 64.419,125.779 L1.394,125.779 L1.394,104.234 L98.771,104.234 ZM118.841,97.167 L118.841,78.689 L146.337,78.689 L146.337,97.167 L118.841,97.167 ZM146.337,47.475 L118.841,47.475 L118.841,28.851 L146.337,28.851 L146.337,47.475 ZM118.841,71.622 L118.841,54.542 L201.985,54.542 C199.914,57.952 197.131,60.748 193.626,62.920 C197.364,65.312 200.387,68.217 202.708,71.622 L118.841,71.622 ZM203.380,104.234 C201.502,108.291 199.066,111.843 196.069,114.888 C192.673,118.340 188.657,121.017 184.019,122.922 C179.381,124.827 174.383,125.779 169.029,125.779 L106.004,125.779 L106.004,104.234 L203.380,104.234 ZM248.462,97.167 L222.291,97.167 L222.291,78.689 L248.462,78.689 L248.462,97.167 ZM248.462,71.622 L222.291,71.622 L222.291,54.542 L248.462,54.542 L248.462,71.622 ZM257.820,104.234 L257.820,125.779 L210.614,125.779 L210.614,104.234 L257.820,104.234 ZM318.067,104.234 L309.996,124.288 L286.724,124.288 L278.286,104.234 L318.067,104.234 ZM374.429,97.167 L347.595,97.167 L347.595,78.689 L374.429,78.689 L374.429,97.167 ZM374.429,71.622 L347.595,71.622 L347.595,54.542 L374.429,54.542 L374.429,71.622 ZM385.941,104.234 L385.941,125.779 L338.982,125.779 L338.982,104.234 L385.941,104.234 Z"/>
<path fill-rule="evenodd"  fill="rgb(244, 241, 231)"
 d="M384.568,148.934 C384.568,148.524 384.473,148.175 384.282,147.887 C384.092,147.599 383.845,147.364 383.543,147.184 C383.240,147.003 382.903,146.871 382.532,146.788 C382.161,146.705 381.799,146.664 381.448,146.664 C381.057,146.664 380.698,146.708 380.371,146.795 C380.044,146.883 379.763,147.010 379.529,147.176 C379.295,147.343 379.111,147.545 378.980,147.784 C378.848,148.024 378.782,148.290 378.782,148.583 C378.782,149.090 378.936,149.493 379.243,149.791 C379.551,150.089 380.066,150.365 380.789,150.619 L383.704,151.644 C384.954,152.064 385.867,152.635 386.443,153.358 C387.019,154.081 387.307,154.945 387.307,155.951 C387.307,156.625 387.173,157.242 386.904,157.804 C386.636,158.365 386.255,158.844 385.762,159.239 C385.269,159.635 384.675,159.942 383.982,160.162 C383.289,160.382 382.517,160.492 381.668,160.492 C380.486,160.492 379.524,160.301 378.782,159.920 C378.040,159.540 377.468,159.037 377.068,158.412 L375.545,158.412 L375.545,155.892 L378.577,155.892 C378.577,156.312 378.667,156.671 378.848,156.969 C379.028,157.267 379.268,157.509 379.566,157.694 C379.863,157.880 380.200,158.016 380.576,158.104 C380.952,158.192 381.335,158.236 381.726,158.236 C382.107,158.236 382.473,158.190 382.825,158.097 C383.176,158.004 383.486,157.867 383.755,157.687 C384.023,157.506 384.236,157.289 384.392,157.035 C384.548,156.781 384.627,156.493 384.627,156.170 C384.627,155.682 384.468,155.267 384.150,154.925 C383.833,154.584 383.294,154.276 382.532,154.003 L379.631,152.919 C378.450,152.499 377.573,151.964 377.002,151.315 C376.431,150.665 376.145,149.852 376.145,148.876 C376.145,148.231 376.265,147.635 376.504,147.088 C376.743,146.542 377.090,146.070 377.544,145.675 C377.998,145.279 378.552,144.969 379.207,144.745 C379.861,144.520 380.608,144.408 381.448,144.408 C382.532,144.408 383.440,144.559 384.172,144.862 C384.905,145.165 385.564,145.682 386.150,146.415 L387.571,146.415 L387.571,148.934 L384.568,148.934 ZM362.470,153.981 C362.533,154.337 362.623,154.676 362.741,154.999 C363.102,155.975 363.680,156.710 364.476,157.203 C365.272,157.696 366.173,157.943 367.179,157.943 C367.970,157.943 368.739,157.833 369.486,157.613 C370.233,157.394 371.017,157.049 371.837,156.581 L372.936,158.441 C371.940,159.125 370.939,159.633 369.933,159.964 C368.927,160.296 367.882,160.462 366.798,160.462 C365.773,160.462 364.823,160.292 363.949,159.950 C363.075,159.608 362.323,159.100 361.693,158.426 C361.063,157.753 360.570,156.913 360.214,155.907 C359.857,154.901 359.679,153.729 359.679,152.391 C359.679,151.307 359.830,150.284 360.133,149.322 C360.436,148.361 360.888,147.521 361.488,146.803 C362.089,146.085 362.833,145.516 363.722,145.096 C364.611,144.676 365.646,144.466 366.828,144.466 C367.970,144.466 368.925,144.640 369.691,144.986 C370.458,145.333 371.083,145.792 371.566,146.363 C372.050,146.935 372.416,147.586 372.665,148.319 C372.914,149.051 373.087,149.798 373.185,150.560 C373.234,150.931 373.266,151.307 373.280,151.688 C373.295,152.069 373.302,152.440 373.302,152.801 L362.374,152.801 C362.374,153.231 362.406,153.624 362.470,153.981 ZM370.387,150.677 C370.348,150.111 370.258,149.589 370.116,149.110 C369.974,148.632 369.757,148.216 369.464,147.865 C369.171,147.513 368.795,147.240 368.336,147.045 C367.877,146.849 367.311,146.752 366.637,146.752 C366.002,146.752 365.448,146.842 364.974,147.023 C364.501,147.203 364.098,147.462 363.766,147.799 C363.434,148.136 363.168,148.548 362.968,149.037 C362.767,149.525 362.618,150.072 362.521,150.677 L370.387,150.677 ZM350.977,157.518 L353.115,157.518 L353.115,150.589 C353.115,149.427 352.820,148.546 352.229,147.945 C351.638,147.345 350.791,147.045 349.688,147.045 C349.053,147.045 348.413,147.196 347.769,147.499 C347.124,147.801 346.514,148.177 345.938,148.627 L345.938,157.518 L348.076,157.518 L348.076,160.038 L340.987,160.038 L340.987,157.518 L343.096,157.518 L343.096,147.381 L340.987,147.381 L340.987,144.862 L345.820,144.862 L345.820,146.649 L345.850,146.649 C346.172,146.366 346.516,146.097 346.883,145.843 C347.249,145.590 347.632,145.370 348.032,145.184 C348.433,144.999 348.850,144.852 349.285,144.745 C349.719,144.637 350.176,144.584 350.654,144.584 C351.465,144.584 352.197,144.696 352.852,144.920 C353.506,145.145 354.063,145.487 354.522,145.946 C354.981,146.405 355.335,146.993 355.584,147.711 C355.833,148.429 355.957,149.276 355.957,150.253 L355.957,157.518 L358.067,157.518 L358.067,160.038 L350.977,160.038 L350.977,157.518 ZM332.475,157.518 L334.643,157.518 L334.643,147.381 L332.445,147.381 L332.445,144.862 L337.396,144.862 L337.396,157.518 L339.682,157.518 L339.682,160.038 L332.475,160.038 L332.475,157.518 ZM337.375,140.856 C337.204,141.036 337.003,141.178 336.774,141.280 C336.544,141.383 336.303,141.434 336.049,141.434 C335.785,141.434 335.536,141.383 335.302,141.280 C335.067,141.178 334.865,141.036 334.694,140.856 C334.523,140.675 334.386,140.467 334.284,140.233 C334.181,139.999 334.130,139.750 334.130,139.486 C334.130,139.232 334.181,138.990 334.284,138.761 C334.386,138.531 334.523,138.331 334.694,138.160 C334.865,137.989 335.067,137.853 335.302,137.750 C335.536,137.648 335.785,137.596 336.049,137.596 C336.303,137.596 336.544,137.648 336.774,137.750 C337.003,137.853 337.204,137.989 337.375,138.160 C337.545,138.331 337.682,138.531 337.785,138.761 C337.887,138.990 337.938,139.232 337.938,139.486 C337.938,139.750 337.887,139.999 337.785,140.233 C337.682,140.467 337.545,140.675 337.375,140.856 ZM324.007,157.518 L326.087,157.518 L326.087,150.589 C326.087,149.427 325.791,148.546 325.200,147.945 C324.610,147.345 323.762,147.045 322.659,147.045 C322.034,147.045 321.399,147.194 320.755,147.491 C320.110,147.789 319.505,148.163 318.938,148.612 L318.938,157.518 L321.136,157.518 L321.136,160.038 L313.929,160.038 L313.929,157.518 L316.214,157.518 L316.214,139.764 L314.134,139.764 L314.134,137.245 L318.938,137.245 L318.938,146.532 L319.026,146.532 C319.299,146.259 319.614,146.002 319.971,145.763 C320.327,145.524 320.701,145.316 321.092,145.140 C321.482,144.964 321.887,144.828 322.307,144.730 C322.727,144.633 323.167,144.584 323.626,144.584 C324.436,144.584 325.169,144.696 325.823,144.920 C326.477,145.145 327.034,145.487 327.493,145.946 C327.952,146.405 328.306,146.993 328.555,147.711 C328.804,148.429 328.929,149.276 328.929,150.253 L328.929,157.518 L331.214,157.518 L331.214,160.038 L324.007,160.038 L324.007,157.518 ZM308.149,147.294 C307.519,146.952 306.789,146.781 305.959,146.781 C305.324,146.781 304.728,146.913 304.171,147.176 C303.615,147.440 303.129,147.816 302.714,148.304 C302.299,148.793 301.972,149.386 301.733,150.084 C301.493,150.782 301.374,151.561 301.374,152.420 C301.374,153.270 301.493,154.037 301.733,154.720 C301.972,155.404 302.301,155.987 302.721,156.471 C303.141,156.954 303.627,157.325 304.179,157.584 C304.730,157.843 305.324,157.972 305.959,157.972 C306.896,157.972 307.711,157.745 308.405,157.291 C309.098,156.837 309.650,156.170 310.060,155.292 L312.316,156.405 C312.023,157.030 311.662,157.591 311.232,158.089 C310.802,158.587 310.317,159.012 309.775,159.364 C309.233,159.715 308.637,159.986 307.987,160.177 C307.338,160.367 306.652,160.462 305.929,160.462 C304.875,160.462 303.900,160.265 303.007,159.869 C302.113,159.474 301.342,158.920 300.692,158.207 C300.043,157.494 299.538,156.644 299.176,155.658 C298.815,154.672 298.634,153.592 298.634,152.420 C298.634,151.249 298.825,150.170 299.206,149.183 C299.587,148.197 300.109,147.350 300.773,146.642 C301.437,145.934 302.213,145.380 303.102,144.979 C303.991,144.579 304.943,144.378 305.959,144.378 C306.916,144.378 307.821,144.545 308.676,144.877 C309.530,145.209 310.280,145.711 310.924,146.385 L312.462,146.385 L312.462,148.905 L309.709,148.905 C309.298,148.172 308.778,147.635 308.149,147.294 ZM292.466,158.631 C291.890,159.169 291.253,159.608 290.555,159.950 C289.856,160.292 289.063,160.462 288.174,160.462 C287.432,160.462 286.751,160.345 286.131,160.111 C285.510,159.877 284.976,159.557 284.527,159.151 C284.077,158.746 283.728,158.275 283.479,157.738 C283.230,157.201 283.106,156.630 283.106,156.024 C283.106,155.379 283.201,154.808 283.392,154.310 C283.582,153.812 283.836,153.380 284.153,153.014 C284.470,152.648 284.842,152.340 285.266,152.091 C285.691,151.842 286.136,151.642 286.600,151.490 C287.063,151.339 287.537,151.232 288.020,151.168 C288.504,151.105 288.965,151.073 289.405,151.073 C290.108,151.073 290.699,151.095 291.177,151.139 C291.656,151.183 292.090,151.244 292.481,151.322 L292.496,150.077 C292.496,149.540 292.417,149.073 292.261,148.678 C292.105,148.282 291.885,147.955 291.602,147.696 C291.319,147.438 290.979,147.245 290.584,147.118 C290.188,146.991 289.746,146.927 289.258,146.927 C288.799,146.927 288.360,146.959 287.940,147.023 C287.520,147.086 287.127,147.169 286.761,147.272 C286.394,147.374 286.058,147.491 285.750,147.623 C285.442,147.755 285.181,147.894 284.966,148.041 L284.073,146.151 C284.434,145.917 284.829,145.699 285.259,145.499 C285.689,145.299 286.140,145.128 286.614,144.986 C287.088,144.845 287.571,144.733 288.064,144.649 C288.557,144.567 289.043,144.525 289.522,144.525 C290.401,144.525 291.192,144.630 291.895,144.840 C292.598,145.050 293.194,145.375 293.682,145.814 C294.170,146.253 294.546,146.813 294.810,147.491 C295.074,148.170 295.205,148.983 295.205,149.930 L295.191,157.518 L296.875,157.518 L296.875,160.038 L292.466,160.038 L292.466,158.631 ZM289.317,153.109 C288.789,153.109 288.308,153.168 287.874,153.285 C287.439,153.402 287.063,153.573 286.746,153.797 C286.429,154.022 286.182,154.301 286.006,154.632 C285.830,154.965 285.743,155.345 285.743,155.775 C285.743,156.176 285.816,156.525 285.962,156.822 C286.109,157.120 286.316,157.369 286.585,157.569 C286.853,157.770 287.173,157.921 287.544,158.024 C287.915,158.126 288.326,158.177 288.775,158.177 C289.136,158.177 289.497,158.133 289.859,158.045 C290.220,157.958 290.562,157.838 290.884,157.687 C291.206,157.535 291.504,157.360 291.778,157.159 C292.051,156.959 292.281,156.752 292.466,156.537 L292.481,153.109 L289.317,153.109 ZM273.979,157.518 L276.352,157.518 L276.352,140.467 L268.588,160.038 L266.098,160.038 L258.232,140.423 L258.232,157.518 L260.517,157.518 L260.517,160.038 L253.310,160.038 L253.310,157.518 L255.419,157.518 L255.419,140.628 L253.310,140.628 L253.310,137.831 L260.341,137.831 L267.387,157.005 L274.521,137.831 L281.186,137.831 L281.186,140.628 L279.091,140.628 L279.091,157.518 L281.186,157.518 L281.186,160.038 L273.979,160.038 L273.979,157.518 ZM242.446,147.887 C242.255,147.599 242.008,147.364 241.706,147.184 C241.403,147.003 241.066,146.871 240.695,146.788 C240.324,146.705 239.963,146.664 239.611,146.664 C239.220,146.664 238.862,146.708 238.534,146.795 C238.207,146.883 237.927,147.010 237.692,147.176 C237.458,147.343 237.275,147.545 237.143,147.784 C237.011,148.024 236.945,148.290 236.945,148.583 C236.945,149.090 237.099,149.493 237.407,149.791 C237.714,150.089 238.229,150.365 238.952,150.619 L241.867,151.644 C243.117,152.064 244.030,152.635 244.606,153.358 C245.182,154.081 245.470,154.945 245.470,155.951 C245.470,156.625 245.336,157.242 245.068,157.804 C244.799,158.365 244.418,158.844 243.925,159.239 C243.432,159.635 242.839,159.942 242.145,160.162 C241.452,160.382 240.680,160.492 239.831,160.492 C238.649,160.492 237.687,160.301 236.945,159.920 C236.203,159.540 235.632,159.037 235.231,158.412 L233.708,158.412 L233.708,155.892 L236.740,155.892 C236.740,156.312 236.830,156.671 237.011,156.969 C237.192,157.267 237.431,157.509 237.729,157.694 C238.027,157.880 238.363,158.016 238.740,158.104 C239.115,158.192 239.499,158.236 239.889,158.236 C240.270,158.236 240.637,158.190 240.988,158.097 C241.340,158.004 241.650,157.867 241.918,157.687 C242.187,157.506 242.399,157.289 242.555,157.035 C242.712,156.781 242.790,156.493 242.790,156.170 C242.790,155.682 242.631,155.267 242.314,154.925 C241.996,154.584 241.457,154.276 240.695,154.003 L237.795,152.919 C236.613,152.499 235.737,151.964 235.165,151.315 C234.594,150.665 234.308,149.852 234.308,148.876 C234.308,148.231 234.428,147.635 234.667,147.088 C234.906,146.542 235.253,146.070 235.707,145.675 C236.161,145.279 236.716,144.969 237.370,144.745 C238.024,144.520 238.771,144.408 239.611,144.408 C240.695,144.408 241.603,144.559 242.336,144.862 C243.068,145.165 243.727,145.682 244.313,146.415 L245.734,146.415 L245.734,148.934 L242.731,148.934 C242.731,148.524 242.636,148.175 242.446,147.887 ZM229.100,147.887 C228.909,147.599 228.663,147.364 228.360,147.184 C228.057,147.003 227.720,146.871 227.349,146.788 C226.978,146.705 226.617,146.664 226.265,146.664 C225.875,146.664 225.516,146.708 225.189,146.795 C224.861,146.883 224.581,147.010 224.346,147.176 C224.112,147.343 223.929,147.545 223.797,147.784 C223.665,148.024 223.599,148.290 223.599,148.583 C223.599,149.090 223.753,149.493 224.061,149.791 C224.368,150.089 224.883,150.365 225.606,150.619 L228.521,151.644 C229.771,152.064 230.684,152.635 231.260,153.358 C231.836,154.081 232.125,154.945 232.125,155.951 C232.125,156.625 231.990,157.242 231.722,157.804 C231.453,158.365 231.072,158.844 230.579,159.239 C230.086,159.635 229.493,159.942 228.799,160.162 C228.106,160.382 227.335,160.492 226.485,160.492 C225.303,160.492 224.341,160.301 223.599,159.920 C222.857,159.540 222.286,159.037 221.885,158.412 L220.362,158.412 L220.362,155.892 L223.394,155.892 C223.394,156.312 223.484,156.671 223.665,156.969 C223.846,157.267 224.085,157.509 224.383,157.694 C224.681,157.880 225.018,158.016 225.394,158.104 C225.769,158.192 226.153,158.236 226.544,158.236 C226.924,158.236 227.291,158.190 227.642,158.097 C227.994,158.004 228.304,157.867 228.572,157.687 C228.841,157.506 229.053,157.289 229.210,157.035 C229.366,156.781 229.444,156.493 229.444,156.170 C229.444,155.682 229.285,155.267 228.968,154.925 C228.650,154.584 228.111,154.276 227.349,154.003 L224.449,152.919 C223.267,152.499 222.391,151.964 221.819,151.315 C221.248,150.665 220.962,149.852 220.962,148.876 C220.962,148.231 221.082,147.635 221.321,147.088 C221.561,146.542 221.907,146.070 222.361,145.675 C222.816,145.279 223.370,144.969 224.024,144.745 C224.678,144.520 225.425,144.408 226.265,144.408 C227.349,144.408 228.257,144.559 228.990,144.862 C229.722,145.165 230.381,145.682 230.967,146.415 L232.388,146.415 L232.388,148.934 L229.385,148.934 C229.385,148.524 229.290,148.175 229.100,147.887 ZM207.287,153.981 C207.350,154.337 207.441,154.676 207.558,154.999 C207.919,155.975 208.498,156.710 209.294,157.203 C210.090,157.696 210.991,157.943 211.996,157.943 C212.787,157.943 213.557,157.833 214.304,157.613 C215.051,157.394 215.834,157.049 216.655,156.581 L217.753,158.441 C216.757,159.125 215.756,159.633 214.750,159.964 C213.744,160.296 212.700,160.462 211.616,160.462 C210.590,160.462 209.640,160.292 208.766,159.950 C207.892,159.608 207.141,159.100 206.511,158.426 C205.881,157.753 205.387,156.913 205.031,155.907 C204.675,154.901 204.496,153.729 204.496,152.391 C204.496,151.307 204.648,150.284 204.951,149.322 C205.253,148.361 205.705,147.521 206.306,146.803 C206.906,146.085 207.651,145.516 208.539,145.096 C209.428,144.676 210.463,144.466 211.645,144.466 C212.787,144.466 213.742,144.640 214.509,144.986 C215.275,145.333 215.900,145.792 216.384,146.363 C216.867,146.935 217.233,147.586 217.482,148.319 C217.731,149.051 217.905,149.798 218.002,150.560 C218.051,150.931 218.083,151.307 218.098,151.688 C218.112,152.069 218.120,152.440 218.120,152.801 L207.192,152.801 C207.192,153.231 207.223,153.624 207.287,153.981 ZM215.204,150.677 C215.165,150.111 215.075,149.589 214.933,149.110 C214.792,148.632 214.575,148.216 214.282,147.865 C213.989,147.513 213.613,147.240 213.154,147.045 C212.695,146.849 212.128,146.752 211.454,146.752 C210.820,146.752 210.265,146.842 209.792,147.023 C209.318,147.203 208.915,147.462 208.583,147.799 C208.251,148.136 207.985,148.548 207.785,149.037 C207.585,149.525 207.436,150.072 207.338,150.677 L215.204,150.677 ZM195.794,157.518 L197.933,157.518 L197.933,150.589 C197.933,149.427 197.637,148.546 197.047,147.945 C196.456,147.345 195.609,147.045 194.505,147.045 C193.870,147.045 193.231,147.196 192.586,147.499 C191.942,147.801 191.331,148.177 190.755,148.627 L190.755,157.518 L192.894,157.518 L192.894,160.038 L185.804,160.038 L185.804,157.518 L187.913,157.518 L187.913,147.381 L185.804,147.381 L185.804,144.862 L190.638,144.862 L190.638,146.649 L190.667,146.649 C190.989,146.366 191.334,146.097 191.700,145.843 C192.066,145.590 192.449,145.370 192.850,145.184 C193.250,144.999 193.668,144.852 194.102,144.745 C194.537,144.637 194.993,144.584 195.472,144.584 C196.282,144.584 197.015,144.696 197.669,144.920 C198.323,145.145 198.880,145.487 199.339,145.946 C199.798,146.405 200.152,146.993 200.401,147.711 C200.650,148.429 200.775,149.276 200.775,150.253 L200.775,157.518 L202.884,157.518 L202.884,160.038 L195.794,160.038 L195.794,157.518 ZM177.292,157.518 L179.460,157.518 L179.460,147.381 L177.263,147.381 L177.263,144.862 L182.214,144.862 L182.214,157.518 L184.499,157.518 L184.499,160.038 L177.292,160.038 L177.292,157.518 ZM182.192,140.856 C182.021,141.036 181.821,141.178 181.591,141.280 C181.362,141.383 181.120,141.434 180.866,141.434 C180.603,141.434 180.354,141.383 180.119,141.280 C179.885,141.178 179.682,141.036 179.511,140.856 C179.340,140.675 179.204,140.467 179.101,140.233 C178.999,139.999 178.947,139.750 178.947,139.486 C178.947,139.232 178.999,138.990 179.101,138.761 C179.204,138.531 179.340,138.331 179.511,138.160 C179.682,137.989 179.885,137.853 180.119,137.750 C180.354,137.648 180.603,137.596 180.866,137.596 C181.120,137.596 181.362,137.648 181.591,137.750 C181.821,137.853 182.021,137.989 182.192,138.160 C182.363,138.331 182.499,138.531 182.602,138.761 C182.705,138.990 182.756,139.232 182.756,139.486 C182.756,139.750 182.705,139.999 182.602,140.233 C182.499,140.467 182.363,140.675 182.192,140.856 ZM172.508,147.887 C172.318,147.599 172.071,147.364 171.768,147.184 C171.466,147.003 171.129,146.871 170.758,146.788 C170.386,146.705 170.025,146.664 169.674,146.664 C169.283,146.664 168.924,146.708 168.597,146.795 C168.270,146.883 167.989,147.010 167.755,147.176 C167.520,147.343 167.337,147.545 167.205,147.784 C167.074,148.024 167.008,148.290 167.008,148.583 C167.008,149.090 167.161,149.493 167.469,149.791 C167.777,150.089 168.292,150.365 169.014,150.619 L171.929,151.644 C173.179,152.064 174.092,152.635 174.669,153.358 C175.245,154.081 175.533,154.945 175.533,155.951 C175.533,156.625 175.399,157.242 175.130,157.804 C174.861,158.365 174.481,158.844 173.988,159.239 C173.494,159.635 172.901,159.942 172.208,160.162 C171.514,160.382 170.743,160.492 169.893,160.492 C168.712,160.492 167.750,160.301 167.008,159.920 C166.265,159.540 165.694,159.037 165.294,158.412 L163.770,158.412 L163.770,155.892 L166.803,155.892 C166.803,156.312 166.893,156.671 167.074,156.969 C167.254,157.267 167.493,157.509 167.791,157.694 C168.089,157.880 168.426,158.016 168.802,158.104 C169.178,158.192 169.561,158.236 169.952,158.236 C170.333,158.236 170.699,158.190 171.051,158.097 C171.402,158.004 171.712,157.867 171.981,157.687 C172.249,157.506 172.462,157.289 172.618,157.035 C172.774,156.781 172.852,156.493 172.852,156.170 C172.852,155.682 172.693,155.267 172.376,154.925 C172.059,154.584 171.519,154.276 170.758,154.003 L167.857,152.919 C166.675,152.499 165.799,151.964 165.228,151.315 C164.657,150.665 164.371,149.852 164.371,148.876 C164.371,148.231 164.490,147.635 164.730,147.088 C164.969,146.542 165.316,146.070 165.770,145.675 C166.224,145.279 166.778,144.969 167.432,144.745 C168.087,144.520 168.834,144.408 169.674,144.408 C170.758,144.408 171.666,144.559 172.398,144.862 C173.131,145.165 173.790,145.682 174.376,146.415 L175.797,146.415 L175.797,148.934 L172.794,148.934 C172.794,148.524 172.699,148.175 172.508,147.887 ZM156.753,158.631 C156.069,159.159 155.324,159.569 154.519,159.862 C153.713,160.155 152.851,160.301 151.933,160.301 C151.171,160.301 150.480,160.191 149.860,159.972 C149.240,159.752 148.713,159.410 148.278,158.946 C147.844,158.483 147.509,157.894 147.275,157.181 C147.041,156.468 146.923,155.619 146.923,154.632 L146.923,147.381 L144.873,147.381 L144.873,144.862 L149.765,144.862 L149.765,154.310 C149.765,155.472 150.034,156.351 150.571,156.947 C151.108,157.543 151.879,157.840 152.885,157.840 C153.481,157.840 154.108,157.733 154.768,157.518 C155.427,157.303 156.049,157.005 156.635,156.625 L156.635,147.381 L154.599,147.381 L154.599,144.862 L159.492,144.862 L159.492,157.518 L161.176,157.518 L161.176,160.038 L156.753,160.038 L156.753,158.631 ZM143.216,150.780 C143.489,151.180 143.702,151.605 143.853,152.054 C144.005,152.504 144.080,152.962 144.080,153.431 C144.080,154.359 143.912,155.223 143.575,156.024 C143.238,156.825 142.777,157.523 142.191,158.119 C141.605,158.715 140.919,159.183 140.133,159.525 C139.346,159.867 138.504,160.038 137.606,160.038 L127.484,160.038 L127.484,157.518 L129.593,157.518 L129.593,140.365 L127.484,140.365 L127.484,137.801 L137.474,137.831 C138.372,137.831 139.217,137.999 140.008,138.336 C140.799,138.673 141.488,139.132 142.074,139.713 C142.660,140.294 143.121,140.980 143.458,141.771 C143.795,142.562 143.963,143.412 143.963,144.320 C143.963,145.267 143.700,146.131 143.172,146.913 C142.645,147.694 141.893,148.319 140.916,148.788 C141.395,149.042 141.829,149.337 142.220,149.674 C142.611,150.011 142.943,150.380 143.216,150.780 ZM140.579,142.818 C140.404,142.355 140.164,141.942 139.862,141.581 C139.559,141.219 139.205,140.926 138.800,140.702 C138.394,140.477 137.962,140.365 137.503,140.365 L132.464,140.365 L132.464,147.616 L137.503,147.616 C137.972,147.616 138.409,147.523 138.814,147.337 C139.219,147.152 139.571,146.903 139.869,146.590 C140.167,146.278 140.404,145.917 140.579,145.506 C140.755,145.096 140.843,144.671 140.843,144.232 C140.843,143.754 140.755,143.282 140.579,142.818 ZM140.697,152.259 C140.521,151.859 140.284,151.503 139.986,151.190 C139.688,150.878 139.337,150.629 138.932,150.443 C138.526,150.258 138.094,150.165 137.635,150.165 L132.464,150.165 L132.464,157.518 L137.635,157.518 C138.104,157.518 138.538,157.401 138.939,157.167 C139.339,156.932 139.691,156.627 139.994,156.251 C140.296,155.875 140.533,155.448 140.704,154.969 C140.875,154.491 140.960,154.003 140.960,153.504 C140.960,153.075 140.872,152.660 140.697,152.259 ZM111.339,164.418 L113.419,164.418 L113.419,166.937 L107.296,166.937 L107.296,164.418 L109.142,164.418 L110.753,160.243 L105.685,147.381 L104.454,147.381 L104.454,144.862 L110.211,144.862 L110.211,147.381 L108.409,147.381 L111.969,157.064 L115.689,147.381 L113.902,147.381 L113.902,144.862 L119.659,144.862 L119.659,147.381 L118.092,147.381 L111.339,164.418 ZM92.126,153.981 C92.190,154.337 92.280,154.676 92.397,154.999 C92.758,155.975 93.337,156.710 94.133,157.203 C94.929,157.696 95.830,157.943 96.836,157.943 C97.627,157.943 98.396,157.833 99.143,157.613 C99.890,157.394 100.674,157.049 101.494,156.581 L102.593,158.441 C101.596,159.125 100.595,159.633 99.590,159.964 C98.584,160.296 97.539,160.462 96.455,160.462 C95.429,160.462 94.480,160.292 93.606,159.950 C92.732,159.608 91.980,159.100 91.350,158.426 C90.720,157.753 90.227,156.913 89.870,155.907 C89.514,154.901 89.336,153.729 89.336,152.391 C89.336,151.307 89.487,150.284 89.790,149.322 C90.092,148.361 90.544,147.521 91.145,146.803 C91.745,146.085 92.490,145.516 93.379,145.096 C94.267,144.676 95.302,144.466 96.484,144.466 C97.627,144.466 98.581,144.640 99.348,144.986 C100.114,145.333 100.740,145.792 101.223,146.363 C101.706,146.935 102.073,147.586 102.322,148.319 C102.571,149.051 102.744,149.798 102.842,150.560 C102.890,150.931 102.922,151.307 102.937,151.688 C102.951,152.069 102.959,152.440 102.959,152.801 L92.031,152.801 C92.031,153.231 92.063,153.624 92.126,153.981 ZM100.044,150.677 C100.005,150.111 99.914,149.589 99.773,149.110 C99.631,148.632 99.414,148.216 99.121,147.865 C98.828,147.513 98.452,147.240 97.993,147.045 C97.534,146.849 96.968,146.752 96.294,146.752 C95.659,146.752 95.105,146.842 94.631,147.023 C94.157,147.203 93.755,147.462 93.423,147.799 C93.091,148.136 92.824,148.548 92.624,149.037 C92.424,149.525 92.275,150.072 92.178,150.677 L100.044,150.677 ZM80.780,157.518 L82.977,157.518 L82.977,139.764 L80.780,139.764 L80.780,137.245 L85.702,137.245 L85.702,157.518 L87.987,157.518 L87.987,160.038 L80.780,160.038 L80.780,157.518 ZM67.558,153.981 C67.622,154.337 67.712,154.676 67.829,154.999 C68.191,155.975 68.769,156.710 69.565,157.203 C70.361,157.696 71.262,157.943 72.268,157.943 C73.059,157.943 73.828,157.833 74.575,157.613 C75.322,157.394 76.106,157.049 76.926,156.581 L78.025,158.441 C77.029,159.125 76.028,159.633 75.022,159.964 C74.016,160.296 72.971,160.462 71.887,160.462 C70.862,160.462 69.912,160.292 69.038,159.950 C68.164,159.608 67.412,159.100 66.782,158.426 C66.152,157.753 65.659,156.913 65.303,155.907 C64.946,154.901 64.768,153.729 64.768,152.391 C64.768,151.307 64.919,150.284 65.222,149.322 C65.525,148.361 65.976,147.521 66.577,146.803 C67.178,146.085 67.922,145.516 68.811,145.096 C69.699,144.676 70.735,144.466 71.916,144.466 C73.059,144.466 74.013,144.640 74.780,144.986 C75.547,145.333 76.172,145.792 76.655,146.363 C77.139,146.935 77.505,147.586 77.754,148.319 C78.003,149.051 78.176,149.798 78.274,150.560 C78.323,150.931 78.354,151.307 78.369,151.688 C78.384,152.069 78.391,152.440 78.391,152.801 L67.463,152.801 C67.463,153.231 67.495,153.624 67.558,153.981 ZM75.476,150.677 C75.437,150.111 75.346,149.589 75.205,149.110 C75.063,148.632 74.846,148.216 74.553,147.865 C74.260,147.513 73.884,147.240 73.425,147.045 C72.966,146.849 72.400,146.752 71.726,146.752 C71.091,146.752 70.537,146.842 70.063,147.023 C69.590,147.203 69.187,147.462 68.855,147.799 C68.523,148.136 68.257,148.548 68.057,149.037 C67.856,149.525 67.707,150.072 67.610,150.677 L75.476,150.677 ZM54.454,153.255 L52.447,153.255 L52.447,157.518 L53.707,157.518 L53.707,160.038 L47.218,160.038 L47.218,157.518 L49.708,157.518 L49.708,139.764 L47.130,139.764 L47.130,137.245 L52.477,137.245 L52.477,139.764 L52.447,139.764 L52.447,151.102 L55.084,151.102 L58.688,147.381 L57.779,147.381 L57.779,144.862 L63.536,144.862 L63.536,147.381 L61.617,147.381 L57.003,152.142 L62.042,157.518 L63.873,157.518 L63.873,160.038 L60.665,160.038 L54.454,153.255 ZM42.515,147.132 C42.192,147.132 41.863,147.194 41.526,147.316 C41.189,147.438 40.874,147.623 40.581,147.872 C40.288,148.121 40.032,148.439 39.812,148.824 C39.592,149.210 39.433,149.667 39.336,150.194 L39.336,157.518 L41.914,157.518 L41.914,160.038 L34.385,160.038 L34.385,157.518 L36.479,157.518 L36.494,147.381 L34.385,147.381 L34.385,144.862 L39.233,144.862 L39.233,146.957 C39.409,146.644 39.607,146.354 39.827,146.085 C40.046,145.817 40.290,145.582 40.559,145.382 C40.828,145.182 41.125,145.026 41.453,144.913 C41.780,144.801 42.134,144.745 42.515,144.745 C43.022,144.745 43.501,144.745 43.950,144.745 C44.399,144.745 44.849,144.755 45.298,144.774 L45.298,148.070 L42.515,148.070 L42.515,147.132 ZM21.046,153.981 C21.110,154.337 21.200,154.676 21.317,154.999 C21.678,155.975 22.257,156.710 23.053,157.203 C23.849,157.696 24.750,157.943 25.756,157.943 C26.547,157.943 27.316,157.833 28.063,157.613 C28.810,157.394 29.594,157.049 30.414,156.581 L31.512,158.441 C30.516,159.125 29.515,159.633 28.510,159.964 C27.504,160.296 26.459,160.462 25.375,160.462 C24.349,160.462 23.400,160.292 22.526,159.950 C21.652,159.608 20.900,159.100 20.270,158.426 C19.640,157.753 19.147,156.913 18.790,155.907 C18.434,154.901 18.256,153.729 18.256,152.391 C18.256,151.307 18.407,150.284 18.710,149.322 C19.012,148.361 19.464,147.521 20.065,146.803 C20.665,146.085 21.410,145.516 22.299,145.096 C23.187,144.676 24.222,144.466 25.404,144.466 C26.547,144.466 27.501,144.640 28.268,144.986 C29.034,145.333 29.659,145.792 30.143,146.363 C30.626,146.935 30.992,147.586 31.241,148.319 C31.491,149.051 31.664,149.798 31.762,150.560 C31.810,150.931 31.842,151.307 31.857,151.688 C31.871,152.069 31.879,152.440 31.879,152.801 L20.951,152.801 C20.951,153.231 20.983,153.624 21.046,153.981 ZM28.964,150.677 C28.925,150.111 28.834,149.589 28.693,149.110 C28.551,148.632 28.334,148.216 28.041,147.865 C27.748,147.513 27.372,147.240 26.913,147.045 C26.454,146.849 25.887,146.752 25.214,146.752 C24.579,146.752 24.025,146.842 23.551,147.023 C23.077,147.203 22.674,147.462 22.343,147.799 C22.010,148.136 21.744,148.548 21.544,149.037 C21.344,149.525 21.195,150.072 21.097,150.677 L28.964,150.677 ZM16.130,150.780 C16.404,151.180 16.616,151.605 16.768,152.054 C16.919,152.504 16.995,152.962 16.995,153.431 C16.995,154.359 16.826,155.223 16.489,156.024 C16.152,156.825 15.691,157.523 15.105,158.119 C14.519,158.715 13.833,159.183 13.047,159.525 C12.261,159.867 11.418,160.038 10.520,160.038 L0.398,160.038 L0.398,157.518 L2.507,157.518 L2.507,140.365 L0.398,140.365 L0.398,137.801 L10.388,137.831 C11.287,137.831 12.131,137.999 12.922,138.336 C13.713,138.673 14.402,139.132 14.988,139.713 C15.574,140.294 16.035,140.980 16.372,141.771 C16.709,142.562 16.878,143.412 16.878,144.320 C16.878,145.267 16.614,146.131 16.086,146.913 C15.559,147.694 14.807,148.319 13.831,148.788 C14.309,149.042 14.744,149.337 15.134,149.674 C15.525,150.011 15.857,150.380 16.130,150.780 ZM13.494,142.818 C13.318,142.355 13.079,141.942 12.776,141.581 C12.473,141.219 12.119,140.926 11.714,140.702 C11.309,140.477 10.876,140.365 10.418,140.365 L5.378,140.365 L5.378,147.616 L10.418,147.616 C10.886,147.616 11.323,147.523 11.729,147.337 C12.134,147.152 12.485,146.903 12.783,146.590 C13.081,146.278 13.318,145.917 13.494,145.506 C13.670,145.096 13.757,144.671 13.757,144.232 C13.757,143.754 13.670,143.282 13.494,142.818 ZM13.611,152.259 C13.435,151.859 13.198,151.503 12.900,151.190 C12.602,150.878 12.251,150.629 11.846,150.443 C11.440,150.258 11.008,150.165 10.549,150.165 L5.378,150.165 L5.378,157.518 L10.549,157.518 C11.018,157.518 11.453,157.401 11.853,157.167 C12.253,156.932 12.605,156.627 12.908,156.251 C13.210,155.875 13.447,155.448 13.618,154.969 C13.789,154.491 13.875,154.003 13.875,153.504 C13.875,153.075 13.787,152.660 13.611,152.259 Z"/>
<path fill-rule="evenodd"  fill="rgb(27, 136, 245)"
 d="M398.555,125.370 C399.837,125.370 401.019,125.059 402.098,124.438 C403.177,123.816 404.037,122.977 404.679,121.918 C405.320,120.860 405.641,119.703 405.641,118.445 C405.641,117.187 405.324,116.029 404.690,114.971 C404.056,113.913 403.199,113.073 402.121,112.451 C401.041,111.830 399.860,111.519 398.577,111.519 C397.294,111.519 396.113,111.830 395.034,112.451 C393.955,113.073 393.098,113.913 392.464,114.971 C391.830,116.029 391.513,117.187 391.513,118.445 C391.513,119.703 391.830,120.860 392.464,121.918 C393.098,122.977 393.951,123.816 395.023,124.438 C396.094,125.059 397.271,125.370 398.555,125.370 L398.555,125.370 ZM398.555,124.194 C397.513,124.194 396.558,123.935 395.690,123.417 C394.822,122.899 394.132,122.200 393.619,121.319 C393.106,120.439 392.849,119.481 392.849,118.445 C392.849,117.438 393.106,116.502 393.619,115.637 C394.132,114.771 394.826,114.087 395.702,113.583 C396.577,113.081 397.536,112.829 398.577,112.829 C399.619,112.829 400.577,113.081 401.453,113.583 C402.328,114.087 403.022,114.771 403.536,115.637 C404.049,116.502 404.306,117.438 404.306,118.445 C404.306,119.481 404.049,120.439 403.536,121.319 C403.022,122.200 402.328,122.899 401.453,123.417 C400.577,123.935 399.611,124.194 398.555,124.194 L398.555,124.194 ZM401.385,121.930 C401.898,121.930 402.283,121.863 402.539,121.730 C402.796,121.597 402.924,121.427 402.924,121.219 C402.924,121.086 402.871,121.019 402.766,121.019 C402.373,121.019 401.909,120.805 401.374,120.376 C400.837,119.947 400.389,119.303 400.026,118.445 C399.996,118.356 400.004,118.304 400.049,118.289 C400.471,118.097 400.807,117.867 401.057,117.601 C401.305,117.335 401.430,116.980 401.430,116.536 C401.430,115.352 400.449,114.760 398.487,114.760 C398.125,114.760 397.777,114.775 397.445,114.804 C397.174,114.834 396.962,114.849 396.811,114.849 C396.615,114.849 396.366,114.834 396.064,114.804 C395.702,114.775 395.385,114.760 395.113,114.760 C395.053,114.760 395.000,114.779 394.955,114.815 C394.909,114.853 394.887,114.886 394.887,114.915 C394.887,115.063 394.969,115.145 395.136,115.159 C395.407,115.234 395.592,115.319 395.690,115.415 C395.789,115.511 395.838,115.678 395.838,115.914 L395.838,120.664 C395.838,120.886 395.789,121.042 395.690,121.130 C395.592,121.219 395.385,121.301 395.068,121.375 C394.887,121.404 394.796,121.500 394.796,121.663 C394.796,121.722 394.826,121.785 394.887,121.852 C394.947,121.918 395.000,121.952 395.045,121.952 C395.211,121.952 395.521,121.937 395.974,121.907 L396.811,121.885 L397.785,121.907 L398.804,121.952 C398.864,121.952 398.921,121.922 398.973,121.863 C399.026,121.804 399.053,121.737 399.053,121.663 C399.053,121.500 398.962,121.404 398.781,121.375 C398.419,121.286 398.173,121.197 398.045,121.108 C397.917,121.019 397.853,120.872 397.853,120.664 L397.853,118.844 C397.853,118.711 397.898,118.644 397.988,118.644 C398.109,118.644 398.207,118.719 398.283,118.866 C398.675,119.695 399.173,120.413 399.777,121.019 C400.381,121.626 400.917,121.930 401.385,121.930 L401.385,121.930 ZM398.238,117.823 C397.935,117.823 397.785,117.712 397.785,117.490 L397.785,115.981 C397.785,115.848 397.830,115.748 397.921,115.681 C398.011,115.615 398.162,115.581 398.374,115.581 C398.781,115.581 399.079,115.674 399.268,115.859 C399.456,116.044 399.551,116.351 399.551,116.780 C399.551,117.091 399.441,117.342 399.223,117.534 C399.004,117.727 398.675,117.823 398.238,117.823 L398.238,117.823 Z"/>
</svg>