<svg 
 xmlns="http://www.w3.org/2000/svg"
 xmlns:xlink="http://www.w3.org/1999/xlink"
 width="451px" height="377px">
<path fill-rule="evenodd"  fill="rgb(255, 181, 38)"
 d="M-0.000,22.1000 C-0.000,22.1000 97.603,-0.000 225.279,-0.000 C353.103,-0.000 450.1000,22.1000 450.1000,22.1000 L450.1000,352.1000 C450.1000,352.1000 353.745,376.1000 226.244,376.1000 C98.246,376.1000 -0.000,352.1000 -0.000,352.1000 L-0.000,22.1000 Z"/>
<path fill-rule="evenodd"  fill="rgb(47, 60, 12)"
 d="M225.184,336.156 C106.302,336.156 17.504,316.156 17.504,316.156 L17.504,30.1000 C17.504,30.1000 106.606,10.1000 225.640,10.1000 C344.535,10.1000 433.362,30.1000 433.362,30.1000 L433.362,316.156 C433.362,316.156 344.231,336.156 225.184,336.156 ZM97.386,284.244 L73.079,284.244 L73.079,266.554 L92.168,266.554 L92.168,259.428 L73.079,259.428 L73.079,245.174 L97.386,245.174 L97.386,238.047 L60.861,238.047 L60.861,291.370 L97.386,291.370 L97.386,284.244 ZM157.479,238.047 L145.008,238.047 L129.736,269.736 L114.592,238.047 L101.993,238.047 L101.993,291.370 L114.210,291.370 L114.210,264.136 L123.373,282.971 L136.227,282.971 L145.135,264.263 L145.135,291.370 L157.479,291.370 L157.479,238.047 ZM199.120,284.244 L174.813,284.244 L174.813,266.554 L193.902,266.554 L193.902,259.428 L174.813,259.428 L174.813,245.174 L199.120,245.174 L199.120,238.047 L162.596,238.047 L162.596,291.370 L199.120,291.370 L199.120,284.244 ZM238.852,265.154 C241.735,263.458 243.178,261.126 243.178,258.155 L243.178,247.592 C243.178,244.623 241.715,242.291 238.788,240.593 C235.861,238.896 232.361,238.047 228.289,238.047 L203.727,238.047 L203.727,291.370 L215.944,291.370 L215.944,268.209 L233.125,291.370 L245.978,291.370 L228.416,267.700 C232.488,267.700 235.966,266.852 238.852,265.154 ZM286.219,267.954 C286.219,264.985 284.755,262.653 281.828,260.955 C278.901,259.259 275.358,258.409 271.202,258.409 L263.693,258.409 C260.213,258.581 258.475,257.391 258.475,254.846 L258.475,248.737 C258.475,246.363 260.213,245.174 263.693,245.174 L268.784,245.174 C272.262,245.174 274.002,246.363 274.002,248.737 L274.002,252.810 L286.219,252.810 L286.219,247.592 C286.219,244.623 284.755,242.291 281.828,240.593 C278.901,238.896 275.358,238.047 271.202,238.047 L261.275,238.047 C257.117,238.047 253.576,238.918 250.649,240.656 C247.722,242.396 246.258,244.709 246.258,247.592 L246.258,256.119 C246.258,257.646 246.682,259.004 247.531,260.191 C250.076,263.755 254.658,265.536 261.275,265.536 L268.784,265.536 C272.262,265.536 274.002,266.725 274.002,269.100 L274.002,280.680 C274.002,283.057 272.262,284.244 268.784,284.244 L263.693,284.244 C260.213,284.244 258.475,283.057 258.475,280.680 L258.475,274.699 L246.258,274.699 L246.258,281.826 C246.258,283.353 246.682,284.711 247.531,285.898 C250.159,289.547 254.741,291.370 261.275,291.370 L271.202,291.370 C275.358,291.370 278.838,290.523 281.637,288.825 C284.692,287.129 286.219,284.797 286.219,281.826 L286.219,267.954 ZM331.423,247.592 C331.423,246.065 330.997,244.709 330.150,243.520 C327.519,239.873 322.938,238.047 316.406,238.047 L305.970,238.047 C301.812,238.047 298.270,238.918 295.344,240.656 C292.416,242.396 290.953,244.709 290.953,247.592 L290.953,281.826 C290.953,283.353 291.377,284.711 292.226,285.898 C294.854,289.547 299.436,291.370 305.970,291.370 L316.406,291.370 C320.562,291.370 324.105,290.502 327.032,288.762 C329.959,287.024 331.423,284.711 331.423,281.826 L331.423,247.592 ZM380.826,238.175 L368.482,238.175 L368.482,270.627 L349.392,238.047 L336.793,238.047 L336.793,291.370 L349.010,291.370 L349.010,259.300 L367.973,291.370 L380.826,291.370 L380.826,238.175 ZM403.727,241.644 C401.642,239.560 399.138,238.517 396.214,238.517 C393.290,238.517 390.785,239.560 388.701,241.644 C386.615,243.730 385.573,246.234 385.573,249.158 C385.573,252.082 386.615,254.587 388.701,256.671 C390.785,258.757 393.464,259.360 396.249,259.360 C399.033,259.360 401.642,258.757 403.727,256.671 C405.812,254.587 406.855,252.082 406.855,249.158 C406.855,246.234 405.812,243.730 403.727,241.644 ZM396.211,257.463 C393.932,257.463 391.981,256.652 390.358,255.028 C388.734,253.405 387.922,251.454 387.922,249.175 C387.922,246.898 388.734,244.947 390.358,243.323 C391.981,241.699 393.932,240.887 396.211,240.887 C398.488,240.887 400.439,241.699 402.063,243.323 C403.687,244.947 404.499,246.898 404.499,249.175 C404.499,251.454 403.687,253.405 402.063,255.028 C400.439,256.652 398.488,257.463 396.211,257.463 ZM402.247,251.324 L398.581,251.324 L398.581,252.163 C398.581,252.876 398.072,253.232 397.054,253.232 L395.947,253.232 C394.903,253.232 394.382,252.876 394.382,252.163 L394.382,246.589 C394.382,245.877 394.903,245.520 395.947,245.520 L397.054,245.520 C398.072,245.520 398.581,245.877 398.581,246.589 L398.581,247.468 L402.247,247.468 L402.247,246.246 C402.247,245.355 401.807,244.655 400.929,244.146 C400.051,243.637 399.001,243.382 397.780,243.382 L395.222,243.382 C393.974,243.382 392.912,243.644 392.034,244.165 C391.156,244.687 390.716,245.381 390.716,246.246 L390.716,252.507 C390.716,252.965 390.843,253.373 391.098,253.729 C391.887,254.823 393.261,255.370 395.222,255.370 L397.780,255.370 C399.001,255.370 400.051,255.116 400.929,254.607 C401.807,254.098 402.247,253.398 402.247,252.507 L402.247,251.324 ZM313.987,284.244 L308.388,284.244 C304.908,284.244 303.170,283.057 303.170,280.680 L303.170,248.737 C303.170,246.363 304.908,245.174 308.388,245.174 L313.987,245.174 C317.380,245.174 319.078,246.363 319.078,248.737 L319.078,280.680 C319.078,283.057 317.380,284.244 313.987,284.244 ZM215.944,260.573 L215.944,245.174 L225.743,245.174 C229.221,245.174 230.961,246.363 230.961,248.737 L230.961,257.010 C230.961,259.386 229.221,260.573 225.743,260.573 L215.944,260.573 Z"/>
<path fill-rule="evenodd"  fill="rgb(255, 181, 38)"
 d="M311.1000,83.1000 C311.1000,83.1000 291.720,76.123 273.1000,79.1000 C276.558,79.797 283.1000,82.1000 283.1000,82.1000 C283.1000,82.1000 271.081,85.204 267.1000,87.000 C266.719,89.996 258.518,98.086 251.1000,100.1000 C245.481,103.914 240.1000,101.1000 240.1000,101.1000 C240.1000,101.1000 207.510,102.606 194.1000,104.1000 C182.489,107.394 185.879,106.005 179.1000,104.1000 C174.121,103.994 147.388,93.028 106.1000,102.1000 C66.612,112.972 58.420,135.063 56.1000,143.1000 C57.044,146.549 58.830,143.706 59.1000,141.1000 C61.169,140.294 69.267,131.550 74.1000,129.1000 C72.615,131.910 72.1000,135.1000 72.1000,135.1000 C72.1000,135.1000 72.776,138.016 73.1000,136.1000 C75.224,135.983 94.233,126.375 105.1000,123.1000 C104.782,125.367 104.836,129.363 104.1000,129.1000 C106.386,128.269 129.453,102.752 165.1000,116.1000 C161.378,122.999 159.719,138.331 161.1000,142.1000 C155.039,140.872 129.910,138.574 125.1000,138.1000 C122.089,139.426 112.188,144.989 110.1000,145.1000 C109.812,147.011 95.760,155.199 90.1000,156.1000 C86.239,158.801 81.099,158.831 77.1000,162.1000 C74.901,167.169 71.836,172.386 71.1000,173.1000 C72.164,175.614 78.085,179.727 83.1000,178.1000 C89.915,178.273 99.663,172.473 102.1000,168.1000 C106.337,165.526 117.624,157.355 131.1000,157.1000 C146.375,158.645 149.1000,158.1000 149.1000,158.1000 L155.1000,158.1000 C155.1000,158.1000 152.603,158.946 147.1000,159.1000 C143.396,161.054 130.488,166.666 124.1000,168.1000 C123.096,171.790 116.890,181.898 110.1000,185.1000 C105.110,190.102 95.778,194.613 93.1000,194.1000 C92.222,195.387 91.993,197.029 91.1000,197.1000 C92.007,198.971 88.660,203.997 86.1000,205.1000 C85.340,208.003 86.443,208.413 88.1000,210.1000 C91.556,213.587 102.843,211.827 112.1000,202.1000 C123.157,194.173 135.039,187.547 138.1000,184.1000 C142.961,182.453 143.518,181.782 146.1000,181.1000 C150.482,182.218 168.015,183.359 169.1000,182.1000 C171.985,182.641 183.1000,171.1000 183.1000,171.1000 C183.1000,171.1000 181.062,175.799 179.1000,176.1000 C188.179,173.370 201.297,161.424 202.1000,156.1000 C212.623,155.371 243.844,156.206 248.1000,157.1000 C246.765,159.007 243.1000,159.1000 243.1000,159.1000 C243.1000,159.1000 251.172,162.803 254.1000,161.1000 C252.516,164.954 249.1000,165.1000 249.1000,165.1000 C249.1000,165.1000 265.885,169.283 279.1000,162.1000 C283.153,168.819 295.624,185.695 299.1000,187.1000 C299.868,186.664 300.1000,184.1000 300.1000,184.1000 C300.1000,184.1000 310.715,196.421 314.1000,197.1000 C315.644,196.545 315.1000,194.1000 315.1000,194.1000 C315.1000,194.1000 319.794,196.867 324.1000,199.1000 C330.206,203.133 342.244,212.200 346.1000,212.1000 C351.756,213.800 351.716,214.394 352.1000,214.1000 C354.284,215.606 367.585,216.249 369.1000,215.1000 C372.415,215.750 377.106,213.689 376.1000,210.1000 C376.893,208.310 373.987,201.274 367.1000,200.1000 C362.013,200.726 353.250,200.691 348.1000,197.1000 C344.749,195.309 319.530,178.740 309.1000,171.1000 C311.277,171.893 314.1000,173.1000 314.1000,173.1000 C314.1000,173.1000 315.770,172.754 322.1000,177.1000 C330.230,183.246 331.1000,183.1000 331.1000,183.1000 C331.1000,183.1000 332.158,181.571 332.1000,180.1000 C335.720,183.101 340.1000,185.1000 340.1000,185.1000 C340.1000,185.1000 342.071,181.782 343.1000,181.1000 C345.928,182.218 356.744,181.1000 366.1000,187.000 C377.256,192.000 379.447,193.263 383.1000,193.1000 C388.552,194.737 393.566,195.592 393.1000,193.1000 C394.433,192.408 393.663,189.706 392.1000,187.1000 C392.337,186.294 382.311,177.079 372.1000,173.1000 C363.689,170.921 331.812,164.120 330.1000,141.1000 C330.471,126.877 332.1000,125.1000 332.1000,125.1000 C332.1000,125.1000 332.125,129.449 332.1000,130.1000 C335.956,124.041 340.593,111.793 349.1000,112.1000 C359.407,114.206 368.1000,117.1000 368.1000,117.1000 L371.1000,112.000 L375.1000,112.000 C375.1000,112.000 380.094,107.354 380.1000,105.1000 C381.906,104.645 382.095,100.967 377.1000,98.1000 C373.905,97.033 366.541,92.301 365.1000,89.1000 C365.459,87.698 359.353,75.638 351.1000,74.1000 C351.714,70.494 349.1000,55.1000 349.1000,55.1000 L343.1000,62.1000 L342.1000,49.1000 C342.1000,49.1000 342.537,49.881 341.1000,49.1000 C341.463,50.119 333.666,55.358 330.1000,59.1000 C328.334,64.641 321.734,73.036 320.1000,74.1000 C321.440,72.856 320.1000,71.1000 320.1000,71.1000 C320.1000,71.1000 315.374,77.986 311.1000,83.1000 Z"/>
<path fill-rule="evenodd"  fill="rgb(255, 181, 38)"
 d="M359.646,301.691 C359.572,301.691 359.528,301.647 359.514,301.574 C359.411,301.090 359.089,300.709 358.473,300.709 C357.520,300.709 357.080,301.589 357.066,303.128 C357.520,302.762 358.048,302.483 359.118,302.483 C361.170,302.483 362.534,303.773 362.534,305.781 C362.534,307.922 360.892,309.578 358.517,309.578 C355.878,309.578 354.310,307.893 354.310,304.213 C354.310,300.724 355.981,298.818 358.619,298.818 C360.657,298.818 361.889,299.830 362.167,301.545 C362.182,301.633 362.123,301.691 362.035,301.691 L359.646,301.691 ZM358.414,307.599 C359.250,307.599 359.748,307.042 359.748,306.001 C359.763,304.946 359.323,304.315 358.473,304.315 C357.623,304.315 357.139,304.902 357.139,305.943 C357.139,306.998 357.593,307.599 358.414,307.599 ZM349.061,309.578 C347.038,309.578 345.792,308.552 345.529,306.837 C345.514,306.749 345.572,306.690 345.660,306.690 L348.050,306.690 C348.123,306.690 348.167,306.734 348.182,306.808 C348.270,307.291 348.592,307.673 349.208,307.673 C350.161,307.673 350.601,306.808 350.630,305.268 C350.161,305.620 349.633,305.899 348.563,305.899 C346.511,305.899 345.147,304.623 345.147,302.615 C345.147,300.416 346.686,298.818 349.164,298.818 C351.788,298.818 353.371,300.445 353.371,304.183 C353.371,307.658 351.715,309.578 349.061,309.578 ZM349.267,300.783 C348.446,300.783 347.947,301.354 347.933,302.395 C347.933,303.436 348.358,304.066 349.208,304.066 C350.058,304.066 350.557,303.480 350.557,302.439 C350.557,301.398 350.102,300.783 349.267,300.783 ZM340.104,309.578 C338.081,309.578 336.835,308.552 336.572,306.837 C336.557,306.749 336.615,306.690 336.703,306.690 L339.093,306.690 C339.166,306.690 339.210,306.734 339.225,306.808 C339.313,307.291 339.635,307.673 340.251,307.673 C341.204,307.673 341.644,306.808 341.673,305.268 C341.204,305.620 340.676,305.899 339.606,305.899 C337.554,305.899 336.190,304.623 336.190,302.615 C336.190,300.416 337.729,298.818 340.207,298.818 C342.831,298.818 344.414,300.445 344.414,304.183 C344.414,307.658 342.758,309.578 340.104,309.578 ZM340.310,300.783 C339.489,300.783 338.990,301.354 338.975,302.395 C338.975,303.436 339.401,304.066 340.251,304.066 C341.101,304.066 341.600,303.480 341.600,302.439 C341.600,301.398 341.145,300.783 340.310,300.783 ZM334.900,309.329 L332.481,309.329 C332.408,309.329 332.350,309.270 332.350,309.197 L332.364,305.371 L332.364,301.999 C331.836,302.498 331.206,302.879 330.414,303.113 C330.326,303.143 330.268,303.084 330.268,302.996 L330.268,301.252 C330.268,301.178 330.297,301.120 330.370,301.105 C331.396,300.738 332.085,300.079 332.511,299.170 C332.540,299.097 332.584,299.067 332.657,299.067 L334.900,299.067 C334.973,299.067 335.032,299.126 335.032,299.199 L335.003,304.271 L335.032,309.197 C335.032,309.270 334.973,309.329 334.900,309.329 ZM321.501,306.104 C321.604,307.379 322.073,307.790 322.894,307.790 C323.495,307.790 323.920,307.526 324.096,306.896 C324.125,306.822 324.169,306.778 324.243,306.778 L326.500,306.778 C326.588,306.778 326.647,306.822 326.632,306.910 C326.412,308.215 325.107,309.534 322.894,309.534 C320.372,309.534 318.877,307.907 318.877,305.576 C318.877,303.143 320.431,301.574 322.806,301.574 C325.357,301.574 326.779,303.143 326.823,305.972 C326.823,306.060 326.764,306.104 326.691,306.104 L321.501,306.104 ZM322.864,303.260 C322.190,303.260 321.736,303.627 321.560,304.579 L324.067,304.579 C324.023,303.861 323.627,303.260 322.864,303.260 ZM315.725,306.573 C315.740,306.485 315.799,306.441 315.872,306.441 L318.100,306.441 C318.188,306.441 318.232,306.485 318.217,306.559 C318.056,308.288 316.590,309.534 314.538,309.534 C312.104,309.534 310.580,307.995 310.580,305.576 C310.580,303.157 312.104,301.574 314.553,301.574 C316.620,301.574 317.939,302.718 318.115,304.418 C318.129,304.506 318.086,304.550 317.997,304.550 L315.813,304.550 C315.740,304.550 315.696,304.506 315.681,304.433 C315.535,303.656 315.124,303.333 314.597,303.333 C313.717,303.333 313.277,303.978 313.277,305.547 C313.277,307.145 313.717,307.775 314.582,307.790 C315.183,307.790 315.652,307.409 315.725,306.573 ZM307.267,309.329 C307.193,309.329 307.135,309.270 307.135,309.197 L307.179,306.119 L307.179,304.653 C307.179,303.920 306.783,303.509 306.240,303.509 C305.464,303.509 304.818,304.345 304.818,305.899 L304.818,306.119 L304.863,309.197 C304.863,309.270 304.804,309.329 304.731,309.329 L302.297,309.329 C302.224,309.329 302.165,309.270 302.165,309.197 L302.209,305.606 L302.209,301.911 C302.209,301.838 302.268,301.779 302.341,301.779 L304.613,301.779 C304.701,301.779 304.745,301.823 304.745,301.911 L304.701,302.688 C305.214,301.970 306.108,301.603 307.091,301.603 C308.777,301.603 309.773,302.732 309.773,304.462 L309.773,306.119 L309.818,309.197 C309.818,309.270 309.759,309.329 309.686,309.329 L307.267,309.329 ZM301.051,309.329 L298.647,309.329 C298.573,309.329 298.515,309.270 298.515,309.197 L298.559,305.620 L298.515,301.911 C298.515,301.838 298.573,301.779 298.647,301.779 L301.051,301.779 C301.124,301.779 301.183,301.838 301.183,301.911 L301.139,305.620 L301.183,309.197 C301.183,309.270 301.124,309.329 301.051,309.329 ZM298.632,301.193 C298.559,301.193 298.500,301.134 298.500,301.061 L298.500,299.199 C298.500,299.126 298.559,299.067 298.632,299.067 L301.051,299.067 C301.124,299.067 301.183,299.126 301.183,299.199 L301.183,301.061 C301.183,301.134 301.124,301.193 301.051,301.193 L298.632,301.193 ZM294.073,309.520 C291.859,309.520 290.305,308.655 290.173,306.954 C290.173,306.866 290.218,306.822 290.305,306.822 L292.607,306.822 C292.680,306.822 292.739,306.866 292.754,306.954 C292.827,307.614 293.267,307.907 294.073,307.907 C294.821,307.907 295.187,307.673 295.187,307.218 C295.187,306.016 290.364,307.233 290.364,304.110 C290.364,302.512 291.698,301.589 293.751,301.589 C295.803,301.589 297.166,302.424 297.386,303.993 C297.401,304.096 297.342,304.140 297.254,304.140 L295.070,304.140 C294.997,304.140 294.953,304.096 294.938,304.022 C294.821,303.495 294.484,303.172 293.794,303.172 C293.223,303.172 292.871,303.363 292.871,303.832 C292.871,305.122 297.694,303.788 297.694,306.969 C297.694,308.567 296.198,309.520 294.073,309.520 ZM283.064,309.520 C280.850,309.520 279.296,308.655 279.164,306.954 C279.164,306.866 279.208,306.822 279.296,306.822 L281.598,306.822 C281.671,306.822 281.729,306.866 281.744,306.954 C281.818,307.614 282.257,307.907 283.064,307.907 C283.811,307.907 284.178,307.673 284.178,307.218 C284.178,306.016 279.354,307.233 279.354,304.110 C279.354,302.512 280.689,301.589 282.741,301.589 C284.793,301.589 286.157,302.424 286.377,303.993 C286.391,304.096 286.333,304.140 286.245,304.140 L284.060,304.140 C283.987,304.140 283.943,304.096 283.928,304.022 C283.811,303.495 283.474,303.172 282.785,303.172 C282.213,303.172 281.862,303.363 281.862,303.832 C281.862,305.122 286.684,303.788 286.684,306.969 C286.684,308.567 285.189,309.520 283.064,309.520 ZM275.895,309.329 C275.822,309.329 275.763,309.270 275.763,309.197 L275.807,306.119 L275.807,304.653 C275.807,303.920 275.411,303.509 274.869,303.509 C274.092,303.509 273.447,304.345 273.447,305.899 L273.447,306.119 L273.491,309.197 C273.491,309.270 273.432,309.329 273.359,309.329 L270.925,309.329 C270.852,309.329 270.793,309.270 270.793,309.197 L270.837,305.606 L270.837,301.911 C270.837,301.838 270.896,301.779 270.969,301.779 L273.242,301.779 C273.329,301.779 273.374,301.823 273.374,301.911 L273.329,302.688 C273.842,301.970 274.737,301.603 275.719,301.603 C277.405,301.603 278.402,302.732 278.402,304.462 L278.402,306.119 L278.446,309.197 C278.446,309.270 278.387,309.329 278.314,309.329 L275.895,309.329 ZM265.985,309.534 C263.434,309.534 261.953,307.995 261.953,305.576 C261.953,303.157 263.434,301.574 265.985,301.574 C268.536,301.574 269.987,303.099 269.987,305.517 C269.987,307.936 268.536,309.534 265.985,309.534 ZM265.970,303.304 C265.047,303.333 264.636,303.993 264.636,305.591 C264.636,307.189 265.076,307.790 265.985,307.790 C266.864,307.790 267.290,307.203 267.290,305.576 C267.290,303.978 266.850,303.304 265.970,303.304 ZM260.957,309.329 L258.553,309.329 C258.479,309.329 258.421,309.270 258.421,309.197 L258.464,305.620 L258.421,301.911 C258.421,301.838 258.479,301.779 258.553,301.779 L260.957,301.779 C261.030,301.779 261.089,301.838 261.089,301.911 L261.045,305.620 L261.089,309.197 C261.089,309.270 261.030,309.329 260.957,309.329 ZM258.538,301.193 C258.464,301.193 258.406,301.134 258.406,301.061 L258.406,299.199 C258.406,299.126 258.464,299.067 258.538,299.067 L260.957,299.067 C261.030,299.067 261.089,299.126 261.089,299.199 L261.089,301.061 C261.089,301.134 261.030,301.193 260.957,301.193 L258.538,301.193 ZM255.797,303.612 L255.811,306.808 C255.811,307.467 256.148,307.629 256.544,307.629 C256.925,307.629 257.189,307.555 257.424,307.497 C257.512,307.467 257.570,307.526 257.570,307.614 L257.570,309.021 C257.570,309.095 257.541,309.153 257.468,309.182 C256.969,309.359 256.427,309.490 255.899,309.490 C254.462,309.490 253.172,308.772 253.172,306.940 L253.202,303.612 L252.337,303.612 C252.263,303.612 252.205,303.553 252.205,303.480 L252.205,301.911 C252.205,301.838 252.263,301.779 252.337,301.779 L253.187,301.779 L253.172,300.020 C253.172,299.947 253.231,299.888 253.304,299.888 L255.679,299.888 C255.752,299.888 255.811,299.947 255.811,300.020 L255.797,301.779 L257.453,301.779 C257.526,301.779 257.585,301.838 257.585,301.911 L257.585,303.480 C257.585,303.553 257.526,303.612 257.453,303.612 L255.797,303.612 ZM251.399,309.197 C251.399,309.270 251.340,309.329 251.267,309.329 L248.980,309.329 C248.892,309.329 248.848,309.285 248.848,309.197 L248.892,308.406 C248.349,309.153 247.484,309.505 246.502,309.505 C244.816,309.505 243.819,308.362 243.819,306.573 L243.819,304.975 L243.776,301.911 C243.776,301.838 243.834,301.779 243.908,301.779 L246.326,301.779 C246.400,301.779 246.458,301.838 246.458,301.911 L246.414,304.975 L246.414,306.514 C246.414,307.189 246.795,307.585 247.338,307.585 C248.027,307.585 248.760,306.969 248.760,305.210 L248.760,304.975 L248.731,301.911 C248.731,301.838 248.789,301.779 248.863,301.779 L251.296,301.779 C251.369,301.779 251.428,301.838 251.428,301.911 L251.384,305.488 L251.399,309.197 ZM242.705,309.329 L240.374,309.329 C240.301,309.329 240.243,309.270 240.243,309.197 L240.301,304.228 L240.243,299.199 C240.243,299.126 240.301,299.067 240.374,299.067 L242.705,299.067 C242.779,299.067 242.837,299.126 242.837,299.199 L242.779,304.228 L242.837,309.197 C242.837,309.270 242.779,309.329 242.705,309.329 ZM235.375,309.534 C232.825,309.534 231.344,307.995 231.344,305.576 C231.344,303.157 232.825,301.574 235.375,301.574 C237.926,301.574 239.378,303.099 239.378,305.517 C239.378,307.936 237.926,309.534 235.375,309.534 ZM235.361,303.304 C234.437,303.333 234.027,303.993 234.027,305.591 C234.027,307.189 234.466,307.790 235.375,307.790 C236.255,307.790 236.680,307.203 236.680,305.576 C236.680,303.978 236.241,303.304 235.361,303.304 ZM226.111,309.593 C223.310,309.593 221.522,308.391 221.287,306.060 C221.273,305.972 221.317,305.928 221.405,305.928 L223.956,305.928 C224.029,305.928 224.073,305.972 224.088,306.045 C224.249,307.057 224.835,307.599 226.155,307.599 C227.283,307.599 227.899,307.291 227.899,306.544 C227.899,304.579 221.478,306.221 221.478,302.058 C221.478,300.094 222.988,298.818 225.773,298.818 C228.207,298.818 229.966,299.712 230.333,301.941 C230.347,302.029 230.289,302.087 230.201,302.087 L227.665,302.087 C227.591,302.087 227.532,302.043 227.518,301.955 C227.415,301.237 226.785,300.826 225.729,300.826 C224.850,300.826 224.205,301.105 224.205,301.779 C224.205,303.627 230.670,302.073 230.670,306.163 C230.670,308.362 228.969,309.593 226.111,309.593 ZM217.417,309.329 L215.086,309.329 C215.013,309.329 214.955,309.270 214.955,309.197 L215.013,304.228 L214.955,299.199 C214.955,299.126 215.013,299.067 215.086,299.067 L217.417,299.067 C217.491,299.067 217.549,299.126 217.549,299.199 L217.491,304.228 L217.549,309.197 C217.549,309.270 217.491,309.329 217.417,309.329 ZM213.840,309.329 L211.495,309.329 C211.407,309.329 211.363,309.285 211.363,309.197 L211.392,308.479 C210.864,309.109 210.117,309.476 209.164,309.476 C207.024,309.476 205.880,307.775 205.880,305.576 C205.880,303.392 207.199,301.633 209.281,301.633 C210.161,301.633 210.850,301.941 211.348,302.512 L211.319,301.911 C211.319,301.823 211.348,301.779 211.436,301.779 L213.840,301.779 C213.914,301.779 213.972,301.838 213.972,301.911 L213.928,305.576 L213.972,309.197 C213.972,309.270 213.914,309.329 213.840,309.329 ZM210.014,303.363 C209.076,303.348 208.563,304.037 208.563,305.517 C208.563,307.057 209.091,307.775 209.985,307.761 C210.879,307.761 211.392,307.072 211.407,305.591 C211.422,304.081 210.938,303.363 210.014,303.363 ZM204.883,309.329 L202.479,309.329 C202.406,309.329 202.347,309.270 202.347,309.197 L202.391,305.620 L202.347,301.911 C202.347,301.838 202.406,301.779 202.479,301.779 L204.883,301.779 C204.957,301.779 205.015,301.838 205.015,301.911 L204.971,305.620 L205.015,309.197 C205.015,309.270 204.957,309.329 204.883,309.329 ZM202.465,301.193 C202.391,301.193 202.333,301.134 202.333,301.061 L202.333,299.199 C202.333,299.126 202.391,299.067 202.465,299.067 L204.883,299.067 C204.957,299.067 205.015,299.126 205.015,299.199 L205.015,301.061 C205.015,301.134 204.957,301.193 204.883,301.193 L202.465,301.193 ZM201.262,303.685 C199.694,303.685 198.638,304.594 198.697,306.338 L198.697,309.197 C198.697,309.270 198.638,309.329 198.565,309.329 L196.205,309.329 C196.132,309.329 196.073,309.270 196.073,309.197 L196.132,305.576 L196.073,301.911 C196.073,301.838 196.132,301.779 196.205,301.779 L198.550,301.779 C198.638,301.779 198.683,301.823 198.683,301.911 L198.624,302.996 C199.225,302.146 200.134,301.721 201.174,301.721 C201.262,301.721 201.380,301.735 201.468,301.750 C201.541,301.765 201.585,301.823 201.585,301.897 L201.585,303.568 C201.585,303.656 201.541,303.700 201.453,303.700 C201.380,303.685 201.321,303.685 201.262,303.685 ZM193.493,303.612 L193.507,306.808 C193.507,307.467 193.845,307.629 194.240,307.629 C194.622,307.629 194.886,307.555 195.120,307.497 C195.208,307.467 195.267,307.526 195.267,307.614 L195.267,309.021 C195.267,309.095 195.237,309.153 195.164,309.182 C194.666,309.359 194.123,309.490 193.595,309.490 C192.159,309.490 190.869,308.772 190.869,306.940 L190.898,303.612 L190.033,303.612 C189.960,303.612 189.901,303.553 189.901,303.480 L189.901,301.911 C189.901,301.838 189.960,301.779 190.033,301.779 L190.883,301.779 L190.869,300.020 C190.869,299.947 190.927,299.888 191.001,299.888 L193.376,299.888 C193.449,299.888 193.507,299.947 193.507,300.020 L193.493,301.779 L195.149,301.779 C195.223,301.779 195.281,301.838 195.281,301.911 L195.281,303.480 C195.281,303.553 195.223,303.612 195.149,303.612 L193.493,303.612 ZM186.002,309.520 C183.788,309.520 182.234,308.655 182.102,306.954 C182.102,306.866 182.146,306.822 182.234,306.822 L184.536,306.822 C184.609,306.822 184.668,306.866 184.682,306.954 C184.756,307.614 185.195,307.907 186.002,307.907 C186.749,307.907 187.116,307.673 187.116,307.218 C187.116,306.016 182.293,307.233 182.293,304.110 C182.293,302.512 183.627,301.589 185.679,301.589 C187.732,301.589 189.095,302.424 189.315,303.993 C189.330,304.096 189.271,304.140 189.183,304.140 L186.999,304.140 C186.925,304.140 186.881,304.096 186.866,304.022 C186.749,303.495 186.412,303.172 185.723,303.172 C185.151,303.172 184.800,303.363 184.800,303.832 C184.800,305.122 189.623,303.788 189.623,306.969 C189.623,308.567 188.127,309.520 186.002,309.520 ZM181.296,309.197 C181.296,309.270 181.237,309.329 181.164,309.329 L178.877,309.329 C178.789,309.329 178.745,309.285 178.745,309.197 L178.789,308.406 C178.247,309.153 177.382,309.505 176.400,309.505 C174.714,309.505 173.717,308.362 173.717,306.573 L173.717,304.975 L173.673,301.911 C173.673,301.838 173.732,301.779 173.805,301.779 L176.224,301.779 C176.297,301.779 176.356,301.838 176.356,301.911 L176.312,304.975 L176.312,306.514 C176.312,307.189 176.693,307.585 177.235,307.585 C177.924,307.585 178.657,306.969 178.657,305.210 L178.657,304.975 L178.628,301.911 C178.628,301.838 178.687,301.779 178.760,301.779 L181.193,301.779 C181.267,301.779 181.325,301.838 181.325,301.911 L181.281,305.488 L181.296,309.197 ZM172.676,309.329 L170.316,309.329 C170.228,309.329 170.184,309.285 170.184,309.197 L170.228,308.479 C169.700,309.109 168.952,309.476 167.1000,309.476 C165.859,309.476 164.716,307.775 164.716,305.576 C164.716,303.392 166.035,301.633 168.117,301.633 C168.982,301.633 169.671,301.926 170.169,302.483 L170.155,299.199 C170.155,299.126 170.213,299.067 170.287,299.067 L172.662,299.067 C172.735,299.067 172.793,299.126 172.793,299.199 L172.764,304.389 L172.808,309.197 C172.808,309.270 172.749,309.329 172.676,309.329 ZM168.850,303.348 C167.912,303.333 167.399,304.037 167.399,305.517 C167.399,307.057 167.927,307.775 168.821,307.775 C169.715,307.775 170.228,307.086 170.243,305.591 C170.257,304.081 169.773,303.363 168.850,303.348 ZM161.403,309.329 C161.330,309.329 161.271,309.270 161.271,309.197 L161.315,306.119 L161.315,304.653 C161.315,303.920 160.919,303.509 160.377,303.509 C159.600,303.509 158.955,304.345 158.955,305.899 L158.955,306.119 L158.999,309.197 C158.999,309.270 158.940,309.329 158.867,309.329 L156.433,309.329 C156.360,309.329 156.301,309.270 156.301,309.197 L156.345,305.606 L156.345,301.911 C156.345,301.838 156.404,301.779 156.477,301.779 L158.750,301.779 C158.837,301.779 158.881,301.823 158.881,301.911 L158.837,302.688 C159.350,301.970 160.245,301.603 161.227,301.603 C162.913,301.603 163.910,302.732 163.910,304.462 L163.910,306.119 L163.954,309.197 C163.954,309.270 163.895,309.329 163.822,309.329 L161.403,309.329 ZM155.085,309.329 L152.607,309.329 C152.534,309.329 152.475,309.270 152.475,309.197 L152.534,304.242 L152.475,299.199 C152.475,299.126 152.534,299.067 152.607,299.067 L155.085,299.067 C155.158,299.067 155.216,299.126 155.216,299.199 L155.158,304.242 L155.216,309.197 C155.216,309.270 155.158,309.329 155.085,309.329 ZM148.400,309.329 L146.039,309.329 C145.952,309.329 145.908,309.285 145.908,309.197 L145.952,308.479 C145.424,309.109 144.676,309.476 143.723,309.476 C141.583,309.476 140.440,307.775 140.440,305.576 C140.440,303.392 141.759,301.633 143.840,301.633 C144.705,301.633 145.395,301.926 145.893,302.483 L145.878,299.199 C145.878,299.126 145.937,299.067 146.010,299.067 L148.385,299.067 C148.458,299.067 148.517,299.126 148.517,299.199 L148.488,304.389 L148.532,309.197 C148.532,309.270 148.473,309.329 148.400,309.329 ZM144.573,303.348 C143.635,303.333 143.122,304.037 143.122,305.517 C143.122,307.057 143.650,307.775 144.544,307.775 C145.438,307.775 145.952,307.086 145.966,305.591 C145.981,304.081 145.497,303.363 144.573,303.348 ZM134.444,306.104 C134.546,307.379 135.015,307.790 135.836,307.790 C136.437,307.790 136.862,307.526 137.038,306.896 C137.068,306.822 137.112,306.778 137.185,306.778 L139.443,306.778 C139.531,306.778 139.589,306.822 139.574,306.910 C139.355,308.215 138.050,309.534 135.836,309.534 C133.315,309.534 131.820,307.907 131.820,305.576 C131.820,303.143 133.373,301.574 135.748,301.574 C138.299,301.574 139.721,303.143 139.765,305.972 C139.765,306.060 139.707,306.104 139.633,306.104 L134.444,306.104 ZM135.807,303.260 C135.133,303.260 134.678,303.627 134.502,304.579 L137.009,304.579 C136.965,303.861 136.569,303.260 135.807,303.260 ZM131.233,303.685 C129.665,303.685 128.609,304.594 128.668,306.338 L128.668,309.197 C128.668,309.270 128.609,309.329 128.536,309.329 L126.176,309.329 C126.102,309.329 126.044,309.270 126.044,309.197 L126.102,305.576 L126.044,301.911 C126.044,301.838 126.102,301.779 126.176,301.779 L128.521,301.779 C128.609,301.779 128.653,301.823 128.653,301.911 L128.594,302.996 C129.195,302.146 130.104,301.721 131.145,301.721 C131.233,301.721 131.350,301.735 131.438,301.750 C131.512,301.765 131.556,301.823 131.556,301.897 L131.556,303.568 C131.556,303.656 131.512,303.700 131.424,303.700 C131.350,303.685 131.292,303.685 131.233,303.685 ZM119.931,306.104 C120.033,307.379 120.502,307.790 121.323,307.790 C121.924,307.790 122.350,307.526 122.525,306.896 C122.555,306.822 122.599,306.778 122.672,306.778 L124.929,306.778 C125.017,306.778 125.076,306.822 125.062,306.910 C124.842,308.215 123.537,309.534 121.323,309.534 C118.802,309.534 117.306,307.907 117.306,305.576 C117.306,303.143 118.861,301.574 121.235,301.574 C123.786,301.574 125.208,303.143 125.252,305.972 C125.252,306.060 125.193,306.104 125.120,306.104 L119.931,306.104 ZM121.294,303.260 C120.620,303.260 120.165,303.627 119.989,304.579 L122.496,304.579 C122.452,303.861 122.056,303.260 121.294,303.260 ZM115.503,309.212 C115.489,309.300 115.430,309.329 115.357,309.329 L112.703,309.329 C112.630,309.329 112.571,309.300 112.557,309.212 L111.516,304.359 L110.607,309.212 C110.592,309.300 110.534,309.329 110.461,309.329 L107.822,309.329 C107.748,309.329 107.690,309.300 107.675,309.212 L106.077,301.926 C106.062,301.823 106.106,301.779 106.195,301.779 L108.511,301.779 C108.584,301.779 108.628,301.823 108.642,301.897 L109.302,306.749 L110.226,301.897 C110.241,301.809 110.299,301.779 110.372,301.779 L113.055,301.779 C113.128,301.779 113.173,301.809 113.187,301.897 L114.067,306.646 L114.770,301.897 C114.785,301.823 114.829,301.779 114.902,301.779 L117.013,301.779 C117.101,301.779 117.145,301.823 117.130,301.926 L115.503,309.212 ZM101.914,309.534 C99.363,309.534 97.882,307.995 97.882,305.576 C97.882,303.157 99.363,301.574 101.914,301.574 C104.464,301.574 105.916,303.099 105.916,305.517 C105.916,307.936 104.464,309.534 101.914,309.534 ZM101.899,303.304 C100.975,303.333 100.565,303.993 100.565,305.591 C100.565,307.189 101.005,307.790 101.914,307.790 C102.793,307.790 103.218,307.203 103.218,305.576 C103.218,303.978 102.779,303.304 101.899,303.304 ZM93.440,305.957 L91.974,305.957 L92.004,309.197 C92.004,309.270 91.945,309.329 91.872,309.329 L89.351,309.329 C89.277,309.329 89.219,309.270 89.219,309.197 L89.292,304.257 L89.219,299.199 C89.219,299.126 89.277,299.067 89.351,299.067 L93.470,299.067 C96.123,299.067 97.575,300.211 97.575,302.454 C97.575,304.623 96.064,305.957 93.440,305.957 ZM93.367,300.988 L91.989,300.988 L91.960,304.022 L93.426,304.022 C94.276,304.022 94.936,303.597 94.936,302.512 C94.936,301.471 94.350,300.988 93.367,300.988 Z"/>
</svg>