<svg 
 xmlns="http://www.w3.org/2000/svg"
 xmlns:xlink="http://www.w3.org/1999/xlink"
 width="407px" height="156px">
<text kerning="auto" font-family="Myriad Pro" fill="rgb(0, 0, 0)" font-size="26px" x="386px" y="115px"><tspan font-size="26px" font-family="Futura Bk" fill="#1EA2FF">&#174;</tspan></text>
<path fill-rule="evenodd"  fill="rgb(30, 162, 255)"
 d="M369.349,115.128 L328.948,115.128 C322.142,115.164 314.614,115.203 307.318,115.239 C308.169,133.311 315.591,141.857 329.916,141.857 C340.310,141.857 347.075,136.742 349.385,126.183 C349.550,125.358 350.375,124.863 351.035,124.863 L367.534,124.863 C368.194,124.863 368.854,125.523 368.689,126.183 C366.379,142.517 352.355,155.881 329.586,155.881 C303.512,155.881 288.962,139.278 287.624,115.335 C280.708,115.366 275.457,115.387 273.536,115.387 C260.172,115.387 248.127,108.622 248.127,89.647 L248.292,43.779 L238.558,43.779 C237.898,43.779 237.238,43.119 237.238,42.459 L237.238,30.250 C237.238,29.590 237.898,28.930 238.558,28.930 L248.292,28.930 L248.127,8.966 C248.127,8.306 248.787,7.646 249.447,7.646 L266.772,7.646 C267.431,7.646 268.091,8.306 268.091,8.966 L267.927,28.930 L287.231,28.930 C287.890,28.930 288.551,29.590 288.551,30.250 L288.551,42.459 C288.551,43.119 287.890,43.779 287.231,43.779 L267.927,43.779 L267.927,89.152 C267.927,97.732 271.556,101.372 277.826,101.372 C278.652,101.372 282.633,101.372 288.352,101.372 C291.901,80.322 306.634,66.950 328.926,66.950 C355.325,66.950 370.174,84.769 370.669,113.808 C370.669,114.468 370.009,115.128 369.349,115.128 ZM329.091,80.810 C317.328,80.810 310.264,87.937 308.044,101.372 C324.325,101.372 342.378,101.372 349.185,101.372 C348.242,90.477 341.971,80.810 329.091,80.810 ZM226.182,113.901 L208.527,113.901 C207.867,113.901 207.208,113.242 207.208,112.582 L207.537,70.838 L207.208,30.250 C207.208,29.590 207.867,28.930 208.527,28.930 L226.182,28.930 C226.842,28.930 227.502,29.590 227.502,30.250 L227.007,70.838 L227.502,112.582 C227.502,113.242 226.842,113.901 226.182,113.901 ZM226.017,20.185 L208.527,20.185 C207.867,20.185 207.208,19.525 207.208,18.865 L207.208,1.871 C207.208,1.211 207.867,0.551 208.527,0.551 L226.017,0.551 C226.677,0.551 227.337,1.211 227.337,1.871 L227.337,18.865 C227.337,19.525 226.677,20.185 226.017,20.185 ZM196.644,88.658 C196.644,105.982 180.475,115.881 158.861,115.881 C134.937,115.881 119.923,105.817 119.263,86.348 C119.263,85.688 119.923,85.028 120.583,85.028 L137.247,85.028 C137.907,85.028 138.567,85.688 138.567,86.348 C139.062,97.567 146.322,102.682 159.686,102.682 C170.906,102.682 177.670,98.227 177.670,90.308 C177.670,71.498 121.242,88.163 121.242,53.184 C121.242,36.025 134.937,26.950 156.551,26.950 C177.670,26.950 192.355,35.695 193.675,53.514 C193.675,54.174 193.015,54.834 192.355,54.834 L176.515,54.834 C175.855,54.834 175.195,54.339 175.030,53.514 C173.710,44.769 167.441,39.819 156.221,39.819 C146.486,39.819 140.217,43.449 140.217,51.699 C140.217,70.013 196.644,52.689 196.644,88.658 ZM108.699,113.901 L91.210,113.901 C90.550,113.901 89.890,113.242 89.890,112.582 L90.220,77.768 L90.220,60.774 C90.220,48.729 83.785,42.459 74.711,42.459 C64.811,42.459 55.407,50.874 53.757,68.528 L53.757,77.768 L54.087,112.582 C54.087,113.242 53.427,113.901 52.767,113.901 L34.947,113.901 C34.287,113.901 33.628,113.242 33.628,112.582 L34.123,73.973 L33.958,30.250 C33.958,29.590 34.618,28.930 35.278,28.930 L51.942,28.930 C52.602,28.930 53.262,29.590 53.262,30.250 L52.767,41.305 C58.212,33.385 67.946,26.950 80.651,26.950 C98.305,26.950 109.689,38.830 109.689,60.279 L109.689,77.768 L110.020,112.582 C110.020,113.242 109.359,113.901 108.699,113.901 ZM19.437,113.901 L1.782,113.901 C1.122,113.901 0.462,113.242 0.462,112.582 L0.793,70.838 L0.462,30.250 C0.462,29.590 1.122,28.930 1.782,28.930 L19.437,28.930 C20.097,28.930 20.757,29.590 20.757,30.250 L20.262,70.838 L20.757,112.582 C20.757,113.242 20.097,113.901 19.437,113.901 ZM19.272,20.185 L1.782,20.185 C1.122,20.185 0.462,19.525 0.462,18.865 L0.462,1.871 C0.462,1.211 1.122,0.551 1.782,0.551 L19.272,0.551 C19.932,0.551 20.592,1.211 20.592,1.871 L20.592,18.865 C20.592,19.525 19.932,20.185 19.272,20.185 Z"/>
</svg>