<svg 
 xmlns="http://www.w3.org/2000/svg"
 xmlns:xlink="http://www.w3.org/1999/xlink"
 width="510px" height="310px">
<path fill-rule="evenodd"  fill="rgb(255, 255, 255)"
 d="M466.955,286.303 L466.955,280.414 L467.133,278.451 L464.421,284.379 C464.207,284.877 463.862,285.125 463.386,285.125 L462.957,285.125 C462.481,285.125 462.124,284.877 461.887,284.379 L459.210,278.529 L459.388,280.414 L459.388,286.303 L456.712,286.303 L456.712,274.486 L459.353,274.486 C459.662,274.486 459.864,274.499 459.959,274.525 C460.078,274.551 460.197,274.708 460.316,274.996 L462.672,280.021 L462.922,280.689 L463.136,281.395 L463.350,280.689 C463.373,280.610 463.469,280.388 463.636,280.021 L466.027,274.996 C466.146,274.761 466.277,274.617 466.420,274.564 C466.610,274.512 466.800,274.486 466.991,274.486 L469.632,274.486 L469.632,286.303 L466.955,286.303 ZM452.500,286.303 L449.466,286.303 L449.466,277.234 L446.575,277.234 L446.575,274.486 L455.427,274.486 L455.427,277.234 L452.500,277.234 L452.500,286.303 ZM438.759,290.072 C438.759,288.868 438.497,287.913 437.974,287.206 C437.474,286.526 436.701,286.185 435.654,286.185 C434.892,286.185 434.178,286.381 433.512,286.774 C432.799,287.193 432.168,287.703 431.621,288.305 L431.621,298.984 L432.656,299.180 L433.191,299.298 L433.405,299.337 C433.1000,299.494 434.298,299.901 434.298,300.554 L434.298,302.871 L424.518,302.871 L424.518,300.554 C424.518,299.901 424.815,299.494 425.411,299.337 L425.625,299.298 L426.160,299.180 L427.195,298.984 L427.195,286.617 L426.160,286.421 C426.041,286.395 425.940,286.369 425.857,286.342 C425.773,286.316 425.696,286.303 425.625,286.303 L425.411,286.264 C424.815,286.107 424.518,285.701 424.518,285.047 L424.518,282.730 L429.908,282.730 C430.455,282.730 430.823,283.031 431.014,283.633 L431.335,285.204 C431.668,284.785 432.049,284.406 432.477,284.065 C432.810,283.777 433.250,283.490 433.798,283.201 C434.416,282.887 434.904,282.691 435.261,282.612 C435.856,282.482 436.427,282.416 436.975,282.416 C438.021,282.416 438.913,282.600 439.651,282.966 C440.341,283.280 440.984,283.804 441.578,284.536 C442.078,285.191 442.471,286.002 442.756,286.970 C443.018,287.834 443.149,288.868 443.149,290.072 L443.149,298.984 L444.220,299.180 C444.339,299.207 444.440,299.233 444.523,299.259 C444.606,299.285 444.684,299.298 444.755,299.298 L444.969,299.337 C445.564,299.494 445.861,299.901 445.861,300.554 L445.861,302.871 L438.759,302.871 L438.759,290.072 ZM423.055,286.303 L421.413,286.617 C421.508,286.879 421.592,287.245 421.663,287.716 C421.734,288.109 421.770,288.501 421.770,288.894 C421.770,289.915 421.592,290.818 421.235,291.603 C420.854,292.441 420.354,293.121 419.736,293.645 C419.117,294.168 418.356,294.600 417.451,294.940 C416.595,295.254 415.655,295.411 414.632,295.411 C413.823,295.411 413.145,295.346 412.597,295.215 C412.026,295.608 411.741,296.026 411.741,296.471 C411.741,296.890 411.907,297.191 412.241,297.374 C412.573,297.558 413.026,297.688 413.597,297.767 C414.358,297.872 414.989,297.924 415.489,297.924 C415.726,297.924 416.024,297.931 416.381,297.944 C416.738,297.957 417.154,297.990 417.630,298.042 C418.367,298.120 419.093,298.238 419.807,298.395 C420.426,298.526 421.044,298.788 421.663,299.180 C422.234,299.521 422.686,299.992 423.019,300.594 C423.352,301.170 423.519,301.955 423.519,302.949 C423.519,303.839 423.317,304.702 422.912,305.540 C422.531,306.378 421.960,307.124 421.199,307.778 C420.485,308.432 419.557,308.956 418.415,309.349 C417.296,309.741 416.047,309.938 414.668,309.938 C413.192,309.938 411.978,309.793 411.027,309.506 C410.028,309.192 409.183,308.799 408.493,308.328 C407.827,307.883 407.327,307.320 406.994,306.640 C406.661,305.985 406.494,305.318 406.494,304.637 C406.494,303.642 406.756,302.845 407.279,302.243 C407.779,301.641 408.505,301.143 409.457,300.751 C409.028,300.489 408.672,300.123 408.386,299.651 C408.101,299.180 407.958,298.579 407.958,297.845 C407.958,297.506 408.005,297.191 408.101,296.903 C408.243,296.485 408.386,296.171 408.529,295.961 C408.766,295.621 409.016,295.320 409.278,295.058 C409.468,294.875 409.825,294.626 410.349,294.312 C409.421,293.762 408.683,293.030 408.136,292.113 C407.612,291.224 407.351,290.150 407.351,288.894 C407.351,287.873 407.529,286.970 407.886,286.185 C408.243,285.400 408.755,284.720 409.421,284.144 C410.063,283.594 410.825,283.162 411.705,282.848 C412.609,282.534 413.585,282.377 414.632,282.377 C415.322,282.377 416.060,282.469 416.845,282.652 C417.511,282.809 418.141,283.071 418.736,283.437 L423.983,283.437 L423.983,285.243 C423.983,285.557 423.912,285.793 423.769,285.950 C423.626,286.107 423.388,286.224 423.055,286.303 ZM410.313,304.009 C410.313,304.297 410.396,304.624 410.563,304.991 C410.706,305.305 410.956,305.580 411.313,305.815 C411.646,306.024 412.110,306.194 412.704,306.326 C413.347,306.456 414.025,306.522 414.739,306.522 C415.572,306.522 416.285,306.443 416.880,306.286 C417.523,306.129 418.010,305.946 418.344,305.737 C418.724,305.527 419.010,305.239 419.200,304.873 C419.367,304.585 419.450,304.218 419.450,303.774 C419.450,303.381 419.343,303.067 419.129,302.832 C418.915,302.596 418.629,302.400 418.272,302.243 C418.010,302.138 417.570,302.033 416.952,301.928 C416.571,301.876 416.047,301.824 415.381,301.771 L413.668,301.693 C412.906,301.641 412.348,301.589 411.991,301.536 C411.443,301.876 411.039,302.230 410.777,302.596 C410.468,303.014 410.313,303.485 410.313,304.009 ZM417.059,286.656 C416.535,286.081 415.726,285.793 414.632,285.793 C413.513,285.793 412.692,286.081 412.169,286.656 C411.646,287.232 411.384,288.018 411.384,289.012 C411.384,289.562 411.443,290.007 411.562,290.347 C411.705,290.739 411.907,291.080 412.169,291.367 C412.478,291.708 412.823,291.943 413.204,292.074 C413.633,292.231 414.108,292.310 414.632,292.310 C415.179,292.310 415.655,292.231 416.060,292.074 C416.464,291.917 416.797,291.695 417.059,291.407 C417.296,291.197 417.499,290.844 417.665,290.347 C417.808,289.954 417.880,289.509 417.880,289.012 C417.880,288.044 417.606,287.259 417.059,286.656 ZM396.394,300.554 C396.394,299.901 396.691,299.494 397.286,299.337 L397.500,299.298 L398.035,299.180 L399.106,298.984 L399.106,286.617 L398.035,286.421 C397.916,286.395 397.815,286.369 397.732,286.342 C397.649,286.316 397.572,286.303 397.500,286.303 L397.286,286.264 C396.691,286.107 396.394,285.701 396.394,285.047 L396.394,282.730 L403.496,282.730 L403.496,298.984 L404.567,299.180 C404.686,299.207 404.787,299.233 404.870,299.259 C404.953,299.285 405.031,299.298 405.102,299.298 L405.316,299.337 C405.911,299.494 406.209,299.901 406.209,300.554 L406.209,302.871 L396.394,302.871 L396.394,300.554 ZM403.318,279.001 C403.032,279.315 402.734,279.537 402.426,279.668 C402.069,279.825 401.700,279.903 401.319,279.903 C400.938,279.903 400.570,279.825 400.213,279.668 C399.927,279.537 399.642,279.315 399.356,279.001 C399.094,278.713 398.892,278.386 398.749,278.019 C398.606,277.653 398.535,277.260 398.535,276.841 C398.535,276.423 398.606,276.017 398.749,275.624 C398.868,275.284 399.071,274.957 399.356,274.643 C399.618,274.355 399.903,274.146 400.213,274.015 C400.641,273.832 401.009,273.740 401.319,273.740 C401.628,273.740 401.997,273.832 402.426,274.015 C402.782,274.172 403.080,274.381 403.318,274.643 C403.603,274.957 403.805,275.284 403.925,275.624 C404.091,276.070 404.174,276.475 404.174,276.841 C404.174,277.208 404.091,277.601 403.925,278.019 C403.782,278.386 403.579,278.713 403.318,279.001 ZM394.110,301.300 C393.467,301.928 392.705,302.387 391.825,302.674 C390.969,303.014 389.921,303.185 388.684,303.185 C387.614,303.185 386.561,303.080 385.526,302.871 C384.491,302.662 383.604,302.400 382.867,302.086 L382.867,296.393 L384.937,296.393 C385.365,296.393 385.638,296.642 385.758,297.139 C385.805,297.427 385.888,298.199 386.008,299.455 C386.650,299.665 387.614,299.769 388.899,299.769 C389.398,299.769 389.850,299.704 390.255,299.573 C390.659,299.416 390.969,299.233 391.183,299.023 C391.468,298.762 391.647,298.513 391.718,298.277 C391.813,297.990 391.861,297.675 391.861,297.335 C391.861,296.864 391.742,296.485 391.504,296.196 C391.290,295.935 390.945,295.673 390.469,295.411 C390.017,295.176 389.541,294.979 389.041,294.822 L387.364,294.233 C386.983,294.103 386.436,293.854 385.722,293.487 C385.151,293.200 384.663,292.847 384.259,292.428 C383.830,292.009 383.497,291.485 383.259,290.857 C382.997,290.203 382.867,289.444 382.867,288.580 C382.867,287.743 383.010,286.957 383.295,286.224 C383.581,285.492 384.021,284.837 384.616,284.261 C385.210,283.686 385.936,283.241 386.793,282.926 C387.721,282.587 388.708,282.416 389.755,282.416 C390.659,282.416 391.456,282.489 392.147,282.632 C392.836,282.776 393.824,283.058 395.109,283.476 L395.073,283.476 L395.073,289.169 L393.039,289.169 C392.610,289.169 392.337,288.920 392.218,288.423 C392.147,288.083 392.063,287.350 391.968,286.224 C391.420,286.042 390.707,285.950 389.827,285.950 C388.970,285.950 388.292,286.146 387.792,286.538 C387.293,286.931 387.043,287.468 387.043,288.148 C387.043,288.541 387.173,288.908 387.435,289.247 C387.625,289.483 387.958,289.732 388.435,289.993 C388.982,290.282 389.458,290.491 389.862,290.621 C390.052,290.674 390.600,290.857 391.504,291.171 C391.956,291.328 392.515,291.577 393.181,291.917 C393.752,292.205 394.228,292.545 394.609,292.938 C395.037,293.330 395.370,293.815 395.608,294.391 C395.870,295.019 396.001,295.713 396.001,296.471 C396.001,297.414 395.834,298.316 395.501,299.180 C395.168,299.992 394.704,300.699 394.110,301.300 ZM382.082,293.016 C382.034,293.148 381.926,293.252 381.761,293.330 C381.665,293.383 381.498,293.409 381.261,293.409 L369.947,293.409 C370.090,295.477 370.601,296.995 371.481,297.963 C372.361,298.932 373.527,299.416 374.979,299.416 C375.716,299.416 376.323,299.324 376.799,299.141 C377.322,298.958 377.775,298.748 378.156,298.513 C378.322,298.409 378.495,298.310 378.673,298.218 C378.852,298.127 379.024,298.029 379.191,297.924 C379.452,297.741 379.726,297.649 380.012,297.649 C380.202,297.649 380.368,297.688 380.511,297.767 C380.630,297.820 380.737,297.924 380.832,298.081 L382.117,299.848 C381.570,300.529 381.023,301.065 380.476,301.457 C379.833,301.903 379.202,302.243 378.584,302.478 C377.989,302.688 377.311,302.858 376.549,302.989 C375.954,303.093 375.288,303.145 374.551,303.145 C373.242,303.145 372.064,302.923 371.017,302.478 C369.970,302.033 369.019,301.340 368.162,300.397 C367.353,299.508 366.710,298.382 366.235,297.021 C365.783,295.713 365.557,294.155 365.557,292.349 C365.557,291.040 365.759,289.758 366.163,288.501 C366.544,287.324 367.127,286.264 367.912,285.321 C368.650,284.432 369.566,283.725 370.661,283.201 C371.755,282.678 372.992,282.416 374.372,282.416 C375.538,282.416 376.597,282.612 377.549,283.005 C378.453,283.372 379.285,283.974 380.047,284.811 C380.737,285.570 381.284,286.526 381.689,287.677 C382.093,288.855 382.296,290.138 382.296,291.525 C382.296,291.839 382.272,292.153 382.224,292.467 C382.177,292.755 382.129,292.938 382.082,293.016 ZM378.084,288.698 C377.941,288.201 377.703,287.716 377.370,287.245 C377.061,286.827 376.656,286.499 376.157,286.264 C375.609,286.002 375.038,285.871 374.444,285.871 C373.182,285.871 372.183,286.277 371.446,287.088 C370.732,287.873 370.268,288.999 370.054,290.464 L378.334,290.464 C378.334,289.915 378.250,289.326 378.084,288.698 ZM361.595,298.905 C360.500,300.110 359.120,301.078 357.455,301.811 C355.861,302.517 354.088,302.871 352.137,302.871 L339.966,302.871 L339.966,300.554 C339.966,299.901 340.263,299.494 340.858,299.337 L341.072,299.298 C341.144,299.298 341.221,299.285 341.305,299.259 C341.388,299.233 341.489,299.207 341.608,299.180 L342.679,298.984 L342.679,278.372 L341.608,278.176 C341.489,278.150 341.388,278.124 341.305,278.098 C341.221,278.072 341.144,278.058 341.072,278.058 L340.858,278.019 C340.263,277.862 339.966,277.457 339.966,276.802 L339.966,274.486 L352.137,274.486 C354.088,274.486 355.861,274.839 357.455,275.546 C359.120,276.279 360.500,277.247 361.595,278.451 C362.689,279.655 363.570,281.147 364.236,282.926 C364.878,284.654 365.200,286.565 365.200,288.659 C365.200,290.753 364.878,292.663 364.236,294.391 C363.570,296.196 362.689,297.702 361.595,298.905 ZM359.703,284.497 C359.275,283.189 358.740,282.141 358.097,281.356 C357.407,280.545 356.550,279.891 355.528,279.393 C354.528,278.922 353.398,278.686 352.137,278.686 L347.497,278.686 L347.497,298.670 L352.137,298.670 C353.398,298.670 354.528,298.434 355.528,297.963 C356.550,297.466 357.407,296.812 358.097,296.000 C358.763,295.189 359.298,294.142 359.703,292.859 C360.084,291.629 360.275,290.229 360.275,288.659 C360.275,287.114 360.084,285.728 359.703,284.497 ZM330.579,286.342 C330.389,286.395 329.973,286.486 329.330,286.617 L320.871,308.406 C320.729,308.773 320.550,309.035 320.336,309.192 C320.169,309.349 319.860,309.427 319.408,309.427 L316.125,309.427 L319.551,301.379 L313.662,286.617 C313.020,286.486 312.603,286.395 312.413,286.342 C312.222,286.290 312.079,286.264 311.984,286.264 C311.389,286.107 311.092,285.701 311.092,285.047 L311.092,282.730 L320.015,282.730 L320.015,285.047 C320.015,285.701 319.717,286.107 319.123,286.264 L318.266,286.421 L321.157,294.076 C321.252,294.312 321.323,294.522 321.371,294.705 C321.419,294.888 321.454,295.032 321.478,295.137 C321.526,295.320 321.609,295.686 321.728,296.236 L322.049,295.137 C322.192,294.665 322.311,294.312 322.406,294.076 L325.083,286.499 L323.869,286.264 C323.275,286.107 322.977,285.701 322.977,285.047 L322.977,282.730 L331.900,282.730 L331.900,285.047 C331.900,285.701 331.602,286.107 331.008,286.264 C330.912,286.264 330.770,286.290 330.579,286.342 ZM308.665,300.162 C307.975,301.104 307.142,301.837 306.167,302.360 C305.239,302.884 304.156,303.145 302.919,303.145 C300.254,303.145 297.267,302.779 293.960,302.046 L293.960,277.587 L292.854,277.391 C292.711,277.365 292.592,277.339 292.497,277.312 C292.402,277.287 292.319,277.273 292.247,277.273 L291.997,277.234 C291.402,277.077 291.105,276.671 291.105,276.017 L291.105,273.700 L298.351,273.700 L298.351,285.204 C299.040,284.366 299.861,283.686 300.813,283.162 C301.717,282.665 302.788,282.416 304.025,282.416 C305.072,282.416 305.988,282.639 306.773,283.084 C307.582,283.503 308.296,284.157 308.915,285.047 C309.509,285.885 309.973,286.957 310.307,288.266 C310.640,289.575 310.807,291.028 310.807,292.624 C310.807,294.037 310.616,295.438 310.236,296.825 C309.902,298.081 309.379,299.194 308.665,300.162 ZM305.988,289.640 C305.797,288.803 305.548,288.135 305.239,287.638 C304.929,287.141 304.537,286.774 304.061,286.538 C303.609,286.303 303.097,286.185 302.526,286.185 C301.574,286.185 300.789,286.395 300.171,286.813 C299.504,287.259 298.898,287.860 298.351,288.619 L298.351,299.102 C299.516,299.337 300.706,299.455 301.919,299.455 C302.609,299.455 303.204,299.324 303.704,299.062 C304.251,298.775 304.703,298.356 305.060,297.806 C305.465,297.204 305.762,296.498 305.953,295.686 C306.143,294.927 306.238,293.906 306.238,292.624 C306.238,291.394 306.155,290.399 305.988,289.640 ZM278.470,298.748 C278.756,299.089 279.136,299.259 279.613,299.259 C279.946,299.259 280.171,299.233 280.291,299.180 L280.755,298.945 L281.147,298.709 C281.219,298.657 281.313,298.631 281.433,298.631 C281.623,298.631 281.742,298.657 281.790,298.709 L282.040,299.023 L283.360,301.379 C282.741,301.928 282.004,302.374 281.147,302.714 C280.338,303.028 279.482,303.185 278.577,303.185 C276.983,303.185 275.758,302.688 274.901,301.693 C274.045,300.699 273.616,299.337 273.616,297.610 L273.616,286.381 L271.760,286.381 C271.570,286.381 271.368,286.290 271.154,286.107 C270.963,285.950 270.868,285.701 270.868,285.361 L270.868,283.398 L273.831,282.887 L274.759,277.391 C274.782,277.155 274.889,276.959 275.080,276.802 C275.270,276.645 275.496,276.566 275.758,276.566 L278.042,276.566 L278.042,282.926 L282.860,282.926 L282.860,286.381 L278.042,286.381 L278.042,297.296 C278.042,297.898 278.185,298.382 278.470,298.748 ZM263.409,290.072 C263.409,288.868 263.147,287.913 262.624,287.206 C262.124,286.526 261.350,286.185 260.304,286.185 C259.542,286.185 258.828,286.381 258.162,286.774 C257.448,287.193 256.818,287.703 256.271,288.305 L256.271,298.984 L257.306,299.180 L257.841,299.298 L258.055,299.337 C258.650,299.494 258.947,299.901 258.947,300.554 L258.947,302.871 L249.168,302.871 L249.168,300.554 C249.168,299.901 249.465,299.494 250.060,299.337 L250.274,299.298 L250.810,299.180 L251.845,298.984 L251.845,286.617 L250.810,286.421 C250.690,286.395 250.590,286.369 250.507,286.342 C250.423,286.316 250.346,286.303 250.274,286.303 L250.060,286.264 C249.465,286.107 249.168,285.701 249.168,285.047 L249.168,282.730 L254.557,282.730 C255.104,282.730 255.473,283.031 255.664,283.633 L255.985,285.204 C256.318,284.785 256.699,284.406 257.127,284.065 C257.460,283.777 257.900,283.490 258.448,283.201 C259.066,282.887 259.554,282.691 259.911,282.612 C260.505,282.482 261.077,282.416 261.624,282.416 C262.671,282.416 263.563,282.600 264.301,282.966 C264.991,283.280 265.633,283.804 266.228,284.536 C266.728,285.191 267.121,286.002 267.406,286.970 C267.668,287.834 267.799,288.868 267.799,290.072 L267.799,298.984 L268.870,299.180 C268.988,299.207 269.089,299.233 269.173,299.259 C269.256,299.285 269.333,299.298 269.405,299.298 L269.619,299.337 C270.214,299.494 270.511,299.901 270.511,300.554 L270.511,302.871 L263.409,302.871 L263.409,290.072 ZM248.419,293.016 C248.371,293.148 248.263,293.252 248.098,293.330 C248.002,293.383 247.835,293.409 247.598,293.409 L236.284,293.409 C236.427,295.477 236.938,296.995 237.818,297.963 C238.698,298.932 239.864,299.416 241.316,299.416 C242.053,299.416 242.660,299.324 243.136,299.141 C243.660,298.958 244.112,298.748 244.493,298.513 C244.659,298.409 244.832,298.310 245.010,298.218 C245.188,298.127 245.361,298.029 245.528,297.924 C245.789,297.741 246.063,297.649 246.349,297.649 C246.539,297.649 246.705,297.688 246.848,297.767 C246.967,297.820 247.074,297.924 247.169,298.081 L248.454,299.848 C247.907,300.529 247.360,301.065 246.813,301.457 C246.170,301.903 245.539,302.243 244.921,302.478 C244.326,302.688 243.648,302.858 242.886,302.989 C242.291,303.093 241.625,303.145 240.888,303.145 C239.579,303.145 238.401,302.923 237.354,302.478 C236.307,302.033 235.356,301.340 234.499,300.397 C233.690,299.508 233.047,298.382 232.572,297.021 C232.120,295.713 231.894,294.155 231.894,292.349 C231.894,291.040 232.096,289.758 232.500,288.501 C232.881,287.324 233.464,286.264 234.249,285.321 C234.987,284.432 235.903,283.725 236.998,283.201 C238.092,282.678 239.329,282.416 240.709,282.416 C241.875,282.416 242.934,282.612 243.886,283.005 C244.790,283.372 245.622,283.974 246.384,284.811 C247.074,285.570 247.621,286.526 248.026,287.677 C248.430,288.855 248.633,290.138 248.633,291.525 C248.633,291.839 248.609,292.153 248.561,292.467 C248.514,292.755 248.466,292.938 248.419,293.016 ZM244.421,288.698 C244.278,288.201 244.040,287.716 243.707,287.245 C243.398,286.827 242.993,286.499 242.494,286.264 C241.946,286.002 241.375,285.871 240.781,285.871 C239.519,285.871 238.520,286.277 237.783,287.088 C237.069,287.873 236.605,288.999 236.391,290.464 L244.671,290.464 C244.671,289.915 244.587,289.326 244.421,288.698 ZM224.292,290.072 C224.292,288.763 224.042,287.795 223.542,287.167 C223.042,286.513 222.293,286.185 221.293,286.185 C220.889,286.185 220.460,286.277 220.009,286.460 C219.628,286.617 219.295,286.853 219.009,287.167 C218.771,287.429 218.545,287.834 218.331,288.384 C218.164,288.829 218.081,289.392 218.081,290.072 L218.081,298.984 L219.116,299.180 L219.652,299.298 L219.866,299.337 C220.460,299.494 220.758,299.901 220.758,300.554 L220.758,302.871 L213.655,302.871 L213.655,290.072 C213.655,288.737 213.406,287.755 212.906,287.127 C212.406,286.499 211.680,286.185 210.729,286.185 C210.087,286.185 209.491,286.356 208.944,286.696 C208.445,287.009 207.933,287.494 207.409,288.148 L207.409,298.984 L208.445,299.180 L208.980,299.298 L209.194,299.337 C209.789,299.494 210.087,299.901 210.087,300.554 L210.087,302.871 L200.307,302.871 L200.307,300.554 C200.307,299.901 200.604,299.494 201.199,299.337 L201.413,299.298 C201.485,299.298 201.562,299.285 201.645,299.259 C201.729,299.233 201.830,299.207 201.949,299.180 L202.984,298.984 L202.984,286.617 L201.949,286.421 C201.830,286.395 201.729,286.369 201.645,286.342 C201.562,286.316 201.485,286.303 201.413,286.303 L201.199,286.264 C200.580,286.107 200.271,285.701 200.271,285.047 L200.271,282.730 L205.696,282.730 C206.244,282.730 206.612,283.031 206.803,283.633 L207.088,285.125 C207.517,284.602 207.850,284.236 208.088,284.026 C208.421,283.738 208.802,283.463 209.230,283.201 C209.610,282.966 210.038,282.769 210.515,282.612 C210.895,282.482 211.395,282.416 212.014,282.416 C213.203,282.416 214.155,282.757 214.869,283.437 C215.630,284.170 216.190,285.086 216.546,286.185 C216.832,285.505 217.189,284.929 217.617,284.458 C217.998,284.039 218.462,283.660 219.009,283.319 C219.413,283.058 219.961,282.835 220.651,282.652 C221.222,282.495 221.805,282.416 222.400,282.416 C223.423,282.416 224.315,282.587 225.077,282.926 C225.909,283.293 226.576,283.790 227.075,284.418 C227.599,285.073 228.003,285.871 228.289,286.813 C228.574,287.755 228.717,288.842 228.717,290.072 L228.717,298.984 L229.752,299.180 C229.871,299.207 229.972,299.233 230.056,299.259 C230.139,299.285 230.216,299.298 230.288,299.298 L230.502,299.337 C231.096,299.494 231.394,299.901 231.394,300.554 L231.394,302.871 L224.292,302.871 L224.292,290.072 ZM199.558,293.016 C199.510,293.148 199.403,293.252 199.236,293.330 C199.141,293.383 198.974,293.409 198.737,293.409 L187.423,293.409 C187.565,295.477 188.077,296.995 188.957,297.963 C189.837,298.932 191.004,299.416 192.455,299.416 C193.192,299.416 193.799,299.324 194.275,299.141 C194.798,298.958 195.251,298.748 195.632,298.513 C195.798,298.409 195.971,298.310 196.149,298.218 C196.328,298.127 196.500,298.029 196.667,297.924 C196.928,297.741 197.202,297.649 197.487,297.649 C197.678,297.649 197.845,297.688 197.987,297.767 C198.106,297.820 198.213,297.924 198.308,298.081 L199.593,299.848 C199.046,300.529 198.499,301.065 197.952,301.457 C197.309,301.903 196.678,302.243 196.060,302.478 C195.465,302.688 194.787,302.858 194.025,302.989 C193.431,303.093 192.764,303.145 192.027,303.145 C190.718,303.145 189.540,302.923 188.493,302.478 C187.446,302.033 186.495,301.340 185.638,300.397 C184.829,299.508 184.187,298.382 183.711,297.021 C183.258,295.713 183.033,294.155 183.033,292.349 C183.033,291.040 183.234,289.758 183.639,288.501 C184.020,287.324 184.603,286.264 185.388,285.321 C186.125,284.432 187.042,283.725 188.136,283.201 C189.231,282.678 190.468,282.416 191.848,282.416 C193.014,282.416 194.073,282.612 195.025,283.005 C195.929,283.372 196.761,283.974 197.523,284.811 C198.213,285.570 198.760,286.526 199.165,287.677 C199.569,288.855 199.772,290.138 199.772,291.525 C199.772,291.839 199.748,292.153 199.700,292.467 C199.652,292.755 199.605,292.938 199.558,293.016 ZM195.560,288.698 C195.418,288.201 195.179,287.716 194.846,287.245 C194.537,286.827 194.133,286.499 193.633,286.264 C193.085,286.002 192.514,285.871 191.920,285.871 C190.658,285.871 189.659,286.277 188.922,287.088 C188.208,287.873 187.744,288.999 187.530,290.464 L195.810,290.464 C195.810,289.915 195.726,289.326 195.560,288.698 ZM181.355,286.342 C181.164,286.395 180.748,286.486 180.106,286.617 L174.217,302.871 L170.220,302.871 L164.330,286.617 C163.117,286.356 162.558,286.238 162.653,286.264 C162.058,286.107 161.761,285.701 161.761,285.047 L161.761,282.730 L170.683,282.730 L170.683,285.047 C170.683,285.701 170.386,286.107 169.791,286.264 L168.792,286.460 L171.397,294.391 C171.516,294.757 171.683,295.372 171.897,296.236 C172.063,296.942 172.194,297.545 172.290,298.042 C172.456,297.152 172.575,296.550 172.647,296.236 C172.789,295.608 172.968,294.993 173.182,294.391 L175.823,286.499 C175.371,286.421 175.079,286.362 174.949,286.322 C174.818,286.283 174.717,286.264 174.645,286.264 C174.050,286.107 173.753,285.701 173.753,285.047 L173.753,282.730 L182.676,282.730 L182.676,285.047 C182.676,285.701 182.378,286.107 181.783,286.264 C181.688,286.264 181.545,286.290 181.355,286.342 ZM159.012,300.358 C158.227,301.275 157.275,301.968 156.157,302.439 C155.062,302.910 153.825,303.145 152.445,303.145 C151.065,303.145 149.816,302.910 148.698,302.439 C147.579,301.968 146.628,301.275 145.843,300.358 C145.009,299.416 144.391,298.316 143.987,297.060 C143.558,295.752 143.344,294.312 143.344,292.742 C143.344,291.171 143.558,289.745 143.987,288.462 C144.391,287.259 145.009,286.172 145.843,285.204 C146.604,284.340 147.556,283.660 148.698,283.162 C149.863,282.665 151.113,282.416 152.445,282.416 C153.754,282.416 154.991,282.665 156.157,283.162 C157.299,283.660 158.251,284.340 159.012,285.204 C159.774,286.067 160.369,287.154 160.797,288.462 C161.225,289.745 161.439,291.171 161.439,292.742 C161.439,294.312 161.225,295.752 160.797,297.060 C160.345,298.395 159.750,299.494 159.012,300.358 ZM155.800,287.834 C155.087,286.683 153.968,286.107 152.445,286.107 C150.922,286.107 149.780,286.683 149.019,287.834 C148.257,288.986 147.877,290.648 147.877,292.820 C147.877,294.940 148.257,296.576 149.019,297.728 C149.756,298.853 150.898,299.416 152.445,299.416 C153.968,299.416 155.087,298.853 155.800,297.728 C156.538,296.550 156.907,294.901 156.907,292.781 C156.907,290.661 156.538,289.012 155.800,287.834 ZM142.238,287.167 C142.095,287.272 141.928,287.324 141.738,287.324 C141.571,287.324 141.333,287.284 141.024,287.206 C140.596,287.102 140.179,287.049 139.775,287.049 C138.847,287.049 138.062,287.324 137.419,287.873 C136.824,288.371 136.277,289.195 135.778,290.347 L135.778,298.984 L137.562,299.337 C138.157,299.494 138.455,299.901 138.455,300.554 L138.455,302.871 L128.675,302.871 L128.675,300.554 C128.675,299.901 128.972,299.494 129.567,299.337 L131.352,298.984 L131.352,286.617 L129.567,286.264 C128.972,286.107 128.675,285.701 128.675,285.047 L128.675,282.730 L133.957,282.730 C134.409,282.730 134.719,282.822 134.885,283.005 C135.052,283.189 135.171,283.503 135.242,283.947 L135.528,286.381 C136.170,285.099 136.931,284.118 137.812,283.437 C138.716,282.730 139.704,282.377 140.774,282.377 C141.702,282.377 142.452,282.600 143.023,283.044 L142.452,286.696 C142.428,286.931 142.356,287.088 142.238,287.167 ZM125.963,300.162 C125.320,301.052 124.499,301.785 123.500,302.360 C122.572,302.884 121.477,303.145 120.216,303.145 C119.169,303.145 118.301,302.975 117.611,302.635 C116.826,302.243 116.171,301.758 115.648,301.182 L115.648,305.540 C115.885,305.593 116.094,305.639 116.272,305.678 C116.451,305.717 116.599,305.750 116.718,305.776 C117.099,305.828 117.278,305.854 117.254,305.854 L117.468,305.894 C118.063,306.051 118.360,306.469 118.360,307.150 L118.360,309.427 L108.545,309.427 L108.545,307.150 C108.545,306.469 108.843,306.051 109.438,305.894 L109.652,305.854 L110.187,305.776 L111.258,305.540 L111.258,286.617 L110.187,286.421 C110.068,286.395 109.967,286.369 109.884,286.342 C109.800,286.316 109.723,286.303 109.652,286.303 L109.438,286.264 C108.843,286.107 108.545,285.701 108.545,285.047 L108.545,282.730 L113.935,282.730 C114.220,282.730 114.470,282.809 114.684,282.966 C114.874,283.097 115.005,283.319 115.077,283.633 L115.434,285.478 C116.147,284.589 116.992,283.843 117.968,283.241 C118.919,282.665 120.038,282.377 121.323,282.377 C122.370,282.377 123.286,282.600 124.071,283.044 C124.904,283.515 125.617,284.183 126.213,285.047 C126.807,285.885 127.271,286.957 127.604,288.266 C127.937,289.601 128.104,291.053 128.104,292.624 C128.104,294.037 127.913,295.438 127.533,296.825 C127.200,298.081 126.676,299.194 125.963,300.162 ZM123.286,289.640 C123.119,288.855 122.869,288.201 122.536,287.677 C122.203,287.154 121.810,286.774 121.358,286.538 C120.906,286.303 120.395,286.185 119.824,286.185 C118.872,286.185 118.087,286.395 117.468,286.813 C116.802,287.259 116.195,287.860 115.648,288.619 L115.648,297.649 C116.124,298.304 116.671,298.775 117.290,299.062 C117.837,299.324 118.467,299.455 119.181,299.455 C119.895,299.455 120.502,299.324 121.001,299.062 C121.477,298.827 121.930,298.409 122.358,297.806 C122.762,297.204 123.059,296.498 123.250,295.686 C123.440,294.927 123.536,293.919 123.536,292.663 C123.536,291.407 123.452,290.399 123.286,289.640 ZM101.015,290.072 C101.015,288.763 100.765,287.795 100.265,287.167 C99.765,286.513 99.016,286.185 98.017,286.185 C97.612,286.185 97.183,286.277 96.732,286.460 C96.351,286.617 96.018,286.853 95.732,287.167 C95.494,287.429 95.268,287.834 95.054,288.384 C94.887,288.829 94.804,289.392 94.804,290.072 L94.804,298.984 L95.839,299.180 L96.375,299.298 L96.589,299.337 C97.183,299.494 97.481,299.901 97.481,300.554 L97.481,302.871 L90.378,302.871 L90.378,290.072 C90.378,288.737 90.129,287.755 89.629,287.127 C89.129,286.499 88.403,286.185 87.452,286.185 C86.809,286.185 86.215,286.356 85.668,286.696 C85.168,287.009 84.656,287.494 84.133,288.148 L84.133,298.984 L85.168,299.180 L85.703,299.298 L85.917,299.337 C86.512,299.494 86.809,299.901 86.809,300.554 L86.809,302.871 L77.030,302.871 L77.030,300.554 C77.030,299.901 77.327,299.494 77.922,299.337 L78.136,299.298 C78.208,299.298 78.285,299.285 78.368,299.259 C78.452,299.233 78.553,299.207 78.672,299.180 L79.707,298.984 L79.707,286.617 L78.672,286.421 C78.553,286.395 78.452,286.369 78.368,286.342 C78.285,286.316 78.208,286.303 78.136,286.303 L77.922,286.264 C77.303,286.107 76.994,285.701 76.994,285.047 L76.994,282.730 L82.419,282.730 C82.966,282.730 83.335,283.031 83.526,283.633 L83.812,285.125 C84.240,284.602 84.573,284.236 84.811,284.026 C85.144,283.738 85.524,283.463 85.953,283.201 C86.333,282.966 86.762,282.769 87.238,282.612 C87.618,282.482 88.118,282.416 88.737,282.416 C89.926,282.416 90.878,282.757 91.592,283.437 C92.353,284.170 92.913,285.086 93.270,286.185 C93.555,285.505 93.912,284.929 94.340,284.458 C94.721,284.039 95.185,283.660 95.732,283.319 C96.137,283.058 96.684,282.835 97.374,282.652 C97.945,282.495 98.528,282.416 99.123,282.416 C100.146,282.416 101.038,282.587 101.800,282.926 C102.632,283.293 103.299,283.790 103.798,284.418 C104.322,285.073 104.727,285.871 105.012,286.813 C105.298,287.755 105.440,288.842 105.440,290.072 L105.440,298.984 L106.475,299.180 C106.594,299.207 106.695,299.233 106.779,299.259 C106.862,299.285 106.939,299.298 107.011,299.298 L107.225,299.337 C107.819,299.494 108.117,299.901 108.117,300.554 L108.117,302.871 L101.015,302.871 L101.015,290.072 ZM66.109,300.554 C66.109,299.901 66.406,299.494 67.001,299.337 L67.215,299.298 L67.750,299.180 L68.821,298.984 L68.821,278.372 L67.750,278.176 C67.631,278.150 67.530,278.124 67.447,278.098 C67.364,278.072 67.287,278.058 67.215,278.058 L67.001,278.019 C66.406,277.862 66.109,277.457 66.109,276.802 L66.109,274.486 L76.316,274.486 L76.316,276.802 C76.316,277.457 76.018,277.862 75.424,278.019 L75.210,278.058 C75.138,278.058 75.061,278.072 74.978,278.098 C74.894,278.124 74.793,278.150 74.675,278.176 L73.639,278.372 L73.639,298.984 L74.675,299.180 C74.793,299.207 74.894,299.233 74.978,299.259 C75.061,299.285 75.138,299.298 75.210,299.298 L75.424,299.337 C76.018,299.494 76.316,299.901 76.316,300.554 L76.316,302.871 L66.109,302.871 L66.109,300.554 Z"/>
<path fill-rule="evenodd"  fill="rgb(190, 7, 7)"
 d="M508.588,255.376 C508.294,255.621 507.938,255.743 507.520,255.743 L490.434,255.743 C489.596,255.743 489.009,255.464 488.676,254.905 L459.780,214.912 C459.611,214.702 459.444,214.616 459.277,214.650 C459.109,214.686 459.026,214.843 459.026,215.121 L459.152,254.486 C459.152,254.836 459.005,255.132 458.712,255.376 C458.418,255.621 458.062,255.743 457.644,255.743 L439.804,255.743 C439.384,255.743 439.029,255.621 438.737,255.376 C438.442,255.132 438.297,254.836 438.297,254.486 L438.297,183.713 C438.297,183.365 438.442,183.069 438.737,182.823 C439.029,182.579 439.384,182.457 439.804,182.457 L457.016,182.457 C457.852,182.457 458.439,182.736 458.775,183.294 L487.545,223.183 C487.712,223.392 487.878,223.480 488.047,223.444 C488.214,223.410 488.299,223.253 488.299,222.973 L488.173,183.713 C488.173,183.365 488.318,183.069 488.613,182.823 C488.905,182.579 489.261,182.457 489.681,182.457 L507.520,182.457 C507.938,182.457 508.294,182.579 508.588,182.823 C508.881,183.069 509.028,183.365 509.028,183.713 L509.028,254.486 C509.028,254.836 508.881,255.132 508.588,255.376 ZM407.894,255.743 L348.470,255.743 C348.050,255.743 347.694,255.621 347.402,255.376 C347.107,255.132 346.962,254.836 346.962,254.486 L346.962,183.713 C346.962,183.365 347.107,183.069 347.402,182.823 C347.694,182.579 348.050,182.457 348.470,182.457 L407.894,182.457 C408.312,182.457 408.667,182.579 408.962,182.823 C409.254,183.069 409.401,183.365 409.401,183.713 L409.401,196.067 C409.401,196.417 409.254,196.713 408.962,196.957 C408.667,197.202 408.312,197.323 407.894,197.323 L368.445,197.323 C368.025,197.323 367.817,197.498 367.817,197.847 L367.817,210.724 C367.817,211.074 368.025,211.248 368.445,211.248 L393.697,211.248 C394.116,211.248 394.471,211.370 394.765,211.614 C395.058,211.859 395.205,212.155 395.205,212.504 L395.205,224.753 C395.205,225.103 395.058,225.399 394.765,225.643 C394.471,225.888 394.116,226.009 393.697,226.009 L368.445,226.009 C368.025,226.009 367.817,226.185 367.817,226.533 L367.817,240.353 C367.817,240.703 368.025,240.876 368.445,240.876 L407.894,240.876 C408.312,240.876 408.667,240.999 408.962,241.242 C409.254,241.488 409.401,241.784 409.401,242.132 L409.401,254.486 C409.401,254.836 409.254,255.132 408.962,255.376 C408.667,255.621 408.312,255.743 407.894,255.743 ZM316.559,255.743 L256.758,255.743 C256.338,255.743 255.983,255.621 255.690,255.376 C255.396,255.132 255.250,254.836 255.250,254.486 L255.250,240.876 C255.250,240.318 255.458,239.795 255.878,239.306 L294.322,197.951 C294.489,197.812 294.530,197.673 294.448,197.533 C294.363,197.394 294.196,197.323 293.945,197.323 L256.758,197.323 C256.338,197.323 255.983,197.202 255.690,196.957 C255.396,196.713 255.250,196.417 255.250,196.067 L255.250,183.713 C255.250,183.365 255.396,183.069 255.690,182.823 C255.983,182.579 256.338,182.457 256.758,182.457 L316.559,182.457 C316.977,182.457 317.332,182.579 317.627,182.823 C317.919,183.069 318.067,183.365 318.067,183.713 L318.067,197.323 C318.067,197.883 317.856,198.406 317.438,198.894 L278.744,240.248 C278.575,240.388 278.534,240.527 278.618,240.666 C278.700,240.807 278.869,240.876 279.120,240.876 L316.559,240.876 C316.977,240.876 317.332,240.999 317.627,241.242 C317.919,241.488 318.067,241.784 318.067,242.132 L318.067,254.486 C318.067,254.836 317.919,255.132 317.627,255.376 C317.332,255.621 316.977,255.743 316.559,255.743 ZM225.098,255.743 L207.259,255.743 C206.839,255.743 206.483,255.621 206.191,255.376 C205.896,255.132 205.751,254.836 205.751,254.486 L205.751,183.713 C205.751,183.365 205.896,183.069 206.191,182.823 C206.483,182.579 206.839,182.457 207.259,182.457 L225.098,182.457 C225.517,182.457 225.872,182.579 226.166,182.823 C226.459,183.069 226.606,183.365 226.606,183.713 L226.606,254.486 C226.606,254.836 226.459,255.132 226.166,255.376 C225.872,255.621 225.517,255.743 225.098,255.743 ZM176.353,255.743 L157.131,255.743 C156.209,255.743 155.624,255.394 155.372,254.696 L152.106,245.378 C151.937,245.100 151.729,244.959 151.478,244.959 L122.834,244.959 C122.582,244.959 122.372,245.100 122.205,245.378 L118.939,254.696 C118.688,255.394 118.101,255.743 117.180,255.743 L97.958,255.743 C97.456,255.743 97.079,255.621 96.828,255.376 C96.576,255.132 96.533,254.766 96.702,254.277 L123.588,183.504 C123.839,182.807 124.382,182.457 125.221,182.457 L148.965,182.457 C149.801,182.457 150.347,182.807 150.598,183.504 L177.609,254.277 C177.692,254.417 177.735,254.591 177.735,254.800 C177.735,255.428 177.274,255.743 176.353,255.743 ZM146.955,230.930 L137.407,204.024 C137.322,203.746 137.197,203.623 137.030,203.657 C136.861,203.693 136.736,203.814 136.653,204.024 L127.231,230.930 C127.146,231.349 127.313,231.558 127.733,231.558 L146.453,231.558 C146.955,231.558 147.122,231.349 146.955,230.930 ZM71.073,255.743 L51.097,255.743 C50.175,255.743 49.547,255.464 49.213,254.905 L29.489,226.952 C29.237,226.533 28.943,226.533 28.609,226.952 L22.076,234.385 C21.908,234.665 21.825,234.874 21.825,235.013 L21.825,254.486 C21.825,254.836 21.678,255.132 21.385,255.376 C21.091,255.621 20.735,255.743 20.317,255.743 L2.478,255.743 C2.058,255.743 1.702,255.621 1.410,255.376 C1.115,255.132 0.970,254.836 0.970,254.486 L0.970,183.713 C0.970,183.365 1.115,183.069 1.410,182.823 C1.702,182.579 2.058,182.457 2.478,182.457 L20.317,182.457 C20.735,182.457 21.091,182.579 21.385,182.823 C21.678,183.069 21.825,183.365 21.825,183.713 L21.825,210.934 C21.825,211.143 21.908,211.266 22.076,211.300 C22.243,211.336 22.410,211.284 22.579,211.143 L47.957,183.190 C48.459,182.702 49.044,182.457 49.715,182.457 L70.068,182.457 C70.904,182.457 71.324,182.702 71.324,183.190 C71.324,183.399 71.199,183.679 70.947,184.027 L43.811,214.284 C43.642,214.563 43.601,214.807 43.685,215.017 L72.078,254.277 C72.245,254.696 72.329,254.941 72.329,255.010 C72.329,255.499 71.909,255.743 71.073,255.743 Z"/>
<path fill-rule="evenodd"  fill="rgb(190, 7, 7)"
 d="M318.660,114.963 L302.266,114.963 L259.678,114.963 L259.678,114.925 L276.033,98.562 L302.266,98.562 L302.266,71.680 L318.660,88.081 L318.660,98.562 L318.698,98.562 L318.698,114.963 L318.660,114.963 ZM285.882,52.638 L285.882,26.396 L258.1000,26.396 L275.401,9.994 L285.882,9.994 L285.882,9.956 L302.284,9.956 L302.284,9.994 L302.284,26.396 L302.284,69.001 L302.245,69.001 L285.882,52.638 ZM213.768,42.797 L213.768,69.680 L197.366,53.278 L197.366,42.797 L197.327,42.797 L197.327,26.396 L197.366,26.396 L213.768,26.396 L257.194,26.396 L257.194,26.434 L240.830,42.797 L213.768,42.797 ZM230.117,87.858 L230.117,114.930 L256.1000,114.930 L240.598,131.339 L230.117,131.339 L230.117,131.378 L213.716,131.378 L213.716,131.339 L213.716,114.930 L213.716,71.487 L213.754,71.487 L230.117,87.858 Z"/>
<path fill-rule="evenodd"  fill="rgb(190, 7, 7)"
 d="M240.1000,41.1000 L282.1000,-0.000 L258.1000,-0.000 L216.1000,41.1000 L240.1000,41.1000 Z"/>
<path fill-rule="evenodd"  fill="rgb(190, 7, 7)"
 d="M286.599,53.281 L328.598,95.281 L328.598,71.281 L286.599,29.281 L286.599,53.281 Z"/>
<path fill-rule="evenodd"  fill="rgb(190, 7, 7)"
 d="M275.920,99.221 L233.746,141.094 L257.826,141.094 L299.1000,99.221 L275.920,99.221 Z"/>
<path fill-rule="evenodd"  fill="rgb(190, 7, 7)"
 d="M230.169,87.967 L187.995,46.094 L187.995,70.035 L230.169,111.908 L230.169,87.967 Z"/>
</svg>