<svg 
 xmlns="http://www.w3.org/2000/svg"
 xmlns:xlink="http://www.w3.org/1999/xlink"
 width="480px" height="127px">
<path fill-rule="evenodd"  fill="rgb(255, 155, 68)"
 d="M458.113,84.808 L479.208,84.808 L479.208,87.642 L458.113,87.642 L458.113,84.808 ZM458.113,77.178 L479.208,77.178 L479.208,80.230 L458.113,80.230 L458.113,77.178 ZM458.113,69.548 L479.208,69.548 L479.208,72.600 L458.113,72.600 L458.113,69.548 ZM458.113,61.918 L479.208,61.918 L479.208,64.970 L458.113,64.970 L458.113,61.918 ZM458.113,54.288 L479.208,54.288 L479.208,57.340 L458.113,57.340 L458.113,54.288 ZM458.113,46.659 L479.208,46.659 L479.208,49.710 L458.113,49.710 L458.113,46.659 ZM458.113,39.029 L479.208,39.029 L479.208,42.080 L458.113,42.080 L458.113,39.029 ZM458.113,31.399 L479.208,31.399 L479.208,34.451 L458.113,34.451 L458.113,31.399 ZM458.113,23.768 L479.208,23.768 L479.208,26.821 L458.113,26.821 L458.113,23.768 ZM458.113,16.138 L479.208,16.138 L479.208,19.191 L458.113,19.191 L458.113,16.138 ZM458.113,8.508 L479.208,8.508 L479.208,11.561 L458.113,11.561 L458.113,8.508 ZM458.113,1.770 L479.208,1.770 L479.208,3.930 L458.113,3.930 L458.113,1.770 ZM425.225,3.930 L425.639,1.770 L438.146,1.770 L437.700,3.930 L425.225,3.930 ZM436.125,11.561 L423.760,11.561 L424.346,8.508 L436.755,8.508 L436.125,11.561 ZM434.549,19.191 L422.295,19.191 L422.881,16.138 L435.179,16.138 L434.549,19.191 ZM432.973,26.821 L420.831,26.821 L421.417,23.768 L433.603,23.768 L432.973,26.821 ZM431.397,34.451 L419.366,34.451 L419.952,31.399 L432.028,31.399 L431.397,34.451 ZM429.821,42.080 L417.902,42.080 L418.487,39.029 L430.452,39.029 L429.821,42.080 ZM428.246,49.710 L416.437,49.710 L417.023,46.659 L428.876,46.659 L428.246,49.710 ZM426.670,57.340 L414.972,57.340 L415.558,54.288 L427.300,54.288 L426.670,57.340 ZM425.094,64.970 L395.873,64.970 L395.108,61.918 L414.028,61.918 L414.065,62.067 L414.094,61.918 L425.725,61.918 L425.094,64.970 ZM393.195,54.288 L412.139,54.288 L412.894,57.340 L393.960,57.340 L393.195,54.288 ZM391.281,46.659 L410.249,46.659 L411.005,49.710 L392.047,49.710 L391.281,46.659 ZM389.368,39.029 L408.359,39.029 L409.115,42.080 L390.134,42.080 L389.368,39.029 ZM387.455,31.399 L406.469,31.399 L407.225,34.451 L388.220,34.451 L387.455,31.399 ZM385.877,25.105 L385.421,26.821 L373.506,26.821 L374.285,23.768 L404.579,23.768 L405.335,26.821 L386.307,26.821 L385.877,25.105 ZM376.234,16.138 L402.690,16.138 L403.446,19.191 L375.455,19.191 L376.234,16.138 ZM378.183,8.508 L400.800,8.508 L401.556,11.561 L377.403,11.561 L378.183,8.508 ZM379.903,1.770 L399.131,1.770 L399.666,3.930 L379.352,3.930 L379.903,1.770 ZM383.394,34.451 L371.557,34.451 L372.337,31.399 L384.205,31.399 L383.394,34.451 ZM381.367,42.080 L369.609,42.080 L370.388,39.029 L382.178,39.029 L381.367,42.080 ZM379.340,49.710 L367.660,49.710 L368.440,46.659 L380.151,46.659 L379.340,49.710 ZM377.313,57.340 L365.712,57.340 L366.491,54.288 L378.124,54.288 L377.313,57.340 ZM375.286,64.970 L344.656,64.970 L344.032,61.918 L364.307,61.918 L364.409,62.440 L364.543,61.918 L376.097,61.918 L375.286,64.970 ZM342.473,54.288 L362.804,54.288 L363.405,57.340 L343.096,57.340 L342.473,54.288 ZM340.914,46.659 L361.301,46.659 L361.902,49.710 L341.537,49.710 L340.914,46.659 ZM339.354,39.029 L359.799,39.029 L360.400,42.080 L339.978,42.080 L339.354,39.029 ZM337.795,31.399 L358.296,31.399 L358.897,34.451 L338.419,34.451 L337.795,31.399 ZM336.236,23.768 L356.794,23.768 L357.395,26.821 L336.860,26.821 L336.236,23.768 ZM334.677,16.138 L355.291,16.138 L355.892,19.191 L335.300,19.191 L334.677,16.138 ZM333.118,8.508 L353.789,8.508 L354.390,11.561 L333.741,11.561 L333.118,8.508 ZM331.741,1.770 L352.462,1.770 L352.887,3.930 L332.182,3.930 L331.741,1.770 ZM299.539,84.808 L319.860,84.808 L320.734,87.642 L300.386,87.642 L299.539,84.808 ZM297.256,77.178 L317.504,77.178 L318.446,80.230 L298.169,80.230 L297.256,77.178 ZM294.973,69.548 L315.149,69.548 L316.091,72.600 L295.886,72.600 L294.973,69.548 ZM293.293,63.934 L262.491,63.934 L262.181,64.970 L250.537,64.970 L251.466,61.918 L312.794,61.918 L313.736,64.970 L293.603,64.970 L293.293,63.934 ZM253.788,54.288 L310.438,54.288 L311.380,57.340 L252.859,57.340 L253.788,54.288 ZM288.177,46.659 L308.083,46.659 L309.025,49.710 L289.080,49.710 L288.177,46.659 ZM285.918,39.029 L305.728,39.029 L306.670,42.080 L286.822,42.080 L285.918,39.029 ZM283.660,31.399 L303.372,31.399 L304.315,34.451 L284.564,34.451 L283.660,31.399 ZM281.402,23.768 L301.017,23.768 L301.959,26.821 L282.305,26.821 L281.402,23.768 ZM279.144,16.138 L298.662,16.138 L299.604,19.191 L280.047,19.191 L279.144,16.138 ZM267.721,8.508 L296.306,8.508 L297.249,11.561 L266.792,11.561 L267.721,8.508 ZM269.771,1.770 L294.226,1.770 L294.893,3.930 L269.114,3.930 L269.771,1.770 ZM275.892,19.191 L264.470,19.191 L265.399,16.138 L276.809,16.138 L275.892,19.191 ZM273.600,26.821 L262.148,26.821 L263.076,23.768 L274.517,23.768 L273.600,26.821 ZM271.308,34.451 L259.825,34.451 L260.754,31.399 L272.225,31.399 L271.308,34.451 ZM269.015,42.080 L257.503,42.080 L258.432,39.029 L269.932,39.029 L269.015,42.080 ZM266.723,49.710 L255.181,49.710 L256.110,46.659 L267.640,46.659 L266.723,49.710 ZM259.898,72.600 L248.215,72.600 L249.144,69.548 L260.811,69.548 L259.898,72.600 ZM257.615,80.230 L245.893,80.230 L246.821,77.178 L258.528,77.178 L257.615,80.230 ZM255.397,87.642 L243.637,87.642 L244.499,84.808 L256.245,84.808 L255.397,87.642 ZM213.153,64.970 C212.942,63.822 212.598,62.802 212.114,61.918 L230.351,61.918 C230.375,62.547 230.390,63.185 230.390,63.840 C230.390,64.222 230.378,64.597 230.366,64.970 L213.153,64.970 ZM195.668,54.413 L195.080,54.288 L229.343,54.288 C229.585,55.257 229.782,56.277 229.940,57.340 L205.814,57.340 C203.266,56.354 199.897,55.378 195.668,54.413 ZM212.875,26.821 C212.782,25.762 212.658,24.741 212.497,23.768 L229.366,23.768 C229.547,24.743 229.702,25.748 229.830,26.785 L229.585,26.821 L212.875,26.821 ZM210.104,16.138 L227.159,16.138 C227.562,17.109 227.922,18.130 228.248,19.191 L211.375,19.191 C211.009,18.101 210.589,17.078 210.104,16.138 ZM198.790,8.508 L222.369,8.508 C223.233,9.442 224.022,10.462 224.745,11.561 L206.623,11.561 C204.469,9.660 201.859,8.641 198.790,8.508 ZM198.095,0.090 C205.532,0.090 211.630,1.374 216.401,3.930 L178.957,3.930 C183.833,1.373 190.209,0.090 198.095,0.090 ZM188.200,11.561 L170.698,11.561 C171.362,10.467 172.113,9.446 172.961,8.508 L197.192,8.508 C193.455,8.648 190.463,9.673 188.200,11.561 ZM184.075,19.191 L167.796,19.191 C168.014,18.131 168.278,17.110 168.599,16.138 L184.854,16.138 C184.477,17.083 184.227,18.106 184.075,19.191 ZM184.889,26.821 L167.113,26.821 C167.112,26.683 167.107,26.550 167.107,26.412 C167.107,25.507 167.137,24.627 167.192,23.768 L184.066,23.768 C184.219,24.903 184.498,25.917 184.889,26.821 ZM182.213,61.918 C182.326,62.982 182.469,63.996 182.638,64.970 L165.561,64.970 C165.439,64.205 165.328,63.429 165.240,62.627 L169.795,61.918 L182.213,61.918 ZM131.171,84.808 L151.492,84.808 L152.367,87.642 L132.019,87.642 L131.171,84.808 ZM128.889,77.178 L149.137,77.178 L150.079,80.230 L129.802,80.230 L128.889,77.178 ZM126.606,69.548 L146.782,69.548 L147.724,72.600 L127.519,72.600 L126.606,69.548 ZM124.926,63.934 L94.124,63.934 L93.814,64.970 L82.170,64.970 L83.098,61.918 L144.426,61.918 L145.369,64.970 L125.236,64.970 L124.926,63.934 ZM85.421,54.288 L142.071,54.288 L143.013,57.340 L84.492,57.340 L85.421,54.288 ZM119.809,46.659 L139.716,46.659 L140.658,49.710 L120.713,49.710 L119.809,46.659 ZM117.551,39.029 L137.360,39.029 L138.303,42.080 L118.454,42.080 L117.551,39.029 ZM115.293,31.399 L135.005,31.399 L135.947,34.451 L116.196,34.451 L115.293,31.399 ZM113.035,23.768 L132.650,23.768 L133.592,26.821 L113.938,26.821 L113.035,23.768 ZM110.776,16.138 L130.294,16.138 L131.236,19.191 L111.680,19.191 L110.776,16.138 ZM99.354,8.508 L127.939,8.508 L128.881,11.561 L98.425,11.561 L99.354,8.508 ZM101.404,1.770 L125.859,1.770 L126.526,3.930 L100.747,3.930 L101.404,1.770 ZM107.525,19.191 L96.103,19.191 L97.031,16.138 L108.442,16.138 L107.525,19.191 ZM105.233,26.821 L93.780,26.821 L94.709,23.768 L106.150,23.768 L105.233,26.821 ZM102.940,34.451 L91.458,34.451 L92.387,31.399 L103.857,31.399 L102.940,34.451 ZM100.648,42.080 L89.136,42.080 L90.065,39.029 L101.565,39.029 L100.648,42.080 ZM98.355,49.710 L86.814,49.710 L87.743,46.659 L99.272,46.659 L98.355,49.710 ZM91.531,72.600 L79.847,72.600 L80.776,69.548 L92.444,69.548 L91.531,72.600 ZM89.248,80.230 L77.525,80.230 L78.454,77.178 L90.161,77.178 L89.248,80.230 ZM87.030,87.642 L75.270,87.642 L76.132,84.808 L87.878,84.808 L87.030,87.642 ZM44.390,84.808 L66.612,84.808 L68.370,87.642 L46.156,87.642 L44.390,84.808 ZM51.897,3.930 L53.249,1.770 L65.570,1.770 L64.194,3.930 L51.897,3.930 ZM59.332,11.561 L47.118,11.561 L49.029,8.508 L61.276,8.508 L59.332,11.561 ZM54.470,19.191 L42.340,19.191 L44.251,16.138 L56.415,16.138 L54.470,19.191 ZM49.608,26.821 L37.561,26.821 L39.473,23.768 L51.553,23.768 L49.608,26.821 ZM44.746,34.451 L32.783,34.451 L34.694,31.399 L46.691,31.399 L44.746,34.451 ZM0.233,31.399 L21.327,31.399 L21.327,34.451 L0.233,34.451 L0.233,31.399 ZM0.233,23.768 L21.327,23.768 L21.327,26.821 L0.233,26.821 L0.233,23.768 ZM0.233,16.138 L21.327,16.138 L21.327,19.191 L0.233,19.191 L0.233,16.138 ZM0.233,8.508 L21.327,8.508 L21.327,11.561 L0.233,11.561 L0.233,8.508 ZM0.233,1.770 L21.327,1.770 L21.327,3.930 L0.233,3.930 L0.233,1.770 ZM169.842,77.178 L188.192,77.178 C189.663,78.601 191.392,79.618 193.378,80.230 L172.107,80.230 C171.281,79.290 170.526,78.273 169.842,77.178 ZM184.968,72.600 L167.566,72.600 C167.188,71.627 166.850,70.609 166.552,69.548 L183.745,69.548 C184.100,70.649 184.512,71.660 184.968,72.600 ZM63.772,80.230 L41.537,80.230 L39.635,77.178 L61.879,77.178 L63.772,80.230 ZM59.038,72.600 L36.782,72.600 L34.880,69.548 L57.145,69.548 L59.038,72.600 ZM54.305,64.970 L32.027,64.970 L30.125,61.918 L52.411,61.918 L54.305,64.970 ZM49.571,57.340 L27.272,57.340 L25.370,54.288 L47.677,54.288 L49.571,57.340 ZM0.233,54.288 L21.327,54.288 L21.327,57.340 L0.233,57.340 L0.233,54.288 ZM0.233,61.918 L21.327,61.918 L21.327,64.970 L0.233,64.970 L0.233,61.918 ZM0.233,69.548 L21.327,69.548 L21.327,72.600 L0.233,72.600 L0.233,69.548 ZM21.327,87.642 L0.233,87.642 L0.233,84.808 L21.327,84.808 L21.327,87.642 ZM0.233,77.178 L21.327,77.178 L21.327,80.230 L0.233,80.230 L0.233,77.178 ZM44.837,49.710 L22.517,49.710 L22.074,48.1000 L21.327,48.1000 L21.327,49.710 L0.233,49.710 L0.233,46.659 L42.944,46.659 L44.837,49.710 ZM0.233,42.080 L0.233,39.029 L41.829,39.029 L39.995,41.906 L40.104,42.080 L0.233,42.080 ZM227.724,49.710 L179.465,49.710 C177.663,48.807 176.071,47.792 174.704,46.659 L225.899,46.659 C226.587,47.584 227.193,48.604 227.724,49.710 ZM167.375,31.399 L189.675,31.399 C191.800,32.440 194.797,33.457 198.583,34.451 L167.850,34.451 C167.652,33.475 167.493,32.459 167.375,31.399 ZM220.925,42.080 L170.723,42.080 C170.147,41.135 169.635,40.122 169.197,39.029 L214.894,39.029 C217.176,39.917 219.186,40.935 220.925,42.080 ZM177.700,84.808 L218.963,84.808 C216.714,86.106 214.156,87.122 211.293,87.860 L185.342,87.860 C182.472,87.122 179.924,86.106 177.700,84.808 ZM203.941,80.230 C206.077,79.647 207.893,78.696 209.389,77.374 C209.461,77.311 209.522,77.243 209.592,77.178 L226.943,77.178 C226.276,78.259 225.508,79.274 224.650,80.230 L203.941,80.230 ZM229.872,69.548 C229.668,70.609 229.386,71.618 229.061,72.600 L212.621,72.600 C212.959,71.649 213.194,70.635 213.308,69.548 L229.872,69.548 ZM345.591,69.548 L374.070,69.548 L373.259,72.600 L346.215,72.600 L345.591,69.548 ZM349.288,87.642 L348.709,84.808 L370.015,84.808 L369.263,87.642 L349.288,87.642 ZM347.150,77.178 L372.043,77.178 L371.232,80.230 L347.774,80.230 L347.150,77.178 ZM397.021,69.548 L424.149,69.548 L423.518,72.600 L397.786,72.600 L397.021,69.548 ZM401.558,87.642 L400.847,84.808 L420.997,84.808 L420.412,87.642 L401.558,87.642 ZM398.934,77.178 L422.573,77.178 L421.943,80.230 L399.700,80.230 L398.934,77.178 Z"/>
<path fill-rule="evenodd"  fill="rgb(255, 155, 68)"
 d="M470.507,125.555 L460.056,106.892 L460.056,125.555 L456.427,125.555 L456.427,100.453 L462.818,100.453 L473.269,119.116 L473.269,100.453 L476.898,100.453 L476.898,125.555 L470.507,125.555 ZM441.860,126.046 C439.766,126.046 437.996,125.736 436.553,125.118 C433.050,123.518 431.300,119.480 431.300,113.004 C431.300,109.184 431.967,106.128 433.303,103.836 C434.820,101.254 437.671,99.962 441.860,99.962 C445.794,99.962 448.529,101.117 450.064,103.427 C451.598,105.738 452.366,108.948 452.366,113.058 C452.366,117.170 451.598,120.362 450.064,122.635 C448.529,124.909 445.794,126.046 441.860,126.046 ZM441.860,102.418 C440.704,102.418 439.783,102.918 439.098,103.918 C438.412,104.919 437.961,106.147 437.744,107.602 C437.527,109.057 437.419,110.858 437.419,113.004 C437.419,115.151 437.527,116.952 437.744,118.406 C437.961,119.862 438.412,121.089 439.098,122.090 C439.783,123.091 440.704,123.590 441.860,123.590 C444.820,123.590 446.300,120.062 446.300,113.004 C446.300,105.947 444.820,102.418 441.860,102.418 ZM421.010,100.453 L427.130,100.453 L427.130,125.555 L421.010,125.555 L421.010,100.453 ZM408.446,110.166 L410.504,110.712 C412.851,111.258 414.530,112.122 415.541,113.304 C416.551,114.487 417.057,116.251 417.057,118.597 C417.057,120.944 416.262,122.772 414.674,124.081 C413.085,125.391 410.784,126.046 407.770,126.046 C404.755,126.046 402.471,125.410 400.919,124.136 C399.366,122.863 398.446,120.898 398.157,118.242 L403.031,117.479 C403.320,121.553 404.890,123.590 407.742,123.590 C409.114,123.590 410.188,123.245 410.965,122.553 C411.741,121.863 412.129,120.935 412.129,119.770 C412.129,118.607 411.785,117.779 411.100,117.288 C410.414,116.796 409.042,116.315 406.984,115.841 L405.197,115.459 C402.886,114.950 401.225,114.095 400.215,112.895 C399.204,111.694 398.699,109.948 398.699,107.656 C398.699,102.527 401.695,99.962 407.688,99.962 C410.504,99.962 412.661,100.599 414.160,101.872 C415.657,103.146 416.570,105.110 416.895,107.765 L412.021,108.475 C411.948,106.547 411.533,105.056 410.775,104.000 C410.017,102.945 408.988,102.418 407.688,102.418 C406.389,102.418 405.377,102.764 404.656,103.454 C403.933,104.146 403.573,105.064 403.573,106.210 C403.573,107.356 403.898,108.184 404.547,108.693 C405.197,109.203 406.497,109.694 408.446,110.166 ZM388.084,100.453 L394.204,100.453 L394.204,125.555 L388.084,125.555 L388.084,100.453 ZM370.809,125.555 L363.227,100.453 L369.347,100.453 L375.575,122.499 L381.748,100.453 L385.377,100.453 L377.849,125.555 L370.809,125.555 ZM354.400,100.453 L360.520,100.453 L360.520,125.555 L354.400,125.555 L354.400,100.453 ZM339.562,125.555 L330.572,125.555 L330.572,100.453 L339.562,100.453 C342.811,100.453 345.266,101.254 346.927,102.854 C348.912,104.746 349.905,108.129 349.905,113.004 C349.905,117.006 349.174,120.098 347.712,122.281 C346.250,124.463 343.533,125.555 339.562,125.555 ZM343.353,107.793 C343.100,106.393 342.585,105.192 341.809,104.191 C341.033,103.191 339.959,102.690 338.587,102.690 L336.692,102.690 L336.692,123.317 L338.587,123.317 C339.959,123.317 341.033,122.818 341.809,121.817 C342.585,120.817 343.100,119.616 343.353,118.215 C343.605,116.815 343.732,115.078 343.732,113.004 C343.732,110.930 343.605,109.193 343.353,107.793 ZM309.073,110.166 L311.131,110.712 C313.477,111.258 315.156,112.122 316.167,113.304 C317.178,114.487 317.684,116.251 317.684,118.597 C317.684,120.944 316.889,122.772 315.301,124.081 C313.712,125.391 311.410,126.046 308.396,126.046 C305.381,126.046 303.097,125.410 301.546,124.136 C299.993,122.863 299.072,120.898 298.784,118.242 L303.658,117.479 C303.946,121.553 305.517,123.590 308.369,123.590 C309.741,123.590 310.814,123.245 311.591,122.553 C312.367,121.863 312.755,120.935 312.755,119.770 C312.755,118.607 312.412,117.779 311.727,117.288 C311.040,116.796 309.669,116.315 307.611,115.841 L305.824,115.459 C303.513,114.950 301.852,114.095 300.842,112.895 C299.830,111.694 299.325,109.948 299.325,107.656 C299.325,102.527 302.321,99.962 308.315,99.962 C311.131,99.962 313.288,100.599 314.786,101.872 C316.284,103.146 317.196,105.110 317.521,107.765 L312.647,108.475 C312.574,106.547 312.160,105.056 311.402,104.000 C310.643,102.945 309.615,102.418 308.315,102.418 C307.015,102.418 306.004,102.764 305.282,103.454 C304.560,104.146 304.199,105.064 304.199,106.210 C304.199,107.356 304.524,108.184 305.174,108.693 C305.824,109.203 307.123,109.694 309.073,110.166 ZM281.346,100.453 L296.184,100.453 L296.184,103.400 L287.465,103.400 L287.465,111.312 L295.209,111.312 L295.209,114.259 L287.465,114.259 L287.465,122.608 L296.834,122.608 L296.834,125.555 L281.346,125.555 L281.346,100.453 ZM269.594,100.453 L275.714,100.453 L275.714,125.555 L269.594,125.555 L269.594,100.453 ZM265.966,125.555 L259.467,125.555 L255.839,116.605 C255.586,115.987 255.342,115.587 255.108,115.405 C254.873,115.223 254.395,115.132 253.673,115.132 L252.644,115.132 L252.644,125.555 L246.525,125.555 L246.525,100.453 L256.218,100.453 C259.648,100.453 262.013,101.308 263.312,103.018 C264.396,104.510 264.937,106.237 264.937,108.202 C264.937,111.513 263.456,113.623 260.496,114.532 C261.290,115.005 261.832,115.569 262.121,116.223 L265.966,125.555 ZM257.897,104.328 C257.283,103.236 256.435,102.690 255.352,102.690 L252.644,102.690 L252.644,112.949 L255.352,112.949 C256.435,112.949 257.283,112.477 257.897,111.531 C258.510,110.585 258.818,109.421 258.818,108.038 C258.818,106.656 258.510,105.419 257.897,104.328 ZM237.697,125.555 L231.632,125.555 L231.632,103.400 L225.134,103.400 L225.134,100.453 L244.088,100.453 L244.088,103.400 L237.697,103.400 L237.697,125.555 ZM215.765,110.166 L217.823,110.712 C220.169,111.258 221.848,112.122 222.859,113.304 C223.869,114.487 224.375,116.251 224.375,118.597 C224.375,120.944 223.581,122.772 221.993,124.081 C220.403,125.391 218.102,126.046 215.088,126.046 C212.073,126.046 209.789,125.410 208.237,124.136 C206.685,122.863 205.764,120.898 205.475,118.242 L210.349,117.479 C210.638,121.553 212.208,123.590 215.061,123.590 C216.432,123.590 217.506,123.245 218.283,122.553 C219.059,121.863 219.447,120.935 219.447,119.770 C219.447,118.607 219.104,117.779 218.418,117.288 C217.732,116.796 216.361,116.315 214.303,115.841 L212.516,115.459 C210.205,114.950 208.544,114.095 207.533,112.895 C206.522,111.694 206.017,109.948 206.017,107.656 C206.017,102.527 209.013,99.962 215.007,99.962 C217.823,99.962 219.980,100.599 221.478,101.872 C222.976,103.146 223.888,105.110 224.213,107.765 L219.339,108.475 C219.266,106.547 218.852,105.056 218.093,104.000 C217.335,102.945 216.306,102.418 215.007,102.418 C213.707,102.418 212.696,102.764 211.974,103.454 C211.251,104.146 210.891,105.064 210.891,106.210 C210.891,107.356 211.216,108.184 211.866,108.693 C212.516,109.203 213.815,109.694 215.765,110.166 ZM192.641,126.046 C185.889,126.046 182.514,123.118 182.514,117.260 L182.514,100.453 L188.633,100.453 L188.633,117.260 C188.633,121.117 190.096,123.045 193.020,123.045 C194.608,123.045 195.908,122.581 196.919,121.653 C197.929,120.725 198.435,119.261 198.435,117.260 L198.435,100.453 L202.010,100.453 L202.010,117.260 C202.010,120.608 200.944,122.954 198.814,124.300 C196.973,125.464 194.915,126.046 192.641,126.046 ZM168.163,125.555 L159.173,125.555 L159.173,100.453 L168.163,100.453 C171.412,100.453 173.867,101.254 175.528,102.854 C177.513,104.746 178.507,108.129 178.507,113.004 C178.507,117.006 177.775,120.098 176.313,122.281 C174.851,124.463 172.134,125.555 168.163,125.555 ZM171.954,107.793 C171.701,106.393 171.186,105.192 170.410,104.191 C169.634,103.191 168.560,102.690 167.188,102.690 L165.293,102.690 L165.293,123.317 L167.188,123.317 C168.560,123.317 169.634,122.818 170.410,121.817 C171.186,120.817 171.701,119.616 171.954,118.215 C172.206,116.815 172.333,115.078 172.333,113.004 C172.333,110.930 172.206,109.193 171.954,107.793 ZM136.699,106.892 L136.699,125.555 L133.071,125.555 L133.071,100.453 L139.461,100.453 L149.913,119.116 L149.913,100.453 L153.541,100.453 L153.541,125.555 L147.151,125.555 L136.699,106.892 ZM121.428,100.453 L127.547,100.453 L127.547,125.555 L121.428,125.555 L121.428,100.453 ZM102.582,125.555 L96.462,125.555 L96.462,116.933 L89.201,101.372 L81.949,125.555 L74.909,125.555 L67.327,100.453 L73.447,100.453 L79.675,122.499 L85.848,100.453 L88.773,100.453 L89.477,100.453 L94.892,100.453 L100.578,113.495 L106.698,100.453 L110.218,100.453 L102.582,116.878 L102.582,125.555 ZM59.312,118.624 L50.377,118.624 L48.319,125.555 L44.907,125.555 L52.489,100.453 L59.583,100.453 L67.273,125.555 L61.370,125.555 L59.312,118.624 ZM54.872,103.509 L51.243,115.678 L58.446,115.678 L54.872,103.509 ZM28.336,100.453 L43.174,100.453 L43.174,103.400 L34.456,103.400 L34.456,111.312 L42.200,111.312 L42.200,114.259 L34.456,114.259 L34.456,122.608 L43.824,122.608 L43.824,125.555 L28.336,125.555 L28.336,100.453 ZM16.476,114.477 L9.382,114.477 L9.382,125.555 L3.263,125.555 L3.263,100.453 L9.382,100.453 L9.382,111.531 L16.476,111.531 L16.476,100.453 L22.650,100.453 L22.650,125.555 L16.476,125.555 L16.476,114.477 Z"/>
</svg>