<svg 
 xmlns="http://www.w3.org/2000/svg"
 xmlns:xlink="http://www.w3.org/1999/xlink"
 width="559px" height="185px">
<path fill-rule="evenodd"  fill="rgb(30, 168, 255)"
 d="M210.335,8.437 C209.798,8.639 208.929,8.648 208.107,8.640 C208.225,8.036 208.629,6.463 208.310,5.602 C208.242,5.602 208.175,5.602 208.107,5.602 C208.040,5.331 207.972,5.061 207.905,4.791 C207.500,4.454 207.094,4.116 206.689,3.779 C206.622,3.643 206.555,3.508 206.487,3.373 C206.352,3.373 206.217,3.373 206.082,3.373 C206.014,3.239 205.947,3.103 205.879,2.968 C205.609,2.901 205.339,2.833 205.069,2.766 C205.069,2.698 205.069,2.631 205.069,2.563 C204.867,2.563 204.664,2.563 204.461,2.563 C204.461,2.496 204.461,2.428 204.461,2.361 C204.326,2.361 204.191,2.361 204.056,2.361 C204.056,2.293 204.056,2.226 204.056,2.158 C203.786,2.158 203.516,2.158 203.246,2.158 C203.246,2.091 203.246,2.023 203.246,1.956 C202.773,1.956 202.301,1.956 201.828,1.956 C201.828,1.888 201.828,1.820 201.828,1.753 C200.613,1.753 199.397,1.753 198.182,1.753 C198.182,1.820 198.182,1.888 198.182,1.956 C197.710,1.956 197.237,1.956 196.764,1.956 C193.446,2.953 190.630,4.048 190.688,8.437 C190.755,8.437 190.823,8.437 190.890,8.437 C190.890,8.640 190.890,8.842 190.890,9.045 C191.026,9.112 191.161,9.180 191.296,9.247 C191.296,9.382 191.296,9.517 191.296,9.652 C191.363,9.652 191.431,9.652 191.498,9.652 C191.566,9.787 191.633,9.922 191.701,10.057 C191.836,10.057 191.971,10.057 192.106,10.057 C192.173,10.193 192.241,10.328 192.308,10.463 C192.443,10.463 192.578,10.463 192.714,10.463 C192.781,10.598 192.849,10.733 192.916,10.868 C193.051,10.868 193.186,10.868 193.321,10.868 C193.321,10.935 193.321,11.003 193.321,11.070 C193.524,11.070 193.726,11.070 193.929,11.070 C193.929,11.138 193.929,11.205 193.929,11.273 C194.064,11.273 194.199,11.273 194.334,11.273 C194.334,11.340 194.334,11.408 194.334,11.475 C194.537,11.475 194.739,11.475 194.942,11.475 C194.942,11.543 194.942,11.610 194.942,11.678 C195.077,11.678 195.212,11.678 195.347,11.678 C195.347,11.745 195.347,11.813 195.347,11.881 C195.549,11.881 195.752,11.881 195.954,11.881 C195.954,11.948 195.954,12.016 195.954,12.083 C196.157,12.083 196.359,12.083 196.562,12.083 C196.562,12.151 196.562,12.218 196.562,12.285 C196.764,12.285 196.967,12.285 197.170,12.285 C197.170,12.353 197.170,12.421 197.170,12.488 C197.372,12.488 197.575,12.488 197.777,12.488 C197.777,12.556 197.777,12.623 197.777,12.691 C198.385,12.826 198.993,12.961 199.600,13.096 C199.600,13.163 199.600,13.231 199.600,13.298 C199.938,13.366 200.275,13.433 200.613,13.501 C200.613,13.568 200.613,13.636 200.613,13.704 C200.883,13.771 201.153,13.838 201.423,13.906 C201.423,13.973 201.423,14.041 201.423,14.109 C201.626,14.109 201.828,14.109 202.031,14.109 C202.031,14.176 202.031,14.244 202.031,14.311 C202.166,14.311 202.301,14.311 202.436,14.311 C202.436,14.379 202.436,14.446 202.436,14.514 C202.571,14.514 202.706,14.514 202.841,14.514 C202.908,14.649 202.976,14.784 203.044,14.919 C204.207,15.691 204.851,15.558 204.867,17.552 C204.799,17.552 204.732,17.552 204.664,17.552 C204.664,17.822 204.664,18.092 204.664,18.362 C204.596,18.362 204.529,18.362 204.461,18.362 C204.461,18.497 204.461,18.632 204.461,18.767 C204.394,18.767 204.326,18.767 204.259,18.767 C204.259,18.902 204.259,19.037 204.259,19.172 C203.989,19.375 203.719,19.577 203.449,19.780 C203.381,19.915 203.314,20.050 203.246,20.185 C203.111,20.185 202.976,20.185 202.841,20.185 C202.773,20.320 202.706,20.455 202.638,20.590 C201.285,21.441 197.475,22.044 195.347,21.400 C195.009,21.400 194.672,21.400 194.334,21.400 C194.334,21.333 194.334,21.265 194.334,21.198 C194.131,21.198 193.929,21.198 193.726,21.198 C193.726,21.130 193.726,21.063 193.726,20.995 C193.321,20.860 192.916,20.725 192.511,20.590 C192.511,20.523 192.511,20.455 192.511,20.388 C192.376,20.388 192.241,20.388 192.106,20.388 C192.106,20.320 192.106,20.252 192.106,20.185 C191.768,19.915 191.431,19.645 191.093,19.375 C190.859,19.034 191.088,18.917 190.688,18.565 C190.674,17.583 190.755,16.647 190.890,15.932 C191.701,15.932 192.511,15.932 193.321,15.932 C193.321,16.539 193.321,17.147 193.321,17.754 C193.971,18.142 194.422,18.859 195.144,19.172 C195.347,19.172 195.549,19.172 195.752,19.172 C197.822,19.930 199.145,19.348 201.018,18.970 C201.356,18.565 201.693,18.160 202.031,17.754 C202.026,17.079 201.924,16.838 201.828,16.337 C201.626,16.269 201.423,16.202 201.220,16.134 C201.220,16.067 201.220,15.999 201.220,15.932 C201.085,15.932 200.951,15.932 200.816,15.932 C200.816,15.864 200.816,15.796 200.816,15.729 C200.613,15.729 200.410,15.729 200.208,15.729 C200.208,15.661 200.208,15.594 200.208,15.526 C200.005,15.526 199.803,15.526 199.600,15.526 C199.600,15.459 199.600,15.391 199.600,15.324 C199.398,15.324 199.195,15.324 198.993,15.324 C198.993,15.256 198.993,15.189 198.993,15.121 C198.790,15.121 198.587,15.121 198.385,15.121 C198.385,15.054 198.385,14.986 198.385,14.919 C197.845,14.851 197.305,14.784 196.764,14.716 C196.764,14.649 196.764,14.581 196.764,14.514 C196.090,14.379 195.414,14.244 194.739,14.109 C194.739,14.041 194.739,13.973 194.739,13.906 C194.537,13.906 194.334,13.906 194.131,13.906 C194.131,13.838 194.131,13.771 194.131,13.704 C193.996,13.704 193.861,13.704 193.726,13.704 C193.726,13.636 193.726,13.568 193.726,13.501 C193.321,13.433 192.916,13.366 192.511,13.298 C192.511,13.231 192.511,13.163 192.511,13.096 C192.241,13.028 191.971,12.961 191.701,12.893 C191.701,12.826 191.701,12.758 191.701,12.691 C191.431,12.623 191.161,12.556 190.890,12.488 C190.755,12.286 190.620,12.083 190.486,11.881 C190.351,11.881 190.215,11.881 190.080,11.881 C189.743,11.475 189.405,11.070 189.068,10.665 C188.933,10.598 188.798,10.530 188.663,10.463 C188.429,10.121 188.655,10.006 188.257,9.652 C188.190,8.775 188.122,7.897 188.055,7.019 C189.304,2.895 192.250,1.564 196.359,0.335 C196.832,0.335 197.305,0.335 197.777,0.335 C197.777,0.268 197.777,0.200 197.777,0.133 C198.818,-0.158 201.888,0.116 202.638,0.335 C203.314,0.403 203.989,0.470 204.664,0.538 C208.098,1.764 211.277,3.460 210.335,8.437 ZM188.865,15.932 C188.798,16.809 188.730,17.687 188.663,18.565 C188.799,19.069 189.144,19.614 189.270,20.185 C189.540,20.388 189.810,20.590 190.080,20.793 C190.080,20.860 190.080,20.928 190.080,20.995 C190.215,20.995 190.351,20.995 190.486,20.995 C190.553,21.130 190.620,21.265 190.688,21.400 C190.823,21.400 190.958,21.400 191.093,21.400 C191.093,21.468 191.093,21.535 191.093,21.603 C191.363,21.670 191.633,21.738 191.903,21.805 C191.903,21.873 191.903,21.940 191.903,22.008 C192.106,22.008 192.308,22.008 192.511,22.008 C192.511,22.076 192.511,22.143 192.511,22.211 C192.781,22.211 193.051,22.211 193.321,22.211 C193.321,22.278 193.321,22.346 193.321,22.413 C193.659,22.413 193.996,22.413 194.334,22.413 C194.334,22.481 194.334,22.548 194.334,22.616 C195.235,22.874 198.763,22.595 199.398,22.413 C200.140,22.346 200.883,22.278 201.626,22.211 C202.638,21.738 203.651,21.265 204.664,20.793 C204.934,20.455 205.204,20.117 205.474,19.780 C205.677,19.645 205.879,19.510 206.082,19.375 C206.149,19.105 206.217,18.835 206.284,18.565 C206.352,18.565 206.420,18.565 206.487,18.565 C206.487,18.430 206.487,18.295 206.487,18.160 C206.555,18.160 206.622,18.160 206.689,18.160 C206.959,17.423 206.724,16.431 206.689,15.729 C206.171,15.406 205.945,14.648 205.474,14.311 C205.339,14.311 205.204,14.311 205.069,14.311 C205.002,14.176 204.934,14.041 204.867,13.906 C204.732,13.906 204.596,13.906 204.461,13.906 C204.394,13.771 204.326,13.636 204.259,13.501 C204.124,13.501 203.989,13.501 203.854,13.501 C203.854,13.433 203.854,13.366 203.854,13.298 C203.719,13.298 203.584,13.298 203.449,13.298 C203.449,13.231 203.449,13.163 203.449,13.096 C200.478,12.083 197.507,11.070 194.537,10.057 C194.469,9.922 194.402,9.787 194.334,9.652 C194.199,9.652 194.064,9.652 193.929,9.652 C193.524,9.180 193.119,8.707 192.714,8.235 C192.690,6.837 192.913,6.181 193.119,5.196 C193.524,4.859 193.929,4.521 194.334,4.184 C194.334,4.116 194.334,4.049 194.334,3.981 C194.469,3.981 194.604,3.981 194.739,3.981 C194.739,3.914 194.739,3.846 194.739,3.779 C195.009,3.711 195.279,3.643 195.549,3.576 C195.549,3.508 195.549,3.441 195.549,3.373 C196.196,3.093 199.750,2.459 200.816,2.766 C200.816,2.833 200.816,2.901 200.816,2.968 C201.220,2.968 201.626,2.968 202.031,2.968 C202.031,3.036 202.031,3.103 202.031,3.171 C202.301,3.171 202.571,3.171 202.841,3.171 C202.841,3.239 202.841,3.306 202.841,3.373 C203.246,3.508 203.651,3.643 204.056,3.779 C204.056,3.846 204.056,3.914 204.056,3.981 C204.191,3.981 204.326,3.981 204.461,3.981 C204.596,4.184 204.732,4.386 204.867,4.589 C205.002,4.589 205.137,4.589 205.272,4.589 C205.339,4.724 205.407,4.859 205.474,4.994 C205.542,4.994 205.609,4.994 205.677,4.994 C205.677,5.129 205.677,5.264 205.677,5.399 C205.744,5.399 205.812,5.399 205.879,5.399 C206.073,5.648 206.028,5.790 206.284,6.007 C206.284,6.884 206.284,7.762 206.284,8.640 C205.407,8.640 204.529,8.640 203.651,8.640 C203.480,8.410 203.677,8.610 203.449,8.437 C203.512,6.204 202.245,5.471 200.613,4.994 C199.185,4.576 195.892,5.418 195.549,6.007 C195.549,6.142 195.549,6.277 195.549,6.412 C194.972,6.958 195.276,7.595 195.549,8.235 C195.752,8.302 195.954,8.370 196.157,8.437 C196.157,8.505 196.157,8.572 196.157,8.640 C196.292,8.640 196.427,8.640 196.562,8.640 C196.562,8.707 196.562,8.775 196.562,8.842 C196.697,8.842 196.832,8.842 196.967,8.842 C196.967,8.910 196.967,8.977 196.967,9.045 C197.102,9.045 197.237,9.045 197.372,9.045 C197.372,9.112 197.372,9.180 197.372,9.247 C197.642,9.247 197.912,9.247 198.182,9.247 C198.182,9.315 198.182,9.382 198.182,9.450 C198.385,9.450 198.587,9.450 198.790,9.450 C198.790,9.517 198.790,9.585 198.790,9.652 C198.993,9.652 199.195,9.652 199.398,9.652 C199.398,9.720 199.398,9.787 199.398,9.855 C200.073,9.990 200.748,10.125 201.423,10.260 C201.423,10.328 201.423,10.395 201.423,10.463 C201.896,10.530 202.368,10.598 202.841,10.665 C202.841,10.733 202.841,10.800 202.841,10.868 C203.111,10.868 203.381,10.868 203.651,10.868 C203.651,10.935 203.651,11.003 203.651,11.070 C204.056,11.138 204.461,11.205 204.867,11.273 C204.867,11.340 204.867,11.408 204.867,11.475 C205.002,11.475 205.137,11.475 205.272,11.475 C205.272,11.543 205.272,11.610 205.272,11.678 C205.609,11.745 205.947,11.813 206.284,11.881 C206.352,12.016 206.420,12.151 206.487,12.285 C206.622,12.285 206.757,12.285 206.892,12.285 C206.959,12.421 207.027,12.556 207.094,12.691 C207.229,12.691 207.365,12.691 207.500,12.691 C207.567,12.826 207.635,12.961 207.702,13.096 C207.972,13.298 208.242,13.501 208.512,13.704 C208.512,13.838 208.512,13.973 208.512,14.109 C208.647,14.176 208.782,14.244 208.917,14.311 C208.917,14.514 208.917,14.716 208.917,14.919 C209.534,15.565 209.263,17.695 208.917,18.565 C208.850,18.565 208.782,18.565 208.715,18.565 C208.647,18.902 208.580,19.240 208.512,19.577 C208.377,19.645 208.242,19.712 208.107,19.780 C208.107,19.915 208.107,20.050 208.107,20.185 C207.972,20.252 207.837,20.320 207.702,20.388 C207.500,20.658 207.297,20.928 207.094,21.198 C202.721,25.529 188.354,26.079 186.232,19.375 C185.930,18.421 186.304,16.818 186.434,16.134 C187.017,15.916 187.992,15.923 188.865,15.932 ZM184.409,8.032 C184.409,8.302 184.409,8.572 184.409,8.842 C184.342,8.842 184.274,8.842 184.207,8.842 C184.207,9.045 184.207,9.247 184.207,9.450 C184.139,9.450 184.071,9.450 184.004,9.450 C184.004,9.585 184.004,9.720 184.004,9.855 C183.869,9.922 183.734,9.990 183.599,10.057 C183.599,10.193 183.599,10.328 183.599,10.463 C183.464,10.530 183.329,10.598 183.194,10.665 C183.194,10.800 183.194,10.935 183.194,11.070 C182.991,11.205 182.789,11.340 182.586,11.475 C182.316,11.813 182.046,12.151 181.776,12.488 C181.641,12.488 181.506,12.488 181.371,12.488 C181.303,12.623 181.236,12.758 181.168,12.893 C180.439,13.377 179.089,13.930 178.130,14.109 C178.197,14.884 178.517,15.035 178.738,15.526 C178.738,15.729 178.738,15.932 178.738,16.134 C178.805,16.134 178.873,16.134 178.940,16.134 C178.940,16.269 178.940,16.404 178.940,16.539 C179.008,16.539 179.075,16.539 179.143,16.539 C179.143,16.674 179.143,16.809 179.143,16.944 C179.210,16.944 179.278,16.944 179.345,16.944 C179.413,17.282 179.480,17.619 179.548,17.957 C179.615,17.957 179.683,17.957 179.750,17.957 C179.750,18.092 179.750,18.227 179.750,18.362 C179.818,18.362 179.886,18.362 179.953,18.362 C180.021,18.632 180.088,18.902 180.155,19.172 C180.223,19.172 180.290,19.172 180.358,19.172 C180.358,19.375 180.358,19.577 180.358,19.780 C180.425,19.780 180.493,19.780 180.560,19.780 C180.560,19.915 180.560,20.050 180.560,20.185 C180.628,20.185 180.695,20.185 180.763,20.185 C180.763,20.320 180.763,20.455 180.763,20.590 C180.831,20.590 180.898,20.590 180.966,20.590 C180.966,20.725 180.966,20.860 180.966,20.995 C181.033,20.995 181.101,20.995 181.168,20.995 C181.168,21.198 181.168,21.400 181.168,21.603 C181.236,21.603 181.303,21.603 181.371,21.603 C181.371,21.738 181.371,21.873 181.371,22.008 C181.438,22.008 181.506,22.008 181.573,22.008 C181.880,22.592 182.089,23.278 182.181,24.033 C181.511,24.154 180.678,24.237 179.750,24.236 C179.683,24.034 179.615,23.831 179.548,23.628 C179.480,23.628 179.413,23.628 179.345,23.628 C179.278,23.291 179.210,22.953 179.143,22.616 C179.075,22.616 179.008,22.616 178.940,22.616 C178.940,22.481 178.940,22.346 178.940,22.211 C178.873,22.211 178.805,22.211 178.738,22.211 C178.738,22.008 178.738,21.805 178.738,21.603 C178.670,21.603 178.603,21.603 178.535,21.603 C178.535,21.468 178.535,21.333 178.535,21.198 C178.468,21.198 178.400,21.198 178.333,21.198 C178.265,20.928 178.198,20.658 178.130,20.388 C178.062,20.388 177.995,20.388 177.927,20.388 C177.927,20.185 177.927,19.982 177.927,19.780 C177.860,19.780 177.792,19.780 177.725,19.780 C177.725,19.645 177.725,19.510 177.725,19.375 C177.657,19.375 177.590,19.375 177.522,19.375 C177.455,19.105 177.387,18.835 177.320,18.565 C177.252,18.565 177.185,18.565 177.117,18.565 C177.117,18.362 177.117,18.160 177.117,17.957 C177.050,17.957 176.982,17.957 176.915,17.957 C176.915,17.822 176.915,17.687 176.915,17.552 C176.847,17.552 176.780,17.552 176.712,17.552 C176.712,17.417 176.712,17.282 176.712,17.147 C176.645,17.147 176.577,17.147 176.510,17.147 C176.510,17.012 176.510,16.877 176.510,16.742 C176.442,16.742 176.374,16.742 176.307,16.742 C176.307,16.539 176.307,16.337 176.307,16.134 C176.239,16.134 176.172,16.134 176.104,16.134 C176.104,15.999 176.104,15.864 176.104,15.729 C176.037,15.729 175.969,15.729 175.902,15.729 C175.902,15.594 175.902,15.459 175.902,15.324 C175.834,15.324 175.767,15.324 175.699,15.324 C175.632,14.986 175.564,14.649 175.497,14.311 C175.429,14.311 175.362,14.311 175.294,14.311 C175.090,13.870 175.122,13.523 175.092,12.893 C176.239,12.556 177.388,12.218 178.535,11.881 C178.535,11.813 178.535,11.745 178.535,11.678 C178.738,11.610 178.940,11.543 179.143,11.475 C179.210,11.340 179.278,11.205 179.345,11.070 C179.480,11.070 179.615,11.070 179.750,11.070 C179.953,10.800 180.155,10.530 180.358,10.260 C180.425,10.260 180.493,10.260 180.560,10.260 C180.560,10.125 180.560,9.990 180.560,9.855 C180.695,9.787 180.831,9.720 180.966,9.652 C181.101,9.247 181.236,8.842 181.371,8.437 C181.438,8.437 181.506,8.437 181.573,8.437 C181.884,7.642 181.853,5.495 181.371,4.994 C180.347,0.926 170.695,1.922 165.369,1.956 C164.222,9.382 163.074,16.810 161.926,24.236 C160.944,24.250 160.008,24.169 159.293,24.033 C160.508,16.270 161.723,8.504 162.939,0.740 C164.083,0.152 166.063,0.335 167.800,0.335 C171.108,0.335 174.417,0.335 177.725,0.335 C178.194,0.730 179.299,0.504 179.953,0.740 C179.953,0.808 179.953,0.875 179.953,0.943 C180.155,0.943 180.358,0.943 180.560,0.943 C180.560,1.010 180.560,1.078 180.560,1.145 C180.966,1.280 181.371,1.415 181.776,1.551 C181.776,1.618 181.776,1.686 181.776,1.753 C181.911,1.753 182.046,1.753 182.181,1.753 C182.519,2.158 182.856,2.563 183.194,2.968 C183.396,3.103 183.599,3.239 183.801,3.373 C183.801,3.508 183.801,3.643 183.801,3.779 C183.869,3.779 183.936,3.779 184.004,3.779 C184.071,4.049 184.139,4.319 184.207,4.589 C184.274,4.589 184.342,4.589 184.409,4.589 C184.598,5.030 184.826,7.329 184.612,8.032 C184.544,8.032 184.477,8.032 184.409,8.032 ZM140.051,1.956 C140.048,2.839 139.836,3.547 139.646,4.184 C139.646,4.589 139.646,4.994 139.646,5.399 C139.578,5.399 139.510,5.399 139.443,5.399 C139.443,5.804 139.443,6.209 139.443,6.614 C139.375,6.614 139.308,6.614 139.240,6.614 C139.240,7.019 139.240,7.425 139.240,7.830 C139.173,7.830 139.105,7.830 139.038,7.830 C139.038,8.167 139.038,8.505 139.038,8.842 C138.971,8.842 138.903,8.842 138.836,8.842 C138.836,9.247 138.836,9.652 138.836,10.057 C138.518,11.109 138.339,12.651 138.025,13.704 C138.025,14.109 138.025,14.514 138.025,14.919 C137.589,16.365 137.445,18.332 137.013,19.780 C137.013,20.185 137.013,20.590 137.013,20.995 C136.945,20.995 136.877,20.995 136.810,20.995 C136.653,21.518 136.788,21.943 136.607,22.413 C143.021,22.413 149.436,22.413 155.850,22.413 C155.850,22.481 155.850,22.548 155.850,22.616 C155.782,22.616 155.714,22.616 155.647,22.616 C155.647,22.953 155.647,23.291 155.647,23.628 C155.641,23.647 155.521,23.591 155.444,24.033 C148.423,24.033 141.400,24.033 134.379,24.033 C134.362,22.931 134.555,22.180 134.784,21.400 C134.784,20.928 134.784,20.455 134.784,19.982 C135.098,18.930 135.285,17.390 135.595,16.337 C135.662,15.459 135.730,14.581 135.797,13.704 C136.483,11.433 136.546,8.481 137.215,6.209 C137.215,5.737 137.215,5.264 137.215,4.791 C137.283,4.791 137.350,4.791 137.418,4.791 C137.418,4.386 137.418,3.981 137.418,3.576 C137.485,3.576 137.553,3.576 137.620,3.576 C137.755,2.563 137.890,1.550 138.025,0.538 C138.093,0.538 138.160,0.538 138.228,0.538 C138.755,0.078 142.601,0.335 143.697,0.335 C148.827,0.335 153.960,0.335 159.090,0.335 C159.261,0.565 159.065,0.365 159.293,0.538 C159.203,1.039 159.107,1.281 159.090,1.956 C152.744,1.956 146.397,1.956 140.051,1.956 ZM134.784,1.956 C128.506,1.956 122.226,1.956 115.947,1.956 C114.732,9.382 113.517,16.810 112.302,24.236 C111.674,24.123 110.949,24.033 110.073,24.033 C111.289,16.202 112.504,8.369 113.719,0.538 C115.897,0.150 118.906,0.335 121.416,0.335 C125.872,0.335 130.329,0.335 134.784,0.335 C134.907,0.660 134.963,0.816 134.987,1.348 C134.919,1.348 134.852,1.348 134.784,1.348 C134.784,1.551 134.784,1.753 134.784,1.956 ZM103.794,24.236 C103.623,24.006 103.820,24.207 103.592,24.033 C103.568,23.084 103.220,22.497 102.984,21.805 C102.984,21.535 102.984,21.265 102.984,20.995 C102.917,20.995 102.849,20.995 102.782,20.995 C102.714,20.455 102.646,19.915 102.579,19.375 C102.511,19.375 102.444,19.375 102.376,19.375 C102.376,19.172 102.376,18.970 102.376,18.767 C102.309,18.767 102.241,18.767 102.174,18.767 C102.174,18.497 102.174,18.227 102.174,17.957 C102.106,17.957 102.039,17.957 101.972,17.957 C101.972,17.687 101.972,17.417 101.972,17.147 C101.904,17.147 101.837,17.147 101.769,17.147 C101.769,16.877 101.769,16.607 101.769,16.337 C101.702,16.337 101.634,16.337 101.566,16.337 C101.499,15.864 101.431,15.391 101.364,14.919 C101.296,14.919 101.229,14.919 101.161,14.919 C101.026,14.109 100.891,13.298 100.756,12.488 C100.689,12.488 100.621,12.488 100.554,12.488 C100.554,12.218 100.554,11.948 100.554,11.678 C100.486,11.678 100.419,11.678 100.351,11.678 C100.351,11.475 100.351,11.273 100.351,11.070 C100.284,11.070 100.216,11.070 100.149,11.070 C100.149,10.800 100.149,10.530 100.149,10.260 C100.081,10.260 100.014,10.260 99.946,10.260 C99.946,9.990 99.946,9.720 99.946,9.450 C99.878,9.450 99.811,9.450 99.743,9.450 C99.743,9.180 99.743,8.910 99.743,8.640 C99.676,8.640 99.608,8.640 99.541,8.640 C99.473,8.167 99.406,7.694 99.338,7.222 C99.271,7.222 99.203,7.222 99.136,7.222 C99.136,6.952 99.136,6.682 99.136,6.412 C99.068,6.412 99.001,6.412 98.933,6.412 C98.933,6.142 98.933,5.872 98.933,5.602 C98.731,4.994 98.528,4.386 98.325,3.779 C98.095,4.009 98.245,3.779 98.123,4.184 C97.619,4.500 97.380,5.047 97.313,5.804 C97.723,6.264 97.496,6.770 97.718,7.424 C97.785,7.424 97.853,7.424 97.920,7.424 C97.920,7.694 97.920,7.965 97.920,8.235 C97.988,8.235 98.055,8.235 98.123,8.235 C98.123,8.505 98.123,8.775 98.123,9.045 C98.524,10.229 98.939,11.709 99.338,12.893 C99.406,13.433 99.473,13.973 99.541,14.514 C99.907,15.591 100.311,16.472 100.351,17.957 C97.366,18.490 93.357,18.162 90.021,18.160 C89.954,18.362 89.886,18.565 89.819,18.767 C93.397,18.767 96.976,18.767 100.554,18.767 C101.263,20.196 101.829,22.491 102.174,24.236 C100.979,24.247 99.872,24.127 98.933,24.033 C98.891,23.286 98.519,21.177 98.123,20.793 C97.684,20.404 96.275,20.590 95.490,20.590 C93.059,20.590 90.628,20.590 88.198,20.590 C88.026,21.551 87.382,22.094 86.983,22.818 C86.983,22.953 86.983,23.088 86.983,23.223 C86.915,23.223 86.848,23.223 86.780,23.223 C86.780,23.358 86.780,23.493 86.780,23.628 C86.713,23.628 86.645,23.628 86.578,23.628 C86.578,23.696 86.578,23.763 86.578,23.831 C86.510,23.831 86.443,23.831 86.375,23.831 C86.375,23.898 86.375,23.966 86.375,24.033 C86.240,24.033 86.105,24.033 85.970,24.033 C85.555,24.415 84.102,24.256 83.337,24.236 C83.337,24.169 83.337,24.101 83.337,24.033 C83.733,23.671 83.509,23.647 83.742,23.223 C83.810,23.223 83.877,23.223 83.945,23.223 C83.945,23.088 83.945,22.953 83.945,22.818 C84.012,22.818 84.080,22.818 84.147,22.818 C84.147,22.683 84.147,22.548 84.147,22.413 C84.282,22.346 84.417,22.278 84.552,22.211 C84.552,22.076 84.552,21.940 84.552,21.805 C84.620,21.805 84.687,21.805 84.755,21.805 C84.755,21.670 84.755,21.535 84.755,21.400 C84.822,21.400 84.890,21.400 84.957,21.400 C84.957,21.265 84.957,21.130 84.957,20.995 C85.025,20.995 85.092,20.995 85.160,20.995 C85.160,20.860 85.160,20.725 85.160,20.590 C85.227,20.590 85.295,20.590 85.362,20.590 C85.362,20.455 85.362,20.320 85.362,20.185 C85.498,20.117 85.633,20.050 85.768,19.982 C85.768,19.848 85.768,19.712 85.768,19.577 C85.835,19.577 85.903,19.577 85.970,19.577 C85.970,19.442 85.970,19.307 85.970,19.172 C86.037,19.172 86.105,19.172 86.172,19.172 C86.172,19.037 86.172,18.902 86.172,18.767 C86.240,18.767 86.307,18.767 86.375,18.767 C86.375,18.632 86.375,18.497 86.375,18.362 C86.510,18.295 86.645,18.227 86.780,18.160 C86.780,18.024 86.780,17.889 86.780,17.754 C86.848,17.754 86.915,17.754 86.983,17.754 C86.983,17.619 86.983,17.484 86.983,17.349 C87.050,17.349 87.118,17.349 87.185,17.349 C87.185,17.214 87.185,17.079 87.185,16.944 C87.253,16.944 87.320,16.944 87.388,16.944 C87.388,16.809 87.388,16.674 87.388,16.539 C87.523,16.472 87.658,16.404 87.793,16.337 C87.793,16.202 87.793,16.067 87.793,15.932 C87.860,15.932 87.928,15.932 87.995,15.932 C87.995,15.797 87.995,15.661 87.995,15.526 C88.063,15.526 88.131,15.526 88.198,15.526 C88.198,15.391 88.198,15.256 88.198,15.121 C88.266,15.121 88.333,15.121 88.401,15.121 C88.401,14.986 88.401,14.851 88.401,14.716 C88.468,14.716 88.536,14.716 88.603,14.716 C88.603,14.581 88.603,14.446 88.603,14.311 C88.738,14.244 88.873,14.176 89.008,14.109 C89.008,13.973 89.008,13.838 89.008,13.704 C89.076,13.704 89.143,13.704 89.211,13.704 C89.211,13.569 89.211,13.433 89.211,13.298 C89.278,13.298 89.346,13.298 89.413,13.298 C89.413,13.163 89.413,13.028 89.413,12.893 C89.481,12.893 89.548,12.893 89.616,12.893 C89.616,12.758 89.616,12.623 89.616,12.488 C89.751,12.421 89.886,12.353 90.021,12.285 C90.021,12.151 90.021,12.016 90.021,11.881 C90.089,11.881 90.156,11.881 90.224,11.881 C90.224,11.745 90.224,11.610 90.224,11.475 C90.291,11.475 90.359,11.475 90.426,11.475 C90.426,11.340 90.426,11.205 90.426,11.070 C90.494,11.070 90.561,11.070 90.629,11.070 C90.629,10.935 90.629,10.800 90.629,10.665 C90.764,10.598 90.899,10.530 91.034,10.463 C91.034,10.328 91.034,10.193 91.034,10.057 C91.101,10.057 91.169,10.057 91.236,10.057 C91.236,9.922 91.236,9.787 91.236,9.652 C91.304,9.652 91.371,9.652 91.439,9.652 C91.439,9.517 91.439,9.382 91.439,9.247 C91.507,9.247 91.574,9.247 91.641,9.247 C91.641,9.112 91.641,8.977 91.641,8.842 C91.709,8.842 91.776,8.842 91.844,8.842 C91.844,8.707 91.844,8.572 91.844,8.437 C91.979,8.370 92.114,8.302 92.249,8.235 C92.249,8.100 92.249,7.965 92.249,7.830 C92.317,7.830 92.384,7.830 92.452,7.830 C92.452,7.694 92.452,7.559 92.452,7.424 C92.519,7.424 92.587,7.424 92.654,7.424 C92.654,7.289 92.654,7.154 92.654,7.019 C92.722,7.019 92.789,7.019 92.857,7.019 C92.857,6.884 92.857,6.749 92.857,6.614 C92.992,6.547 93.127,6.479 93.262,6.412 C93.262,6.277 93.262,6.142 93.262,6.007 C93.329,6.007 93.397,6.007 93.464,6.007 C93.464,5.872 93.464,5.737 93.464,5.602 C93.532,5.602 93.599,5.602 93.667,5.602 C93.667,5.467 93.667,5.331 93.667,5.196 C93.734,5.196 93.802,5.196 93.869,5.196 C93.869,5.061 93.869,4.926 93.869,4.791 C94.004,4.724 94.140,4.656 94.275,4.589 C94.275,4.454 94.275,4.319 94.275,4.184 C94.342,4.184 94.410,4.184 94.477,4.184 C94.477,4.049 94.477,3.914 94.477,3.779 C94.545,3.779 94.612,3.779 94.680,3.779 C94.680,3.643 94.680,3.508 94.680,3.373 C94.747,3.373 94.815,3.373 94.882,3.373 C94.882,3.239 94.882,3.103 94.882,2.968 C94.950,2.968 95.017,2.968 95.085,2.968 C95.085,2.833 95.085,2.698 95.085,2.563 C95.220,2.496 95.355,2.428 95.490,2.361 C95.490,2.226 95.490,2.091 95.490,1.956 C95.783,1.435 96.136,1.043 96.300,0.335 C97.785,0.335 99.271,0.335 100.756,0.335 C100.847,0.520 101.159,0.736 101.161,0.740 C101.161,1.010 101.161,1.280 101.161,1.551 C101.229,1.551 101.296,1.551 101.364,1.551 C101.364,1.820 101.364,2.091 101.364,2.361 C101.431,2.361 101.499,2.361 101.566,2.361 C101.566,2.698 101.566,3.036 101.566,3.373 C101.634,3.373 101.702,3.373 101.769,3.373 C101.769,3.643 101.769,3.914 101.769,4.184 C101.837,4.184 101.904,4.184 101.972,4.184 C101.972,4.454 101.972,4.724 101.972,4.994 C102.039,4.994 102.106,4.994 102.174,4.994 C102.174,5.264 102.174,5.534 102.174,5.804 C103.430,9.497 104.026,13.849 105.212,17.552 C105.212,17.889 105.212,18.227 105.212,18.565 C105.280,18.565 105.347,18.565 105.415,18.565 C105.415,18.835 105.415,19.105 105.415,19.375 C105.482,19.375 105.550,19.375 105.617,19.375 C105.752,20.185 105.887,20.995 106.023,21.805 C106.090,21.805 106.158,21.805 106.225,21.805 C106.293,22.346 106.360,22.886 106.428,23.426 C106.495,23.426 106.563,23.426 106.630,23.426 C106.677,23.840 106.538,23.664 106.428,23.831 C105.963,24.369 104.810,24.262 103.794,24.236 ZM96.705,13.906 C96.705,13.569 96.705,13.231 96.705,12.893 C96.211,11.304 95.674,9.235 95.490,7.424 C95.355,7.424 95.220,7.424 95.085,7.424 C94.612,8.505 94.140,9.585 93.667,10.665 C93.532,10.733 93.397,10.800 93.262,10.868 C93.262,11.003 93.262,11.138 93.262,11.273 C93.194,11.273 93.127,11.273 93.059,11.273 C93.059,11.408 93.059,11.543 93.059,11.678 C92.992,11.678 92.924,11.678 92.857,11.678 C92.857,11.813 92.857,11.948 92.857,12.083 C92.789,12.083 92.722,12.083 92.654,12.083 C92.654,12.218 92.654,12.353 92.654,12.488 C92.587,12.488 92.519,12.488 92.452,12.488 C92.452,12.623 92.452,12.758 92.452,12.893 C92.384,12.893 92.317,12.893 92.249,12.893 C92.249,13.028 92.249,13.163 92.249,13.298 C92.182,13.298 92.114,13.298 92.046,13.298 C92.046,13.433 92.046,13.569 92.046,13.704 C91.979,13.704 91.911,13.704 91.844,13.704 C91.776,13.973 91.709,14.244 91.641,14.514 C91.507,14.581 91.371,14.649 91.236,14.716 C91.236,14.851 91.236,14.986 91.236,15.121 C91.169,15.121 91.101,15.121 91.034,15.121 C90.899,15.526 90.764,15.932 90.629,16.337 C92.789,16.337 94.950,16.337 97.110,16.337 C97.178,16.134 97.245,15.931 97.313,15.729 C96.922,15.280 97.120,14.553 96.908,13.906 C96.840,13.906 96.773,13.906 96.705,13.906 ZM94.275,1.348 C94.275,1.483 94.275,1.618 94.275,1.753 C94.140,1.820 94.004,1.888 93.869,1.956 C93.734,2.361 93.599,2.766 93.464,3.171 C93.329,3.239 93.194,3.306 93.059,3.373 C92.924,3.779 92.789,4.184 92.654,4.589 C92.519,4.656 92.384,4.724 92.249,4.791 C92.114,5.196 91.979,5.602 91.844,6.007 C91.709,6.074 91.574,6.142 91.439,6.209 C91.304,6.614 91.169,7.019 91.034,7.424 C90.899,7.492 90.764,7.559 90.629,7.627 C90.629,7.762 90.629,7.897 90.629,8.032 C90.561,8.032 90.494,8.032 90.426,8.032 C90.426,8.167 90.426,8.302 90.426,8.437 C90.359,8.437 90.291,8.437 90.224,8.437 C90.224,8.572 90.224,8.707 90.224,8.842 C90.156,8.842 90.089,8.842 90.021,8.842 C90.021,8.977 90.021,9.112 90.021,9.247 C89.886,9.315 89.751,9.382 89.616,9.450 C89.481,9.855 89.346,10.260 89.211,10.665 C89.076,10.733 88.941,10.800 88.806,10.868 C88.671,11.273 88.536,11.678 88.401,12.083 C88.266,12.151 88.131,12.218 87.995,12.285 C87.860,12.691 87.725,13.096 87.590,13.501 C87.456,13.568 87.320,13.636 87.185,13.704 C87.050,14.109 86.915,14.514 86.780,14.919 C86.645,14.986 86.510,15.054 86.375,15.121 C86.240,15.526 86.105,15.932 85.970,16.337 C85.835,16.404 85.700,16.472 85.565,16.539 C85.565,16.674 85.565,16.809 85.565,16.944 C85.498,16.944 85.430,16.944 85.362,16.944 C85.362,17.079 85.362,17.214 85.362,17.349 C85.295,17.349 85.227,17.349 85.160,17.349 C85.160,17.484 85.160,17.619 85.160,17.754 C85.025,17.822 84.890,17.889 84.755,17.957 C84.755,18.092 84.755,18.227 84.755,18.362 C84.687,18.362 84.620,18.362 84.552,18.362 C84.552,18.497 84.552,18.632 84.552,18.767 C84.485,18.767 84.417,18.767 84.350,18.767 C84.350,18.902 84.350,19.037 84.350,19.172 C84.282,19.172 84.215,19.172 84.147,19.172 C84.147,19.307 84.147,19.442 84.147,19.577 C84.012,19.645 83.877,19.712 83.742,19.780 C83.607,20.185 83.472,20.590 83.337,20.995 C83.202,21.063 83.067,21.130 82.932,21.198 C82.797,21.603 82.662,22.008 82.527,22.413 C82.392,22.481 82.257,22.548 82.122,22.616 C82.122,22.751 82.122,22.886 82.122,23.021 C82.054,23.021 81.986,23.021 81.919,23.021 C81.784,23.426 81.649,23.831 81.514,24.236 C80.532,24.250 79.596,24.169 78.881,24.033 C79.022,23.313 79.410,23.120 79.691,22.616 C79.759,22.346 79.826,22.076 79.894,21.805 C80.029,21.738 80.164,21.670 80.299,21.603 C80.299,21.468 80.299,21.333 80.299,21.198 C80.366,21.198 80.434,21.198 80.501,21.198 C80.501,21.063 80.501,20.928 80.501,20.793 C80.569,20.793 80.636,20.793 80.704,20.793 C80.704,20.658 80.704,20.523 80.704,20.388 C80.771,20.388 80.839,20.388 80.906,20.388 C80.906,20.252 80.906,20.117 80.906,19.982 C81.041,19.915 81.176,19.848 81.311,19.780 C81.311,19.645 81.311,19.510 81.311,19.375 C81.379,19.375 81.446,19.375 81.514,19.375 C81.514,19.240 81.514,19.105 81.514,18.970 C81.581,18.970 81.649,18.970 81.716,18.970 C81.716,18.835 81.716,18.700 81.716,18.565 C81.784,18.565 81.852,18.565 81.919,18.565 C81.919,18.430 81.919,18.295 81.919,18.160 C82.054,18.092 82.189,18.024 82.324,17.957 C82.392,17.687 82.459,17.417 82.527,17.147 C82.594,17.147 82.662,17.147 82.729,17.147 C82.729,17.012 82.729,16.877 82.729,16.742 C82.797,16.742 82.864,16.742 82.932,16.742 C82.932,16.607 82.932,16.472 82.932,16.337 C83.067,16.269 83.202,16.202 83.337,16.134 C83.337,15.999 83.337,15.864 83.337,15.729 C83.404,15.729 83.472,15.729 83.539,15.729 C83.539,15.594 83.539,15.459 83.539,15.324 C83.607,15.324 83.674,15.324 83.742,15.324 C83.742,15.189 83.742,15.054 83.742,14.919 C83.810,14.919 83.877,14.919 83.945,14.919 C83.945,14.784 83.945,14.649 83.945,14.514 C84.080,14.446 84.215,14.379 84.350,14.311 C84.350,14.176 84.350,14.041 84.350,13.906 C84.417,13.906 84.485,13.906 84.552,13.906 C84.552,13.771 84.552,13.636 84.552,13.501 C84.620,13.501 84.687,13.501 84.755,13.501 C84.755,13.366 84.755,13.231 84.755,13.096 C84.822,13.096 84.890,13.096 84.957,13.096 C84.957,12.961 84.957,12.826 84.957,12.691 C85.092,12.623 85.227,12.556 85.362,12.488 C85.498,12.083 85.633,11.678 85.768,11.273 C85.903,11.205 86.037,11.138 86.172,11.070 C86.172,10.935 86.172,10.800 86.172,10.665 C86.240,10.665 86.307,10.665 86.375,10.665 C86.375,10.530 86.375,10.395 86.375,10.260 C86.443,10.260 86.510,10.260 86.578,10.260 C86.578,10.125 86.578,9.990 86.578,9.855 C86.645,9.855 86.713,9.855 86.780,9.855 C86.780,9.720 86.780,9.585 86.780,9.450 C86.915,9.382 87.050,9.315 87.185,9.247 C87.185,9.112 87.185,8.977 87.185,8.842 C87.253,8.842 87.320,8.842 87.388,8.842 C87.388,8.707 87.388,8.572 87.388,8.437 C87.455,8.437 87.523,8.437 87.590,8.437 C87.590,8.302 87.590,8.167 87.590,8.032 C87.658,8.032 87.725,8.032 87.793,8.032 C87.793,7.897 87.793,7.762 87.793,7.627 C87.928,7.559 88.063,7.492 88.198,7.424 C88.198,7.289 88.198,7.154 88.198,7.019 C88.266,7.019 88.333,7.019 88.401,7.019 C88.401,6.884 88.401,6.749 88.401,6.614 C88.468,6.614 88.536,6.614 88.603,6.614 C88.603,6.479 88.603,6.344 88.603,6.209 C88.671,6.209 88.738,6.209 88.806,6.209 C88.806,6.074 88.806,5.939 88.806,5.804 C88.941,5.737 89.076,5.669 89.211,5.602 C89.211,5.467 89.211,5.331 89.211,5.196 C89.278,5.196 89.346,5.196 89.413,5.196 C89.413,5.061 89.413,4.926 89.413,4.791 C89.481,4.791 89.548,4.791 89.616,4.791 C89.616,4.656 89.616,4.521 89.616,4.386 C89.683,4.386 89.751,4.386 89.819,4.386 C89.819,4.251 89.819,4.116 89.819,3.981 C89.954,3.914 90.089,3.846 90.224,3.779 C90.224,3.643 90.224,3.508 90.224,3.373 C90.291,3.373 90.359,3.373 90.426,3.373 C90.426,3.239 90.426,3.103 90.426,2.968 C90.494,2.968 90.561,2.968 90.629,2.968 C90.629,2.833 90.629,2.698 90.629,2.563 C90.696,2.563 90.764,2.563 90.831,2.563 C90.831,2.428 90.831,2.293 90.831,2.158 C90.966,2.091 91.101,2.023 91.236,1.956 C91.236,1.821 91.236,1.686 91.236,1.551 C91.315,1.412 91.952,0.382 92.046,0.335 C92.992,0.335 93.937,0.335 94.882,0.335 C94.882,0.403 94.882,0.470 94.882,0.538 C94.485,0.900 94.712,0.931 94.477,1.348 C94.410,1.348 94.342,1.348 94.275,1.348 ZM79.083,2.158 C79.083,2.563 79.083,2.968 79.083,3.373 C79.016,3.373 78.948,3.373 78.881,3.373 C78.881,3.846 78.881,4.319 78.881,4.791 C78.569,5.843 78.380,7.384 78.071,8.437 C77.936,9.720 77.801,11.003 77.665,12.285 C76.991,16.201 76.315,20.118 75.640,24.033 C74.923,24.162 73.989,24.238 73.007,24.236 C73.007,24.169 73.007,24.101 73.007,24.033 C73.074,24.033 73.142,24.033 73.209,24.033 C73.209,23.628 73.209,23.223 73.209,22.818 C73.530,21.767 73.707,20.226 74.020,19.172 C74.020,18.767 74.020,18.362 74.020,17.957 C74.665,15.799 74.792,13.044 75.438,10.868 C75.505,10.058 75.573,9.247 75.640,8.437 C75.955,7.385 76.138,5.844 76.450,4.791 C76.450,4.386 76.450,3.981 76.450,3.576 C76.736,2.634 77.011,1.557 77.058,0.335 C77.801,0.335 78.543,0.335 79.286,0.335 C79.353,0.817 79.522,1.364 79.286,2.158 C79.218,2.158 79.151,2.158 79.083,2.158 ZM74.020,6.614 C74.020,7.019 74.020,7.425 74.020,7.830 C73.749,8.740 73.473,9.962 73.412,11.070 C72.420,11.582 71.103,11.475 69.564,11.475 C67.268,11.475 64.972,11.475 62.677,11.475 C62.609,11.813 62.542,12.151 62.474,12.488 C65.917,12.488 69.361,12.488 72.804,12.488 C72.982,12.957 73.011,13.381 73.007,14.109 C72.522,14.663 72.853,15.489 72.602,16.337 C72.534,16.337 72.467,16.337 72.399,16.337 C72.399,16.742 72.399,17.147 72.399,17.552 C72.332,17.552 72.264,17.552 72.197,17.552 C72.197,17.889 72.197,18.227 72.197,18.565 C72.129,18.565 72.062,18.565 71.994,18.565 C71.994,18.970 71.994,19.375 71.994,19.780 C71.927,19.780 71.859,19.780 71.792,19.780 C71.792,20.185 71.792,20.590 71.792,20.995 C71.509,21.933 71.223,23.017 71.184,24.236 C70.306,24.169 69.428,24.101 68.551,24.033 C69.023,20.861 69.496,17.687 69.969,14.514 C67.201,14.514 64.432,14.514 61.664,14.514 C61.648,15.264 61.422,15.987 61.259,16.539 C61.259,17.012 61.259,17.484 61.259,17.957 C60.931,19.055 60.779,20.708 60.449,21.805 C60.200,22.633 60.537,23.317 60.044,23.831 C59.813,24.061 60.043,23.912 59.639,24.033 C59.293,24.354 58.276,24.255 57.613,24.236 C58.896,16.270 60.179,8.301 61.462,0.335 C62.204,0.335 62.947,0.335 63.690,0.335 C63.821,0.683 63.882,0.971 63.892,1.551 C63.396,2.124 63.739,3.123 63.487,3.981 C63.150,5.871 62.812,7.762 62.474,9.652 C65.242,9.652 68.011,9.652 70.779,9.652 C71.251,6.682 71.724,3.711 72.197,0.740 C72.325,0.673 72.602,0.335 72.602,0.335 C73.480,0.335 74.357,0.335 75.235,0.335 C75.235,0.403 75.235,0.470 75.235,0.538 C74.739,1.114 75.085,2.109 74.830,2.968 C74.517,4.021 74.331,5.561 74.020,6.614 ZM53.157,24.033 C53.134,22.598 53.437,21.283 53.765,20.185 C53.765,19.780 53.765,19.375 53.765,18.970 C54.103,17.840 54.243,16.231 54.575,15.121 C54.643,14.244 54.710,13.366 54.777,12.488 C55.338,10.605 55.430,8.091 55.993,6.209 C55.993,5.804 55.993,5.399 55.993,4.994 C56.060,4.994 56.128,4.994 56.195,4.994 C56.195,4.521 56.195,4.049 56.195,3.576 C56.263,3.576 56.330,3.576 56.398,3.576 C56.533,2.563 56.668,1.550 56.803,0.538 C56.870,0.538 56.938,0.538 57.005,0.538 C57.397,0.177 58.705,0.315 59.436,0.335 C58.153,8.301 56.870,16.270 55.588,24.236 C54.659,24.249 53.826,24.160 53.157,24.033 ZM43.232,3.171 C43.502,3.171 43.772,3.171 44.042,3.171 C44.042,3.239 44.042,3.306 44.042,3.373 C44.312,3.441 44.583,3.508 44.853,3.576 C44.920,3.711 44.987,3.846 45.055,3.981 C45.190,3.981 45.325,3.981 45.460,3.981 C45.528,4.116 45.595,4.251 45.663,4.386 C46.821,5.498 47.125,6.331 47.081,8.640 C46.498,8.858 45.523,8.851 44.650,8.842 C44.650,8.775 44.650,8.707 44.650,8.640 C44.583,8.640 44.515,8.640 44.448,8.640 C44.516,6.465 44.049,6.090 42.625,5.399 C42.625,5.331 42.625,5.264 42.625,5.196 C42.422,5.196 42.219,5.196 42.017,5.196 C42.017,5.129 42.017,5.061 42.017,4.994 C41.612,4.994 41.207,4.994 40.801,4.994 C38.853,4.986 36.711,5.744 36.345,7.222 C35.622,7.875 36.045,8.407 35.738,9.450 C35.670,9.450 35.603,9.450 35.535,9.450 C35.535,9.855 35.535,10.260 35.535,10.665 C35.468,10.665 35.400,10.665 35.333,10.665 C35.333,11.070 35.333,11.475 35.333,11.881 C35.265,11.881 35.198,11.881 35.130,11.881 C35.130,12.285 35.130,12.691 35.130,13.096 C35.063,13.096 34.995,13.096 34.928,13.096 C34.928,13.568 34.928,14.041 34.928,14.514 C34.534,15.875 34.592,16.466 34.725,17.957 C35.218,18.232 35.394,18.732 35.738,18.970 C36.076,19.204 36.202,18.966 36.548,19.375 C38.438,19.423 39.240,19.733 40.801,18.970 C40.937,18.970 41.072,18.970 41.207,18.970 C41.207,18.902 41.207,18.835 41.207,18.767 C41.342,18.767 41.477,18.767 41.612,18.767 C42.084,18.227 42.557,17.687 43.030,17.147 C43.204,16.772 43.120,15.915 43.435,15.729 C44.245,15.729 45.055,15.729 45.865,15.729 C45.659,18.329 42.938,20.687 40.801,21.400 C40.464,21.400 40.126,21.400 39.789,21.400 C39.789,21.468 39.789,21.535 39.789,21.603 C39.316,21.603 38.843,21.603 38.371,21.603 C36.602,21.608 35.403,21.394 34.320,20.793 C34.185,20.793 34.050,20.793 33.915,20.793 C33.847,20.658 33.780,20.523 33.712,20.388 C33.577,20.388 33.442,20.388 33.307,20.388 C33.307,20.320 33.307,20.252 33.307,20.185 C33.037,19.982 32.767,19.780 32.497,19.577 C32.430,19.307 32.362,19.037 32.295,18.767 C32.227,18.767 32.159,18.767 32.092,18.767 C32.092,18.632 32.092,18.497 32.092,18.362 C32.024,18.362 31.957,18.362 31.889,18.362 C31.471,17.186 32.270,13.855 32.497,13.096 C32.767,11.206 33.037,9.315 33.307,7.424 C33.912,5.680 35.715,4.081 37.358,3.373 C37.561,3.373 37.763,3.373 37.966,3.373 C37.966,3.306 37.966,3.239 37.966,3.171 C38.236,3.171 38.506,3.171 38.776,3.171 C38.776,3.103 38.776,3.036 38.776,2.968 C39.181,2.968 39.586,2.968 39.992,2.968 C39.992,2.901 39.992,2.833 39.992,2.766 C41.133,2.447 42.543,2.940 43.232,3.171 ZM48.904,8.640 C48.904,8.572 48.904,8.505 48.904,8.437 C49.356,7.932 48.963,5.485 48.701,4.994 C48.566,4.926 48.431,4.859 48.296,4.791 C48.296,4.656 48.296,4.521 48.296,4.386 C48.161,4.319 48.026,4.251 47.891,4.184 C47.621,3.846 47.351,3.508 47.081,3.171 C46.946,3.171 46.810,3.171 46.675,3.171 C46.675,3.103 46.675,3.036 46.675,2.968 C46.540,2.968 46.405,2.968 46.270,2.968 C46.270,2.901 46.270,2.833 46.270,2.766 C46.135,2.766 46.000,2.766 45.865,2.766 C45.865,2.698 45.865,2.631 45.865,2.563 C45.730,2.563 45.595,2.563 45.460,2.563 C45.460,2.496 45.460,2.428 45.460,2.361 C45.325,2.361 45.190,2.361 45.055,2.361 C45.055,2.293 45.055,2.226 45.055,2.158 C44.785,2.158 44.515,2.158 44.245,2.158 C44.245,2.091 44.245,2.023 44.245,1.956 C43.840,1.956 43.435,1.956 43.030,1.956 C43.030,1.888 43.030,1.820 43.030,1.753 C41.949,1.753 40.869,1.753 39.789,1.753 C39.789,1.820 39.789,1.888 39.789,1.956 C39.046,2.023 38.304,2.091 37.561,2.158 C37.561,2.226 37.561,2.293 37.561,2.361 C37.156,2.428 36.751,2.496 36.345,2.563 C36.345,2.631 36.345,2.698 36.345,2.766 C36.210,2.766 36.075,2.766 35.940,2.766 C35.940,2.833 35.940,2.901 35.940,2.968 C35.805,2.968 35.670,2.968 35.535,2.968 C35.535,3.036 35.535,3.103 35.535,3.171 C35.400,3.171 35.265,3.171 35.130,3.171 C35.130,3.239 35.130,3.306 35.130,3.373 C34.995,3.373 34.860,3.373 34.725,3.373 C34.725,3.441 34.725,3.508 34.725,3.576 C34.590,3.576 34.455,3.576 34.320,3.576 C34.185,3.779 34.050,3.981 33.915,4.184 C33.780,4.184 33.645,4.184 33.510,4.184 C33.442,4.319 33.375,4.454 33.307,4.589 C33.037,4.791 32.767,4.994 32.497,5.196 C32.497,5.331 32.497,5.467 32.497,5.602 C32.362,5.669 32.227,5.737 32.092,5.804 C32.024,6.074 31.957,6.344 31.889,6.614 C31.822,6.614 31.754,6.614 31.687,6.614 C31.687,6.749 31.687,6.884 31.687,7.019 C31.619,7.019 31.552,7.019 31.484,7.019 C31.214,8.775 30.944,10.530 30.674,12.285 C30.397,13.241 29.428,17.224 29.864,18.565 C30.764,21.332 33.621,22.614 37.358,22.616 C38.303,22.616 39.249,22.616 40.194,22.616 C40.194,22.548 40.194,22.481 40.194,22.413 C40.464,22.413 40.734,22.413 41.004,22.413 C41.004,22.346 41.004,22.278 41.004,22.211 C41.612,22.076 42.219,21.940 42.827,21.805 C42.827,21.738 42.827,21.670 42.827,21.603 C43.232,21.468 43.637,21.333 44.042,21.198 C44.042,21.130 44.042,21.063 44.042,20.995 C44.177,20.995 44.313,20.995 44.448,20.995 C44.583,20.793 44.718,20.590 44.853,20.388 C44.987,20.388 45.122,20.388 45.258,20.388 C45.325,20.252 45.393,20.117 45.460,19.982 C45.730,19.780 46.000,19.577 46.270,19.375 C46.270,19.240 46.270,19.105 46.270,18.970 C46.405,18.902 46.540,18.835 46.675,18.767 C46.743,18.497 46.810,18.227 46.878,17.957 C46.946,17.957 47.013,17.957 47.081,17.957 C47.081,17.822 47.081,17.687 47.081,17.552 C47.148,17.552 47.216,17.552 47.283,17.552 C47.486,17.012 47.688,16.472 47.891,15.932 C48.633,15.932 49.376,15.932 50.119,15.932 C50.241,16.256 50.297,16.412 50.322,16.944 C50.254,16.944 50.186,16.944 50.119,16.944 C50.051,17.349 49.984,17.754 49.916,18.160 C49.849,18.160 49.781,18.160 49.714,18.160 C49.646,18.430 49.579,18.700 49.511,18.970 C49.444,18.970 49.376,18.970 49.309,18.970 C49.309,19.105 49.309,19.240 49.309,19.375 C48.634,20.117 47.958,20.860 47.283,21.603 C47.148,21.603 47.013,21.603 46.878,21.603 C46.743,21.805 46.608,22.008 46.473,22.211 C46.068,22.346 45.663,22.481 45.258,22.616 C45.258,22.683 45.258,22.751 45.258,22.818 C44.853,22.953 44.447,23.088 44.042,23.223 C44.042,23.291 44.042,23.358 44.042,23.426 C43.840,23.426 43.637,23.426 43.435,23.426 C43.435,23.493 43.435,23.561 43.435,23.628 C43.232,23.628 43.030,23.628 42.827,23.628 C42.827,23.696 42.827,23.763 42.827,23.831 C42.557,23.831 42.287,23.831 42.017,23.831 C42.017,23.898 42.017,23.966 42.017,24.033 C41.679,24.033 41.342,24.033 41.004,24.033 C41.004,24.101 41.004,24.169 41.004,24.236 C40.464,24.236 39.924,24.236 39.384,24.236 C39.384,24.303 39.384,24.371 39.384,24.439 C38.168,24.439 36.953,24.439 35.738,24.439 C35.738,24.371 35.738,24.303 35.738,24.236 C34.928,24.169 34.117,24.101 33.307,24.033 C30.593,23.111 28.304,21.537 27.433,18.767 C27.071,17.613 27.627,14.822 27.838,14.109 C27.838,13.704 27.838,13.298 27.838,12.893 C27.906,12.893 27.974,12.893 28.041,12.893 C28.041,12.421 28.041,11.948 28.041,11.475 C28.109,11.475 28.176,11.475 28.244,11.475 C28.244,11.070 28.244,10.665 28.244,10.260 C28.311,10.260 28.379,10.260 28.446,10.260 C28.446,9.855 28.446,9.450 28.446,9.045 C28.514,9.045 28.581,9.045 28.649,9.045 C28.649,8.707 28.649,8.370 28.649,8.032 C28.716,8.032 28.784,8.032 28.851,8.032 C28.851,7.762 28.851,7.492 28.851,7.222 C28.919,7.222 28.986,7.222 29.054,7.222 C29.054,7.019 29.054,6.817 29.054,6.614 C29.121,6.614 29.189,6.614 29.256,6.614 C29.391,6.209 29.526,5.804 29.661,5.399 C30.165,4.606 31.030,4.027 31.687,3.373 C31.889,3.103 32.092,2.833 32.295,2.563 C32.430,2.563 32.565,2.563 32.700,2.563 C32.767,2.428 32.835,2.293 32.902,2.158 C33.037,2.158 33.172,2.158 33.307,2.158 C33.307,2.091 33.307,2.023 33.307,1.956 C33.442,1.956 33.577,1.956 33.712,1.956 C33.712,1.888 33.712,1.820 33.712,1.753 C33.847,1.753 33.983,1.753 34.118,1.753 C34.118,1.686 34.118,1.618 34.118,1.551 C34.253,1.551 34.388,1.551 34.522,1.551 C34.522,1.483 34.522,1.415 34.522,1.348 C34.657,1.348 34.792,1.348 34.928,1.348 C34.928,1.280 34.928,1.213 34.928,1.145 C35.873,0.943 36.818,0.740 37.763,0.538 C37.763,0.470 37.763,0.403 37.763,0.335 C38.168,0.335 38.574,0.335 38.979,0.335 C38.979,0.268 38.979,0.200 38.979,0.133 C40.020,-0.160 43.087,0.119 43.840,0.335 C44.582,0.403 45.325,0.470 46.068,0.538 C49.337,1.705 52.419,3.767 51.537,8.437 C50.659,8.505 49.781,8.572 48.904,8.640 ZM22.572,8.640 C22.690,8.036 23.094,6.463 22.775,5.602 C22.707,5.602 22.640,5.602 22.572,5.602 C22.505,5.331 22.437,5.061 22.370,4.791 C21.965,4.454 21.559,4.116 21.154,3.779 C21.087,3.643 21.019,3.508 20.952,3.373 C20.817,3.373 20.682,3.373 20.547,3.373 C20.479,3.239 20.412,3.103 20.344,2.968 C20.074,2.901 19.804,2.833 19.534,2.766 C19.534,2.698 19.534,2.631 19.534,2.563 C19.331,2.563 19.129,2.563 18.926,2.563 C18.926,2.496 18.926,2.428 18.926,2.361 C18.791,2.361 18.656,2.361 18.521,2.361 C18.521,2.293 18.521,2.226 18.521,2.158 C18.251,2.158 17.981,2.158 17.711,2.158 C17.711,2.091 17.711,2.023 17.711,1.956 C17.238,1.956 16.766,1.956 16.293,1.956 C16.293,1.888 16.293,1.820 16.293,1.753 C15.078,1.753 13.862,1.753 12.647,1.753 C12.647,1.820 12.647,1.888 12.647,1.956 C12.175,1.956 11.702,1.956 11.229,1.956 C7.911,2.953 5.094,4.048 5.153,8.437 C5.220,8.437 5.288,8.437 5.355,8.437 C5.355,8.640 5.355,8.842 5.355,9.045 C5.490,9.112 5.625,9.180 5.761,9.247 C5.761,9.382 5.761,9.517 5.761,9.652 C5.828,9.652 5.896,9.652 5.963,9.652 C6.031,9.787 6.098,9.922 6.166,10.057 C6.301,10.057 6.436,10.057 6.571,10.057 C6.638,10.193 6.706,10.328 6.773,10.463 C6.908,10.463 7.043,10.463 7.178,10.463 C7.246,10.598 7.313,10.733 7.381,10.868 C7.516,10.868 7.651,10.868 7.786,10.868 C7.786,10.935 7.786,11.003 7.786,11.070 C7.988,11.070 8.191,11.070 8.394,11.070 C8.394,11.138 8.394,11.205 8.394,11.273 C8.529,11.273 8.664,11.273 8.799,11.273 C8.799,11.340 8.799,11.408 8.799,11.475 C9.001,11.475 9.204,11.475 9.406,11.475 C9.406,11.543 9.406,11.610 9.406,11.678 C9.541,11.678 9.676,11.678 9.811,11.678 C9.811,11.745 9.811,11.813 9.811,11.881 C10.014,11.881 10.217,11.881 10.419,11.881 C10.419,11.948 10.419,12.016 10.419,12.083 C10.622,12.083 10.824,12.083 11.027,12.083 C11.027,12.151 11.027,12.218 11.027,12.285 C11.229,12.285 11.432,12.285 11.634,12.285 C11.634,12.353 11.634,12.421 11.634,12.488 C11.837,12.488 12.040,12.488 12.242,12.488 C12.242,12.556 12.242,12.623 12.242,12.691 C12.850,12.826 13.458,12.961 14.065,13.096 C14.065,13.163 14.065,13.231 14.065,13.298 C14.403,13.366 14.740,13.433 15.078,13.501 C15.078,13.568 15.078,13.636 15.078,13.704 C15.348,13.771 15.618,13.838 15.888,13.906 C15.888,13.973 15.888,14.041 15.888,14.109 C16.091,14.109 16.293,14.109 16.496,14.109 C16.496,14.176 16.496,14.244 16.496,14.311 C16.631,14.311 16.766,14.311 16.901,14.311 C16.901,14.379 16.901,14.446 16.901,14.514 C17.036,14.514 17.171,14.514 17.306,14.514 C17.373,14.649 17.441,14.784 17.508,14.919 C18.671,15.691 19.316,15.558 19.331,17.552 C19.264,17.552 19.196,17.552 19.129,17.552 C19.129,17.822 19.129,18.092 19.129,18.362 C19.061,18.362 18.994,18.362 18.926,18.362 C18.926,18.497 18.926,18.632 18.926,18.767 C18.859,18.767 18.791,18.767 18.724,18.767 C18.724,18.902 18.724,19.037 18.724,19.172 C18.453,19.375 18.184,19.577 17.914,19.780 C17.846,19.915 17.779,20.050 17.711,20.185 C17.576,20.185 17.441,20.185 17.306,20.185 C17.238,20.320 17.171,20.455 17.103,20.590 C15.750,21.441 11.939,22.044 9.811,21.400 C9.474,21.400 9.136,21.400 8.799,21.400 C8.799,21.333 8.799,21.265 8.799,21.198 C8.596,21.198 8.394,21.198 8.191,21.198 C8.191,21.130 8.191,21.063 8.191,20.995 C7.786,20.860 7.381,20.725 6.976,20.590 C6.976,20.523 6.976,20.455 6.976,20.388 C6.841,20.388 6.706,20.388 6.571,20.388 C6.571,20.320 6.571,20.252 6.571,20.185 C6.233,19.915 5.896,19.645 5.558,19.375 C5.324,19.034 5.553,18.917 5.153,18.565 C5.139,17.583 5.220,16.647 5.355,15.932 C6.233,15.932 7.111,15.932 7.988,15.932 C7.988,16.539 7.988,17.147 7.988,17.754 C8.638,18.142 9.089,18.859 9.811,19.172 C10.014,19.172 10.217,19.172 10.419,19.172 C12.490,19.930 13.813,19.348 15.685,18.970 C16.418,17.767 16.854,18.230 16.496,16.337 C15.753,15.999 15.010,15.661 14.268,15.324 C13.863,15.256 13.458,15.189 13.052,15.121 C13.052,15.054 13.052,14.986 13.052,14.919 C12.782,14.919 12.512,14.919 12.242,14.919 C12.242,14.851 12.242,14.784 12.242,14.716 C12.040,14.716 11.837,14.716 11.634,14.716 C11.634,14.649 11.634,14.581 11.634,14.514 C11.364,14.514 11.094,14.514 10.824,14.514 C10.824,14.446 10.824,14.379 10.824,14.311 C10.622,14.311 10.419,14.311 10.217,14.311 C10.217,14.244 10.217,14.176 10.217,14.109 C9.744,14.041 9.271,13.973 8.799,13.906 C8.799,13.838 8.799,13.771 8.799,13.704 C8.664,13.704 8.529,13.704 8.394,13.704 C8.394,13.636 8.394,13.568 8.394,13.501 C8.191,13.501 7.988,13.501 7.786,13.501 C7.786,13.433 7.786,13.366 7.786,13.298 C7.584,13.298 7.381,13.298 7.178,13.298 C7.178,13.231 7.178,13.163 7.178,13.096 C6.908,13.028 6.638,12.961 6.368,12.893 C6.368,12.826 6.368,12.758 6.368,12.691 C6.233,12.691 6.098,12.691 5.963,12.691 C5.963,12.623 5.963,12.556 5.963,12.488 C5.761,12.421 5.558,12.353 5.355,12.285 C5.288,12.151 5.220,12.016 5.153,11.881 C5.018,11.881 4.883,11.881 4.748,11.881 C4.545,11.610 4.343,11.340 4.140,11.070 C3.937,10.935 3.735,10.800 3.532,10.665 C3.182,10.163 2.411,8.279 2.722,7.222 C2.790,7.222 2.857,7.222 2.925,7.222 C2.925,6.884 2.925,6.547 2.925,6.209 C2.992,6.209 3.060,6.209 3.127,6.209 C3.127,6.074 3.127,5.939 3.127,5.804 C3.195,5.804 3.262,5.804 3.330,5.804 C3.330,5.602 3.330,5.399 3.330,5.196 C3.465,5.129 3.600,5.061 3.735,4.994 C3.735,4.859 3.735,4.724 3.735,4.589 C3.870,4.521 4.005,4.454 4.140,4.386 C4.140,4.251 4.140,4.116 4.140,3.981 C4.343,3.846 4.545,3.711 4.748,3.576 C4.950,3.306 5.153,3.036 5.355,2.766 C5.490,2.766 5.625,2.766 5.761,2.766 C5.828,2.631 5.896,2.496 5.963,2.361 C6.098,2.361 6.233,2.361 6.368,2.361 C6.436,2.226 6.503,2.091 6.571,1.956 C6.976,1.821 7.381,1.686 7.786,1.551 C7.786,1.483 7.786,1.415 7.786,1.348 C7.921,1.348 8.056,1.348 8.191,1.348 C8.191,1.280 8.191,1.213 8.191,1.145 C8.596,1.078 9.001,1.010 9.406,0.943 C9.406,0.875 9.406,0.808 9.406,0.740 C9.946,0.673 10.487,0.605 11.027,0.538 C11.027,0.470 11.027,0.403 11.027,0.335 C11.499,0.335 11.972,0.335 12.445,0.335 C12.445,0.268 12.445,0.200 12.445,0.133 C13.486,-0.157 16.555,0.115 17.306,0.335 C17.711,0.335 18.116,0.335 18.521,0.335 C18.521,0.403 18.521,0.470 18.521,0.538 C18.791,0.538 19.061,0.538 19.331,0.538 C19.331,0.605 19.331,0.673 19.331,0.740 C19.601,0.740 19.872,0.740 20.141,0.740 C20.141,0.808 20.141,0.875 20.141,0.943 C20.277,0.943 20.412,0.943 20.547,0.943 C20.547,1.010 20.547,1.078 20.547,1.145 C20.749,1.145 20.952,1.145 21.154,1.145 C21.154,1.213 21.154,1.280 21.154,1.348 C21.559,1.483 21.965,1.618 22.370,1.753 C22.505,1.955 22.640,2.158 22.775,2.361 C22.910,2.361 23.045,2.361 23.180,2.361 C23.247,2.496 23.315,2.631 23.382,2.766 C23.652,2.968 23.923,3.171 24.192,3.373 C24.192,3.508 24.192,3.643 24.192,3.779 C24.327,3.846 24.462,3.914 24.598,3.981 C24.665,4.251 24.733,4.521 24.800,4.791 C24.868,4.791 24.935,4.791 25.003,4.791 C25.003,4.994 25.003,5.196 25.003,5.399 C25.070,5.399 25.138,5.399 25.205,5.399 C25.205,6.344 25.205,7.290 25.205,8.235 C24.342,8.690 23.936,8.657 22.572,8.640 ZM3.330,15.932 C3.262,16.809 3.195,17.687 3.127,18.565 C3.264,19.069 3.609,19.614 3.735,20.185 C4.005,20.388 4.275,20.590 4.545,20.793 C4.545,20.860 4.545,20.928 4.545,20.995 C4.680,20.995 4.815,20.995 4.950,20.995 C5.018,21.130 5.085,21.265 5.153,21.400 C5.288,21.400 5.423,21.400 5.558,21.400 C5.558,21.468 5.558,21.535 5.558,21.603 C5.828,21.670 6.098,21.738 6.368,21.805 C6.368,21.873 6.368,21.940 6.368,22.008 C6.571,22.008 6.773,22.008 6.976,22.008 C6.976,22.076 6.976,22.143 6.976,22.211 C7.246,22.211 7.516,22.211 7.786,22.211 C7.786,22.278 7.786,22.346 7.786,22.413 C8.123,22.413 8.461,22.413 8.799,22.413 C8.799,22.481 8.799,22.548 8.799,22.616 C9.700,22.874 13.228,22.595 13.862,22.413 C14.605,22.346 15.348,22.278 16.091,22.211 C17.103,21.738 18.116,21.265 19.129,20.793 C19.399,20.455 19.669,20.117 19.939,19.780 C20.141,19.645 20.344,19.510 20.547,19.375 C20.614,19.105 20.682,18.835 20.749,18.565 C20.817,18.565 20.884,18.565 20.952,18.565 C20.952,18.430 20.952,18.295 20.952,18.160 C21.019,18.160 21.087,18.160 21.154,18.160 C21.423,17.423 21.189,16.431 21.154,15.729 C20.636,15.406 20.410,14.648 19.939,14.311 C19.804,14.311 19.669,14.311 19.534,14.311 C19.466,14.176 19.399,14.041 19.331,13.906 C19.196,13.906 19.061,13.906 18.926,13.906 C18.859,13.771 18.791,13.636 18.724,13.501 C18.589,13.501 18.453,13.501 18.319,13.501 C18.319,13.433 18.319,13.366 18.319,13.298 C18.184,13.298 18.049,13.298 17.914,13.298 C17.914,13.231 17.914,13.163 17.914,13.096 C14.943,12.083 11.972,11.070 9.001,10.057 C8.934,9.922 8.866,9.787 8.799,9.652 C8.664,9.652 8.529,9.652 8.394,9.652 C7.989,9.180 7.584,8.707 7.178,8.235 C7.155,6.837 7.378,6.181 7.584,5.196 C7.988,4.859 8.394,4.521 8.799,4.184 C8.799,4.116 8.799,4.049 8.799,3.981 C9.204,3.846 9.609,3.711 10.014,3.576 C10.014,3.508 10.014,3.441 10.014,3.373 C10.217,3.373 10.419,3.373 10.622,3.373 C12.319,2.731 14.628,2.558 16.496,3.171 C16.766,3.171 17.036,3.171 17.306,3.171 C17.306,3.239 17.306,3.306 17.306,3.373 C17.441,3.373 17.576,3.373 17.711,3.373 C17.711,3.441 17.711,3.508 17.711,3.576 C17.914,3.576 18.116,3.576 18.319,3.576 C18.386,3.711 18.453,3.846 18.521,3.981 C18.656,3.981 18.791,3.981 18.926,3.981 C19.061,4.184 19.196,4.386 19.331,4.589 C19.466,4.589 19.601,4.589 19.736,4.589 C19.804,4.724 19.871,4.859 19.939,4.994 C20.006,4.994 20.074,4.994 20.141,4.994 C20.141,5.129 20.141,5.264 20.141,5.399 C20.209,5.399 20.277,5.399 20.344,5.399 C20.538,5.648 20.493,5.790 20.749,6.007 C20.749,6.884 20.749,7.762 20.749,8.640 C19.939,8.640 19.129,8.640 18.319,8.640 C18.319,8.572 18.319,8.505 18.319,8.437 C18.251,8.437 18.184,8.437 18.116,8.437 C18.177,6.203 16.915,5.472 15.280,4.994 C13.498,4.472 10.408,5.580 10.014,6.412 C10.014,6.952 10.014,7.492 10.014,8.032 C10.554,8.370 11.094,8.707 11.634,9.045 C12.040,9.112 12.445,9.180 12.850,9.247 C12.850,9.315 12.850,9.382 12.850,9.450 C13.525,9.585 14.200,9.720 14.875,9.855 C14.875,9.922 14.875,9.990 14.875,10.057 C15.348,10.125 15.820,10.193 16.293,10.260 C16.293,10.328 16.293,10.395 16.293,10.463 C16.968,10.598 17.644,10.733 18.319,10.868 C18.319,10.935 18.319,11.003 18.319,11.070 C18.724,11.138 19.129,11.205 19.534,11.273 C19.534,11.340 19.534,11.408 19.534,11.475 C19.669,11.475 19.804,11.475 19.939,11.475 C19.939,11.543 19.939,11.610 19.939,11.678 C20.141,11.678 20.344,11.678 20.547,11.678 C20.547,11.745 20.547,11.813 20.547,11.881 C20.682,11.881 20.817,11.881 20.952,11.881 C21.019,12.016 21.087,12.151 21.154,12.285 C21.289,12.285 21.424,12.285 21.559,12.285 C21.627,12.421 21.694,12.556 21.762,12.691 C21.897,12.691 22.032,12.691 22.167,12.691 C22.302,12.893 22.437,13.096 22.572,13.298 C22.775,13.433 22.977,13.569 23.180,13.704 C23.530,14.205 24.301,16.091 23.990,17.147 C23.923,17.147 23.855,17.147 23.788,17.147 C23.788,17.484 23.788,17.822 23.788,18.160 C23.720,18.160 23.653,18.160 23.585,18.160 C23.585,18.295 23.585,18.430 23.585,18.565 C23.517,18.565 23.450,18.565 23.382,18.565 C23.315,18.902 23.247,19.240 23.180,19.577 C23.045,19.645 22.910,19.712 22.775,19.780 C22.775,19.915 22.775,20.050 22.775,20.185 C22.505,20.388 22.235,20.590 21.965,20.793 C21.627,21.198 21.289,21.603 20.952,22.008 C20.682,22.076 20.412,22.143 20.141,22.211 C20.074,22.346 20.006,22.481 19.939,22.616 C19.804,22.616 19.669,22.616 19.534,22.616 C19.534,22.683 19.534,22.751 19.534,22.818 C19.264,22.886 18.994,22.953 18.724,23.021 C18.724,23.088 18.724,23.156 18.724,23.223 C18.116,23.358 17.508,23.493 16.901,23.628 C16.901,23.696 16.901,23.763 16.901,23.831 C16.631,23.831 16.361,23.831 16.091,23.831 C16.091,23.898 16.091,23.966 16.091,24.033 C15.753,24.033 15.415,24.033 15.078,24.033 C15.078,24.101 15.078,24.169 15.078,24.236 C14.538,24.236 13.997,24.236 13.458,24.236 C13.458,24.303 13.458,24.371 13.458,24.439 C12.411,24.728 10.345,24.446 9.609,24.236 C8.664,24.169 7.718,24.101 6.773,24.033 C6.773,23.966 6.773,23.898 6.773,23.831 C6.166,23.696 5.558,23.561 4.950,23.426 C4.950,23.358 4.950,23.291 4.950,23.223 C4.815,23.223 4.680,23.223 4.545,23.223 C4.545,23.156 4.545,23.088 4.545,23.021 C4.140,22.886 3.735,22.751 3.330,22.616 C3.195,22.413 3.060,22.211 2.925,22.008 C2.790,22.008 2.655,22.008 2.520,22.008 C2.115,21.468 1.709,20.928 1.304,20.388 C1.304,20.252 1.304,20.117 1.304,19.982 C1.237,19.982 1.169,19.982 1.102,19.982 C1.102,19.780 1.102,19.577 1.102,19.375 C1.034,19.375 0.967,19.375 0.899,19.375 C0.598,18.422 0.971,16.817 1.102,16.134 C1.639,15.932 2.508,15.923 3.330,15.932 ZM115.340,18.362 C115.340,17.890 115.340,17.417 115.340,16.944 C115.407,16.944 115.475,16.944 115.542,16.944 C115.542,16.539 115.542,16.134 115.542,15.729 C115.610,15.729 115.677,15.729 115.745,15.729 C115.745,15.324 115.745,14.919 115.745,14.514 C115.812,14.514 115.880,14.514 115.947,14.514 C115.947,14.041 115.947,13.568 115.947,13.096 C116.015,13.096 116.082,13.096 116.150,13.096 C116.150,12.826 116.150,12.556 116.150,12.285 C116.217,12.285 116.285,12.285 116.353,12.285 C116.353,11.678 116.353,11.070 116.353,10.463 C116.825,8.032 117.298,5.601 117.770,3.171 C119.517,2.860 121.981,2.968 124.049,2.968 C127.560,2.968 131.071,2.968 134.582,2.968 C134.514,3.643 134.447,4.319 134.379,4.994 C133.250,5.407 131.192,5.196 129.721,5.196 C126.548,5.196 123.374,5.196 120.201,5.196 C120.075,6.727 119.622,7.936 119.593,9.652 C122.564,9.652 125.535,9.652 128.506,9.652 C128.628,9.977 128.684,10.133 128.708,10.665 C128.640,10.665 128.573,10.665 128.506,10.665 C128.506,10.935 128.506,11.205 128.506,11.475 C125.467,11.475 122.429,11.475 119.391,11.475 C119.391,11.813 119.391,12.151 119.391,12.488 C122.361,12.488 125.332,12.488 128.303,12.488 C128.235,13.096 128.168,13.704 128.100,14.311 C127.322,14.597 125.949,14.514 124.859,14.514 C122.834,14.514 120.808,14.514 118.783,14.514 C118.612,14.743 118.809,14.543 118.580,14.716 C118.108,17.822 117.635,20.928 117.163,24.033 C116.397,24.171 115.364,24.238 114.327,24.236 C114.597,22.278 114.867,20.320 115.137,18.362 C115.205,18.362 115.272,18.362 115.340,18.362 ZM139.038,19.577 C139.983,14.177 140.928,8.774 141.874,3.373 C142.076,3.306 142.279,3.239 142.481,3.171 C142.960,2.751 145.780,2.968 146.735,2.968 C150.785,2.968 154.837,2.968 158.888,2.968 C158.820,3.576 158.753,4.184 158.685,4.791 C157.571,5.364 155.724,5.196 154.027,5.196 C150.786,5.196 147.545,5.196 144.304,5.196 C144.102,6.681 143.899,8.167 143.697,9.652 C146.667,9.652 149.638,9.652 152.609,9.652 C152.779,10.104 152.817,10.754 152.811,11.475 C149.774,11.475 146.735,11.475 143.697,11.475 C143.697,11.813 143.697,12.151 143.697,12.488 C145.587,12.488 147.478,12.488 149.368,12.488 C150.456,12.488 151.831,12.573 152.609,12.285 C152.609,12.421 152.609,12.556 152.609,12.691 C152.396,12.925 152.265,13.952 152.204,14.311 C151.425,14.597 150.052,14.514 148.963,14.514 C146.937,14.514 144.912,14.514 142.887,14.514 C142.616,16.066 142.346,17.620 142.076,19.172 C146.667,19.172 151.259,19.172 155.850,19.172 C156.013,19.438 155.992,19.411 156.255,19.577 C156.155,20.131 156.056,20.626 156.052,21.400 C150.449,21.400 144.844,21.400 139.240,21.400 C139.070,20.948 139.032,20.299 139.038,19.577 ZM164.356,20.185 C164.424,20.185 164.492,20.185 164.559,20.185 C164.559,19.712 164.559,19.240 164.559,18.767 C164.627,18.767 164.694,18.767 164.762,18.767 C164.762,18.295 164.762,17.822 164.762,17.349 C164.829,17.349 164.897,17.349 164.964,17.349 C165.032,16.269 165.099,15.189 165.167,14.109 C165.234,14.109 165.302,14.109 165.369,14.109 C165.369,13.771 165.369,13.433 165.369,13.096 C165.437,13.096 165.504,13.096 165.572,13.096 C165.572,12.758 165.572,12.421 165.572,12.083 C165.639,12.083 165.707,12.083 165.774,12.083 C165.774,11.543 165.774,11.003 165.774,10.463 C165.842,10.463 165.909,10.463 165.977,10.463 C165.977,10.058 165.977,9.652 165.977,9.247 C166.044,9.247 166.112,9.247 166.180,9.247 C166.180,8.842 166.180,8.437 166.180,8.032 C166.247,8.032 166.315,8.032 166.382,8.032 C166.585,6.479 166.787,4.926 166.990,3.373 C167.192,3.306 167.395,3.239 167.597,3.171 C168.140,2.672 170.296,2.968 171.243,2.968 C174.531,2.968 178.701,2.862 179.345,5.399 C179.643,5.697 180.007,7.243 179.750,8.032 C179.683,8.032 179.615,8.032 179.548,8.032 C179.548,8.235 179.548,8.437 179.548,8.640 C179.480,8.640 179.413,8.640 179.345,8.640 C179.345,8.775 179.345,8.910 179.345,9.045 C179.278,9.045 179.210,9.045 179.143,9.045 C179.143,9.180 179.143,9.315 179.143,9.450 C178.940,9.585 178.738,9.720 178.535,9.855 C178.198,10.260 177.860,10.665 177.522,11.070 C177.387,11.070 177.252,11.070 177.117,11.070 C177.117,11.138 177.117,11.205 177.117,11.273 C176.982,11.273 176.847,11.273 176.712,11.273 C176.712,11.340 176.712,11.408 176.712,11.475 C176.510,11.475 176.307,11.475 176.104,11.475 C176.104,11.543 176.104,11.610 176.104,11.678 C175.902,11.678 175.699,11.678 175.497,11.678 C175.497,11.745 175.497,11.813 175.497,11.881 C175.092,11.881 174.686,11.881 174.282,11.881 C174.282,11.948 174.282,12.016 174.282,12.083 C173.809,12.083 173.336,12.083 172.864,12.083 C171.494,12.088 169.649,11.918 168.610,12.285 C168.610,12.488 168.610,12.691 168.610,12.893 C169.960,12.893 171.311,12.893 172.661,12.893 C172.999,13.433 173.336,13.973 173.674,14.514 C173.741,14.851 173.809,15.189 173.877,15.526 C173.944,15.526 174.012,15.526 174.079,15.526 C174.079,15.661 174.079,15.797 174.079,15.932 C174.147,15.932 174.214,15.932 174.282,15.932 C174.282,16.134 174.282,16.337 174.282,16.539 C174.349,16.539 174.417,16.539 174.484,16.539 C174.484,16.674 174.484,16.809 174.484,16.944 C174.551,16.944 174.619,16.944 174.686,16.944 C174.754,17.214 174.822,17.484 174.889,17.754 C174.957,17.754 175.024,17.754 175.092,17.754 C175.092,17.957 175.092,18.160 175.092,18.362 C175.159,18.362 175.227,18.362 175.294,18.362 C175.362,18.632 175.429,18.902 175.497,19.172 C175.564,19.172 175.632,19.172 175.699,19.172 C175.699,19.375 175.699,19.577 175.699,19.780 C175.767,19.780 175.834,19.780 175.902,19.780 C175.969,20.050 176.037,20.320 176.104,20.590 C176.172,20.590 176.239,20.590 176.307,20.590 C176.307,20.793 176.307,20.995 176.307,21.198 C176.374,21.198 176.442,21.198 176.510,21.198 C176.915,22.210 177.320,23.223 177.725,24.236 C176.879,24.161 175.971,24.036 174.889,24.033 C173.606,20.928 172.324,17.822 171.041,14.716 C169.961,14.716 168.880,14.716 167.800,14.716 C167.818,16.161 167.518,17.456 167.192,18.565 C167.192,19.037 167.192,19.510 167.192,19.982 C166.842,21.165 166.632,22.755 166.382,24.033 C165.454,24.021 164.621,24.109 163.952,24.236 C163.939,23.237 164.141,22.340 164.356,21.603 C164.356,21.130 164.356,20.658 164.356,20.185 ZM174.889,10.260 C176.718,9.654 178.008,8.349 177.117,6.209 C176.736,6.003 176.285,5.552 175.902,5.399 C174.514,4.846 171.235,5.194 169.420,5.196 C169.150,6.884 168.880,8.572 168.610,10.260 C170.703,10.260 172.796,10.260 174.889,10.260 Z"/>
<path fill-rule="evenodd"  fill="rgb(101, 165, 230)"
 d="M526.382,120.154 C525.300,122.885 523.800,125.409 521.883,127.725 C519.966,130.041 517.655,132.124 514.949,133.973 C512.243,135.823 509.277,137.387 506.053,138.666 C502.828,139.945 499.378,140.931 495.703,141.622 C492.027,142.313 488.249,142.659 484.371,142.659 C480.492,142.659 476.727,142.313 473.074,141.622 C469.421,140.931 465.981,139.945 462.757,138.666 C459.532,137.387 456.567,135.823 453.861,133.973 C451.155,132.124 448.843,130.041 446.927,127.725 C445.010,125.409 443.511,122.876 442.428,120.128 C441.346,117.380 440.805,114.467 440.805,111.390 C440.805,108.314 441.346,105.401 442.428,102.653 C443.511,99.904 445.010,97.372 446.927,95.056 C448.843,92.740 451.155,90.657 453.861,88.807 C456.567,86.958 459.532,85.394 462.757,84.115 C465.981,82.836 469.421,81.851 473.074,81.159 C476.727,80.468 480.492,80.122 484.371,80.122 C488.249,80.122 492.027,80.468 495.703,81.159 C499.378,81.851 502.828,82.836 506.053,84.115 C509.277,85.394 512.243,86.958 514.949,88.807 C517.655,90.657 519.966,92.740 521.883,95.056 C523.800,97.372 525.300,99.904 526.382,102.653 C527.465,105.401 528.006,108.314 528.006,111.390 C528.006,114.502 527.465,117.423 526.382,120.154 ZM504.362,106.127 C504.113,104.278 503.696,102.463 503.110,100.682 C502.524,98.902 501.724,97.191 500.709,95.549 C499.694,93.907 498.443,92.472 496.954,91.245 C495.466,90.018 493.684,89.033 491.610,88.289 C489.535,87.546 487.122,87.174 484.371,87.174 C481.755,87.174 479.433,87.555 477.404,88.315 C475.374,89.076 473.603,90.087 472.093,91.348 C470.581,92.611 469.319,94.071 468.304,95.730 C467.290,97.390 466.466,99.110 465.835,100.890 C465.203,102.671 464.753,104.468 464.482,106.283 C464.212,108.098 464.076,109.801 464.076,111.390 C464.076,112.981 464.212,114.683 464.482,116.498 C464.753,118.313 465.203,120.120 465.835,121.917 C466.466,123.715 467.290,125.435 468.304,127.076 C469.319,128.719 470.581,130.171 472.093,131.432 C473.603,132.695 475.374,133.706 477.404,134.466 C479.433,135.226 481.755,135.607 484.371,135.607 C487.077,135.607 489.467,135.235 491.542,134.492 C493.616,133.749 495.409,132.755 496.920,131.510 C498.431,130.265 499.683,128.831 500.675,127.206 C501.666,125.582 502.468,123.870 503.077,122.072 C503.685,120.275 504.113,118.460 504.362,116.628 C504.609,114.796 504.734,113.050 504.734,111.390 C504.734,109.731 504.609,107.977 504.362,106.127 ZM385.329,100.164 C386.547,100.804 387.933,101.339 389.489,101.771 C391.045,102.204 392.635,102.584 394.259,102.912 C395.882,103.241 397.461,103.526 398.994,103.768 C400.527,104.010 401.903,104.269 403.121,104.545 C405.195,104.995 407.393,105.453 409.717,105.920 C412.039,106.386 414.328,106.923 416.583,107.527 C418.838,108.132 421.014,108.841 423.112,109.653 C425.208,110.466 427.046,111.460 428.625,112.635 C430.203,113.811 431.466,115.185 432.413,116.757 C433.361,118.331 433.834,120.189 433.834,122.332 C433.834,124.959 433.337,127.293 432.346,129.332 C431.353,131.372 430.000,133.143 428.287,134.647 C426.572,136.151 424.543,137.413 422.198,138.432 C419.853,139.453 417.338,140.273 414.655,140.896 C411.971,141.518 409.164,141.967 406.233,142.244 C403.301,142.520 400.392,142.659 397.506,142.659 C393.626,142.659 390.200,142.468 387.223,142.088 C384.247,141.708 381.405,141.095 378.699,140.248 C375.993,139.401 373.298,138.303 370.615,136.955 C367.931,135.607 364.943,133.965 361.651,132.028 L374.979,123.680 C376.196,125.443 377.808,127.042 379.815,128.477 C381.822,129.911 383.908,131.147 386.073,132.184 C388.238,133.221 390.335,134.017 392.364,134.569 C394.394,135.123 396.040,135.399 397.303,135.399 C398.340,135.399 399.512,135.373 400.821,135.321 C402.128,135.270 403.459,135.166 404.812,135.010 C406.165,134.855 407.495,134.621 408.803,134.310 C410.111,133.999 411.273,133.576 412.288,133.040 C413.302,132.504 414.114,131.830 414.723,131.017 C415.332,130.206 415.636,129.228 415.636,128.088 C415.636,126.913 415.241,125.884 414.452,125.002 C413.663,124.121 412.636,123.352 411.374,122.695 C410.111,122.038 408.668,121.485 407.044,121.035 C405.421,120.586 403.786,120.189 402.140,119.843 C400.493,119.497 398.903,119.195 397.371,118.935 C395.837,118.676 394.506,118.426 393.379,118.183 C391.304,117.734 389.118,117.276 386.817,116.809 C384.517,116.343 382.239,115.807 379.985,115.202 C377.729,114.597 375.576,113.879 373.524,113.050 C371.471,112.220 369.668,111.227 368.112,110.068 C366.556,108.910 365.315,107.545 364.391,105.972 C363.466,104.399 363.004,102.558 363.004,100.449 C363.004,96.578 364.007,93.337 366.015,90.726 C368.021,88.116 370.671,86.025 373.964,84.452 C377.255,82.879 380.999,81.764 385.194,81.107 C389.388,80.451 393.650,80.122 397.980,80.122 C400.956,80.122 404.090,80.355 407.383,80.822 C410.674,81.289 413.877,81.981 416.989,82.896 C420.101,83.813 423.010,84.927 425.716,86.241 C428.422,87.555 430.677,89.059 432.481,90.752 L419.154,99.153 C418.161,97.078 416.865,95.298 415.264,93.811 C413.663,92.326 411.926,91.107 410.055,90.156 C408.183,89.205 406.266,88.505 404.305,88.056 C402.343,87.607 400.527,87.382 398.859,87.382 C397.235,87.382 395.409,87.433 393.379,87.537 C391.350,87.641 389.444,87.935 387.663,88.419 C385.881,88.903 384.370,89.637 383.130,90.623 C381.889,91.608 381.270,92.965 381.270,94.693 C381.270,95.938 381.642,97.001 382.386,97.882 C383.130,98.764 384.111,99.524 385.329,100.164 ZM327.418,53.987 L332.301,53.987 L350.283,72.188 L350.283,141.466 L327.418,141.466 L327.418,53.987 ZM310.131,112.842 C308.348,114.294 306.285,115.522 303.940,116.524 C301.595,117.527 299.092,118.348 296.431,118.987 C293.770,119.627 291.030,120.085 288.212,120.361 C285.393,120.638 282.653,120.776 279.992,120.776 C276.610,120.776 273.272,120.595 269.980,120.232 C266.687,119.869 263.440,119.290 260.238,118.494 C260.734,120.776 261.524,122.946 262.606,125.002 C263.689,127.059 265.131,128.857 266.936,130.395 C268.739,131.934 270.961,133.152 273.599,134.051 C276.238,134.950 279.360,135.399 282.969,135.399 C285.359,135.399 287.637,135.123 289.802,134.569 C291.966,134.017 293.950,133.239 295.755,132.236 C297.558,131.234 299.148,130.041 300.524,128.658 C301.899,127.276 303.016,125.737 303.873,124.043 L313.750,126.843 C312.261,129.574 310.220,131.934 307.628,133.921 C305.033,135.909 302.102,137.551 298.833,138.847 C295.562,140.144 292.090,141.103 288.415,141.725 C284.739,142.348 281.097,142.659 277.489,142.659 C271.536,142.659 266.033,141.889 260.983,140.351 C255.931,138.813 251.579,136.662 247.926,133.895 C244.273,131.130 241.409,127.828 239.335,123.991 C237.260,120.154 236.223,115.954 236.223,111.390 C236.223,106.827 237.260,102.627 239.335,98.790 C241.409,94.952 244.273,91.652 247.926,88.885 C251.579,86.120 255.931,83.968 260.983,82.429 C266.033,80.892 271.536,80.122 277.489,80.122 C280.375,80.122 283.329,80.277 286.351,80.589 C289.373,80.900 292.305,81.392 295.146,82.067 C297.987,82.741 300.670,83.614 303.196,84.685 C305.722,85.757 307.920,87.079 309.792,88.652 C311.663,90.226 313.151,92.048 314.257,94.122 C315.362,96.197 315.915,98.565 315.915,101.227 C315.915,103.682 315.396,105.868 314.359,107.787 C313.320,109.705 311.911,111.390 310.131,112.842 ZM296.296,95.782 C295.574,94.089 294.503,92.637 293.083,91.426 C291.662,90.217 289.914,89.274 287.840,88.600 C285.765,87.926 283.352,87.589 280.601,87.589 C278.031,87.589 275.719,87.952 273.667,88.678 C271.614,89.404 269.811,90.381 268.255,91.608 C266.699,92.835 265.368,94.261 264.264,95.886 C263.158,97.511 262.245,99.204 261.524,100.968 C260.802,102.731 260.283,104.511 259.968,106.309 C259.652,108.106 259.494,109.801 259.494,111.390 C259.494,111.667 259.494,111.944 259.494,112.220 C259.494,112.497 259.517,112.773 259.562,113.050 C262.358,113.534 265.154,113.914 267.951,114.190 C270.746,114.467 273.566,114.605 276.407,114.605 C279.384,114.605 282.146,114.390 284.694,113.957 C287.242,113.525 289.452,112.799 291.324,111.779 C293.195,110.760 294.672,109.403 295.755,107.709 C296.837,106.015 297.378,103.906 297.378,101.382 C297.378,99.343 297.017,97.476 296.296,95.782 ZM201.110,99.360 L240.008,141.466 L212.001,141.466 L182.709,109.731 C181.852,110.180 181.006,110.612 180.172,111.027 C179.337,111.442 178.469,111.857 177.567,112.272 L177.567,141.466 L150.710,141.466 L150.710,66.795 L177.567,66.795 L177.567,102.368 C185.865,97.493 193.611,92.083 200.805,86.137 C207.998,80.192 214.189,73.727 219.375,66.743 L237.708,66.743 C232.927,73.001 227.448,78.843 221.269,84.270 C215.090,89.698 208.370,94.728 201.110,99.360 Z"/>
<path fill-rule="evenodd"  fill="rgb(71, 119, 218)"
 d="M291.945,181.491 L291.945,184.1000 L272.154,184.1000 L272.154,157.535 L291.945,157.535 L291.945,161.044 L279.753,161.044 L279.753,169.532 L289.170,169.532 L289.170,173.022 L279.753,173.022 L279.753,181.491 L291.945,181.491 ZM252.141,184.1000 L244.542,184.1000 L244.542,161.044 L237.039,161.044 L237.039,157.535 L259.644,157.535 L259.644,161.044 L252.141,161.044 L252.141,184.1000 ZM216.930,157.535 L224.529,157.535 L224.529,184.1000 L216.930,184.1000 L216.930,157.535 ZM184.935,157.535 L192.534,157.535 L192.534,181.510 L204.727,181.510 L204.727,184.1000 L184.935,184.1000 L184.935,157.535 ZM151.811,157.535 L171.602,157.535 L171.602,161.044 L159.410,161.044 L159.410,169.532 L168.827,169.532 L168.827,173.022 L159.410,173.022 L159.410,181.491 L171.602,181.491 L171.602,184.1000 L151.811,184.1000 L151.811,157.535 Z"/>
<path fill-rule="evenodd"  fill="rgb(71, 119, 218)"
 d="M556.081,63.561 L555.267,56.410 L553.347,63.561 L550.865,63.561 L548.616,56.219 L547.851,63.561 L546.176,63.561 L547.851,53.717 L550.332,53.717 L552.636,61.229 L554.967,53.717 L557.448,53.717 L558.843,63.561 L556.081,63.561 ZM540.122,63.561 L537.408,63.561 L537.408,54.975 L534.729,54.975 L534.729,53.717 L542.802,53.717 L542.802,54.975 L540.122,54.975 L540.122,63.561 Z"/>
<path fill-rule="evenodd"  fill="rgb(71, 119, 218)"
 d="M118.637,147.922 C108.489,165.437 85.991,171.427 68.388,161.300 C60.507,156.766 54.952,149.767 52.120,141.851 C77.254,154.571 108.236,145.675 122.548,121.159 C124.645,129.938 123.520,139.495 118.637,147.922 ZM97.441,137.557 C89.560,142.091 80.700,143.386 72.405,141.871 C96.026,126.542 103.786,95.358 89.634,70.748 C98.313,73.328 106.056,79.078 110.939,87.504 C121.087,105.020 115.044,127.430 97.441,137.557 ZM82.563,124.353 C81.051,96.304 57.829,74.016 29.365,73.923 C35.947,67.724 44.815,63.916 54.580,63.916 C74.877,63.916 91.332,80.336 91.332,100.591 C91.332,109.659 88.027,117.952 82.563,124.353 ZM55.955,87.436 C63.803,91.951 69.333,98.924 72.148,106.815 C47.118,94.149 16.247,103.037 1.973,127.488 C-0.110,118.736 1.017,109.208 5.886,100.804 C16.007,83.335 38.424,77.350 55.955,87.436 ZM27.029,111.355 C34.878,106.839 43.703,105.554 51.969,107.069 C28.446,122.337 20.734,153.422 34.848,177.965 C26.200,175.387 18.483,169.651 13.613,161.247 C3.492,143.778 9.498,121.440 27.029,111.355 ZM42.099,124.588 C43.606,152.522 66.766,174.718 95.153,174.811 C88.589,180.984 79.745,184.776 70.006,184.776 C49.763,184.776 33.353,168.424 33.353,148.253 C33.353,139.222 36.649,130.963 42.099,124.588 Z"/>
</svg>