<svg 
 xmlns="http://www.w3.org/2000/svg"
 xmlns:xlink="http://www.w3.org/1999/xlink"
 width="392px" height="172px">
<path fill-rule="evenodd"  fill="rgb(255, 78, 24)"
 d="M391.886,168.960 C391.886,169.035 391.826,169.095 391.751,169.095 L389.681,169.095 C389.606,169.095 389.546,169.035 389.546,168.960 L389.606,164.340 L385.016,164.340 L385.076,168.960 C385.076,169.035 385.016,169.095 384.941,169.095 L382.871,169.095 C382.796,169.095 382.736,169.035 382.736,168.960 L382.811,163.845 L382.736,158.730 C382.736,158.655 382.796,158.595 382.871,158.595 L384.941,158.595 C385.016,158.595 385.076,158.655 385.076,158.730 L385.031,162.645 L389.591,162.645 L389.546,158.730 C389.546,158.655 389.606,158.595 389.681,158.595 L391.751,158.595 C391.826,158.595 391.886,158.655 391.886,158.730 L391.811,163.845 L391.886,168.960 ZM376.706,169.095 L372.116,169.095 C372.041,169.095 371.981,169.035 371.981,168.960 L372.056,163.845 L371.981,158.730 C371.981,158.655 372.041,158.595 372.116,158.595 L376.631,158.595 C378.776,158.595 380.366,159.375 380.366,161.190 C380.366,162.465 379.691,163.185 378.566,163.515 C379.961,163.845 380.651,164.760 380.651,165.915 C380.651,168.195 378.716,169.095 376.706,169.095 ZM376.661,160.185 L374.306,160.185 L374.246,162.825 L376.661,162.825 C377.546,162.825 378.086,162.375 378.086,161.520 C378.086,160.590 377.441,160.185 376.661,160.185 ZM376.661,164.415 L374.246,164.415 L374.306,167.505 L376.661,167.505 C377.606,167.505 378.341,167.145 378.341,165.915 C378.341,164.805 377.576,164.415 376.661,164.415 ZM369.506,169.095 L367.481,169.095 C367.406,169.095 367.346,169.035 367.346,168.960 L367.346,164.655 L367.421,162.180 L367.436,161.700 L364.871,168.975 C364.841,169.035 364.766,169.095 364.691,169.095 L363.161,169.095 C363.086,169.095 363.011,169.035 362.981,168.975 L360.176,161.415 L360.191,162.210 L360.266,164.655 L360.266,168.960 C360.266,169.035 360.206,169.095 360.131,169.095 L358.331,169.095 C358.256,169.095 358.196,169.035 358.196,168.960 L358.256,163.845 L358.196,158.730 C358.196,158.655 358.256,158.595 358.331,158.595 L361.106,158.595 C361.181,158.595 361.256,158.655 361.286,158.715 L364.091,166.275 L366.731,158.715 C366.761,158.655 366.836,158.595 366.911,158.595 L369.506,158.595 C369.581,158.595 369.641,158.655 369.641,158.730 L369.581,163.845 L369.641,168.960 C369.641,169.035 369.581,169.095 369.506,169.095 ZM351.086,169.320 C347.981,169.320 345.866,167.100 345.866,163.845 C345.866,160.530 347.966,158.370 351.011,158.370 C353.621,158.370 355.286,159.660 355.841,161.865 C355.856,161.940 355.811,162.000 355.736,162.000 L353.651,162.000 C353.576,162.000 353.501,161.940 353.486,161.865 C353.141,160.710 352.316,160.110 351.026,160.110 C349.196,160.110 348.221,161.550 348.221,163.875 C348.221,166.155 349.241,167.580 351.101,167.580 C352.601,167.580 353.561,166.695 353.621,165.075 L351.011,165.075 C350.936,165.075 350.876,165.015 350.876,164.940 L350.876,163.530 C350.876,163.455 350.936,163.395 351.011,163.395 L355.931,163.395 C356.006,163.395 356.066,163.455 356.066,163.530 C356.096,167.415 354.326,169.320 351.086,169.320 Z"/>
<path fill-rule="evenodd"  fill="rgb(255, 78, 24)"
 d="M307.744,99.855 L319.436,105.613 C331.453,111.519 337.624,116.835 337.624,133.667 L337.624,143.559 C337.624,162.754 323.496,171.613 308.069,171.613 C291.831,171.613 278.515,162.016 278.515,143.412 L278.515,135.882 C278.515,133.224 280.951,131.157 283.874,131.157 L291.668,131.157 C294.591,131.157 297.189,133.224 297.189,135.882 L297.189,143.412 C297.189,149.613 299.788,155.667 307.907,155.667 C314.240,155.667 319.112,151.975 319.112,143.264 L319.112,135.882 C319.112,126.727 315.864,123.774 309.856,120.674 L296.377,113.882 C283.224,107.090 278.515,99.560 278.515,87.600 L278.515,75.197 C278.515,58.956 290.207,47.735 307.907,47.735 C325.120,47.735 336.974,57.923 336.974,75.936 L336.974,82.285 C336.974,84.943 334.538,87.010 331.453,87.010 L323.658,87.010 C320.573,87.010 318.300,84.943 318.300,82.285 L318.300,76.083 C318.300,67.372 313.753,63.681 307.744,63.681 C299.788,63.681 297.027,68.849 297.027,78.594 L297.027,83.761 C297.027,92.916 298.976,95.573 307.744,99.855 ZM234.014,171.613 C218.101,171.613 204.460,162.902 204.460,144.002 L204.460,53.493 C204.460,50.835 206.734,48.768 209.657,48.768 L217.938,48.768 C220.861,48.768 223.135,50.835 223.135,53.493 L223.135,143.116 C223.135,151.680 227.357,155.667 234.014,155.667 C240.185,155.667 244.732,152.123 244.732,143.116 L244.732,53.493 C244.732,50.835 247.168,48.768 250.091,48.768 L258.210,48.768 C261.133,48.768 263.407,50.835 263.407,53.493 L263.407,144.298 C263.407,161.868 250.903,171.613 234.014,171.613 ZM183.831,170.579 L175.711,170.579 C172.788,170.579 170.352,168.512 170.352,165.855 L170.352,124.808 C170.352,123.036 168.729,121.560 166.618,121.560 L152.490,121.560 C150.054,121.560 148.755,123.331 148.755,124.808 L148.755,165.855 C148.755,168.512 146.482,170.579 143.559,170.579 L135.277,170.579 C132.354,170.579 130.081,168.512 130.081,165.855 L130.081,28.640 C130.081,9.593 143.396,0.292 159.635,0.292 C175.711,0.292 189.027,9.593 189.027,28.640 L189.027,165.855 C189.027,168.512 186.753,170.579 183.831,170.579 ZM170.352,30.412 C170.352,20.520 166.618,16.238 159.635,16.238 C152.815,16.238 148.755,20.224 148.755,30.412 L148.755,102.808 C148.755,104.285 150.054,106.056 152.490,106.056 L166.618,106.056 C168.729,106.056 170.352,104.580 170.352,102.808 L170.352,30.412 ZM115.136,170.579 L79.574,170.579 C76.651,170.579 74.377,168.512 74.377,165.855 L74.377,53.493 C74.377,50.835 76.651,48.768 79.574,48.768 L87.855,48.768 C90.778,48.768 93.052,50.835 93.052,53.493 L93.052,150.646 C93.052,152.566 94.513,154.043 96.787,154.043 L115.136,154.043 C118.059,154.043 120.333,156.110 120.333,158.767 L120.333,165.855 C120.333,168.512 118.059,170.579 115.136,170.579 ZM53.910,170.579 L45.628,170.579 C42.706,170.579 40.270,168.512 40.270,165.855 L40.270,129.976 C40.270,121.264 35.398,117.278 29.390,117.278 L22.245,117.278 C20.134,117.278 18.672,118.754 18.672,120.674 L18.672,165.855 C18.672,168.512 16.399,170.579 13.476,170.579 L5.194,170.579 C2.271,170.579 -0.002,168.512 -0.002,165.855 L-0.002,53.493 C-0.002,50.835 2.271,48.768 5.194,48.768 L13.476,48.768 C16.399,48.768 18.672,50.835 18.672,53.493 L18.672,98.083 C18.672,100.150 20.134,101.332 22.407,101.332 L29.390,101.332 C35.236,101.332 40.270,97.936 40.270,88.781 L40.270,53.493 C40.270,50.835 42.706,48.768 45.628,48.768 L53.910,48.768 C56.833,48.768 58.944,50.835 58.944,53.493 L58.944,87.453 C58.944,94.687 57.645,101.184 52.286,105.909 L50.987,107.090 C50.013,107.828 49.688,108.566 49.688,109.305 C49.688,110.043 50.013,110.781 50.987,111.667 L52.286,112.848 C57.807,117.425 58.944,123.922 58.944,131.157 L58.944,165.855 C58.944,168.512 56.833,170.579 53.910,170.579 Z"/>
</svg>