<svg 
 xmlns="http://www.w3.org/2000/svg"
 xmlns:xlink="http://www.w3.org/1999/xlink"
 width="453px" height="279px">
<path fill-rule="evenodd"  fill="rgb(244, 241, 231)"
 d="M437.449,212.826 C434.126,212.826 432.465,214.742 432.465,218.573 L432.465,221.471 C432.465,225.269 434.194,227.167 437.652,227.167 C441.110,227.167 442.839,225.608 442.839,222.489 L452.247,222.489 C452.247,226.388 450.882,229.286 448.154,231.185 C445.424,233.084 441.856,234.032 437.449,234.032 C432.736,234.032 429.041,232.846 426.363,230.473 C423.684,228.100 422.345,224.608 422.345,219.997 C422.345,215.387 423.684,211.894 426.363,209.521 C429.041,207.148 432.736,205.961 437.449,205.961 C441.856,205.961 445.424,206.902 448.154,208.784 C450.882,210.665 452.247,213.538 452.247,217.403 L442.432,217.403 C442.432,214.352 440.771,212.826 437.449,212.826 ZM409.022,206.571 L419.142,206.571 L419.142,233.422 L409.022,233.422 L409.022,206.571 ZM409.022,196.553 L419.142,196.553 L419.142,203.419 L409.022,203.419 L409.022,196.553 ZM399.512,234.032 C396.528,234.032 394.231,233.490 392.621,232.405 C391.011,231.320 390.206,229.473 390.206,226.862 L390.206,213.437 L386.443,213.437 L386.443,206.571 L390.613,206.571 L392.799,198.435 L400.326,198.435 L400.326,206.571 L406.021,206.571 L406.021,213.437 L400.326,213.437 L400.326,223.658 C400.326,224.879 400.529,225.769 400.936,226.328 C401.343,226.887 402.088,227.167 403.173,227.167 L406.021,227.167 L406.021,233.117 C405.208,233.389 404.156,233.608 402.868,233.778 C401.580,233.947 400.461,234.032 399.512,234.032 ZM370.526,227.574 C372.221,227.574 373.466,227.218 374.263,226.506 C375.060,225.794 375.458,224.845 375.458,223.658 L385.273,223.658 C385.273,226.913 384.035,229.456 381.561,231.286 C379.086,233.117 375.475,234.032 370.729,234.032 C365.746,234.032 361.881,232.871 359.134,230.549 C356.388,228.227 355.015,224.710 355.015,219.997 C355.015,215.387 356.354,211.894 359.033,209.521 C361.710,207.148 365.406,205.961 370.119,205.961 C375.034,205.961 378.789,207.114 381.383,209.419 C383.977,211.725 385.273,215.251 385.273,219.997 L385.273,221.726 L365.135,221.726 C365.135,223.658 365.568,225.116 366.432,226.099 C367.297,227.083 368.661,227.574 370.526,227.574 ZM375.052,216.945 C375.052,215.556 374.653,214.454 373.857,213.640 C373.059,212.826 371.949,212.420 370.526,212.420 C367.339,212.420 365.559,213.928 365.186,216.945 L375.052,216.945 ZM342.099,217.251 C342.099,216.098 341.801,215.174 341.209,214.479 C340.615,213.785 339.776,213.437 338.691,213.437 C337.437,213.437 336.419,213.844 335.640,214.657 C334.860,215.471 334.471,216.471 334.471,217.657 L334.471,233.422 L324.351,233.422 L324.351,206.571 L332.640,206.571 L333.301,210.640 C334.351,209.216 335.733,208.080 337.445,207.232 C339.157,206.385 340.962,205.961 342.861,205.961 C345.980,205.961 348.319,206.826 349.879,208.555 C351.438,210.284 352.218,212.776 352.218,216.030 L352.218,233.422 L342.099,233.422 L342.099,217.251 ZM313.781,216.640 C312.849,217.726 312.383,219.336 312.383,221.471 L312.383,233.422 L302.263,233.422 L302.263,206.571 L310.552,206.571 L311.213,210.640 C311.824,209.081 312.790,207.902 314.112,207.105 C315.434,206.309 316.926,205.910 318.587,205.910 C319.367,205.910 320.062,206.004 320.672,206.190 C321.282,206.377 321.587,206.487 321.587,206.520 L321.587,215.013 L318.333,215.013 C316.230,215.013 314.713,215.556 313.781,216.640 ZM284.668,227.574 C286.362,227.574 287.608,227.218 288.406,226.506 C289.202,225.794 289.601,224.845 289.601,223.658 L299.415,223.658 C299.415,226.913 298.177,229.456 295.703,231.286 C293.228,233.117 289.617,234.032 284.871,234.032 C279.887,234.032 276.023,232.871 273.277,230.549 C270.530,228.227 269.157,224.710 269.157,219.997 C269.157,215.387 270.496,211.894 273.175,209.521 C275.853,207.148 279.548,205.961 284.261,205.961 C289.176,205.961 292.931,207.114 295.525,209.419 C298.118,211.725 299.415,215.251 299.415,219.997 L299.415,221.726 L279.277,221.726 C279.277,223.658 279.709,225.116 280.574,226.099 C281.439,227.083 282.803,227.574 284.668,227.574 ZM289.194,216.945 C289.194,215.556 288.795,214.454 287.999,213.640 C287.202,212.826 286.092,212.420 284.668,212.420 C281.481,212.420 279.701,213.928 279.328,216.945 L289.194,216.945 ZM255.190,234.032 C251.460,234.032 248.612,232.558 246.646,229.608 L245.782,233.422 L237.544,233.422 L237.544,196.553 L247.663,196.553 L247.663,209.063 C249.596,206.996 252.104,205.961 255.190,205.961 C258.817,205.961 261.614,207.140 263.581,209.496 C265.546,211.852 266.530,215.336 266.530,219.946 C266.530,224.591 265.546,228.100 263.581,230.473 C261.614,232.846 258.817,234.032 255.190,234.032 ZM256.410,218.674 C256.410,215.183 254.952,213.437 252.037,213.437 C250.545,213.437 249.426,213.971 248.680,215.039 C247.934,216.106 247.562,217.488 247.562,219.183 L247.562,220.861 C247.562,222.557 247.934,223.930 248.680,224.980 C249.426,226.032 250.545,226.557 252.037,226.557 C254.952,226.557 256.410,224.828 256.410,221.370 L256.410,218.674 ZM219.804,241.177 C217.787,243.126 214.964,244.101 211.337,244.101 C209.133,244.101 207.184,243.796 205.489,243.186 L205.489,237.134 L209.557,237.134 C212.100,237.134 213.608,235.897 214.083,233.422 L203.404,206.571 L214.287,206.571 L219.423,224.421 L219.779,224.421 L224.508,206.571 L234.476,206.571 L224.915,232.608 C223.525,236.372 221.821,239.227 219.804,241.177 ZM188.521,227.167 C191.979,227.167 193.708,225.608 193.708,222.489 L203.116,222.489 C203.116,226.388 201.751,229.286 199.022,231.185 C196.293,233.084 192.725,234.032 188.317,234.032 C183.605,234.032 179.910,232.846 177.232,230.473 C174.553,228.100 173.214,224.608 173.214,219.997 C173.214,215.387 174.553,211.894 177.232,209.521 C179.910,207.148 183.605,205.961 188.317,205.961 C192.725,205.961 196.293,206.902 199.022,208.784 C201.751,210.665 203.116,213.538 203.116,217.403 L193.301,217.403 C193.301,214.352 191.640,212.826 188.317,212.826 C184.995,212.826 183.334,214.742 183.334,218.573 L183.334,221.471 C183.334,225.269 185.063,227.167 188.521,227.167 ZM141.939,227.574 C143.634,227.574 144.880,227.218 145.677,226.506 C146.473,225.794 146.872,224.845 146.872,223.658 L156.687,223.658 C156.687,226.913 155.449,229.456 152.974,231.286 C150.499,233.117 146.889,234.032 142.143,234.032 C137.159,234.032 133.294,232.871 130.548,230.549 C127.802,228.227 126.429,224.710 126.429,219.997 C126.429,215.387 127.768,211.894 130.446,209.521 C133.124,207.148 136.820,205.961 141.532,205.961 C146.448,205.961 150.203,207.114 152.796,209.419 C155.390,211.725 156.687,215.251 156.687,219.997 L156.687,221.726 L136.549,221.726 C136.549,223.658 136.981,225.116 137.846,226.099 C138.710,227.083 140.074,227.574 141.939,227.574 ZM146.465,216.945 C146.465,215.556 146.066,214.454 145.270,213.640 C144.473,212.826 143.363,212.420 141.939,212.420 C138.752,212.420 136.972,213.928 136.600,216.945 L146.465,216.945 ZM113.105,196.553 L123.225,196.553 L123.225,233.422 L113.105,233.422 L113.105,196.553 ZM99.561,234.032 C96.441,234.032 93.933,233.015 92.035,230.981 L92.035,243.440 L81.915,243.440 L81.915,206.571 L90.153,206.571 L91.018,210.385 C92.984,207.436 95.831,205.961 99.561,205.961 C103.188,205.961 105.985,207.148 107.952,209.521 C109.918,211.894 110.902,215.403 110.902,220.048 C110.902,224.659 109.918,228.142 107.952,230.498 C105.985,232.855 103.188,234.032 99.561,234.032 ZM100.782,218.624 C100.782,215.166 99.324,213.437 96.408,213.437 C94.916,213.437 93.797,213.963 93.052,215.013 C92.306,216.064 91.933,217.437 91.933,219.132 L91.933,220.810 C91.933,222.506 92.306,223.887 93.052,224.955 C93.797,226.023 94.916,226.557 96.408,226.557 C99.324,226.557 100.782,224.811 100.782,221.319 L100.782,218.624 ZM77.491,233.804 C76.710,233.956 75.813,234.032 74.796,234.032 C72.829,234.032 71.210,233.735 69.939,233.142 C68.668,232.550 67.794,231.727 67.320,230.676 C66.031,231.693 64.591,232.507 62.998,233.117 C61.404,233.727 59.539,234.032 57.403,234.032 C51.098,234.032 47.945,231.524 47.945,226.506 C47.945,223.896 48.648,221.904 50.055,220.531 C51.462,219.158 53.488,218.217 56.132,217.708 C58.777,217.200 62.234,216.945 66.506,216.945 L66.506,215.623 C66.506,214.573 66.142,213.776 65.413,213.233 C64.684,212.691 63.743,212.420 62.591,212.420 C61.539,212.420 60.633,212.606 59.870,212.979 C59.107,213.352 58.726,213.945 58.726,214.759 L58.726,214.962 L48.759,214.962 C48.724,214.793 48.708,214.555 48.708,214.250 C48.708,211.708 49.920,209.691 52.344,208.199 C54.767,206.707 58.234,205.961 62.743,205.961 C66.845,205.961 70.184,206.648 72.761,208.021 C75.337,209.394 76.626,211.623 76.626,214.708 L76.626,225.184 C76.626,225.761 76.761,226.235 77.033,226.608 C77.304,226.981 77.711,227.167 78.253,227.167 L80.084,227.167 L80.084,233.015 C79.983,233.084 79.719,233.193 79.296,233.346 C78.872,233.498 78.270,233.651 77.491,233.804 ZM66.506,221.726 C63.624,221.726 61.497,222.040 60.124,222.667 C58.751,223.294 58.065,224.133 58.065,225.184 C58.065,226.880 59.217,227.727 61.523,227.727 C62.845,227.727 64.006,227.370 65.006,226.659 C66.006,225.947 66.506,225.065 66.506,224.014 L66.506,221.726 ZM35.333,217.251 C35.333,216.098 35.053,215.174 34.494,214.479 C33.935,213.785 33.146,213.437 32.129,213.437 C30.942,213.437 29.976,213.844 29.231,214.657 C28.485,215.471 28.112,216.471 28.112,217.657 L28.112,233.422 L17.992,233.422 L17.992,217.251 C17.992,216.098 17.712,215.174 17.153,214.479 C16.594,213.785 15.805,213.437 14.788,213.437 C13.601,213.437 12.635,213.844 11.890,214.657 C11.143,215.471 10.771,216.471 10.771,217.657 L10.771,233.422 L0.651,233.422 L0.651,206.571 L8.940,206.571 L9.601,210.589 C10.618,209.165 11.966,208.038 13.644,207.207 C15.322,206.377 17.093,205.961 18.958,205.961 C22.992,205.961 25.704,207.504 27.095,210.589 C28.145,209.165 29.493,208.038 31.138,207.207 C32.782,206.377 34.502,205.961 36.299,205.961 C39.351,205.961 41.639,206.834 43.165,208.580 C44.690,210.327 45.453,212.810 45.453,216.030 L45.453,233.422 L35.333,233.422 L35.333,217.251 Z"/>
<path fill-rule="evenodd"  fill="rgb(244, 241, 231)"
 d="M350.824,269.781 C350.340,270.245 349.744,270.478 349.039,270.478 C348.373,270.478 347.803,270.245 347.329,269.781 C346.855,269.316 346.618,268.757 346.618,268.105 C346.618,267.432 346.855,266.854 347.329,266.369 C347.803,265.885 348.373,265.642 349.039,265.642 C349.744,265.642 350.340,265.880 350.824,266.354 C351.308,266.829 351.550,267.413 351.550,268.105 C351.550,268.757 351.308,269.316 350.824,269.781 ZM347.677,258.019 C347.294,258.137 346.951,258.355 346.648,258.671 C346.346,258.988 346.093,259.383 345.892,259.858 L341.383,270.478 C340.737,272.000 339.911,273.919 338.902,276.233 C338.660,276.806 338.292,277.241 337.798,277.538 C337.303,277.835 336.734,277.983 336.088,277.983 C335.523,277.983 335.009,277.805 334.545,277.449 C334.081,277.093 333.849,276.648 333.849,276.114 C333.849,275.679 333.955,275.293 334.167,274.957 C334.378,274.621 334.686,274.453 335.090,274.453 C335.211,274.453 335.523,274.502 336.028,274.601 C336.512,274.720 336.845,274.769 337.026,274.749 C337.308,274.730 337.510,274.665 337.631,274.557 C337.752,274.448 337.904,274.235 338.085,273.919 C338.287,273.602 338.509,273.222 338.751,272.777 C338.993,272.332 339.275,271.743 339.598,271.012 C339.840,270.438 339.961,269.963 339.961,269.588 C339.961,269.331 339.916,269.069 339.825,268.802 C339.734,268.535 339.638,268.283 339.537,268.045 L335.816,259.769 C335.594,259.275 335.372,258.889 335.150,258.612 C334.928,258.335 334.646,258.137 334.303,258.019 C334.101,257.940 333.955,257.851 333.864,257.752 C333.774,257.653 333.728,257.525 333.728,257.366 C333.728,257.149 333.980,257.040 334.485,257.040 C335.069,257.040 335.684,257.060 336.330,257.099 C336.855,257.139 337.208,257.158 337.389,257.158 C337.813,257.158 338.327,257.139 338.933,257.099 C339.618,257.060 340.203,257.040 340.688,257.040 C340.869,257.040 341.030,257.069 341.172,257.129 C341.312,257.188 341.383,257.287 341.383,257.425 C341.383,257.564 341.338,257.668 341.247,257.737 C341.156,257.806 341.050,257.866 340.930,257.915 C340.808,257.964 340.728,257.999 340.688,258.019 C340.445,258.118 340.268,258.251 340.158,258.419 C340.047,258.587 339.991,258.830 339.991,259.146 C339.991,259.542 340.102,259.996 340.324,260.510 L342.200,264.990 C342.220,265.049 342.250,265.079 342.291,265.079 C342.331,265.079 342.362,265.049 342.382,264.990 L343.925,260.451 C344.086,260.016 344.167,259.620 344.167,259.265 C344.167,258.949 344.071,258.682 343.880,258.464 C343.688,258.246 343.471,258.098 343.229,258.019 C342.987,257.940 342.810,257.861 342.699,257.781 C342.588,257.702 342.533,257.584 342.533,257.425 C342.533,257.287 342.604,257.188 342.745,257.129 C342.886,257.069 343.047,257.040 343.229,257.040 C343.955,257.080 344.389,257.099 344.530,257.099 C344.974,257.139 345.276,257.158 345.438,257.158 C345.579,257.158 345.912,257.139 346.437,257.099 C346.537,257.099 346.890,257.080 347.495,257.040 C347.979,257.040 348.222,257.149 348.222,257.366 C348.222,257.544 348.181,257.677 348.100,257.767 C348.020,257.855 347.878,257.940 347.677,258.019 ZM334.000,269.202 C334.000,269.341 333.945,269.445 333.834,269.514 C333.723,269.583 333.577,269.617 333.395,269.617 C332.972,269.617 332.397,269.598 331.670,269.558 L330.097,269.529 C329.774,269.529 329.290,269.548 328.645,269.588 C328.100,269.647 327.535,269.677 326.950,269.677 C326.769,269.677 326.622,269.642 326.511,269.573 C326.400,269.504 326.345,269.400 326.345,269.262 C326.345,268.985 326.577,268.787 327.041,268.668 C327.485,268.510 327.787,268.372 327.949,268.253 C328.110,268.134 328.191,267.897 328.191,267.541 L328.191,253.272 C328.191,252.679 328.105,252.200 327.934,251.834 C327.762,251.468 327.444,251.236 326.980,251.136 C326.779,251.097 326.678,250.949 326.678,250.691 C326.678,250.435 326.769,250.286 326.950,250.246 C327.495,250.148 328.155,249.970 328.932,249.713 C329.709,249.456 330.400,249.218 331.005,249.001 L331.640,248.763 C331.781,248.704 331.913,248.674 332.034,248.674 C332.235,248.674 332.336,248.793 332.336,249.030 C332.336,249.189 332.310,249.475 332.261,249.891 C332.210,250.306 332.175,250.702 332.155,251.077 L332.155,267.482 C332.155,267.818 332.230,268.050 332.381,268.179 C332.533,268.308 332.709,268.406 332.911,268.475 C333.112,268.545 333.244,268.589 333.304,268.609 C333.546,268.688 333.723,268.772 333.834,268.861 C333.945,268.950 334.000,269.064 334.000,269.202 ZM322.260,267.304 C322.603,267.759 323.077,267.986 323.682,267.986 C324.146,267.986 324.504,267.952 324.757,267.882 C325.009,267.813 325.220,267.739 325.392,267.660 C325.563,267.581 325.669,267.531 325.710,267.511 C325.790,267.472 325.851,267.452 325.891,267.452 C325.992,267.452 326.073,267.507 326.134,267.615 C326.194,267.724 326.224,267.867 326.224,268.045 C326.224,268.184 325.997,268.416 325.543,268.742 C325.090,269.069 324.519,269.361 323.834,269.617 C323.148,269.874 322.452,270.003 321.746,270.003 C320.434,270.003 319.441,269.677 318.766,269.024 C318.089,268.372 317.752,267.432 317.752,266.206 L317.752,259.383 C317.752,259.205 317.681,259.077 317.540,258.998 C317.399,258.919 317.157,258.869 316.814,258.849 L316.421,258.849 C316.300,258.849 316.189,258.741 316.088,258.523 C315.987,258.306 315.936,258.098 315.936,257.900 C315.936,257.762 315.997,257.663 316.118,257.603 C317.126,257.247 318.599,256.239 320.536,254.577 C320.576,254.538 320.646,254.484 320.747,254.414 C320.848,254.345 320.939,254.291 321.020,254.251 C321.100,254.212 321.191,254.192 321.292,254.192 C321.494,254.192 321.625,254.232 321.686,254.311 C321.746,254.390 321.766,254.548 321.746,254.785 L321.564,256.535 L321.564,256.654 C321.564,256.991 321.807,257.158 322.291,257.158 L325.891,257.158 C325.952,257.158 326.012,257.228 326.073,257.366 C326.134,257.505 326.164,257.633 326.164,257.752 C326.164,258.048 326.123,258.320 326.043,258.567 C325.962,258.815 325.871,258.938 325.770,258.938 L322.956,258.938 C322.492,258.938 322.174,258.993 322.003,259.101 C321.832,259.210 321.746,259.403 321.746,259.680 L321.746,265.286 C321.746,266.176 321.917,266.849 322.260,267.304 ZM315.180,269.677 C314.575,269.677 313.1000,269.647 313.455,269.588 C312.809,269.548 312.315,269.529 311.973,269.529 C311.629,269.529 311.135,269.548 310.490,269.588 C309.986,269.647 309.421,269.677 308.796,269.677 C308.654,269.677 308.533,269.637 308.432,269.558 C308.331,269.479 308.281,269.380 308.281,269.262 C308.281,269.005 308.483,268.807 308.886,268.668 C309.269,268.550 309.542,268.421 309.703,268.283 C309.865,268.144 309.945,267.897 309.945,267.541 L309.945,261.638 C309.945,260.886 309.774,260.298 309.431,259.873 C309.088,259.448 308.614,259.225 308.009,259.205 C307.585,259.205 307.202,259.270 306.859,259.398 C306.516,259.527 306.153,259.720 305.770,259.977 C305.608,260.115 305.528,260.303 305.528,260.540 L305.528,267.541 C305.528,267.897 305.608,268.139 305.770,268.268 C305.931,268.397 306.213,268.530 306.617,268.668 C307.020,268.807 307.222,269.005 307.222,269.262 C307.222,269.380 307.172,269.479 307.071,269.558 C306.970,269.637 306.849,269.677 306.708,269.677 C306.103,269.677 305.558,269.647 305.074,269.588 C304.428,269.548 303.944,269.529 303.622,269.529 C303.278,269.529 302.764,269.548 302.078,269.588 C301.534,269.647 300.949,269.677 300.323,269.677 C300.182,269.677 300.046,269.637 299.915,269.558 C299.784,269.479 299.718,269.380 299.718,269.262 C299.718,269.024 299.950,268.827 300.414,268.668 C300.817,268.550 301.110,268.421 301.292,268.283 C301.473,268.144 301.564,267.897 301.564,267.541 L301.564,260.748 C301.564,259.759 301.251,259.205 300.626,259.087 C300.404,259.047 300.293,258.869 300.293,258.553 C300.293,258.276 300.394,258.108 300.596,258.048 C301.302,257.890 302.068,257.673 302.895,257.396 C303.722,257.119 304.408,256.842 304.953,256.565 C305.215,256.407 305.396,256.328 305.498,256.328 C305.679,256.328 305.770,256.446 305.770,256.684 L305.709,257.277 C305.649,257.989 305.619,258.355 305.619,258.375 C305.619,258.632 305.638,258.780 305.679,258.820 C306.425,258.128 307.147,257.614 307.842,257.277 C308.538,256.941 309.330,256.773 310.218,256.773 C311.307,256.773 312.200,257.158 312.896,257.930 C313.591,258.701 313.939,259.729 313.939,261.015 L313.939,267.541 C313.939,267.897 314.030,268.144 314.212,268.283 C314.393,268.421 314.685,268.550 315.089,268.668 C315.493,268.807 315.694,269.005 315.694,269.262 C315.694,269.380 315.644,269.479 315.543,269.558 C315.442,269.637 315.321,269.677 315.180,269.677 ZM298.024,261.994 L291.972,261.994 C291.689,261.994 291.483,262.073 291.352,262.231 C291.220,262.390 291.155,262.657 291.155,263.032 C291.155,264.179 291.528,265.143 292.275,265.924 C293.021,266.706 293.959,267.096 295.089,267.096 C295.653,267.096 296.178,266.992 296.662,266.784 C297.146,266.577 297.650,266.276 298.175,265.880 C298.376,265.722 298.518,265.642 298.599,265.642 C298.800,265.642 298.901,265.771 298.901,266.028 C298.901,266.285 298.820,266.582 298.659,266.918 C298.336,267.749 297.706,268.471 296.768,269.084 C295.830,269.696 294.726,270.003 293.455,270.003 C292.385,270.003 291.417,269.721 290.550,269.158 C289.682,268.594 289.002,267.818 288.508,266.829 C288.013,265.840 287.766,264.733 287.766,263.507 C287.766,262.281 288.058,261.153 288.644,260.125 C289.229,259.097 290.031,258.281 291.049,257.677 C292.068,257.075 293.172,256.773 294.362,256.773 C295.210,256.773 295.986,256.951 296.692,257.307 C297.398,257.663 297.953,258.157 298.356,258.790 C298.760,259.423 298.962,260.115 298.962,260.866 C298.962,261.262 298.886,261.549 298.735,261.727 C298.584,261.905 298.346,261.994 298.024,261.994 ZM295.346,258.478 C294.972,258.133 294.514,257.959 293.969,257.959 C293.344,257.959 292.779,258.212 292.275,258.716 C291.770,259.220 291.528,259.759 291.549,260.333 C291.549,260.610 291.689,260.748 291.972,260.748 L293.788,260.748 C294.251,260.748 294.615,260.738 294.877,260.718 C295.139,260.699 295.371,260.659 295.573,260.600 C295.674,260.560 295.755,260.461 295.815,260.303 C295.875,260.145 295.906,259.967 295.906,259.769 C295.906,259.255 295.719,258.825 295.346,258.478 ZM286.193,260.421 C285.930,260.421 285.537,260.283 285.013,260.006 C284.932,259.967 284.766,259.893 284.514,259.784 C284.261,259.675 284.055,259.620 283.893,259.620 C282.602,259.620 281.957,260.560 281.957,262.439 L281.957,267.274 C281.957,267.650 282.078,267.937 282.320,268.134 C282.562,268.332 282.975,268.510 283.560,268.668 C284.004,268.787 284.226,268.985 284.226,269.262 C284.226,269.380 284.175,269.479 284.075,269.558 C283.974,269.637 283.853,269.677 283.712,269.677 C283.066,269.677 282.421,269.647 281.775,269.588 C280.968,269.548 280.403,269.529 280.081,269.529 C279.737,269.529 279.223,269.548 278.538,269.588 C277.993,269.647 277.408,269.677 276.783,269.677 C276.601,269.677 276.455,269.642 276.344,269.573 C276.233,269.504 276.178,269.400 276.178,269.262 C276.178,269.103 276.233,268.980 276.344,268.891 C276.455,268.802 276.632,268.728 276.874,268.668 C277.317,268.530 277.615,268.382 277.766,268.223 C277.917,268.065 277.993,267.838 277.993,267.541 L277.993,260.718 C277.993,260.263 277.927,259.913 277.797,259.665 C277.665,259.418 277.428,259.245 277.085,259.146 C276.823,259.067 276.692,258.889 276.692,258.612 C276.692,258.335 276.813,258.167 277.055,258.108 C277.700,257.969 278.412,257.767 279.188,257.500 C279.965,257.232 280.626,256.971 281.170,256.713 C281.473,256.496 281.704,256.387 281.866,256.387 C282.047,256.387 282.138,256.496 282.138,256.713 L282.047,259.057 C282.047,259.235 282.088,259.324 282.169,259.324 C282.693,258.612 283.298,258.004 283.984,257.500 C284.670,256.995 285.346,256.743 286.011,256.743 C286.677,256.743 287.166,256.867 287.479,257.114 C287.791,257.361 287.948,257.702 287.948,258.137 C287.948,258.612 287.761,259.112 287.388,259.635 C287.015,260.160 286.617,260.421 286.193,260.421 ZM274.453,261.994 L268.401,261.994 C268.119,261.994 267.912,262.073 267.781,262.231 C267.650,262.390 267.584,262.657 267.584,263.032 C267.584,264.179 267.957,265.143 268.704,265.924 C269.450,266.706 270.388,267.096 271.518,267.096 C272.083,267.096 272.607,266.992 273.091,266.784 C273.575,266.577 274.080,266.276 274.604,265.880 C274.806,265.722 274.947,265.642 275.028,265.642 C275.229,265.642 275.330,265.771 275.330,266.028 C275.330,266.285 275.250,266.582 275.088,266.918 C274.766,267.749 274.135,268.471 273.197,269.084 C272.259,269.696 271.155,270.003 269.884,270.003 C268.815,270.003 267.846,269.721 266.979,269.158 C266.112,268.594 265.431,267.818 264.937,266.829 C264.442,265.840 264.196,264.733 264.196,263.507 C264.196,262.281 264.488,261.153 265.073,260.125 C265.658,259.097 266.459,258.281 267.479,257.677 C268.497,257.075 269.601,256.773 270.792,256.773 C271.639,256.773 272.415,256.951 273.122,257.307 C273.827,257.663 274.382,258.157 274.786,258.790 C275.189,259.423 275.391,260.115 275.391,260.866 C275.391,261.262 275.315,261.549 275.164,261.727 C275.013,261.905 274.775,261.994 274.453,261.994 ZM271.775,258.478 C271.402,258.133 270.943,257.959 270.399,257.959 C269.773,257.959 269.208,258.212 268.704,258.716 C268.200,259.220 267.957,259.759 267.978,260.333 C267.978,260.610 268.119,260.748 268.401,260.748 L270.217,260.748 C270.681,260.748 271.044,260.738 271.306,260.718 C271.568,260.699 271.800,260.659 272.002,260.600 C272.103,260.560 272.184,260.461 272.244,260.303 C272.305,260.145 272.335,259.967 272.335,259.769 C272.335,259.255 272.148,258.825 271.775,258.478 ZM266.949,252.442 C266.666,252.442 266.293,252.165 265.829,251.611 C265.365,251.117 264.917,250.726 264.483,250.439 C264.049,250.153 263.540,250.009 262.955,250.009 C261.260,250.009 260.413,251.443 260.413,254.311 L260.413,256.743 C260.413,257.020 260.574,257.158 260.897,257.158 L264.317,257.158 C264.478,257.158 264.599,257.203 264.680,257.292 C264.760,257.381 264.801,257.495 264.801,257.633 C264.801,258.068 264.720,258.424 264.559,258.701 C264.457,258.859 264.377,258.938 264.317,258.938 L261.533,258.938 C261.089,258.938 260.791,258.988 260.640,259.087 C260.489,259.186 260.413,259.353 260.413,259.591 L260.413,267.007 C260.413,267.541 260.534,267.912 260.776,268.119 C261.018,268.327 261.553,268.510 262.380,268.668 C262.602,268.708 262.758,268.767 262.849,268.846 C262.940,268.925 262.985,269.044 262.985,269.202 C262.985,269.321 262.935,269.430 262.834,269.529 C262.733,269.627 262.612,269.677 262.471,269.677 C261.785,269.677 261.079,269.647 260.353,269.588 C259.465,269.548 258.850,269.529 258.507,269.529 C258.164,269.529 257.649,269.548 256.964,269.588 C256.419,269.647 255.834,269.677 255.209,269.677 C255.067,269.677 254.931,269.637 254.801,269.558 C254.669,269.479 254.604,269.380 254.604,269.262 C254.604,269.103 254.649,268.980 254.740,268.891 C254.831,268.802 254.977,268.728 255.179,268.668 C255.723,268.510 256.071,268.362 256.223,268.223 C256.374,268.085 256.449,267.848 256.449,267.511 L256.449,259.057 L252.425,259.057 C251.618,259.057 251.215,259.284 251.215,259.739 L251.215,267.393 C251.215,267.768 251.346,268.045 251.608,268.223 C251.870,268.401 252.264,268.550 252.788,268.668 C253.191,268.767 253.393,268.965 253.393,269.262 C253.393,269.380 253.343,269.479 253.242,269.558 C253.141,269.637 253.020,269.677 252.879,269.677 C252.254,269.677 251.618,269.647 250.973,269.588 C250.206,269.548 249.652,269.529 249.309,269.529 C248.965,269.529 248.451,269.548 247.766,269.588 C247.221,269.647 246.635,269.677 246.011,269.677 C245.869,269.677 245.733,269.637 245.602,269.558 C245.470,269.479 245.405,269.380 245.405,269.262 C245.405,269.024 245.637,268.827 246.101,268.668 C246.484,268.550 246.772,268.416 246.964,268.268 C247.155,268.119 247.251,267.867 247.251,267.511 L247.251,259.057 C246.626,259.057 246.101,259.037 245.678,258.998 C245.577,258.978 245.481,258.869 245.390,258.671 C245.299,258.474 245.254,258.296 245.254,258.137 C245.254,258.019 245.345,257.920 245.527,257.841 C246.293,257.603 246.868,257.376 247.251,257.158 C247.352,255.478 247.816,254.073 248.643,252.946 C249.470,251.819 250.458,250.988 251.608,250.454 C252.758,249.920 253.897,249.653 255.027,249.653 C255.955,249.653 256.762,249.762 257.448,249.980 C258.134,250.197 258.628,250.484 258.931,250.840 C259.677,250.108 260.519,249.560 261.457,249.193 C262.395,248.828 263.318,248.645 264.226,248.645 C265.597,248.645 266.590,248.833 267.206,249.208 C267.821,249.584 268.129,250.168 268.129,250.958 C268.129,251.414 268.023,251.774 267.811,252.041 C267.600,252.308 267.312,252.442 266.949,252.442 ZM256.979,252.961 C256.848,252.813 256.742,252.689 256.661,252.590 C256.298,252.175 255.910,251.844 255.496,251.596 C255.083,251.349 254.563,251.225 253.938,251.225 C253.111,251.225 252.450,251.631 251.956,252.442 C251.462,253.253 251.215,254.439 251.215,256.001 L251.215,256.506 C251.215,256.941 251.467,257.158 251.971,257.158 L256.389,257.158 L256.449,257.129 C256.530,255.665 256.813,254.390 257.297,253.302 C257.216,253.223 257.110,253.109 256.979,252.961 ZM242.712,269.588 C241.905,269.548 241.331,269.529 240.988,269.529 C240.644,269.529 240.110,269.548 239.384,269.588 C238.779,269.647 238.174,269.677 237.569,269.677 C237.448,269.677 237.337,269.642 237.236,269.573 C237.135,269.504 237.084,269.410 237.084,269.291 C237.084,268.995 237.266,268.797 237.629,268.698 C238.174,268.579 238.547,268.446 238.749,268.297 C238.950,268.149 239.051,267.917 239.051,267.600 L239.051,261.193 C239.051,260.540 238.950,260.065 238.749,259.769 C238.547,259.472 238.214,259.294 237.750,259.235 C237.629,259.215 237.538,259.156 237.478,259.057 C237.417,258.958 237.387,258.839 237.387,258.701 C237.387,258.582 237.422,258.474 237.493,258.375 C237.563,258.276 237.639,258.216 237.720,258.197 C238.627,258.039 239.429,257.821 240.125,257.544 C240.821,257.267 241.582,256.931 242.410,256.535 C242.692,256.377 242.894,256.298 243.015,256.298 C243.136,256.298 243.231,256.333 243.302,256.402 C243.373,256.471 243.408,256.555 243.408,256.654 L243.287,257.752 C243.106,259.255 243.015,260.343 243.015,261.015 L243.015,267.571 C243.015,267.848 243.116,268.065 243.318,268.223 C243.519,268.382 243.903,268.540 244.467,268.698 C244.649,268.757 244.785,268.827 244.876,268.905 C244.967,268.985 245.012,269.103 245.012,269.262 C245.012,269.519 244.861,269.647 244.558,269.647 C244.135,269.647 243.519,269.627 242.712,269.588 ZM240.897,254.963 C240.251,254.963 239.697,254.736 239.233,254.281 C238.768,253.826 238.537,253.283 238.537,252.649 C238.537,251.977 238.768,251.414 239.233,250.958 C239.697,250.504 240.251,250.276 240.897,250.276 C241.582,250.276 242.163,250.504 242.637,250.958 C243.111,251.414 243.348,251.977 243.348,252.649 C243.348,253.283 243.111,253.826 242.637,254.281 C242.163,254.736 241.582,254.963 240.897,254.963 ZM236.268,268.905 C234.755,269.064 233.221,269.420 231.668,269.973 C231.426,270.092 231.255,270.152 231.154,270.152 C231.093,270.152 231.007,270.087 230.897,269.959 C230.786,269.830 230.730,269.726 230.730,269.647 C230.831,268.955 230.882,268.431 230.882,268.075 L230.882,267.897 C230.458,268.530 229.888,269.039 229.172,269.425 C228.456,269.810 227.694,270.003 226.888,270.003 C225.798,270.003 224.804,269.726 223.907,269.172 C223.009,268.619 222.308,267.867 221.804,266.918 C221.300,265.969 221.048,264.931 221.048,263.803 C221.048,262.478 221.350,261.287 221.956,260.229 C222.561,259.171 223.413,258.340 224.512,257.737 C225.611,257.134 226.867,256.832 228.279,256.832 C228.844,256.832 229.469,256.921 230.155,257.099 L230.549,257.188 C230.629,257.188 230.670,257.060 230.670,256.802 L230.670,253.272 C230.670,252.560 230.584,252.051 230.413,251.745 C230.241,251.438 229.933,251.236 229.490,251.136 C229.248,251.077 229.127,250.929 229.127,250.691 C229.127,250.435 229.237,250.286 229.460,250.246 C230.186,250.089 230.947,249.886 231.744,249.638 C232.541,249.391 233.201,249.159 233.726,248.941 C234.129,248.763 234.371,248.674 234.452,248.674 C234.674,248.674 234.785,248.793 234.785,249.030 C234.764,249.109 234.739,249.342 234.709,249.727 C234.679,250.113 234.653,250.563 234.633,251.077 L234.482,266.028 C234.482,266.721 234.532,267.210 234.633,267.497 C234.734,267.783 234.916,267.927 235.178,267.927 L236.358,267.838 L236.479,267.838 C236.600,267.838 236.681,267.858 236.721,267.897 C236.761,267.937 236.782,268.016 236.782,268.134 C236.782,268.293 236.721,268.461 236.600,268.639 C236.479,268.817 236.368,268.905 236.268,268.905 ZM230.639,260.510 C230.639,260.174 230.503,259.828 230.231,259.472 C229.959,259.116 229.615,258.820 229.202,258.582 C228.789,258.345 228.380,258.226 227.977,258.226 C227.493,258.226 227.044,258.419 226.630,258.805 C226.217,259.190 225.884,259.749 225.632,260.481 C225.379,261.213 225.254,262.053 225.254,263.002 C225.254,264.031 225.400,264.921 225.692,265.672 C225.985,266.424 226.373,266.997 226.857,267.393 C227.341,267.789 227.866,267.986 228.431,267.986 C228.773,267.986 229.167,267.902 229.611,267.734 C230.054,267.566 230.407,267.344 230.670,267.066 L230.639,260.510 ZM209.883,261.489 C211.254,262.201 212.207,262.864 212.742,263.477 C213.276,264.090 213.544,264.901 213.544,265.909 C213.544,267.215 213.105,268.223 212.228,268.935 C211.350,269.647 210.094,270.003 208.461,270.003 C207.008,270.003 205.798,269.667 204.830,268.995 C204.648,268.718 204.517,268.268 204.436,267.645 C204.355,267.022 204.325,266.345 204.346,265.613 C204.346,265.376 204.547,265.257 204.951,265.257 C205.091,265.257 205.223,265.301 205.344,265.390 C205.465,265.479 205.545,265.583 205.586,265.702 C206.009,266.651 206.474,267.388 206.978,267.912 C207.482,268.436 208.067,268.698 208.733,268.698 C209.237,268.698 209.641,268.540 209.943,268.223 C210.246,267.907 210.397,267.531 210.397,267.096 C210.397,266.621 210.215,266.216 209.852,265.880 C209.489,265.544 208.964,265.197 208.279,264.841 C207.209,264.308 206.368,263.714 205.753,263.062 C205.137,262.409 204.830,261.589 204.830,260.600 C204.830,259.453 205.293,258.523 206.221,257.811 C207.149,257.099 208.309,256.743 209.701,256.743 C210.306,256.743 210.896,256.813 211.471,256.951 C212.046,257.089 212.455,257.238 212.697,257.396 C212.858,257.594 212.989,257.964 213.090,258.508 C213.191,259.052 213.241,259.650 213.241,260.303 C213.241,260.402 213.186,260.481 213.075,260.540 C212.964,260.600 212.838,260.629 212.697,260.629 C212.555,260.629 212.409,260.580 212.258,260.481 C212.107,260.382 212.011,260.283 211.970,260.184 C211.708,259.413 211.370,258.834 210.957,258.449 C210.543,258.063 210.084,257.870 209.580,257.870 C209.116,257.870 208.707,258.014 208.355,258.300 C208.001,258.587 207.825,258.958 207.825,259.413 C207.825,259.789 208.001,260.140 208.355,260.466 C208.707,260.792 209.217,261.133 209.883,261.489 ZM203.861,259.176 C203.740,259.314 203.609,259.383 203.468,259.383 L202.651,259.383 C202.147,259.383 201.793,259.463 201.592,259.620 C201.511,259.720 201.466,259.853 201.456,260.021 C201.446,260.189 201.441,260.521 201.441,261.015 C201.441,262.043 201.173,262.992 200.639,263.863 C200.104,264.733 199.383,265.430 198.475,265.954 C197.568,266.478 196.589,266.740 195.540,266.740 C194.915,266.740 194.239,266.612 193.513,266.354 C193.332,266.473 193.185,266.607 193.074,266.755 C192.963,266.903 192.908,267.037 192.908,267.155 C192.908,267.472 193.210,267.709 193.816,267.867 C194.421,268.026 195.550,268.164 197.204,268.283 C199.383,268.441 200.967,268.767 201.955,269.262 C202.943,269.756 203.438,270.468 203.438,271.397 C203.438,272.465 203.044,273.523 202.258,274.571 C201.471,275.620 200.457,276.480 199.217,277.152 C197.976,277.824 196.730,278.161 195.480,278.161 C193.523,278.161 191.990,277.859 190.881,277.256 C189.771,276.653 189.216,275.827 189.216,274.779 C189.216,274.146 189.292,273.656 189.444,273.311 C189.595,272.964 189.913,272.614 190.397,272.258 C190.719,272.040 191.062,271.798 191.425,271.531 C191.788,271.264 192.040,271.071 192.182,270.952 C190.749,270.399 190.034,269.499 190.034,268.253 C190.034,267.818 190.306,267.432 190.850,267.096 C191.718,266.463 192.252,266.048 192.454,265.850 C191.708,265.395 191.108,264.817 190.654,264.115 C190.200,263.413 189.973,262.646 189.973,261.816 C189.973,260.847 190.255,259.977 190.820,259.205 C191.385,258.434 192.136,257.831 193.074,257.396 C194.012,256.961 195.016,256.743 196.085,256.743 C196.690,256.743 197.457,256.852 198.385,257.069 C198.949,257.188 199.383,257.267 199.686,257.307 C200.533,257.465 201.339,257.544 202.106,257.544 C202.368,257.544 202.701,257.525 203.105,257.485 L203.770,257.455 C203.911,257.455 204.028,257.514 204.118,257.633 C204.209,257.752 204.255,257.910 204.255,258.108 C204.255,258.246 204.214,258.419 204.134,258.627 C204.053,258.834 203.962,259.018 203.861,259.176 ZM192.378,272.525 C192.086,272.920 191.940,273.365 191.940,273.860 C191.940,274.670 192.282,275.343 192.968,275.877 C193.654,276.411 194.532,276.678 195.601,276.678 C197.013,276.678 198.001,276.411 198.566,275.877 C198.949,275.521 199.247,275.120 199.459,274.675 C199.671,274.230 199.776,273.780 199.776,273.326 C199.776,273.009 199.660,272.752 199.429,272.554 C199.196,272.356 198.803,272.193 198.248,272.065 C197.693,271.936 196.891,271.813 195.843,271.694 C195.238,271.654 194.522,271.555 193.694,271.397 C193.109,271.753 192.671,272.129 192.378,272.525 ZM197.341,258.968 C196.927,258.296 196.398,257.959 195.752,257.959 C195.167,257.959 194.668,258.300 194.254,258.983 C193.841,259.665 193.634,260.510 193.634,261.519 C193.634,262.607 193.851,263.532 194.285,264.293 C194.718,265.054 195.248,265.435 195.873,265.435 C196.498,265.435 197.003,265.089 197.386,264.396 C197.769,263.705 197.961,262.775 197.961,261.608 C197.961,260.521 197.754,259.641 197.341,258.968 ZM188.521,269.677 C187.915,269.677 187.340,269.647 186.796,269.588 C186.150,269.548 185.656,269.529 185.313,269.529 C184.970,269.529 184.476,269.548 183.831,269.588 C183.326,269.647 182.761,269.677 182.136,269.677 C181.995,269.677 181.874,269.637 181.773,269.558 C181.672,269.479 181.622,269.380 181.622,269.262 C181.622,269.005 181.823,268.807 182.227,268.668 C182.610,268.550 182.882,268.421 183.044,268.283 C183.205,268.144 183.286,267.897 183.286,267.541 L183.286,261.638 C183.286,260.886 183.114,260.298 182.772,259.873 C182.428,259.448 181.955,259.225 181.349,259.205 C180.926,259.205 180.542,259.270 180.200,259.398 C179.856,259.527 179.493,259.720 179.110,259.977 C178.949,260.115 178.868,260.303 178.868,260.540 L178.868,267.541 C178.868,267.897 178.949,268.139 179.110,268.268 C179.272,268.397 179.554,268.530 179.958,268.668 C180.361,268.807 180.563,269.005 180.563,269.262 C180.563,269.380 180.512,269.479 180.411,269.558 C180.310,269.637 180.189,269.677 180.048,269.677 C179.443,269.677 178.898,269.647 178.414,269.588 C177.769,269.548 177.285,269.529 176.962,269.529 C176.619,269.529 176.104,269.548 175.419,269.588 C174.874,269.647 174.289,269.677 173.664,269.677 C173.523,269.677 173.386,269.637 173.255,269.558 C173.124,269.479 173.059,269.380 173.059,269.262 C173.059,269.024 173.291,268.827 173.755,268.668 C174.158,268.550 174.451,268.421 174.632,268.283 C174.814,268.144 174.904,267.897 174.904,267.541 L174.904,260.748 C174.904,259.759 174.591,259.205 173.967,259.087 C173.744,259.047 173.634,258.869 173.634,258.553 C173.634,258.276 173.734,258.108 173.936,258.048 C174.642,257.890 175.409,257.673 176.236,257.396 C177.063,257.119 177.749,256.842 178.293,256.565 C178.555,256.407 178.737,256.328 178.838,256.328 C179.020,256.328 179.110,256.446 179.110,256.684 L179.050,257.277 C178.989,257.989 178.959,258.355 178.959,258.375 C178.959,258.632 178.979,258.780 179.020,258.820 C179.766,258.128 180.487,257.614 181.183,257.277 C181.879,256.941 182.670,256.773 183.558,256.773 C184.647,256.773 185.540,257.158 186.236,257.930 C186.932,258.701 187.280,259.729 187.280,261.015 L187.280,267.541 C187.280,267.897 187.371,268.144 187.552,268.283 C187.734,268.421 188.026,268.550 188.430,268.668 C188.833,268.807 189.035,269.005 189.035,269.262 C189.035,269.380 188.984,269.479 188.884,269.558 C188.782,269.637 188.661,269.677 188.521,269.677 ZM170.366,269.588 C169.559,269.548 168.984,269.529 168.641,269.529 C168.298,269.529 167.764,269.548 167.037,269.588 C166.432,269.647 165.827,269.677 165.222,269.677 C165.101,269.677 164.990,269.642 164.889,269.573 C164.788,269.504 164.738,269.410 164.738,269.291 C164.738,268.995 164.919,268.797 165.283,268.698 C165.827,268.579 166.200,268.446 166.402,268.297 C166.603,268.149 166.705,267.917 166.705,267.600 L166.705,261.193 C166.705,260.540 166.603,260.065 166.402,259.769 C166.200,259.472 165.867,259.294 165.404,259.235 C165.283,259.215 165.192,259.156 165.131,259.057 C165.071,258.958 165.040,258.839 165.040,258.701 C165.040,258.582 165.075,258.474 165.146,258.375 C165.217,258.276 165.293,258.216 165.373,258.197 C166.281,258.039 167.083,257.821 167.779,257.544 C168.475,257.267 169.236,256.931 170.063,256.535 C170.346,256.377 170.547,256.298 170.668,256.298 C170.789,256.298 170.885,256.333 170.956,256.402 C171.026,256.471 171.062,256.555 171.062,256.654 L170.941,257.752 C170.759,259.255 170.668,260.343 170.668,261.015 L170.668,267.571 C170.668,267.848 170.769,268.065 170.971,268.223 C171.173,268.382 171.556,268.540 172.121,268.698 C172.302,268.757 172.439,268.827 172.529,268.905 C172.620,268.985 172.665,269.103 172.665,269.262 C172.665,269.519 172.514,269.647 172.212,269.647 C171.788,269.647 171.173,269.627 170.366,269.588 ZM168.550,254.963 C167.905,254.963 167.350,254.736 166.886,254.281 C166.422,253.826 166.190,253.283 166.190,252.649 C166.190,251.977 166.422,251.414 166.886,250.958 C167.350,250.504 167.905,250.276 168.550,250.276 C169.236,250.276 169.816,250.504 170.290,250.958 C170.764,251.414 171.001,251.977 171.001,252.649 C171.001,253.283 170.764,253.826 170.290,254.281 C169.816,254.736 169.236,254.963 168.550,254.963 ZM163.558,269.677 C162.892,269.677 162.337,269.647 161.894,269.588 C161.329,269.548 160.855,269.529 160.471,269.529 C160.068,269.529 159.604,269.548 159.080,269.588 C158.716,269.647 158.212,269.677 157.567,269.677 C157.062,269.677 156.810,269.529 156.810,269.232 C156.810,268.975 157.022,268.787 157.446,268.668 C157.789,268.550 158.051,268.406 158.232,268.238 C158.414,268.070 158.505,267.789 158.505,267.393 L158.505,261.549 C158.505,260.916 158.308,260.372 157.915,259.917 C157.521,259.463 157.072,259.235 156.568,259.235 C155.801,259.235 155.116,259.453 154.511,259.888 C154.349,260.006 154.243,260.140 154.193,260.288 C154.143,260.436 154.117,260.659 154.117,260.955 L154.117,267.452 C154.117,267.808 154.203,268.065 154.375,268.223 C154.546,268.382 154.793,268.520 155.116,268.639 C155.539,268.797 155.751,268.995 155.751,269.232 C155.751,269.529 155.570,269.677 155.207,269.677 C154.622,269.677 154.057,269.647 153.512,269.588 C152.867,269.548 152.382,269.529 152.060,269.529 C151.737,269.529 151.253,269.548 150.607,269.588 C150.063,269.647 149.498,269.677 148.913,269.677 C148.509,269.677 148.308,269.539 148.308,269.262 C148.308,269.123 148.363,269.009 148.474,268.920 C148.585,268.831 148.762,268.748 149.004,268.668 C149.427,268.530 149.719,268.397 149.881,268.268 C150.042,268.139 150.133,267.887 150.154,267.511 L150.154,253.272 C150.154,252.660 150.073,252.175 149.912,251.819 C149.750,251.463 149.437,251.236 148.974,251.136 C148.751,251.097 148.641,250.949 148.641,250.691 C148.641,250.435 148.742,250.286 148.943,250.246 C149.589,250.108 150.381,249.876 151.318,249.549 C152.257,249.223 152.816,249.030 152.998,248.971 L153.573,248.763 C153.714,248.704 153.845,248.674 153.966,248.674 C154.167,248.674 154.269,248.793 154.269,249.030 C154.269,249.169 154.243,249.436 154.193,249.831 C154.143,250.227 154.107,250.642 154.087,251.077 L154.087,257.930 C154.087,258.404 154.148,258.691 154.269,258.790 C154.975,258.197 155.665,257.712 156.341,257.336 C157.017,256.961 157.798,256.773 158.686,256.773 C159.795,256.773 160.703,257.154 161.410,257.915 C162.115,258.676 162.469,259.700 162.469,260.985 L162.469,267.452 C162.469,267.828 162.554,268.090 162.726,268.238 C162.897,268.386 163.174,268.530 163.558,268.668 C163.780,268.728 163.946,268.802 164.057,268.891 C164.168,268.980 164.224,269.103 164.224,269.262 C164.224,269.539 164.001,269.677 163.558,269.677 ZM144.193,267.304 C144.536,267.759 145.010,267.986 145.615,267.986 C146.079,267.986 146.437,267.952 146.689,267.882 C146.941,267.813 147.153,267.739 147.324,267.660 C147.496,267.581 147.602,267.531 147.642,267.511 C147.722,267.472 147.783,267.452 147.824,267.452 C147.924,267.452 148.005,267.507 148.066,267.615 C148.126,267.724 148.157,267.867 148.157,268.045 C148.157,268.184 147.930,268.416 147.476,268.742 C147.022,269.069 146.452,269.361 145.766,269.617 C145.080,269.874 144.384,270.003 143.678,270.003 C142.367,270.003 141.374,269.677 140.698,269.024 C140.022,268.372 139.684,267.432 139.684,266.206 L139.684,259.383 C139.684,259.205 139.613,259.077 139.472,258.998 C139.331,258.919 139.089,258.869 138.746,258.849 L138.353,258.849 C138.232,258.849 138.121,258.741 138.020,258.523 C137.919,258.306 137.869,258.098 137.869,257.900 C137.869,257.762 137.929,257.663 138.050,257.603 C139.059,257.247 140.532,256.239 142.468,254.577 C142.508,254.538 142.579,254.484 142.680,254.414 C142.781,254.345 142.871,254.291 142.952,254.251 C143.033,254.212 143.123,254.192 143.225,254.192 C143.426,254.192 143.557,254.232 143.618,254.311 C143.678,254.390 143.698,254.548 143.678,254.785 L143.497,256.535 L143.497,256.654 C143.497,256.991 143.739,257.158 144.223,257.158 L147.824,257.158 C147.884,257.158 147.945,257.228 148.005,257.366 C148.066,257.505 148.096,257.633 148.096,257.752 C148.096,258.048 148.055,258.320 147.975,258.567 C147.894,258.815 147.803,258.938 147.703,258.938 L144.889,258.938 C144.425,258.938 144.107,258.993 143.936,259.101 C143.764,259.210 143.678,259.403 143.678,259.680 L143.678,265.286 C143.678,266.176 143.849,266.849 144.193,267.304 ZM129.427,261.994 L123.375,261.994 C123.092,261.994 122.886,262.073 122.755,262.231 C122.624,262.390 122.559,262.657 122.559,263.032 C122.559,264.179 122.931,265.143 123.678,265.924 C124.424,266.706 125.362,267.096 126.492,267.096 C127.056,267.096 127.581,266.992 128.065,266.784 C128.550,266.577 129.053,266.276 129.578,265.880 C129.780,265.722 129.921,265.642 130.002,265.642 C130.203,265.642 130.305,265.771 130.305,266.028 C130.305,266.285 130.224,266.582 130.062,266.918 C129.739,267.749 129.109,268.471 128.171,269.084 C127.233,269.696 126.129,270.003 124.858,270.003 C123.789,270.003 122.820,269.721 121.953,269.158 C121.086,268.594 120.405,267.818 119.911,266.829 C119.416,265.840 119.169,264.733 119.169,263.507 C119.169,262.281 119.462,261.153 120.047,260.125 C120.632,259.097 121.434,258.281 122.452,257.677 C123.471,257.075 124.575,256.773 125.766,256.773 C126.613,256.773 127.389,256.951 128.096,257.307 C128.801,257.663 129.356,258.157 129.760,258.790 C130.163,259.423 130.365,260.115 130.365,260.866 C130.365,261.262 130.289,261.549 130.138,261.727 C129.987,261.905 129.749,261.994 129.427,261.994 ZM126.749,258.478 C126.376,258.133 125.917,257.959 125.372,257.959 C124.747,257.959 124.182,258.212 123.678,258.716 C123.173,259.220 122.931,259.759 122.952,260.333 C122.952,260.610 123.092,260.748 123.375,260.748 L125.191,260.748 C125.655,260.748 126.018,260.738 126.280,260.718 C126.542,260.699 126.774,260.659 126.976,260.600 C127.077,260.560 127.158,260.461 127.218,260.303 C127.279,260.145 127.309,259.967 127.309,259.769 C127.309,259.255 127.122,258.825 126.749,258.478 ZM117.475,261.994 L111.423,261.994 C111.141,261.994 110.934,262.073 110.803,262.231 C110.672,262.390 110.606,262.657 110.606,263.032 C110.606,264.179 110.979,265.143 111.726,265.924 C112.472,266.706 113.410,267.096 114.540,267.096 C115.104,267.096 115.629,266.992 116.113,266.784 C116.598,266.577 117.101,266.276 117.626,265.880 C117.828,265.722 117.969,265.642 118.050,265.642 C118.251,265.642 118.353,265.771 118.353,266.028 C118.353,266.285 118.272,266.582 118.111,266.918 C117.788,267.749 117.158,268.471 116.219,269.084 C115.281,269.696 114.177,270.003 112.906,270.003 C111.837,270.003 110.868,269.721 110.002,269.158 C109.134,268.594 108.453,267.818 107.959,266.829 C107.464,265.840 107.218,264.733 107.218,263.507 C107.218,262.281 107.510,261.153 108.095,260.125 C108.680,259.097 109.482,258.281 110.501,257.677 C111.519,257.075 112.623,256.773 113.814,256.773 C114.661,256.773 115.438,256.951 116.144,257.307 C116.850,257.663 117.404,258.157 117.808,258.790 C118.211,259.423 118.413,260.115 118.413,260.866 C118.413,261.262 118.337,261.549 118.186,261.727 C118.035,261.905 117.798,261.994 117.475,261.994 ZM114.797,258.478 C114.424,258.133 113.965,257.959 113.420,257.959 C112.795,257.959 112.230,258.212 111.726,258.716 C111.222,259.220 110.979,259.759 111.000,260.333 C111.000,260.610 111.141,260.748 111.423,260.748 L113.239,260.748 C113.703,260.748 114.066,260.738 114.328,260.718 C114.590,260.699 114.822,260.659 115.024,260.600 C115.125,260.560 115.206,260.461 115.266,260.303 C115.327,260.145 115.357,259.967 115.357,259.769 C115.357,259.255 115.170,258.825 114.797,258.478 ZM101.196,257.870 C102.830,258.839 103.980,259.779 104.646,260.688 C105.311,261.598 105.644,262.716 105.644,264.041 C105.644,266.018 105.004,267.507 103.723,268.505 C102.442,269.504 100.682,270.003 98.443,270.003 C96.607,270.003 95.013,269.588 93.662,268.757 C93.339,268.560 93.127,268.322 93.027,268.045 C92.845,267.531 92.709,266.888 92.618,266.117 C92.528,265.346 92.502,264.555 92.542,263.744 C92.542,263.487 92.744,263.358 93.148,263.358 C93.329,263.358 93.460,263.383 93.541,263.433 C93.622,263.482 93.702,263.576 93.783,263.714 C94.226,265.237 94.892,266.443 95.780,267.333 C96.667,268.223 97.687,268.668 98.836,268.668 C99.724,268.668 100.425,268.377 100.939,267.793 C101.453,267.210 101.711,266.543 101.711,265.791 C101.711,265.178 101.590,264.659 101.348,264.233 C101.105,263.808 100.752,263.423 100.289,263.076 C99.824,262.731 99.149,262.320 98.261,261.845 C97.112,261.213 96.204,260.659 95.538,260.184 C94.872,259.710 94.302,259.097 93.828,258.345 C93.354,257.594 93.118,256.684 93.118,255.616 C93.118,254.489 93.425,253.490 94.040,252.620 C94.656,251.750 95.497,251.077 96.567,250.603 C97.636,250.128 98.836,249.891 100.168,249.891 C100.873,249.891 101.575,249.960 102.271,250.098 C102.966,250.237 103.557,250.405 104.041,250.603 C104.283,250.702 104.459,250.810 104.570,250.929 C104.681,251.048 104.777,251.255 104.857,251.552 C105.099,252.501 105.221,253.658 105.221,255.022 C105.221,255.122 105.170,255.211 105.069,255.289 C104.968,255.369 104.837,255.408 104.676,255.408 C104.494,255.408 104.328,255.364 104.177,255.275 C104.025,255.186 103.929,255.072 103.889,254.934 C103.546,253.747 103.042,252.847 102.376,252.234 C101.711,251.621 100.894,251.314 99.926,251.314 C98.049,251.314 97.112,252.204 97.112,253.984 C97.112,254.617 97.434,255.220 98.080,255.794 C98.725,256.368 99.764,257.060 101.196,257.870 Z"/>
<path fill-rule="evenodd"  fill="rgb(255, 255, 255)"
 d="M265.872,84.468 L261.511,93.196 L282.161,89.992 L305.118,119.379 L278.954,128.107 L278.954,154.291 L246.916,133.985 L239.708,154.291 L212.248,107.687 L212.363,107.755 L212.211,107.625 L212.248,107.687 L165.715,80.247 L186.012,73.036 L165.715,40.988 L191.888,40.988 L200.613,14.815 L229.990,37.783 L226.785,58.436 L235.509,54.074 L244.233,19.177 L257.320,36.626 L292.217,27.901 C292.895,27.732 292.500,28.320 292.500,28.320 L283.314,62.648 L300.757,75.740 L265.872,84.468 ZM205.944,111.058 C203.895,150.727 175.431,155.277 162.693,154.100 C165.730,106.719 205.944,111.058 205.944,111.058 Z"/>
<path fill-rule="evenodd"  fill="rgb(43, 134, 190)"
 d="M132.000,128.000 L312.1000,128.000 L312.1000,174.1000 L132.000,174.1000 L132.000,128.000 Z"/>
<path fill-rule="evenodd"  fill="rgb(139, 34, 90)"
 d="M132.000,105.1000 L312.1000,105.1000 L312.1000,128.000 L132.000,128.000 L132.000,105.1000 Z"/>
<path fill-rule="evenodd"  fill="rgb(164, 40, 23)"
 d="M132.000,83.1000 L312.1000,83.1000 L312.1000,106.000 L132.000,106.000 L132.000,83.1000 Z"/>
<path fill-rule="evenodd"  fill="rgb(217, 125, 30)"
 d="M132.000,62.1000 L312.1000,62.1000 L312.1000,85.000 L132.000,85.000 L132.000,62.1000 Z"/>
<path fill-rule="evenodd"  fill="rgb(255, 190, 0)"
 d="M132.000,40.1000 L312.1000,40.1000 L312.1000,63.000 L132.000,63.000 L132.000,40.1000 Z"/>
<path fill-rule="evenodd"  fill="rgb(21, 173, 65)"
 d="M132.000,-0.000 L312.1000,-0.000 L312.1000,42.000 L132.000,42.000 L132.000,-0.000 Z"/>
<path fill-rule="evenodd"  fill="rgb(255, 255, 255)"
 d="M283.555,180.370 C284.838,180.370 286.019,180.059 287.098,179.438 C288.177,178.816 289.037,177.977 289.679,176.918 C290.320,175.861 290.641,174.702 290.641,173.445 C290.641,172.187 290.324,171.029 289.690,169.971 C289.056,168.913 288.200,168.073 287.121,167.451 C286.041,166.830 284.860,166.519 283.577,166.519 C282.294,166.519 281.113,166.830 280.034,167.451 C278.955,168.073 278.098,168.913 277.464,169.971 C276.830,171.029 276.513,172.187 276.513,173.445 C276.513,174.702 276.830,175.861 277.464,176.918 C278.098,177.977 278.951,178.816 280.023,179.438 C281.094,180.059 282.271,180.370 283.555,180.370 L283.555,180.370 ZM283.555,179.194 C282.513,179.194 281.558,178.935 280.690,178.417 C279.822,177.899 279.132,177.200 278.619,176.319 C278.106,175.439 277.849,174.480 277.849,173.445 C277.849,172.438 278.106,171.502 278.619,170.637 C279.132,169.771 279.826,169.087 280.702,168.584 C281.577,168.081 282.536,167.829 283.577,167.829 C284.619,167.829 285.577,168.081 286.453,168.584 C287.328,169.087 288.022,169.771 288.536,170.637 C289.048,171.502 289.305,172.438 289.305,173.445 C289.305,174.480 289.048,175.439 288.536,176.319 C288.022,177.200 287.328,177.899 286.453,178.417 C285.577,178.935 284.611,179.194 283.555,179.194 L283.555,179.194 ZM286.385,176.929 C286.898,176.929 287.283,176.863 287.539,176.730 C287.796,176.596 287.924,176.427 287.924,176.219 C287.924,176.086 287.871,176.019 287.766,176.019 C287.373,176.019 286.909,175.805 286.373,175.376 C285.837,174.947 285.389,174.303 285.026,173.445 C284.996,173.356 285.003,173.304 285.049,173.289 C285.471,173.097 285.807,172.867 286.056,172.601 C286.306,172.335 286.430,171.980 286.430,171.536 C286.430,170.352 285.449,169.760 283.487,169.760 C283.124,169.760 282.777,169.775 282.445,169.804 C282.173,169.834 281.962,169.849 281.811,169.849 C281.615,169.849 281.366,169.834 281.064,169.804 C280.702,169.775 280.385,169.760 280.113,169.760 C280.053,169.760 280.000,169.779 279.955,169.815 C279.909,169.852 279.887,169.886 279.887,169.915 C279.887,170.063 279.970,170.145 280.136,170.159 C280.408,170.234 280.592,170.319 280.690,170.415 C280.789,170.511 280.838,170.678 280.838,170.914 L280.838,175.664 C280.838,175.886 280.789,176.042 280.690,176.130 C280.592,176.219 280.385,176.301 280.068,176.375 C279.887,176.404 279.796,176.501 279.796,176.663 C279.796,176.722 279.826,176.785 279.887,176.852 C279.947,176.918 280.000,176.952 280.045,176.952 C280.211,176.952 280.521,176.937 280.973,176.907 L281.811,176.885 L282.785,176.907 L283.804,176.952 C283.864,176.952 283.920,176.922 283.974,176.863 C284.026,176.804 284.053,176.737 284.053,176.663 C284.053,176.501 283.962,176.404 283.781,176.375 C283.419,176.286 283.173,176.197 283.045,176.108 C282.917,176.019 282.853,175.872 282.853,175.664 L282.853,173.844 C282.853,173.711 282.898,173.644 282.989,173.644 C283.109,173.644 283.207,173.718 283.283,173.866 C283.675,174.695 284.173,175.413 284.777,176.019 C285.381,176.626 285.917,176.929 286.385,176.929 L286.385,176.929 ZM283.238,172.823 C282.936,172.823 282.785,172.712 282.785,172.490 L282.785,170.981 C282.785,170.848 282.830,170.748 282.921,170.681 C283.011,170.614 283.162,170.581 283.374,170.581 C283.781,170.581 284.079,170.674 284.268,170.859 C284.456,171.044 284.551,171.351 284.551,171.780 C284.551,172.091 284.441,172.342 284.222,172.534 C284.004,172.727 283.675,172.823 283.238,172.823 L283.238,172.823 Z"/>
</svg>