<svg 
 xmlns="http://www.w3.org/2000/svg"
 xmlns:xlink="http://www.w3.org/1999/xlink"
 width="393px" height="272px">
<path fill-rule="evenodd"  fill="rgb(255, 66, 8)"
 d="M374.175,223.780 L374.175,158.455 L392.816,156.513 L392.816,223.780 L374.175,223.780 ZM345.541,158.455 L364.182,156.513 L364.182,223.780 L345.541,223.780 L345.541,158.455 ZM306.589,213.864 C308.253,216.221 310.859,217.400 314.411,217.400 C320.403,217.400 323.399,214.674 323.399,209.217 L338.711,209.495 C338.154,214.304 335.991,218.094 332.220,220.868 C328.447,223.642 321.872,225.029 312.497,225.029 C303.120,225.029 296.296,222.857 292.026,218.510 C287.753,214.165 285.618,207.601 285.618,198.815 C285.618,181.339 294.715,172.602 312.913,172.602 C330.665,172.602 339.543,181.478 339.543,199.231 L339.543,200.895 L304.092,200.895 C304.092,207.184 304.924,211.506 306.589,213.864 ZM321.568,193.267 C321.344,188.738 320.595,185.431 319.321,183.350 C318.044,181.270 315.993,180.230 313.163,180.230 C310.334,180.230 308.279,181.131 307.005,182.934 C305.728,184.737 304.867,188.183 304.425,193.267 L321.568,193.267 ZM248.916,223.780 L242.591,197.844 L235.268,223.780 L214.464,223.780 L202.477,175.188 L183.420,195.625 L204.391,223.780 L184.252,223.780 L171.437,206.859 L156.125,223.780 L145.806,223.780 L167.109,200.895 L146.804,173.850 L167.109,173.850 L178.926,189.384 L193.406,173.850 L202.147,173.850 L203.725,173.850 L220.955,173.850 L229.110,211.714 L238.763,173.850 L255.240,173.850 L263.562,211.991 L273.382,173.850 L283.867,173.850 L269.554,223.780 L248.916,223.780 ZM125.747,217.955 C121.087,222.671 114.871,225.029 107.106,225.029 C101.889,225.029 97.702,223.759 94.540,221.214 C91.378,218.672 89.797,215.229 89.797,210.882 C89.797,206.536 91.627,203.232 95.289,200.965 C98.951,198.700 105.163,196.921 113.930,195.625 L124.249,193.961 L124.249,188.968 C124.249,183.142 121.752,180.230 116.759,180.230 C111.210,180.230 108.214,183.975 107.772,191.464 L92.460,189.939 C93.126,184.022 95.289,179.653 98.951,176.832 C102.612,174.012 108.713,172.602 117.259,172.602 C134.235,172.602 142.723,178.381 142.723,189.939 L142.723,223.780 L130.407,223.780 L125.747,217.955 ZM124.249,200.202 L116.759,201.450 C109.769,202.746 106.274,205.750 106.274,210.466 C106.274,214.813 109.103,216.984 114.762,216.984 C117.758,216.984 120.920,215.506 124.249,212.546 L124.249,200.202 ZM61.416,172.602 L45.605,223.780 L29.294,223.780 L13.316,170.660 L12.318,223.780 L0.834,223.780 L2.997,159.980 L26.798,159.980 L40.112,205.472 L53.927,159.980 L79.225,159.980 L81.388,223.780 L62.581,223.780 L61.416,172.602 Z"/>
<path fill-rule="evenodd"  fill="rgb(244, 241, 231)"
 d="M334.049,248.101 C332.057,248.101 331.062,248.632 331.062,249.694 C331.062,250.325 331.420,250.831 332.137,251.213 C332.854,251.595 333.909,251.952 335.304,252.283 L337.096,252.831 C339.167,253.329 340.740,254.009 341.816,254.872 C342.891,255.736 343.429,257.005 343.429,258.681 C343.429,260.357 342.602,261.693 340.950,262.689 C339.297,263.685 337.056,264.182 334.228,264.182 C331.400,264.182 329.259,263.693 327.806,262.714 C326.351,261.735 325.446,260.283 325.087,258.357 L330.584,257.710 C330.703,258.872 331.122,259.785 331.839,260.448 C332.555,261.113 333.491,261.444 334.647,261.444 C336.757,261.444 337.813,260.889 337.813,259.776 C337.813,258.665 336.299,257.760 333.272,257.063 L331.361,256.565 C329.368,256.100 327.885,255.428 326.909,254.548 C325.933,253.669 325.446,252.391 325.446,250.715 C325.446,249.039 326.252,247.727 327.865,246.782 C329.479,245.835 331.639,245.362 334.348,245.362 C337.056,245.362 339.127,245.844 340.561,246.806 C341.995,247.770 342.891,249.196 343.250,251.088 L337.693,251.686 C337.455,249.296 336.239,248.101 334.049,248.101 ZM315.736,251.038 C315.736,249.346 314.740,248.499 312.749,248.499 C311.633,248.499 310.538,248.765 309.462,249.296 C309.621,250.092 309.701,250.707 309.701,251.138 L309.701,263.734 L303.070,263.734 L303.070,251.038 C303.070,249.346 302.093,248.499 300.142,248.499 C299.026,248.499 297.970,248.732 296.975,249.196 L296.975,263.734 L290.284,263.734 L290.284,245.811 L293.331,245.811 L295.541,247.404 C297.970,246.043 300.401,245.362 302.831,245.362 C305.260,245.362 307.112,246.027 308.387,247.354 C310.657,246.027 312.977,245.362 315.347,245.362 C317.717,245.362 319.489,245.902 320.665,246.981 C321.839,248.060 322.427,249.445 322.427,251.138 L322.427,263.734 L315.736,263.734 L315.736,251.038 ZM274.958,260.175 C275.556,261.021 276.491,261.444 277.766,261.444 C279.917,261.444 280.992,260.465 280.992,258.507 L286.489,258.606 C286.289,260.332 285.512,261.693 284.159,262.689 C282.804,263.685 280.444,264.182 277.079,264.182 C273.712,264.182 271.263,263.403 269.730,261.843 C268.196,260.283 267.430,257.926 267.430,254.773 C267.430,248.499 270.695,245.362 277.228,245.362 C283.601,245.362 286.788,248.549 286.788,254.922 L286.788,255.519 L274.062,255.519 C274.062,257.777 274.360,259.328 274.958,260.175 ZM280.335,252.781 C280.255,251.155 279.986,249.968 279.528,249.221 C279.070,248.474 278.334,248.101 277.318,248.101 C276.302,248.101 275.565,248.425 275.107,249.072 C274.649,249.719 274.340,250.956 274.181,252.781 L280.335,252.781 ZM262.679,259.403 C262.679,260.565 263.196,261.145 264.232,261.145 C264.869,261.145 265.666,260.963 266.622,260.598 L267.518,263.087 C265.885,263.817 264.062,264.182 262.051,264.182 C260.040,264.182 258.497,263.734 257.421,262.838 C256.465,262.042 255.987,260.532 255.987,258.307 L255.987,248.649 L252.761,248.649 L252.761,245.811 L255.987,245.811 L255.987,243.371 L262.679,241.479 L262.679,245.811 L266.742,245.811 L266.742,248.649 L262.679,248.649 L262.679,259.403 ZM244.186,252.283 L245.979,252.831 C248.049,253.329 249.623,254.009 250.699,254.872 C251.774,255.736 252.312,257.005 252.312,258.681 C252.312,260.357 251.485,261.693 249.832,262.689 C248.179,263.685 245.938,264.182 243.111,264.182 C240.282,264.182 238.142,263.693 236.688,262.714 C235.234,261.735 234.328,260.283 233.970,258.357 L239.466,257.710 C239.586,258.872 240.004,259.785 240.721,260.448 C241.438,261.113 242.373,261.444 243.529,261.444 C245.640,261.444 246.696,260.889 246.696,259.776 C246.696,258.665 245.181,257.760 242.155,257.063 L240.243,256.565 C238.251,256.100 236.767,255.428 235.792,254.548 C234.816,253.669 234.328,252.391 234.328,250.715 C234.328,249.039 235.135,247.727 236.748,246.782 C238.361,245.835 240.521,245.362 243.231,245.362 C245.938,245.362 248.010,245.844 249.444,246.806 C250.878,247.770 251.774,249.196 252.133,251.088 L246.576,251.686 C246.337,249.296 245.122,248.101 242.932,248.101 C240.939,248.101 239.944,248.632 239.944,249.694 C239.944,250.325 240.303,250.831 241.020,251.213 C241.737,251.595 242.792,251.952 244.186,252.283 ZM218.883,270.854 L222.766,264.332 L213.266,245.811 L219.898,245.811 L225.634,257.511 L230.175,245.811 L233.999,245.811 L223.782,271.302 L218.883,270.854 ZM206.365,244.068 C205.528,243.106 204.393,242.624 202.959,242.624 C201.525,242.624 200.410,242.940 199.613,243.570 C198.816,244.201 198.418,245.039 198.418,246.084 C198.418,247.130 198.777,247.885 199.494,248.350 C200.211,248.815 201.645,249.263 203.796,249.694 L206.066,250.192 C208.654,250.690 210.507,251.479 211.622,252.557 C212.737,253.636 213.295,255.246 213.295,257.386 C213.295,259.527 212.418,261.195 210.666,262.390 C208.913,263.585 206.374,264.182 203.049,264.182 C199.723,264.182 197.203,263.602 195.491,262.440 C193.778,261.279 192.762,259.486 192.444,257.063 L197.821,256.366 C198.139,260.084 199.872,261.942 203.019,261.942 C204.532,261.942 205.717,261.627 206.574,260.996 C207.430,260.366 207.858,259.520 207.858,258.457 C207.858,257.395 207.479,256.640 206.723,256.191 C205.966,255.743 204.453,255.304 202.182,254.872 L200.211,254.524 C197.661,254.059 195.829,253.279 194.714,252.184 C193.599,251.088 193.041,249.495 193.041,247.404 C193.041,242.724 196.347,240.384 202.959,240.384 C206.066,240.384 208.446,240.965 210.099,242.126 C211.751,243.289 212.757,245.081 213.116,247.503 L207.739,248.151 C207.659,246.392 207.201,245.031 206.365,244.068 ZM174.159,240.284 L180.851,239.587 L180.851,263.734 L174.159,263.734 L174.159,240.284 ZM160.417,264.182 C153.625,264.182 150.230,261.046 150.230,254.773 C150.230,248.499 153.625,245.362 160.417,245.362 C167.207,245.362 170.603,248.499 170.603,254.773 C170.603,261.046 167.207,264.182 160.417,264.182 ZM163.912,254.773 C163.912,252.416 163.682,250.715 163.224,249.669 C162.766,248.624 161.830,248.101 160.417,248.101 C159.002,248.101 158.056,248.632 157.578,249.694 C157.101,250.757 156.861,252.450 156.861,254.773 C156.861,257.096 157.101,258.789 157.578,259.851 C158.056,260.914 159.002,261.444 160.417,261.444 C161.830,261.444 162.766,260.921 163.224,259.876 C163.682,258.830 163.912,257.130 163.912,254.773 ZM145.389,250.341 C144.532,250.839 144.105,251.603 144.105,252.632 L144.105,263.734 L137.413,263.734 L137.413,245.811 L140.460,245.811 L143.149,248.947 C144.781,246.757 147.052,245.661 149.959,245.661 L149.959,249.594 C147.768,249.594 146.245,249.843 145.389,250.341 ZM132.901,261.145 C133.538,261.145 134.335,260.963 135.291,260.598 L136.187,263.087 C134.553,263.817 132.731,264.182 130.720,264.182 C128.708,264.182 127.165,263.734 126.090,262.838 C125.134,262.042 124.656,260.532 124.656,258.307 L124.656,248.649 L121.430,248.649 L121.430,245.811 L124.656,245.811 L124.656,243.371 L131.348,241.479 L131.348,245.811 L135.410,245.811 L135.410,248.649 L131.348,248.649 L131.348,259.403 C131.348,260.565 131.865,261.145 132.901,261.145 ZM112.915,251.835 C112.915,250.673 112.736,249.827 112.377,249.296 C112.019,248.765 111.291,248.499 110.196,248.499 C109.100,248.499 107.995,248.815 106.880,249.445 L106.880,263.734 L100.189,263.734 L100.189,245.811 L103.236,245.811 L105.447,247.404 C107.876,246.043 110.265,245.362 112.616,245.362 C114.966,245.362 116.709,245.902 117.844,246.981 C118.979,248.060 119.547,249.445 119.547,251.138 L119.547,263.734 L112.915,263.734 L112.915,251.835 ZM86.446,264.182 C79.654,264.182 76.259,261.046 76.259,254.773 C76.259,248.499 79.654,245.362 86.446,245.362 C93.237,245.362 96.633,248.499 96.633,254.773 C96.633,261.046 93.237,264.182 86.446,264.182 ZM89.941,254.773 C89.941,252.416 89.711,250.715 89.254,249.669 C88.796,248.624 87.859,248.101 86.446,248.101 C85.032,248.101 84.086,248.632 83.608,249.694 C83.130,250.757 82.891,252.450 82.891,254.773 C82.891,257.096 83.130,258.789 83.608,259.851 C84.086,260.914 85.032,261.444 86.446,261.444 C87.859,261.444 88.796,260.921 89.254,259.876 C89.711,258.830 89.941,257.130 89.941,254.773 ZM65.683,261.843 C67.416,261.843 68.590,261.345 69.208,260.349 C69.825,259.353 70.134,257.859 70.134,255.868 L75.571,256.067 C75.332,258.822 74.555,260.864 73.241,262.191 C71.926,263.519 69.277,264.182 65.295,264.182 C61.311,264.182 58.463,263.220 56.751,261.295 C55.038,259.370 54.182,256.366 54.182,252.283 C54.182,248.200 55.038,245.197 56.751,243.271 C58.463,241.347 61.510,240.384 65.892,240.384 C69.238,240.384 71.607,240.940 73.002,242.051 C74.396,243.164 75.232,244.832 75.511,247.055 L70.134,247.752 C69.974,246.060 69.586,244.798 68.969,243.968 C68.351,243.139 67.216,242.724 65.564,242.724 C63.910,242.724 62.726,243.429 62.009,244.840 C61.292,246.251 60.933,248.723 60.933,252.258 C60.933,255.793 61.292,258.275 62.009,259.702 C62.726,261.129 63.950,261.843 65.683,261.843 Z"/>
<path fill-rule="evenodd"  fill="rgb(255, 66, 8)"
 d="M241.034,111.1000 C241.034,111.1000 173.945,111.1000 161.1000,111.1000 C150.055,111.1000 150.1000,100.1000 150.1000,100.1000 L150.966,-0.000 C150.966,-0.000 218.055,-0.000 229.1000,-0.000 C241.944,-0.000 240.1000,10.1000 240.1000,10.1000 L241.034,111.1000 ZM205.1000,32.1000 L186.1000,35.1000 L186.1000,99.1000 L205.1000,99.1000 L205.1000,32.1000 ZM231.1000,32.1000 L212.1000,35.1000 L212.1000,99.1000 L231.1000,99.1000 L231.1000,32.1000 Z"/>
<path fill-rule="evenodd"  fill="rgb(255, 66, 8)"
 d="M251.560,112.371 C252.580,112.371 253.519,112.124 254.378,111.629 C255.236,111.135 255.921,110.467 256.431,109.625 C256.941,108.784 257.196,107.863 257.196,106.862 C257.196,105.862 256.944,104.941 256.440,104.099 C255.936,103.257 255.254,102.589 254.396,102.095 C253.537,101.600 252.598,101.353 251.577,101.353 C250.557,101.353 249.617,101.600 248.759,102.095 C247.900,102.589 247.219,103.257 246.715,104.099 C246.211,104.941 245.958,105.862 245.958,106.862 C245.958,107.863 246.211,108.784 246.715,109.625 C247.219,110.467 247.897,111.135 248.750,111.629 C249.602,112.124 250.539,112.371 251.560,112.371 L251.560,112.371 ZM251.560,111.435 C250.731,111.435 249.971,111.229 249.281,110.817 C248.591,110.405 248.041,109.849 247.633,109.149 C247.225,108.448 247.021,107.686 247.021,106.862 C247.021,106.062 247.225,105.317 247.633,104.629 C248.041,103.940 248.594,103.396 249.290,102.995 C249.986,102.595 250.749,102.395 251.577,102.395 C252.406,102.395 253.168,102.595 253.865,102.995 C254.561,103.396 255.113,103.940 255.521,104.629 C255.929,105.317 256.134,106.062 256.134,106.862 C256.134,107.686 255.929,108.448 255.521,109.149 C255.113,109.849 254.561,110.405 253.865,110.817 C253.168,111.229 252.400,111.435 251.560,111.435 L251.560,111.435 ZM253.811,109.634 C254.219,109.634 254.525,109.581 254.729,109.475 C254.933,109.369 255.035,109.234 255.035,109.069 C255.035,108.963 254.993,108.910 254.909,108.910 C254.597,108.910 254.228,108.740 253.801,108.398 C253.375,108.057 253.018,107.545 252.730,106.862 C252.706,106.791 252.712,106.750 252.748,106.738 C253.084,106.586 253.351,106.403 253.549,106.191 C253.748,105.979 253.847,105.697 253.847,105.344 C253.847,104.402 253.066,103.931 251.505,103.931 C251.217,103.931 250.941,103.943 250.677,103.967 C250.461,103.990 250.293,104.002 250.173,104.002 C250.016,104.002 249.818,103.990 249.578,103.967 C249.290,103.943 249.038,103.931 248.822,103.931 C248.774,103.931 248.732,103.946 248.696,103.975 C248.660,104.005 248.642,104.031 248.642,104.055 C248.642,104.173 248.708,104.237 248.840,104.249 C249.056,104.308 249.203,104.376 249.281,104.452 C249.359,104.529 249.398,104.661 249.398,104.849 L249.398,108.628 C249.398,108.804 249.359,108.928 249.281,108.999 C249.203,109.069 249.038,109.134 248.786,109.193 C248.642,109.216 248.570,109.293 248.570,109.422 C248.570,109.470 248.594,109.519 248.642,109.572 C248.690,109.625 248.732,109.652 248.768,109.652 C248.900,109.652 249.146,109.640 249.506,109.617 L250.173,109.599 L250.947,109.617 L251.758,109.652 C251.805,109.652 251.850,109.628 251.893,109.581 C251.934,109.534 251.956,109.481 251.956,109.422 C251.956,109.293 251.883,109.216 251.739,109.193 C251.451,109.122 251.256,109.052 251.154,108.981 C251.052,108.910 251.001,108.793 251.001,108.628 L251.001,107.180 C251.001,107.074 251.037,107.021 251.109,107.021 C251.205,107.021 251.283,107.080 251.343,107.198 C251.655,107.857 252.052,108.428 252.532,108.910 C253.012,109.393 253.438,109.634 253.811,109.634 L253.811,109.634 ZM251.307,106.368 C251.067,106.368 250.947,106.279 250.947,106.103 L250.947,104.902 C250.947,104.796 250.983,104.717 251.055,104.664 C251.127,104.611 251.247,104.584 251.415,104.584 C251.739,104.584 251.976,104.658 252.127,104.805 C252.277,104.952 252.352,105.197 252.352,105.538 C252.352,105.785 252.264,105.985 252.091,106.138 C251.917,106.291 251.655,106.368 251.307,106.368 L251.307,106.368 Z"/>
</svg>