<svg 
 xmlns="http://www.w3.org/2000/svg"
 xmlns:xlink="http://www.w3.org/1999/xlink"
 width="500px" height="95px">
<path fill-rule="evenodd"  fill="rgb(255, 66, 8)"
 d="M498.808,63.439 L487.888,63.439 L485.549,70.369 C487.349,68.839 489.418,68.569 491.458,68.569 C492.868,68.569 494.578,68.689 495.958,69.499 C498.238,70.819 498.628,73.189 498.628,74.599 C498.628,77.029 497.398,79.309 495.778,80.719 C493.468,82.698 490.799,82.879 488.788,82.879 C485.909,82.879 484.439,82.339 483.569,81.768 C481.499,80.389 481.409,78.049 481.409,77.209 L481.409,76.999 L484.049,76.999 L484.049,77.329 C484.049,78.589 484.679,79.399 485.369,79.909 C486.419,80.659 487.919,80.779 488.879,80.779 C490.198,80.779 491.968,80.659 493.498,79.519 C494.638,78.649 495.838,77.029 495.838,74.749 C495.838,73.309 495.358,72.439 494.878,71.929 C493.738,70.729 491.698,70.669 490.678,70.669 C487.799,70.669 486.329,71.419 485.249,72.469 L482.729,72.469 L486.329,61.279 L499.288,61.279 L498.808,63.439 ZM476.458,80.599 C474.299,82.549 471.779,82.879 469.709,82.879 C468.778,82.879 466.079,82.789 464.579,81.558 C463.739,80.869 462.869,79.519 463.019,77.599 L465.629,77.599 C465.599,78.739 466.139,79.609 466.679,80.029 C467.579,80.779 468.988,80.779 469.768,80.779 C471.389,80.779 473.068,80.569 474.658,79.219 C476.818,77.359 477.748,73.819 478.018,71.569 C477.298,72.589 476.398,73.369 475.198,73.939 C473.608,74.719 472.169,74.809 470.848,74.809 C469.379,74.809 467.579,74.689 466.019,73.519 C464.489,72.379 463.919,70.819 463.919,68.929 C463.919,66.319 465.119,64.069 466.829,62.629 C468.988,60.799 470.238,60.679 472.278,60.679 C474.228,60.679 477.538,60.859 479.248,62.809 C480.658,64.429 480.868,66.439 480.868,68.029 C480.868,69.949 480.628,72.049 479.968,74.329 C479.398,76.339 478.378,78.889 476.458,80.599 ZM477.118,64.159 C476.008,62.959 474.478,62.719 473.098,62.719 C471.658,62.719 470.038,62.959 468.659,64.159 C467.399,65.239 466.649,66.949 466.649,68.659 C466.649,70.009 467.159,71.119 467.849,71.749 C468.869,72.679 470.519,72.799 471.658,72.799 C473.039,72.799 474.478,72.559 475.888,71.539 C477.418,70.399 478.108,68.869 478.108,66.859 C478.108,65.959 477.928,65.029 477.118,64.159 ZM457.858,80.599 C455.698,82.549 453.178,82.879 451.109,82.879 C450.179,82.879 447.479,82.789 445.979,81.558 C445.139,80.869 444.269,79.519 444.419,77.599 L447.029,77.599 C446.999,78.739 447.539,79.609 448.079,80.029 C448.978,80.779 450.389,80.779 451.169,80.779 C452.789,80.779 454.469,80.569 456.058,79.219 C458.218,77.359 459.148,73.819 459.418,71.569 C458.698,72.589 457.798,73.369 456.598,73.939 C455.008,74.719 453.568,74.809 452.249,74.809 C450.779,74.809 448.978,74.689 447.419,73.519 C445.889,72.379 445.319,70.819 445.319,68.929 C445.319,66.319 446.519,64.069 448.229,62.629 C450.389,60.799 451.639,60.679 453.679,60.679 C455.628,60.679 458.938,60.859 460.648,62.809 C462.058,64.429 462.268,66.439 462.268,68.029 C462.268,69.949 462.028,72.049 461.368,74.329 C460.798,76.339 459.778,78.889 457.858,80.599 ZM458.518,64.159 C457.408,62.959 455.878,62.719 454.499,62.719 C453.058,62.719 451.438,62.959 450.059,64.159 C448.799,65.239 448.049,66.949 448.049,68.659 C448.049,70.009 448.558,71.119 449.249,71.749 C450.269,72.679 451.918,72.799 453.058,72.799 C454.438,72.799 455.878,72.559 457.288,71.539 C458.818,70.399 459.508,68.869 459.508,66.859 C459.508,65.959 459.328,65.029 458.518,64.159 ZM432.239,82.278 L435.658,66.199 L430.919,66.199 L431.189,64.879 L431.579,64.879 C433.139,64.879 434.759,64.519 435.868,63.649 C436.618,63.049 436.278,62.059 436.638,61.279 L438.348,61.279 L434.879,82.278 L432.239,82.278 ZM404.699,75.139 C404.669,76.729 404.879,78.409 406.019,79.639 C407.279,80.989 409.019,81.138 410.368,81.138 C411.329,81.138 412.799,81.049 414.058,80.329 C415.228,79.669 415.798,78.769 416.068,77.749 L418.528,77.749 C418.138,79.459 417.028,81.319 414.658,82.219 C413.218,82.759 411.568,82.879 410.039,82.879 C408.179,82.879 406.259,82.669 404.639,81.379 C403.229,80.269 402.179,78.469 402.179,75.649 C402.179,72.469 403.499,70.069 405.059,68.659 C407.099,66.829 409.528,66.439 411.838,66.439 C413.728,66.439 416.248,66.619 417.898,68.509 C418.978,69.769 419.428,71.539 419.428,73.099 C419.428,73.789 419.308,74.599 419.218,75.139 L404.699,75.139 ZM415.768,69.499 C414.688,68.389 413.038,68.179 411.868,68.179 C410.489,68.179 408.688,68.359 407.129,69.709 C406.229,70.489 405.299,71.779 404.969,73.519 L416.938,73.519 C417.088,71.959 416.608,70.369 415.768,69.499 ZM398.578,69.349 C397.498,68.269 395.878,68.179 394.918,68.179 C393.209,68.179 391.408,68.479 389.939,69.829 C388.889,70.789 387.749,72.529 387.749,75.619 C387.749,76.729 387.899,78.439 389.099,79.669 C390.329,80.959 392.069,81.138 393.358,81.138 C394.348,81.138 395.729,81.049 396.838,80.419 C398.338,79.579 398.848,78.049 399.028,76.939 L401.428,76.939 C401.248,78.649 400.438,80.179 399.418,81.109 C397.678,82.698 395.038,82.879 392.969,82.879 C391.258,82.879 389.279,82.728 387.599,81.379 C386.519,80.509 385.169,78.859 385.169,75.709 C385.169,72.919 386.159,70.339 388.019,68.659 C390.119,66.739 392.549,66.439 395.008,66.439 C396.508,66.439 398.458,66.529 400.018,67.759 C400.768,68.359 401.878,69.559 401.998,71.629 L399.598,71.629 C399.538,70.639 399.088,69.829 398.578,69.349 ZM381.568,82.278 L379.048,82.278 L381.028,73.009 C381.148,72.409 381.298,71.359 381.298,70.819 C381.298,70.189 381.178,69.439 380.368,68.839 C379.588,68.269 378.568,68.179 377.848,68.179 C376.078,68.179 374.758,68.659 373.649,69.589 C371.909,71.029 371.219,73.399 370.979,74.479 L369.329,82.278 L366.809,82.278 L370.049,67.039 L372.569,67.039 L372.089,69.229 C372.749,68.449 373.589,67.729 374.758,67.189 C376.078,66.589 377.248,66.439 378.508,66.439 C379.798,66.439 381.448,66.589 382.648,67.519 C383.788,68.389 383.968,69.499 383.968,70.339 C383.968,70.489 383.938,71.059 383.758,71.959 L381.568,82.278 ZM364.369,61.219 L367.069,61.219 L367.529,63.739 L364.829,63.739 L364.369,61.219 ZM363.509,82.278 L360.989,82.278 L364.229,67.039 L366.749,67.039 L363.509,82.278 ZM358.258,70.999 C358.378,70.279 358.288,69.109 356.969,68.539 C356.218,68.239 354.958,68.149 354.118,68.149 C353.518,68.149 352.049,68.209 350.969,68.749 C349.649,69.409 349.379,70.399 349.379,71.239 C349.379,71.629 349.499,72.169 350.069,72.589 C350.519,72.919 351.209,73.099 352.589,73.369 C353.609,73.549 354.958,73.759 356.038,73.999 C357.628,74.329 358.498,74.689 359.068,75.199 C359.878,75.949 360.028,76.969 360.028,77.599 C360.028,79.729 359.008,81.019 357.748,81.768 C356.398,82.579 354.568,82.879 352.169,82.879 C349.169,82.879 347.849,82.398 347.099,81.858 C345.569,80.749 345.479,79.069 345.479,78.169 L345.479,77.839 L347.909,77.839 L347.909,78.169 C347.909,78.859 348.059,79.849 349.049,80.509 C349.499,80.809 350.339,81.138 352.379,81.138 C354.209,81.138 355.139,80.869 355.768,80.599 C356.998,80.029 357.508,79.099 357.508,77.809 C357.508,77.299 357.389,76.759 356.818,76.339 C356.278,75.949 355.469,75.859 353.728,75.529 L351.779,75.169 C349.559,74.749 348.539,74.359 347.909,73.789 C347.069,73.039 346.919,72.139 346.919,71.629 C346.919,70.249 347.489,68.479 349.499,67.429 C350.459,66.919 352.018,66.439 354.748,66.439 C356.878,66.439 358.138,66.769 358.978,67.189 C360.598,68.029 360.808,69.409 360.808,70.129 C360.808,70.339 360.748,70.759 360.718,70.999 L358.258,70.999 ZM337.678,82.278 L335.158,82.278 L337.198,72.679 C337.258,72.319 337.408,71.359 337.408,71.059 C337.408,70.459 337.288,69.739 336.898,69.229 C336.508,68.749 335.728,68.179 334.108,68.179 C332.668,68.179 331.438,68.599 330.358,69.529 C329.518,70.249 328.618,71.419 328.228,73.339 L326.338,82.278 L323.818,82.278 L325.858,72.649 C325.978,72.109 326.068,71.749 326.068,71.059 C326.068,70.489 326.038,69.889 325.588,69.289 C324.838,68.299 323.698,68.179 322.888,68.179 C321.478,68.179 320.188,68.569 319.079,69.589 C318.029,70.519 317.189,71.989 316.799,73.849 L314.999,82.278 L312.479,82.278 L315.719,67.039 L318.148,67.039 L317.669,69.229 C318.269,68.509 319.109,67.759 320.069,67.249 C321.298,66.589 322.409,66.439 323.698,66.439 C324.719,66.439 326.008,66.559 326.968,67.219 C327.568,67.639 328.228,68.359 328.498,69.469 C329.188,68.659 330.118,67.879 331.108,67.339 C332.428,66.619 333.598,66.439 335.098,66.439 C336.148,66.439 338.068,66.529 339.208,67.909 C339.748,68.569 340.048,69.559 340.048,70.579 C340.048,71.329 339.898,71.929 339.748,72.559 L337.678,82.278 ZM297.329,75.139 C297.299,76.729 297.509,78.409 298.649,79.639 C299.909,80.989 301.648,81.138 302.999,81.138 C303.958,81.138 305.428,81.049 306.688,80.329 C307.858,79.669 308.428,78.769 308.698,77.749 L311.158,77.749 C310.768,79.459 309.658,81.319 307.288,82.219 C305.848,82.759 304.198,82.879 302.669,82.879 C300.809,82.879 298.889,82.669 297.269,81.379 C295.859,80.269 294.809,78.469 294.809,75.649 C294.809,72.469 296.129,70.069 297.689,68.659 C299.729,66.829 302.159,66.439 304.469,66.439 C306.358,66.439 308.878,66.619 310.528,68.509 C311.608,69.769 312.058,71.539 312.058,73.099 C312.058,73.789 311.938,74.599 311.848,75.139 L297.329,75.139 ZM308.398,69.499 C307.318,68.389 305.668,68.179 304.499,68.179 C303.118,68.179 301.319,68.359 299.759,69.709 C298.859,70.489 297.929,71.779 297.599,73.519 L309.568,73.519 C309.718,71.959 309.238,70.369 308.398,69.499 ZM292.289,68.839 L290.159,78.949 C289.979,79.819 289.769,80.959 291.568,80.959 C292.079,80.959 292.739,80.869 293.549,80.569 L293.189,82.278 C292.109,82.669 291.358,82.698 290.519,82.698 C289.499,82.698 287.429,82.818 287.429,80.539 C287.429,80.299 287.459,79.819 287.639,78.919 L289.769,68.839 L286.439,68.839 L286.829,67.039 L290.159,67.039 L290.118,62.479 L292.638,62.479 L292.679,67.039 L296.338,67.039 L295.948,68.839 L292.289,68.839 ZM283.048,70.999 C283.168,70.279 283.078,69.109 281.759,68.539 C281.008,68.239 279.748,68.149 278.908,68.149 C278.308,68.149 276.839,68.209 275.759,68.749 C274.439,69.409 274.169,70.399 274.169,71.239 C274.169,71.629 274.289,72.169 274.859,72.589 C275.309,72.919 275.999,73.099 277.379,73.369 C278.399,73.549 279.748,73.759 280.828,73.999 C282.418,74.329 283.288,74.689 283.858,75.199 C284.668,75.949 284.818,76.969 284.818,77.599 C284.818,79.729 283.798,81.019 282.538,81.768 C281.188,82.579 279.358,82.879 276.959,82.879 C273.959,82.879 272.639,82.398 271.889,81.858 C270.359,80.749 270.269,79.069 270.269,78.169 L270.269,77.839 L272.699,77.839 L272.699,78.169 C272.699,78.859 272.849,79.849 273.839,80.509 C274.289,80.809 275.129,81.138 277.169,81.138 C278.999,81.138 279.929,80.869 280.558,80.599 C281.788,80.029 282.298,79.099 282.298,77.809 C282.298,77.299 282.179,76.759 281.608,76.339 C281.068,75.949 280.259,75.859 278.518,75.529 L276.569,75.169 C274.349,74.749 273.329,74.359 272.699,73.789 C271.859,73.039 271.709,72.139 271.709,71.629 C271.709,70.249 272.279,68.479 274.289,67.429 C275.249,66.919 276.808,66.439 279.538,66.439 C281.668,66.439 282.928,66.769 283.768,67.189 C285.388,68.029 285.598,69.409 285.598,70.129 C285.598,70.339 285.538,70.759 285.508,70.999 L283.048,70.999 ZM260.009,86.958 C258.899,87.828 257.729,87.978 256.799,87.978 C256.079,87.978 255.539,87.918 254.879,87.678 L255.239,85.968 C255.659,86.148 256.139,86.238 256.739,86.238 C257.399,86.238 257.999,86.118 258.599,85.668 C259.289,85.158 259.919,84.108 260.189,83.629 L261.058,82.068 L257.549,67.039 L260.099,67.039 L262.859,79.879 L270.838,67.039 L273.238,67.039 L262.169,84.228 C261.478,85.308 260.789,86.328 260.009,86.958 ZM253.738,70.999 C253.858,70.279 253.768,69.109 252.449,68.539 C251.698,68.239 250.438,68.149 249.598,68.149 C248.999,68.149 247.529,68.209 246.449,68.749 C245.129,69.409 244.859,70.399 244.859,71.239 C244.859,71.629 244.979,72.169 245.549,72.589 C245.999,72.919 246.689,73.099 248.069,73.369 C249.089,73.549 250.438,73.759 251.518,73.999 C253.108,74.329 253.978,74.689 254.548,75.199 C255.358,75.949 255.508,76.969 255.508,77.599 C255.508,79.729 254.488,81.019 253.228,81.768 C251.878,82.579 250.048,82.879 247.649,82.879 C244.649,82.879 243.329,82.398 242.579,81.858 C241.049,80.749 240.959,79.069 240.959,78.169 L240.959,77.839 L243.389,77.839 L243.389,78.169 C243.389,78.859 243.539,79.849 244.529,80.509 C244.979,80.809 245.819,81.138 247.859,81.138 C249.689,81.138 250.619,80.869 251.249,80.599 C252.478,80.029 252.988,79.099 252.988,77.809 C252.988,77.299 252.869,76.759 252.298,76.339 C251.758,75.949 250.948,75.859 249.209,75.529 L247.259,75.169 C245.039,74.749 244.019,74.359 243.389,73.789 C242.549,73.039 242.399,72.139 242.399,71.629 C242.399,70.249 242.969,68.479 244.979,67.429 C245.939,66.919 247.499,66.439 250.228,66.439 C252.358,66.439 253.618,66.769 254.458,67.189 C256.078,68.029 256.288,69.409 256.288,70.129 C256.288,70.339 256.228,70.759 256.198,70.999 L253.738,70.999 ZM220.919,75.139 C220.889,76.729 221.099,78.409 222.239,79.639 C223.499,80.989 225.238,81.138 226.588,81.138 C227.548,81.138 229.018,81.049 230.278,80.329 C231.448,79.669 232.018,78.769 232.288,77.749 L234.748,77.749 C234.358,79.459 233.248,81.319 230.878,82.219 C229.438,82.759 227.789,82.879 226.258,82.879 C224.398,82.879 222.479,82.669 220.859,81.379 C219.449,80.269 218.399,78.469 218.399,75.649 C218.399,72.469 219.719,70.069 221.279,68.659 C223.319,66.829 225.749,66.439 228.058,66.439 C229.948,66.439 232.468,66.619 234.118,68.509 C235.198,69.769 235.648,71.539 235.648,73.099 C235.648,73.789 235.528,74.599 235.438,75.139 L220.919,75.139 ZM231.988,69.499 C230.908,68.389 229.258,68.179 228.088,68.179 C226.708,68.179 224.909,68.359 223.348,69.709 C222.449,70.489 221.519,71.779 221.189,73.519 L233.158,73.519 C233.308,71.959 232.828,70.369 231.988,69.499 ZM214.798,82.278 L212.278,82.278 L214.258,73.009 C214.378,72.409 214.528,71.359 214.528,70.819 C214.528,70.189 214.408,69.439 213.598,68.839 C212.818,68.269 211.799,68.179 211.078,68.179 C209.398,68.179 208.049,68.659 206.939,69.589 C205.199,71.029 204.509,73.399 204.269,74.479 L202.619,82.278 L200.099,82.278 L203.569,61.279 L206.089,61.279 L205.379,69.229 C206.039,68.449 206.879,67.729 208.049,67.189 C209.368,66.589 210.568,66.439 211.738,66.439 C212.998,66.439 214.708,66.589 215.878,67.519 C217.018,68.389 217.198,69.499 217.198,70.339 C217.198,70.489 217.168,71.059 216.988,71.959 L214.798,82.278 ZM198.238,68.839 L196.109,78.949 C195.929,79.819 195.719,80.959 197.519,80.959 C198.028,80.959 198.688,80.869 199.498,80.569 L199.139,82.278 C198.059,82.669 197.309,82.698 196.469,82.698 C195.449,82.698 193.379,82.818 193.379,80.539 C193.379,80.299 193.409,79.819 193.589,78.919 L195.719,68.839 L192.389,68.839 L192.779,67.039 L196.109,67.039 L196.069,62.479 L198.589,62.479 L198.629,67.039 L202.289,67.039 L201.898,68.839 L198.238,68.839 ZM181.288,86.328 C179.488,87.918 177.118,88.098 174.569,88.098 C171.569,88.098 170.279,87.588 169.619,87.168 C168.329,86.328 168.059,85.218 168.059,84.198 L168.059,83.988 L170.669,83.988 L170.669,84.198 C170.669,85.038 171.209,85.578 171.689,85.848 C172.349,86.238 173.309,86.358 174.929,86.358 C176.399,86.358 177.988,86.298 179.218,85.368 C179.969,84.798 180.778,83.778 181.168,81.919 L181.648,79.699 L181.558,79.699 C180.958,80.569 180.179,81.199 179.129,81.709 C177.898,82.278 176.849,82.398 175.679,82.398 C174.119,82.398 171.989,82.278 170.309,80.509 C168.929,79.069 168.659,77.359 168.659,75.979 C168.659,72.889 169.769,70.339 171.599,68.659 C173.729,66.679 176.099,66.439 178.139,66.439 C179.368,66.439 180.538,66.589 181.648,67.189 C182.398,67.609 183.208,68.299 183.808,69.379 L183.898,69.379 L184.378,67.039 L186.838,67.039 L183.898,80.929 C183.508,82.848 182.968,84.858 181.288,86.328 ZM181.918,69.649 C180.778,68.299 179.098,68.179 178.108,68.179 C176.488,68.179 174.989,68.569 173.639,69.829 C172.109,71.239 171.239,73.519 171.239,75.769 C171.239,77.299 171.629,78.439 172.319,79.219 C173.339,80.419 174.719,80.659 175.799,80.659 C177.748,80.659 179.248,80.059 180.508,78.769 C182.158,77.089 182.878,74.629 182.878,72.589 C182.878,71.899 182.818,70.699 181.918,69.649 ZM165.118,82.278 L162.598,82.278 L164.578,73.009 C164.698,72.409 164.848,71.359 164.848,70.819 C164.848,70.189 164.728,69.439 163.918,68.839 C163.138,68.269 162.118,68.179 161.398,68.179 C159.628,68.179 158.309,68.659 157.198,69.589 C155.459,71.029 154.769,73.399 154.529,74.479 L152.879,82.278 L150.359,82.278 L153.599,67.039 L156.118,67.039 L155.639,69.229 C156.299,68.449 157.139,67.729 158.309,67.189 C159.628,66.589 160.799,66.439 162.059,66.439 C163.348,66.439 164.998,66.589 166.198,67.519 C167.338,68.389 167.518,69.499 167.518,70.339 C167.518,70.489 167.488,71.059 167.308,71.959 L165.118,82.278 ZM147.919,61.219 L150.618,61.219 L151.078,63.739 L148.379,63.739 L147.919,61.219 ZM147.059,82.278 L144.539,82.278 L147.779,67.039 L150.299,67.039 L147.059,82.278 ZM134.579,82.278 L131.483,68.722 C130.280,68.742 128.264,68.905 126.629,70.219 C125.039,71.509 124.409,73.459 123.929,75.739 L122.549,82.278 L120.029,82.278 L123.269,67.039 L125.729,67.039 L125.099,70.039 L125.189,70.039 C125.879,68.959 126.959,67.969 128.098,67.429 C129.449,66.799 130.888,66.739 132.208,66.739 L132.598,66.739 L132.535,67.039 L133.709,67.039 L136.349,80.179 L144.598,67.039 L147.208,67.039 L137.249,82.278 L134.579,82.278 ZM104.879,75.139 C104.849,76.729 105.059,78.409 106.199,79.639 C107.459,80.989 109.199,81.138 110.549,81.138 C111.509,81.138 112.978,81.049 114.238,80.329 C115.408,79.669 115.978,78.769 116.248,77.749 L118.708,77.749 C118.318,79.459 117.208,81.319 114.838,82.219 C113.398,82.759 111.749,82.879 110.218,82.879 C108.359,82.879 106.439,82.669 104.819,81.379 C103.409,80.269 102.359,78.469 102.359,75.649 C102.359,72.469 103.679,70.069 105.239,68.659 C107.279,66.829 109.709,66.439 112.018,66.439 C113.908,66.439 116.428,66.619 118.078,68.509 C119.158,69.769 119.608,71.539 119.608,73.099 C119.608,73.789 119.488,74.599 119.398,75.139 L104.879,75.139 ZM115.948,69.499 C114.868,68.389 113.219,68.179 112.048,68.179 C110.669,68.179 108.869,68.359 107.309,69.709 C106.409,70.489 105.479,71.779 105.149,73.519 L117.118,73.519 C117.268,71.959 116.788,70.369 115.948,69.499 ZM99.088,66.739 C99.208,64.909 98.188,63.979 97.678,63.619 C96.868,63.049 95.578,62.749 93.208,62.749 C91.678,62.749 90.119,62.839 88.589,63.499 C87.329,64.039 86.039,65.059 86.039,67.069 C86.039,67.759 86.219,68.629 87.269,69.259 C88.048,69.739 89.009,69.829 90.538,70.099 L94.618,70.789 C97.498,71.269 98.488,71.749 99.028,72.109 C99.928,72.709 100.768,73.789 100.768,75.769 C100.768,78.079 99.598,80.479 96.808,81.829 C94.828,82.759 92.608,82.908 90.298,82.908 C88.019,82.908 86.039,82.789 84.389,82.039 C83.129,81.469 81.329,80.269 81.329,77.239 C81.329,76.789 81.359,76.249 81.449,75.769 L84.179,75.769 C84.059,76.219 84.029,76.579 84.029,76.969 C84.029,77.899 84.209,79.039 85.649,79.909 C86.369,80.329 87.628,80.809 90.568,80.809 C92.998,80.809 94.408,80.539 95.368,80.119 C97.948,78.979 98.098,76.759 98.098,76.039 C98.098,75.169 97.948,74.299 96.928,73.669 C96.388,73.339 95.548,73.099 93.238,72.679 L89.128,71.929 C87.208,71.569 85.859,71.299 84.839,70.549 C83.669,69.679 83.369,68.599 83.369,67.309 C83.369,64.189 85.679,62.539 86.788,61.939 C87.719,61.429 89.579,60.649 93.598,60.649 C97.228,60.649 98.848,61.309 99.658,61.909 C100.648,62.629 101.908,64.219 101.758,66.739 L99.088,66.739 Z"/>
<path fill-rule="evenodd"  fill="rgb(244, 241, 231)"
 d="M428.171,52.266 L416.074,52.266 L416.938,48.090 L416.722,48.090 C416.607,48.220 416.491,48.345 416.375,48.469 L418.640,37.707 C419.491,35.735 420.034,33.448 420.034,31.240 C420.034,29.368 419.674,26.920 417.802,24.904 C415.858,22.816 413.481,22.384 411.249,22.384 C404.913,22.384 402.033,26.128 400.880,28.288 C399.512,30.808 399.152,34.120 399.152,35.777 C399.152,37.793 399.296,40.457 401.096,42.689 C402.824,44.777 404.985,45.425 407.433,45.425 C409.305,45.425 410.884,45.053 412.222,44.473 C409.448,47.939 406.697,51.378 404.931,53.586 C404.326,53.619 403.719,53.634 403.113,53.634 C398.648,53.634 393.752,52.842 389.935,48.450 C387.343,45.425 385.903,41.033 385.903,35.705 C385.903,28.504 389.215,22.816 393.247,19.359 C398.288,14.967 403.977,14.319 408.801,14.319 C411.681,14.319 413.914,14.535 416.434,15.543 C418.810,16.479 420.682,17.703 422.410,19.935 L426.226,1.862 L438.900,1.862 L428.171,52.266 ZM377.619,52.266 L364.945,52.266 L369.122,32.464 C369.698,29.584 369.770,28.504 369.770,27.1000 C369.770,26.200 369.122,25.048 368.474,24.400 C367.106,22.960 365.089,22.816 363.937,22.816 C360.985,22.816 358.465,23.968 356.737,25.552 C353.280,28.648 352.128,33.544 351.696,35.489 L348.096,52.266 L335.423,52.266 L343.200,15.687 L355.369,15.687 L354.433,20.151 C356.377,18.351 358.465,16.983 360.409,16.119 C363.217,14.895 365.953,14.319 369.410,14.319 C371.786,14.319 376.466,14.535 379.635,17.055 C381.723,18.711 383.091,21.087 383.091,24.616 C383.091,26.128 382.731,28.288 382.443,29.656 L377.619,52.266 ZM309.433,53.634 C304.897,53.634 299.208,53.202 294.672,49.818 C291.071,47.154 288.335,42.977 288.335,36.641 C288.335,29.440 291.503,23.031 296.832,19.071 C302.808,14.679 310.153,14.319 315.049,14.319 C319.514,14.319 325.274,14.607 329.883,18.063 C332.475,20.007 336.147,23.968 336.147,31.384 C336.147,38.369 332.979,44.921 327.722,48.810 C321.818,53.130 314.041,53.634 309.433,53.634 ZM320.450,24.760 C318.506,22.887 316.129,22.528 313.897,22.528 C311.521,22.528 308.569,22.816 305.832,25.264 C303.168,27.712 301.440,32.032 301.440,36.281 C301.440,39.809 302.880,41.969 304.104,43.121 C306.264,45.137 309.001,45.425 310.729,45.425 C312.961,45.425 316.057,44.993 318.722,42.617 C321.458,40.169 323.042,35.921 323.042,31.744 C323.042,28.648 321.962,26.200 320.450,24.760 ZM280.053,52.266 L267.380,52.266 L271.844,31.168 C272.060,30.232 272.276,28.720 272.276,27.712 C272.276,26.776 272.060,25.696 271.196,24.616 C269.828,23.031 267.956,22.816 266.732,22.816 C264.427,22.816 262.195,23.752 260.683,25.048 C258.091,27.208 256.723,31.456 256.291,33.328 L252.258,52.266 L239.585,52.266 L244.122,30.880 C244.194,30.376 244.482,28.432 244.482,27.928 C244.482,26.848 244.050,25.408 243.330,24.472 C242.177,23.031 240.593,22.816 239.297,22.816 C236.705,22.816 234.689,23.752 233.321,24.832 C229.864,27.568 228.784,32.104 228.280,34.337 L224.464,52.266 L211.791,52.266 L219.567,15.687 L231.377,15.687 L230.296,20.799 C232.313,18.495 234.545,17.127 236.273,16.263 C238.793,15.039 241.818,14.319 245.490,14.319 C247.578,14.319 250.530,14.679 252.618,16.119 C254.131,17.199 255.499,18.999 256.002,21.447 C258.523,18.639 261.115,17.127 262.483,16.479 C265.724,14.895 269.108,14.319 272.420,14.319 C277.317,14.319 281.277,15.687 283.365,18.135 C284.661,19.647 285.525,21.952 285.525,24.688 C285.525,27.064 284.949,29.224 284.517,31.312 L280.053,52.266 ZM195.946,52.266 L196.810,48.090 L196.594,48.090 C196.534,48.158 196.473,48.221 196.413,48.287 L198.778,37.053 C199.474,35.239 199.906,33.208 199.906,31.240 C199.906,29.368 199.546,26.920 197.674,24.904 C195.730,22.816 193.354,22.384 191.121,22.384 C184.785,22.384 181.904,26.128 180.752,28.288 C179.384,30.808 179.024,34.120 179.024,35.777 C179.024,37.793 179.168,40.457 180.968,42.689 C182.697,44.777 184.857,45.425 187.305,45.425 C189.269,45.425 190.913,45.016 192.292,44.386 C189.498,47.878 186.718,51.352 184.937,53.579 C184.287,53.618 183.636,53.634 182.985,53.634 C178.520,53.634 173.624,52.842 169.807,48.450 C167.215,45.425 165.775,41.033 165.775,35.705 C165.775,28.504 169.087,22.816 173.120,19.359 C178.160,14.967 183.849,14.319 188.673,14.319 C191.553,14.319 193.786,14.535 196.306,15.543 C198.682,16.479 199.554,17.703 201.282,19.935 L206.099,1.862 L218.771,1.862 L208.043,52.266 L195.946,52.266 ZM128.560,36.353 C128.200,39.449 128.920,41.681 130.288,43.121 C132.520,45.498 135.977,45.569 138.065,45.569 C140.945,45.569 143.033,45.281 144.690,44.489 C146.922,43.409 147.858,41.753 148.290,40.529 L161.035,40.529 C160.171,43.913 157.795,49.098 151.674,51.690 C147.426,53.490 142.385,53.634 137.129,53.634 C131.513,53.634 125.248,53.346 120.783,49.530 C117.975,47.082 115.743,43.121 115.743,37.001 C115.743,30.808 118.119,24.544 122.584,20.367 C128.128,15.111 135.041,14.319 141.809,14.319 C146.778,14.319 152.898,14.679 157.362,18.567 C159.883,20.727 162.403,24.400 162.403,30.592 C162.403,31.240 162.403,32.824 162.043,36.353 L128.560,36.353 ZM147.930,24.256 C145.914,22.384 143.105,22.096 140.945,22.096 C138.569,22.096 136.121,22.384 133.745,24.112 C132.593,24.976 130.648,26.704 129.784,29.872 L150.018,29.872 C150.162,27.424 149.154,25.480 147.930,24.256 ZM105.155,28.432 L105.155,28.720 C106.739,28.936 108.467,29.584 109.619,30.736 C110.915,32.032 111.635,34.049 111.635,36.065 C111.635,37.001 111.347,39.017 111.275,39.377 L110.411,45.065 C110.123,46.794 109.907,49.314 110.987,52.266 L96.946,52.266 C96.154,50.538 95.938,48.666 96.370,45.857 L97.018,41.681 C97.378,39.377 97.594,36.785 95.650,35.201 C95.506,35.057 93.850,33.761 89.889,33.761 L78.296,33.761 L74.336,52.266 L61.087,52.266 L71.816,1.862 L100.186,1.862 C105.299,1.862 108.683,2.294 111.275,3.446 C116.604,5.822 117.972,10.214 117.972,13.743 C117.972,18.567 116.388,22.240 113.076,24.904 C110.843,26.704 107.819,27.928 105.155,28.432 ZM101.554,13.023 C100.618,12.375 99.106,11.943 96.010,11.943 L82.905,11.943 L80.313,24.256 L93.994,24.256 C96.730,24.256 99.466,23.607 101.194,22.384 C103.139,20.943 103.571,19.287 103.571,17.487 C103.571,16.263 103.426,14.247 101.554,13.023 Z"/>
<path fill-rule="evenodd"  fill="rgb(255, 66, 8)"
 d="M30.1000,51.1000 L39.1000,11.1000 L59.1000,11.1000 L50.1000,51.1000 L30.1000,51.1000 Z"/>
<path fill-rule="evenodd"  fill="rgb(255, 108, 0)"
 d="M9.1000,39.1000 L18.1000,-0.000 L38.1000,-0.000 L29.1000,39.1000 L9.1000,39.1000 Z"/>
<path fill-rule="evenodd"  fill="rgb(255, 66, 8)"
 d="M20.1000,94.1000 L29.1000,54.1000 L49.1000,54.1000 L40.1000,94.1000 L20.1000,94.1000 Z"/>
<path fill-rule="evenodd"  fill="rgb(255, 108, 0)"
 d="M-0.000,82.1000 L8.1000,42.1000 L28.1000,42.1000 L19.1000,82.1000 L-0.000,82.1000 Z"/>
<path fill-rule="evenodd"  fill="rgb(244, 241, 231)"
 d="M444.900,32.748 C445.883,32.748 446.787,32.510 447.613,32.035 C448.439,31.559 449.098,30.916 449.589,30.106 C450.080,29.296 450.326,28.410 450.326,27.447 C450.326,26.484 450.083,25.597 449.598,24.787 C449.112,23.977 448.456,23.334 447.630,22.858 C446.804,22.383 445.900,22.145 444.918,22.145 C443.936,22.145 443.031,22.383 442.205,22.858 C441.379,23.334 440.723,23.977 440.238,24.787 C439.753,25.597 439.510,26.484 439.510,27.447 C439.510,28.410 439.753,29.296 440.238,30.106 C440.723,30.916 441.376,31.559 442.197,32.035 C443.017,32.510 443.918,32.748 444.900,32.748 L444.900,32.748 ZM444.900,31.848 C444.103,31.848 443.372,31.650 442.708,31.253 C442.043,30.857 441.515,30.321 441.122,29.647 C440.729,28.973 440.533,28.240 440.533,27.447 C440.533,26.676 440.729,25.960 441.122,25.297 C441.515,24.634 442.046,24.110 442.717,23.725 C443.387,23.340 444.120,23.147 444.918,23.147 C445.715,23.147 446.449,23.340 447.119,23.725 C447.789,24.110 448.321,24.634 448.714,25.297 C449.106,25.960 449.303,26.676 449.303,27.447 C449.303,28.240 449.106,28.973 448.714,29.647 C448.321,30.321 447.789,30.857 447.119,31.253 C446.449,31.650 445.709,31.848 444.900,31.848 L444.900,31.848 ZM447.067,30.114 C447.460,30.114 447.755,30.063 447.951,29.961 C448.147,29.860 448.246,29.729 448.246,29.571 C448.246,29.469 448.205,29.418 448.124,29.418 C447.824,29.418 447.468,29.254 447.058,28.925 C446.648,28.597 446.305,28.104 446.027,27.447 C446.004,27.379 446.010,27.339 446.045,27.328 C446.368,27.181 446.625,27.005 446.816,26.801 C447.006,26.597 447.102,26.325 447.102,25.985 C447.102,25.079 446.350,24.626 444.849,24.626 C444.571,24.626 444.305,24.637 444.051,24.660 C443.843,24.682 443.681,24.694 443.566,24.694 C443.416,24.694 443.225,24.682 442.994,24.660 C442.717,24.637 442.474,24.626 442.266,24.626 C442.220,24.626 442.179,24.640 442.145,24.668 C442.110,24.697 442.093,24.722 442.093,24.745 C442.093,24.858 442.156,24.921 442.283,24.932 C442.491,24.988 442.633,25.053 442.708,25.127 C442.783,25.201 442.821,25.328 442.821,25.509 L442.821,29.146 C442.821,29.316 442.783,29.435 442.708,29.503 C442.633,29.571 442.474,29.633 442.231,29.690 C442.093,29.712 442.023,29.786 442.023,29.911 C442.023,29.956 442.046,30.004 442.093,30.055 C442.139,30.106 442.179,30.131 442.214,30.131 C442.341,30.131 442.578,30.120 442.925,30.097 L443.566,30.080 L444.311,30.097 L445.091,30.131 C445.137,30.131 445.181,30.109 445.221,30.063 C445.261,30.018 445.282,29.967 445.282,29.911 C445.282,29.786 445.213,29.712 445.074,29.690 C444.797,29.622 444.609,29.554 444.511,29.486 C444.412,29.418 444.363,29.305 444.363,29.146 L444.363,27.752 C444.363,27.651 444.398,27.599 444.467,27.599 C444.560,27.599 444.635,27.656 444.693,27.769 C444.993,28.404 445.374,28.953 445.837,29.418 C446.299,29.882 446.709,30.114 447.067,30.114 L447.067,30.114 ZM444.658,26.971 C444.427,26.971 444.311,26.886 444.311,26.716 L444.311,25.560 C444.311,25.458 444.346,25.382 444.415,25.331 C444.484,25.280 444.600,25.254 444.762,25.254 C445.074,25.254 445.302,25.325 445.447,25.467 C445.591,25.609 445.663,25.844 445.663,26.172 C445.663,26.410 445.579,26.603 445.412,26.750 C445.244,26.897 444.993,26.971 444.658,26.971 L444.658,26.971 Z"/>
</svg>