<svg 
 xmlns="http://www.w3.org/2000/svg"
 xmlns:xlink="http://www.w3.org/1999/xlink"
 width="567px" height="202px">
<path fill-rule="evenodd"  fill="rgb(255, 255, 255)"
 d="M553.687,184.370 C554.913,184.370 556.042,184.073 557.074,183.479 C558.105,182.885 558.928,182.082 559.541,181.071 C560.154,180.060 560.461,178.953 560.461,177.750 C560.461,176.548 560.158,175.441 559.552,174.430 C558.946,173.418 558.127,172.616 557.095,172.021 C556.064,171.427 554.935,171.130 553.708,171.130 C552.482,171.130 551.353,171.427 550.322,172.021 C549.290,172.616 548.471,173.418 547.865,174.430 C547.259,175.441 546.956,176.548 546.956,177.750 C546.956,178.953 547.259,180.060 547.865,181.071 C548.471,182.082 549.286,182.885 550.311,183.479 C551.335,184.073 552.460,184.370 553.687,184.370 L553.687,184.370 ZM553.687,183.245 C552.691,183.245 551.779,182.998 550.949,182.503 C550.119,182.008 549.459,181.340 548.969,180.498 C548.478,179.656 548.233,178.740 548.233,177.750 C548.233,176.788 548.478,175.894 548.969,175.066 C549.459,174.239 550.123,173.585 550.960,173.104 C551.796,172.623 552.713,172.382 553.708,172.382 C554.704,172.382 555.620,172.623 556.457,173.104 C557.294,173.585 557.957,174.239 558.448,175.066 C558.938,175.894 559.184,176.788 559.184,177.750 C559.184,178.740 558.938,179.656 558.448,180.498 C557.957,181.340 557.294,182.008 556.457,182.503 C555.620,182.998 554.697,183.245 553.687,183.245 L553.687,183.245 ZM556.392,181.081 C556.882,181.081 557.250,181.018 557.496,180.890 C557.741,180.763 557.864,180.601 557.864,180.403 C557.864,180.275 557.813,180.212 557.712,180.212 C557.337,180.212 556.893,180.007 556.381,179.596 C555.869,179.186 555.440,178.571 555.093,177.750 C555.064,177.665 555.072,177.616 555.115,177.602 C555.519,177.418 555.840,177.198 556.078,176.944 C556.316,176.689 556.435,176.350 556.435,175.925 C556.435,174.794 555.497,174.228 553.622,174.228 C553.276,174.228 552.944,174.242 552.626,174.271 C552.367,174.299 552.165,174.313 552.020,174.313 C551.833,174.313 551.595,174.299 551.306,174.271 C550.960,174.242 550.657,174.228 550.397,174.228 C550.339,174.228 550.289,174.246 550.246,174.281 C550.203,174.317 550.181,174.348 550.181,174.376 C550.181,174.518 550.260,174.596 550.419,174.610 C550.679,174.681 550.855,174.762 550.949,174.854 C551.043,174.946 551.090,175.105 551.090,175.331 L551.090,179.872 C551.090,180.084 551.043,180.233 550.949,180.318 C550.855,180.403 550.657,180.480 550.354,180.551 C550.181,180.579 550.094,180.671 550.094,180.827 C550.094,180.884 550.123,180.943 550.181,181.007 C550.238,181.071 550.289,181.103 550.332,181.103 C550.491,181.103 550.787,181.089 551.220,181.060 L552.020,181.039 L552.951,181.060 L553.925,181.103 C553.982,181.103 554.036,181.075 554.087,181.018 C554.138,180.961 554.163,180.898 554.163,180.827 C554.163,180.671 554.076,180.579 553.903,180.551 C553.557,180.466 553.322,180.381 553.200,180.296 C553.077,180.212 553.016,180.070 553.016,179.872 L553.016,178.132 C553.016,178.005 553.059,177.941 553.146,177.941 C553.261,177.941 553.355,178.012 553.427,178.153 C553.802,178.946 554.278,179.632 554.856,180.212 C555.433,180.792 555.945,181.081 556.392,181.081 L556.392,181.081 ZM553.384,177.156 C553.095,177.156 552.951,177.050 552.951,176.838 L552.951,175.395 C552.951,175.268 552.994,175.172 553.081,175.109 C553.167,175.045 553.311,175.013 553.514,175.013 C553.903,175.013 554.188,175.102 554.368,175.278 C554.549,175.455 554.639,175.749 554.639,176.159 C554.639,176.456 554.534,176.697 554.325,176.880 C554.116,177.064 553.802,177.156 553.384,177.156 L553.384,177.156 Z"/>
<path fill-rule="evenodd"  fill="rgb(255, 255, 255)"
 d="M413.391,92.1000 L413.391,46.937 C413.391,44.148 410.428,41.777 406.942,41.777 L369.465,41.777 C365.804,41.777 362.841,44.148 362.841,46.937 L362.841,92.1000 L353.788,92.1000 L353.788,55.721 C353.788,48.052 343.156,41.777 330.082,41.777 L237.524,41.777 C233.863,41.777 230.900,44.148 230.900,46.937 L230.900,92.1000 L206.249,92.1000 L225.333,46.937 C226.031,44.148 223.765,41.777 220.279,41.777 L180.710,41.777 C177.050,41.777 173.563,44.148 172.866,46.937 L160.241,92.1000 L156.904,92.1000 L144.279,46.937 C143.582,44.148 140.096,41.777 136.435,41.777 L96.867,41.777 C93.380,41.777 91.115,44.148 91.812,46.937 L110.786,92.1000 L15.500,92.1000 L15.500,15.500 C15.500,13.291 17.291,11.500 19.500,11.500 L538.500,11.500 C540.709,11.500 542.500,13.291 542.500,15.500 L542.500,92.1000 L413.391,92.1000 ZM303.238,63.809 L303.238,92.1000 L281.450,92.1000 L281.450,53.909 L289.642,53.909 C297.138,53.909 303.238,58.371 303.238,63.809 ZM114.494,101.1000 L202.520,101.1000 L230.900,101.1000 L281.450,101.1000 L303.196,101.1000 L353.788,101.1000 L362.841,101.1000 L413.391,101.1000 L542.500,101.1000 L542.500,180.500 C542.500,182.709 540.709,184.500 538.500,184.500 L19.500,184.500 C17.291,184.500 15.500,182.709 15.500,180.500 L15.500,101.1000 L114.494,101.1000 ZM465.685,120.143 L465.685,113.171 C465.685,111.481 464.592,109.948 462.959,108.1000 L362.841,108.1000 L362.841,120.143 C362.841,123.071 365.804,125.442 369.465,125.442 L459.235,125.442 C462.721,125.442 465.685,123.071 465.685,120.143 ZM429.117,140.619 C429.117,143.589 431.487,144.699 434.007,145.059 L439.677,145.869 C440.277,145.959 440.847,146.469 441.237,146.919 C441.747,147.519 441.867,148.119 441.867,148.869 C441.867,149.949 441.147,150.969 440.037,150.969 C438.957,150.969 438.237,149.949 438.237,148.869 C438.237,148.089 438.117,147.249 437.157,147.249 L430.197,147.249 C429.597,147.249 429.117,147.759 429.117,148.359 L429.117,150.609 C429.117,152.589 431.337,153.609 433.047,153.609 L447.027,153.609 C448.737,153.609 450.987,152.589 450.987,150.609 L450.987,148.599 C450.987,145.329 448.827,144.549 446.097,144.159 L440.397,143.349 C438.777,143.109 438.237,141.939 438.237,140.349 C438.237,139.269 438.957,138.219 440.037,138.219 C441.147,138.219 441.867,139.269 441.867,140.349 C441.867,141.129 441.987,141.969 442.947,141.969 L449.877,141.969 C450.507,141.969 450.987,141.459 450.987,140.859 L450.987,138.609 C450.987,136.629 448.737,135.609 447.027,135.609 L433.047,135.609 C431.337,135.609 429.117,136.629 429.117,138.609 L429.117,140.619 ZM405.538,138.219 C405.538,138.849 406.047,139.359 406.677,139.359 L411.927,139.359 L411.927,152.469 C411.927,153.099 412.407,153.609 413.037,153.609 L419.667,153.609 C420.297,153.609 420.807,153.099 420.807,152.469 L420.807,139.359 L425.877,139.359 C426.476,139.359 426.987,138.849 426.987,138.219 L426.987,136.719 C426.987,136.119 426.476,135.609 425.877,135.609 L406.677,135.609 C406.047,135.609 405.538,136.119 405.538,136.719 L405.538,138.219 ZM382.257,150.609 C382.257,152.259 384.087,153.609 386.337,153.609 L399.327,153.609 C401.577,153.609 403.407,152.259 403.407,150.609 L403.407,138.609 C403.407,136.959 401.577,135.609 399.327,135.609 L386.337,135.609 C384.087,135.609 382.257,136.959 382.257,138.609 L382.257,150.609 ZM358.348,152.469 C358.348,153.099 358.857,153.609 359.487,153.609 L375.417,153.609 C377.667,153.609 379.466,152.259 379.496,150.609 L379.496,147.069 C379.496,145.719 378.597,144.609 377.457,144.609 C378.597,144.609 379.496,143.499 379.496,142.149 L379.496,138.609 C379.496,136.959 377.667,135.609 375.417,135.609 L359.487,135.609 C358.857,135.609 358.348,136.119 358.348,136.719 L358.348,152.469 ZM334.437,150.609 C334.437,152.259 336.267,153.609 338.517,153.609 L351.507,153.609 C353.757,153.609 355.587,152.259 355.587,150.609 L355.587,138.609 C355.587,136.959 353.757,135.609 351.507,135.609 L338.517,135.609 C336.267,135.609 334.437,136.959 334.437,138.609 L334.437,150.609 ZM309.478,152.499 C309.478,153.069 309.957,153.609 310.557,153.609 L317.337,153.609 C317.937,153.609 318.417,153.069 318.417,152.499 L318.417,138.219 L320.877,138.219 C321.387,138.219 322.287,138.489 322.287,139.089 L322.287,142.599 C322.287,143.409 321.327,143.469 320.727,143.469 L319.497,143.469 L319.497,145.719 C321.387,145.719 322.947,150.789 322.947,152.589 C322.947,153.039 323.547,153.609 323.997,153.609 L331.586,153.609 C332.216,153.609 332.757,153.219 332.577,152.649 C332.367,151.839 331.707,150.399 330.897,149.049 C330.416,148.239 329.847,147.429 329.277,146.949 C328.557,146.349 327.867,145.989 326.667,145.779 L327.057,145.779 C329.247,145.809 330.986,144.489 330.986,142.509 L330.986,138.879 C330.986,136.899 329.247,135.609 327.057,135.609 L310.557,135.609 C309.957,135.609 309.478,136.149 309.478,136.719 L309.478,152.499 ZM279.988,152.499 C279.988,153.099 280.467,153.609 281.067,153.609 L297.537,153.609 C298.137,153.609 298.617,153.099 298.617,152.499 L298.617,150.999 C298.617,150.369 298.137,149.859 297.537,149.859 L289.107,149.859 L289.107,146.229 L294.657,146.229 C295.257,146.229 295.737,145.719 295.737,145.119 L295.737,144.159 C295.737,143.529 295.257,143.019 294.657,143.019 L289.107,143.019 L289.107,139.359 L297.537,139.359 C298.137,139.359 298.617,138.849 298.617,138.219 L298.617,136.719 C298.617,136.119 298.137,135.609 297.537,135.609 L281.067,135.609 C280.467,135.609 279.988,136.119 279.988,136.719 L279.988,152.499 ZM256.077,150.609 C256.077,152.259 257.907,153.609 260.157,153.609 L273.147,153.609 C275.397,153.609 277.227,152.259 277.227,150.609 L277.227,136.719 C277.227,136.119 276.717,135.609 276.117,135.609 L269.667,135.609 C269.037,135.609 268.527,136.119 268.527,136.719 L268.527,148.869 C268.527,150.039 267.687,150.969 266.667,150.969 C265.617,150.969 264.777,150.039 264.777,148.869 L264.777,136.719 C264.777,136.119 264.267,135.609 263.667,135.609 L257.217,135.609 C256.588,135.609 256.077,136.119 256.077,136.719 L256.077,150.609 ZM236.247,152.469 C236.247,153.099 236.757,153.609 237.387,153.609 L252.837,153.609 C253.437,153.609 253.947,153.099 253.947,152.469 L253.947,150.969 C253.947,150.369 253.437,149.859 252.837,149.859 L244.947,149.859 L244.947,136.719 C244.947,136.119 244.437,135.609 243.837,135.609 L237.387,135.609 C236.757,135.609 236.247,136.119 236.247,136.719 L236.247,152.469 ZM237.524,125.442 L330.082,125.442 C343.156,125.442 353.788,119.167 353.788,111.498 L353.788,108.1000 L230.900,108.1000 L230.900,120.143 C230.900,123.071 233.863,125.442 237.524,125.442 ZM210.087,153.609 L217.497,153.609 C218.097,153.609 218.787,153.099 218.907,152.499 L219.477,150.009 L223.917,150.009 L224.457,152.499 C224.577,153.099 225.267,153.609 225.897,153.609 L233.276,153.609 C233.786,153.609 234.116,153.279 234.116,152.769 C234.116,152.589 234.086,152.409 234.026,152.229 L228.897,136.719 C228.717,136.149 228.117,135.609 227.487,135.609 L215.907,135.609 C215.277,135.609 214.647,136.149 214.467,136.719 L209.367,152.229 C209.307,152.379 209.277,152.529 209.277,152.679 C209.277,153.189 209.577,153.609 210.087,153.609 ZM188.368,136.719 L193.557,152.469 C193.677,153.099 194.307,153.609 194.937,153.609 L204.777,153.609 C205.407,153.609 206.007,153.099 206.127,152.469 L211.346,136.719 C211.467,136.119 211.076,135.609 210.476,135.609 L203.667,135.609 C203.037,135.609 202.437,136.119 202.317,136.719 L199.857,147.939 L197.397,136.719 C197.277,136.119 196.677,135.609 196.047,135.609 L189.237,135.609 C188.637,135.609 188.247,136.119 188.368,136.719 ZM155.667,152.499 C155.547,152.649 155.458,152.889 155.458,153.129 C155.458,153.459 155.667,153.609 155.908,153.609 L163.167,153.609 C163.707,153.609 164.307,153.009 164.637,152.499 L167.097,148.599 L169.557,152.499 C169.887,153.009 170.487,153.609 171.027,153.609 L178.286,153.609 C178.527,153.609 178.737,153.459 178.737,153.129 C178.737,152.889 178.646,152.649 178.527,152.499 L173.157,144.609 L178.527,136.749 C178.646,136.569 178.737,136.329 178.737,136.089 C178.737,135.760 178.527,135.609 178.286,135.609 L171.027,135.609 C170.487,135.609 169.887,136.209 169.557,136.749 L167.097,140.619 L164.637,136.749 C164.307,136.209 163.707,135.609 163.167,135.609 L155.908,135.609 C155.667,135.609 155.458,135.760 155.458,136.089 C155.458,136.329 155.547,136.569 155.667,136.749 L161.037,144.609 L155.667,152.499 ZM129.927,153.609 L137.337,153.609 C137.937,153.609 138.627,153.099 138.747,152.499 L139.317,150.009 L143.757,150.009 L144.297,152.499 C144.417,153.099 145.107,153.609 145.737,153.609 L153.116,153.609 C153.626,153.609 153.956,153.279 153.956,152.769 C153.956,152.589 153.926,152.409 153.866,152.229 L148.737,136.719 C148.557,136.149 147.957,135.609 147.327,135.609 L135.747,135.609 C135.117,135.609 134.487,136.149 134.307,136.719 L129.207,152.229 C129.148,152.379 129.117,152.529 129.117,152.679 C129.117,153.189 129.417,153.609 129.927,153.609 ZM129.986,125.442 L187.160,125.442 C190.820,125.442 194.306,123.071 195.003,120.143 L199.620,108.1000 L117.377,108.1000 L121.968,120.143 C122.665,123.071 126.325,125.442 129.986,125.442 ZM102.507,152.469 C102.507,153.099 103.017,153.609 103.647,153.609 L110.067,153.609 C110.667,153.609 111.177,153.099 111.177,152.469 L111.177,144.789 L114.297,151.629 L115.197,151.629 L118.317,144.789 L118.317,152.469 C118.317,153.099 118.797,153.609 119.427,153.609 L125.846,153.609 C126.476,153.609 126.986,153.099 126.986,152.469 L126.986,136.719 C126.986,136.119 126.476,135.609 125.846,135.609 L119.427,135.609 C118.947,135.609 118.557,135.939 118.377,136.359 L114.747,144.309 L111.117,136.359 C110.937,135.939 110.547,135.609 110.067,135.609 L103.647,135.609 C103.017,135.609 102.507,136.119 102.507,136.719 L102.507,152.469 ZM143.187,147.339 L139.857,147.339 L141.507,139.719 L143.187,147.339 ZM223.347,147.339 L220.017,147.339 L221.667,139.719 L223.347,147.339 ZM344.997,138.219 C346.047,138.219 346.887,139.179 346.887,140.349 L346.887,148.869 C346.887,150.039 346.047,150.969 344.997,150.969 C343.977,150.969 343.137,150.039 343.137,148.869 L343.137,140.349 C343.137,139.179 343.977,138.219 344.997,138.219 ZM370.887,139.119 L370.887,142.599 C370.887,143.079 370.137,143.469 369.267,143.469 L368.217,143.469 L368.217,145.749 L369.267,145.749 C370.137,145.749 370.887,146.139 370.887,146.619 L370.887,150.099 C370.887,150.579 370.137,150.969 369.267,150.969 L367.077,150.969 L367.077,138.219 L369.267,138.219 C370.137,138.219 370.887,138.609 370.887,139.119 ZM392.817,138.219 C393.867,138.219 394.707,139.179 394.707,140.349 L394.707,148.869 C394.707,150.039 393.867,150.969 392.817,150.969 C391.797,150.969 390.957,150.039 390.957,148.869 L390.957,140.349 C390.957,139.179 391.797,138.219 392.817,138.219 Z"/>
<path fill-rule="evenodd"  fill="rgb(154, 69, 61)"
 d="M-0.000,101.000 L566.1000,101.000 L566.1000,201.1000 L-0.000,201.1000 L-0.000,101.000 Z"/>
<path fill-rule="evenodd"  fill="rgb(244, 136, 70)"
 d="M-0.000,-0.000 L566.1000,-0.000 L566.1000,100.1000 L-0.000,100.1000 L-0.000,-0.000 Z"/>
</svg>