<svg width="100%" height="100%"
  xmlns="http://www.w3.org/2000/svg" version="1.1"
  xmlns:xlink="http://www.w3.org/1999/xlink"
  xmlns:svgjs="http://svgjs.dev/svgjs">

  <defs>
    <linearGradient id="gradient" x1="0" y1="100%" x2="0" y2="0%" patternUnits="userSpaceOnUse" gradientTransform="scale(2)">
      <stop class="stop1" offset="0%" stop-color="rgb(172, 2, 214)"/>
      <stop class="stop2" offset="100%" stop-color="rgb(255, 23, 178)"/>
    </linearGradient>
    <pattern id="stripe" patternTransform="rotate(45) scale(0.71)" width="10" height="100%" patternUnits="userSpaceOnUse" x="0" y="0">
      <rect x="0" y="0" width="2" height="200%" fill="url(#gradient)"></rect>
    </pattern>
  </defs>

  <path fillRule="evenodd" transform="scale(0.6)" fill="url(#stripe)"
 d="M434.853,28.149 C408.329,63.921 417.814,64.255 383.234,104.567 C372.201,117.428 345.337,142.022 322.884,166.078 C311.288,178.501 292.685,202.535 318.078,144.951 C323.507,132.638 346.554,98.886 351.098,85.817 C355.642,72.748 371.859,45.126 415.808,19.475 C459.757,-6.177 461.376,-7.623 434.853,28.149 ZM297.058,134.478 C267.720,170.032 268.002,184.235 255.026,198.628 C242.049,213.022 214.617,255.152 200.774,279.262 C186.931,303.373 157.448,342.842 111.451,378.973 C65.454,415.105 47.066,433.670 35.410,444.972 C23.754,456.273 18.719,457.469 21.929,441.470 C31.414,394.188 13.693,381.094 34.266,309.905 C55.833,235.272 84.046,172.384 130.356,155.414 C248.330,112.184 291.616,93.316 340.288,63.147 C362.195,49.568 326.396,98.924 297.058,134.478 ZM98.448,423.130 C131.698,400.874 144.375,391.737 131.635,414.926 C117.886,439.953 91.036,455.043 74.430,503.073 C57.825,551.102 56.676,595.566 51.152,611.122 C45.627,626.678 25.143,637.974 16.936,644.422 C8.730,650.870 4.492,642.765 3.187,631.275 C3.187,631.275 -10.476,503.846 21.383,478.453 C53.242,453.060 65.199,445.385 98.448,423.130 Z"/>

</svg>