<svg width="100%" height="100%"
  xmlns="http://www.w3.org/2000/svg" version="1.1"
  xmlns:xlink="http://www.w3.org/1999/xlink"
  xmlns:svgjs="http://svgjs.dev/svgjs">

  <defs>
    <radialGradient id="gradient" cx="50%" cy="50%" r="50%" fx="50%" fy="40%">
      <stop offset="10%" stop-color="rgb(255, 169, 39)" stop-opacity="0.5">
        <animate attributeName="stop-opacity" dur="4s" values="0.6;0.6;1;0.5;0.5;1;0.5;0.6" keyTimes="0; 0.25; 0.26; 0.27; 0.29; 0.3; 0.31; 1" repeatCount="indefinite"></animate>
      </stop>
      <stop offset="40%" stop-color="rgb(255, 169, 39)" stop-opacity="0.3">
        <animate attributeName="stop-opacity" dur="6s" values="0.3;0.3;0.7;0.3;0.3;0.7;0.3;0.3" keyTimes="0; 0.35; 0.36; 0.37; 0.39; 0.4; 0.41; 1" repeatCount="indefinite"></animate>
      </stop>
      <stop offset="100%" stop-color="rgb(255, 169, 39)" stop-opacity="0.15" />
    </radialGradient>

    <pattern id="stripe" patternTransform="rotate(45) scale(0.3)" width="10" height="100%" patternUnits="userSpaceOnUse" x="50%" y="50%">
      <rect x="0" y="0" width="2" height="200%" fill="white"></rect>
    </pattern>

    <mask id="theMask">
      <rect width="2000" height="2000" fill="url(#stripe)"/>
    </mask>
  </defs>

  <path fill-rule="evenodd" transform="scale(1)" id="weather-shape" fill="url(#gradient)" opacity="0.5" d="M1861.801,484.389 C1849.327,509.481 1827.019,542.408 1839.631,511.034 C1852.243,479.659 1861.741,394.621 1859.803,296.544 C1857.864,198.467 1816.443,122.839 1773.556,68.262 C1725.383,6.960 1716.720,4.357 1734.356,1.063 C1782.227,-7.880 1879.784,98.331 1900.110,201.425 C1920.435,304.520 1874.276,459.297 1861.801,484.389 ZM1767.956,87.863 C1813.460,152.355 1906.883,383.200 1688.156,443.462 C1469.429,503.725 1316.932,276.220 1167.356,306.262 C1017.780,336.305 965.982,425.236 934.956,551.262 C924.902,592.105 937.231,502.139 958.756,436.462 C986.230,352.634 1081.197,217.813 1259.756,237.662 C1438.315,257.512 1572.731,382.858 1695.156,282.462 C1817.581,182.067 1739.458,63.700 1728.756,47.262 C1718.054,30.825 1735.742,42.205 1767.956,87.863 ZM730.556,684.262 C575.763,683.580 608.749,559.707 460.356,527.462 C300.300,492.683 237.838,767.257 230.756,772.462 C222.649,778.423 214.000,676.703 261.556,551.262 C424.562,211.194 589.101,400.242 668.956,561.062 C748.812,721.883 876.156,621.262 876.156,621.262 C878.185,624.388 814.662,684.633 730.556,684.262 ZM83.756,646.462 C-27.593,618.523 -7.358,433.289 27.756,324.462 C62.870,215.636 108.364,137.457 87.956,190.062 C67.549,242.668 61.434,260.793 51.556,299.262 C36.336,358.535 51.589,490.848 127.156,493.862 C202.723,496.877 323.879,370.967 379.156,269.862 C434.123,169.325 441.158,164.701 393.156,283.862 C357.829,371.558 195.105,674.402 83.756,646.462 ZM950.356,653.462 C950.356,653.462 1014.591,784.691 1132.356,779.462 C1279.893,772.913 1492.869,691.147 1578.956,892.862 C1658.005,1078.085 1544.557,1149.770 1402.556,1149.062 C1248.272,1148.294 1124.511,1229.838 1086.156,1268.062 C1045.776,1308.306 978.963,1388.026 1069.356,1268.062 C1216.891,1072.264 1488.255,1130.991 1420.756,954.462 C1347.729,763.477 1142.660,901.562 1044.156,808.862 C965.061,734.428 933.799,627.248 950.356,653.462 ZM1030.156,1283.462 C1043.746,1282.719 1036.773,1301.690 1017.556,1326.862 C1009.542,1337.360 987.481,1367.440 975.556,1387.062 C963.632,1406.685 957.260,1412.222 976.956,1360.462 C996.652,1308.703 1016.566,1284.206 1030.156,1283.462 Z"/>


</svg>