<svg width="100%" height="100%"
  xmlns="http://www.w3.org/2000/svg" version="1.1"
  xmlns:xlink="http://www.w3.org/1999/xlink"
  xmlns:svgjs="http://svgjs.dev/svgjs">

  <defs>
    <linearGradient id="gradient" x1="0" y1="100%" x2="0" y2="0%" patternUnits="userSpaceOnUse" gradientTransform="scale(2)">
      <stop class="stop1" offset="0%" stop-color="rgb(172, 2, 214)"/>
      <stop class="stop2" offset="100%" stop-color="rgb(255, 23, 178)"/>
    </linearGradient>
    <pattern id="stripe" patternTransform="rotate(45) scale(0.71)" width="10" height="100%" patternUnits="userSpaceOnUse" x="0" y="0">
      <rect x="0" y="0" width="2" height="200%" fill="url(#gradient)"></rect>
    </pattern>
  </defs>

  <path fillRule="evenodd" transform="scale(0.6)" fill="url(#stripe)"
      d="M415.808,627.932 C371.859,602.280 355.642,574.658 351.098,561.589 C346.554,548.520 323.507,514.768 318.078,502.456 C292.685,444.871 311.288,468.905 322.884,481.329 C345.337,505.384 372.202,529.978 383.234,542.839 C417.814,583.152 408.330,583.486 434.853,619.257 C461.376,655.029 459.757,653.584 415.808,627.932 ZM340.288,584.260 C291.616,554.091 248.330,535.222 130.356,491.992 C84.046,475.022 55.834,412.134 34.266,337.502 C13.693,266.312 31.415,253.218 21.929,205.936 C18.719,189.938 23.754,191.133 35.410,202.435 C47.066,213.736 65.454,232.301 111.451,268.433 C157.448,304.565 186.931,344.034 200.774,368.144 C214.617,392.255 242.049,434.384 255.026,448.778 C268.003,463.172 267.720,477.375 297.058,512.928 C326.396,548.482 362.195,597.839 340.288,584.260 ZM98.448,224.277 C65.199,202.022 53.243,194.346 21.384,168.953 C-10.475,143.561 3.187,16.131 3.187,16.131 C4.492,4.641 8.730,-3.464 16.936,2.984 C25.143,9.432 45.627,20.728 51.152,36.284 C56.676,51.840 57.825,96.304 74.431,144.334 C91.036,192.363 117.886,207.454 131.635,232.480 C144.375,255.669 131.698,246.532 98.448,224.277 Z"/>

</svg>