<svg width="100%" height="100%"
  xmlns="http://www.w3.org/2000/svg" version="1.1"
  xmlns:xlink="http://www.w3.org/1999/xlink"
  xmlns:svgjs="http://svgjs.dev/svgjs">

  <defs>
    <radialGradient id="gradient" cx="50%" cy="50%" r="50%" fx="50%" fy="40%">
      <stop offset="10%" stop-color="rgb(255, 169, 39)" stop-opacity="0.5">
        <animate attributeName="stop-opacity" dur="4s" values="0.6;0.6;1;0.5;0.5;1;0.5;0.6" keyTimes="0; 0.25; 0.26; 0.27; 0.29; 0.3; 0.31; 1" repeatCount="indefinite"></animate>
      </stop>
      <stop offset="40%" stop-color="rgb(255, 169, 39)" stop-opacity="0.3">
        <animate attributeName="stop-opacity" dur="6s" values="0.3;0.3;0.7;0.3;0.3;0.7;0.3;0.3" keyTimes="0; 0.35; 0.36; 0.37; 0.39; 0.4; 0.41; 1" repeatCount="indefinite"></animate>
      </stop>
      <stop offset="100%" stop-color="rgb(255, 169, 39)" stop-opacity="0" />
    </radialGradient>

    <pattern id="stripe" patternTransform="rotate(45) scale(0.3)" width="10" height="100%" patternUnits="userSpaceOnUse" x="50%" y="50%">
      <rect x="0" y="0" width="2" height="200%" fill="white"></rect>
    </pattern>

    <mask id="theMask">
      <rect width="2000" height="2000" fill="url(#stripe)"/>
    </mask>
  </defs>

<path fillRule="evenodd" transform="scale(1.4)" id="weather-shape" mask="url(#theMask)" fill="url(#gradient)"
 d="M1330.032,346.233 C1321.122,364.156 1305.188,387.675 1314.196,365.265 C1323.205,342.855 1329.990,282.113 1328.605,212.058 C1327.220,142.003 1297.634,87.983 1266.1000,49.000 C1232.591,5.212 1226.403,3.353 1238.1000,1.000 C1273.193,-5.387 1342.877,70.477 1357.395,144.116 C1371.913,217.755 1338.943,328.310 1330.032,346.233 ZM1262.1000,63.000 C1295.503,109.066 1362.234,273.955 1205.1000,317.000 C1049.766,360.045 940.840,197.541 833.1000,219.000 C727.160,240.459 690.161,303.981 668.000,394.000 C660.818,423.173 669.625,358.912 684.1000,312.000 C704.624,252.123 772.458,155.821 899.1000,170.000 C1027.542,184.179 1123.554,273.711 1211.000,201.1000 C1298.446,130.289 1242.644,45.741 1234.1000,34.000 C1227.356,22.259 1239.990,30.388 1262.1000,63.000 ZM521.1000,489.000 C411.433,488.513 434.995,400.032 329.000,376.1000 C214.675,352.158 170.058,548.281 165.000,551.1000 C159.209,556.257 153.031,483.600 186.1000,394.000 C303.433,151.094 420.960,286.128 478.000,401.000 C535.040,515.872 626.000,444.000 626.000,444.000 C627.449,446.232 582.075,489.265 521.1000,489.000 ZM60.000,461.1000 C-19.535,442.043 -5.081,309.733 20.000,232.000 C45.081,154.267 77.577,98.424 62.1000,135.1000 C48.423,173.576 44.056,186.522 37.000,214.000 C26.128,256.338 37.023,350.847 91.000,353.000 C144.977,355.153 231.516,265.218 271.000,193.000 C310.262,121.188 315.287,117.885 280.1000,203.000 C255.766,265.640 139.535,481.957 60.000,461.1000 ZM679.000,467.000 C679.000,467.000 724.882,560.734 808.1000,557.000 C914.383,552.322 1066.509,493.918 1127.1000,637.1000 C1184.463,770.302 1103.429,821.506 1002.000,821.000 C891.797,820.451 803.396,878.697 775.1000,905.1000 C747.157,934.746 699.434,991.689 763.1000,905.1000 C869.382,766.144 1063.213,808.092 1014.1000,681.1000 C962.838,545.582 816.360,644.214 745.1000,578.000 C689.503,524.832 667.173,448.276 679.000,467.000 ZM735.1000,916.1000 C745.707,916.469 740.726,930.020 726.1000,947.1000 C721.275,955.499 705.518,976.984 696.1000,990.1000 C688.482,1005.016 683.932,1008.971 698.000,971.1000 C712.068,935.029 726.293,917.531 735.1000,916.1000 Z"/>

</svg>