<svg width="100%" height="100%"
  xmlns="http://www.w3.org/2000/svg" version="1.1"
  xmlns:xlink="http://www.w3.org/1999/xlink"
  xmlns:svgjs="http://svgjs.dev/svgjs">

  <defs>
    <linearGradient id="field-gradient" x1="0" y1="100%" x2="0" y2="0%" patternUnits="userSpaceOnUse" gradientTransform="scale(2)">
      <stop class="stop1" offset="0%" stop-color="rgb(172, 2, 214)"/>
      <stop class="stop2" offset="100%" stop-color="rgb(255, 23, 178)"/>
    </linearGradient>
    <pattern id="stripe" patternTransform="rotate(45) scale(0.8)" width="10" height="100%" patternUnits="userSpaceOnUse" x="0" y="0">
      <rect x="0" y="0" width="2" height="200%" fill="url(#field-gradient)"></rect>
    </pattern>

    <mask id="SvgjsMask1722">
            <path fillRule="evenodd" transform="scale(0.5)" fill="#ffffff"
    d="M285.1000,116.1000 C256.402,121.166 264.211,98.485 269.000,83.1000 C275.377,64.714 290.868,50.931 293.1000,67.000 C297.132,83.069 315.598,112.834 285.1000,116.1000 ZM140.1000,161.000 C110.805,137.213 89.074,130.577 65.000,126.1000 C37.640,122.935 37.382,82.1000 75.1000,82.1000 C102.097,82.1000 138.278,86.534 151.000,46.1000 C169.852,-11.583 238.574,-9.235 259.1000,22.000 C287.029,61.402 248.432,70.652 247.000,127.1000 C245.301,196.041 180.946,192.469 140.1000,161.000 ZM1.000,107.1000 C2.309,85.998 33.728,89.968 32.000,105.000 C29.947,122.862 -0.309,130.002 1.000,107.1000 Z"/>
    </mask>
    <linearGradient x1="15.28%" y1="139.29%" x2="84.72%" y2="-39.29%" gradientUnits="userSpaceOnUse" id="SvgjsLinearGradient1723">
      <stop stop-color="rgba(136, 10, 255, 1)" offset="0"></stop>
      <stop stop-color="rgba(255, 17, 246, 1)" offset="1"></stop>
    </linearGradient>
    <style>
                @keyframes float1 {
                    0%{transform: translate(0, 0)}
                    50%{transform: translate(-10px, 0)}
                    100%{transform: translate(0, 0)}
                }

                .triangle-float1 {
                    animation: float1 5s infinite;
                }

                @keyframes float2 {
                    0%{transform: translate(0, 0)}
                    50%{transform: translate(-5px, -5px)}
                    100%{transform: translate(0, 0)}
                }

                .triangle-float2 {
                    animation: float2 4s infinite;
                }

                @keyframes float3 {
                    0%{transform: translate(0, 0)}
                    50%{transform: translate(0, -10px)}
                    100%{transform: translate(0, 0)}
                }

                .triangle-float3 {
                    animation: float3 6s infinite;
                }
    </style>
  </defs>

  <path fillRule="evenodd" transform="scale(0.5)" fill="rgba(255, 23, 178, 0.7)" opacity="1"
    d="M285.1000,116.1000 C256.402,121.166 264.211,98.485 269.000,83.1000 C275.377,64.714 290.868,50.931 293.1000,67.000 C297.132,83.069 315.598,112.834 285.1000,116.1000 ZM140.1000,161.000 C110.805,137.213 89.074,130.577 65.000,126.1000 C37.640,122.935 37.382,82.1000 75.1000,82.1000 C102.097,82.1000 138.278,86.534 151.000,46.1000 C169.852,-11.583 238.574,-9.235 259.1000,22.000 C287.029,61.402 248.432,70.652 247.000,127.1000 C245.301,196.041 180.946,192.469 140.1000,161.000 ZM1.000,107.1000 C2.309,85.998 33.728,89.968 32.000,105.000 C29.947,122.862 -0.309,130.002 1.000,107.1000 Z"/>

  <g mask="url(&quot;#SvgjsMask1722&quot;)" fill="none">
        <path d="M80.171,31.671C84.466,31.864,88.924,30.76,91.343,27.206C94.068,23.201,94.688,17.963,92.407,13.69C90,9.181,85.276,6.025,80.171,6.278C75.399,6.515,71.93,10.497,69.869,14.808C68.098,18.512,68.468,22.772,70.608,26.276C72.653,29.624,76.252,31.495,80.171,31.671" fill="rgba(255, 23, 178, 0.8)" class="triangle-float2"></path>
        <path d="M25.509,93.706C28.348,93.591,30.555,91.501,31.93,89.015C33.255,86.62,33.759,83.704,32.337,81.366C30.959,79.101,28.16,78.496,25.509,78.457C22.766,78.417,19.842,78.875,18.324,81.16C16.66,83.664,16.629,86.964,18.123,89.573C19.626,92.197,22.487,93.828,25.509,93.706" fill="rgba(255, 23, 178, 0.8)" class="triangle-float2"></path>
        <path d="M25.329,40.422C32.82,40.163,39.517,35.883,43.123,29.312C46.594,22.986,46.202,15.32,42.504,9.123C38.899,3.082,32.358,-0.205,25.329,-0.506C17.66,-0.834,9.562,1.083,5.404,7.535C0.936,14.468,0.992,23.568,5.266,30.622C9.399,37.445,17.357,40.698,25.329,40.422" fill="rgba(255, 23, 178, 0.8)" class="triangle-float1"></path>
        <path d="M52.645,38.658C57.74,38.603,62.543,36.041,65.038,31.599C67.485,27.242,67.246,21.77,64.459,17.623C61.942,13.878,57.153,12.962,52.645,13.157C48.534,13.335,44.813,15.185,42.482,18.576C39.736,22.57,37.591,27.547,39.78,31.872C42.127,36.509,47.448,38.714,52.645,38.658" fill="rgba(255, 23, 178, 0.8)" class="triangle-float1"></path>
        <path d="M104.58,46.485C112.74,46.876,119,40.051,122.989,32.922C126.867,25.991,128.854,17.44,124.577,10.748C120.524,4.406,112.103,3.884,104.58,4.117C97.585,4.333,90.097,5.852,86.615,11.922C83.145,17.971,85.774,25.107,88.99,31.294C92.577,38.195,96.812,46.113,104.58,46.485" fill="rgba(255, 23, 178, 0.8)" class="triangle-float2"></path>
        <path d="M90.152,29.729C94.705,29.748,98.592,26.726,100.821,22.756C103,18.875,103.29,14.151,101.06,10.299C98.834,6.455,94.594,4.297,90.152,4.33C85.768,4.363,81.703,6.656,79.522,10.459C77.351,14.244,77.526,18.849,79.634,22.669C81.82,26.632,85.626,29.71,90.152,29.729" fill="rgba(255, 23, 178, 0.8)" class="triangle-float3"></path>
        <path d="M40.793,90.383C48.746,90.514,56.826,87.808,60.999,81.037C65.362,73.958,65.289,64.824,60.896,57.764C56.723,51.058,48.685,48.268,40.793,48.565C33.441,48.842,26.932,52.874,23.149,59.184C19.244,65.696,17.974,73.778,21.712,80.387C25.501,87.086,33.098,90.256,40.793,90.383" fill="rgba(255, 23, 178, 0.8)" class="triangle-float2"></path>
        <path d="M61.69,95.575C69.416,96.008,77.145,92.874,81.278,86.332C85.69,79.348,86.438,70.27,82.126,63.224C77.969,56.431,69.654,54.246,61.69,54.321C53.885,54.395,45.608,56.729,41.914,63.605C38.356,70.229,41.613,77.936,45.569,84.33C49.263,90.302,54.679,95.182,61.69,95.575" fill="rgba(255, 23, 178, 0.8)" class="triangle-float1"></path>
        <path d="M112.584,127.86C122.972,127.548,130.435,118.911,135.355,109.757C139.965,101.18,141.99,90.874,136.939,82.549C132.037,74.47,122.033,72.088,112.584,72.225C103.422,72.358,94.406,75.548,89.421,83.236C83.97,91.643,82.698,102.308,87.314,111.2C92.296,120.798,101.775,128.185,112.584,127.86" fill="rgba(255, 23, 178, 0.8)" class="triangle-float1"></path>
        <path d="M7.917,65.997C15.659,66.529,24.415,65.874,28.59,59.333C32.985,52.447,31.32,43.292,26.714,36.545C22.638,30.575,15.143,28.854,7.917,29.055C1.109,29.244,-5.705,31.668,-9.152,37.543C-12.636,43.481,-11.899,50.891,-8.358,56.794C-4.922,62.522,1.253,65.539,7.917,65.997" fill="rgba(255, 23, 178, 0.8)" class="triangle-float1"></path>
        <path d="M87.987,114.319C96.435,113.851,104.403,109.724,108.363,102.247C112.103,95.184,110.017,86.99,106.17,79.985C102.134,72.634,96.369,65.39,87.987,65.139C79.28,64.879,72.427,71.447,67.817,78.838C62.844,86.811,58.637,96.578,63.281,104.747C67.959,112.976,78.536,114.843,87.987,114.319" fill="rgba(255, 23, 178, 0.8)" class="triangle-float2"></path>
        <path d="M76.526,79.259C81.49,79.134,85.785,76.461,88.598,72.368C91.939,67.506,94.905,61.582,92.317,56.281C89.496,50.502,82.954,47.456,76.526,47.64C70.396,47.816,65.057,51.701,62.23,57.144C59.612,62.185,60.269,68.233,63.353,73.003C66.181,77.378,71.318,79.39,76.526,79.259" fill="rgba(255, 23, 178, 0.8)" class="triangle-float1"></path>
        <path d="M87.314,57.232C93.422,57.617,98.874,53.414,101.753,48.013C104.47,42.916,103.673,36.9,100.831,31.872C97.936,26.751,93.195,22.305,87.314,22.469C81.632,22.627,77.521,27.476,75.04,32.59C72.888,37.025,73.518,41.959,75.716,46.372C78.247,51.453,81.649,56.875,87.314,57.232" fill="rgba(255, 23, 178, 0.8)" class="triangle-float2"></path>
        <path d="M72.947,109.79C80.789,110.077,89.341,107.703,92.961,100.741C96.41,94.107,91.981,86.831,88.257,80.347C84.511,73.824,80.469,65.868,72.947,65.895C65.448,65.922,61.324,73.823,57.829,80.458C54.653,86.487,52.194,93.308,55.316,99.365C58.669,105.87,65.634,109.523,72.947,109.79" fill="rgba(255, 23, 178, 0.8)" class="triangle-float3"></path>
        <path d="M101.826,56.187C110.719,56.258,121.339,57.297,125.836,49.625C130.356,41.913,124.47,33.01,119.923,25.314C115.494,17.818,110.53,9.203,101.826,8.99C92.896,8.771,86.607,16.661,82.124,24.388C77.619,32.153,73.743,41.616,78.471,49.247C83.056,56.647,93.121,56.117,101.826,56.187" fill="rgba(255, 23, 178, 0.8)" class="triangle-float3"></path>
        <path d="M-3.907,3.809C-1.231,3.85,1.757,3.348,3.033,0.996C4.274,-1.292,2.801,-3.879,1.482,-6.123C0.189,-8.324,-1.355,-10.737,-3.907,-10.817C-6.553,-10.9,-8.609,-8.782,-9.915,-6.48C-11.201,-4.213,-11.807,-1.46,-10.493,0.79C-9.188,3.025,-6.495,3.77,-3.907,3.809" fill="rgba(255, 23, 178, 0.8)" class="triangle-float1"></path>
        <path d="M63.519,44.216C66.879,44.101,69.719,41.877,71.286,38.902C72.747,36.128,72.362,32.926,70.935,30.135C69.339,27.012,67.025,23.778,63.519,23.705C59.932,23.63,57.287,26.677,55.546,29.814C53.868,32.839,53.098,36.44,54.773,39.466C56.495,42.577,59.965,44.337,63.519,44.216" fill="rgba(255, 23, 178, 0.8)" class="triangle-float3"></path>
        <path d="M17.628,120.929C26.392,120.881,36.196,120.579,40.904,113.187C45.862,105.403,43.671,95.367,38.967,87.427C34.366,79.659,26.652,74.161,17.628,73.892C8.121,73.608,-1.145,77.929,-6.037,86.085C-11.064,94.467,-11.586,105.358,-6.095,113.444C-1.102,120.796,8.741,120.978,17.628,120.929" fill="rgba(255, 23, 178, 0.8)" class="triangle-float1"></path>
    </g>



</svg>




